G04 #@! TF.FileFunction,Soldermask,Bot*
%FSLAX46Y46*%
G04 Gerber Fmt 4.6, Leading zero omitted, Abs format (unit mm)*
G04 Created by KiCad (PCBNEW 4.0.1-stable) date Sunday, February 28, 2016 'AMt' 11:22:30 AM*
%MOMM*%
G01*
G04 APERTURE LIST*
%ADD10C,0.100000*%
%ADD11C,0.010000*%
%ADD12R,1.060000X0.630000*%
%ADD13R,1.060000X0.750000*%
%ADD14R,1.600000X1.150000*%
%ADD15R,1.150000X0.700000*%
%ADD16R,1.275000X1.125000*%
%ADD17R,1.600000X1.300000*%
%ADD18C,1.924000*%
%ADD19R,2.127200X2.127200*%
%ADD20O,2.127200X2.127200*%
%ADD21R,2.432000X2.432000*%
%ADD22O,2.432000X2.432000*%
%ADD23R,2.127200X2.432000*%
%ADD24O,2.127200X2.432000*%
G04 APERTURE END LIST*
D10*
D11*
G36*
X139555436Y-120162271D02*
X139529492Y-120163488D01*
X139504876Y-120165595D01*
X139480432Y-120168681D01*
X139455001Y-120172837D01*
X139437832Y-120176069D01*
X139412483Y-120181313D01*
X139388301Y-120186924D01*
X139364569Y-120193132D01*
X139340571Y-120200164D01*
X139315588Y-120208250D01*
X139288905Y-120217618D01*
X139259804Y-120228498D01*
X139227567Y-120241118D01*
X139203180Y-120250936D01*
X139170800Y-120264238D01*
X139137927Y-120278047D01*
X139104285Y-120292494D01*
X139069596Y-120307708D01*
X139033583Y-120323820D01*
X138995969Y-120340959D01*
X138956476Y-120359255D01*
X138914828Y-120378839D01*
X138870747Y-120399840D01*
X138823956Y-120422389D01*
X138774178Y-120446615D01*
X138721136Y-120472648D01*
X138664552Y-120500619D01*
X138604150Y-120530657D01*
X138564541Y-120550436D01*
X138508510Y-120578404D01*
X138456441Y-120604279D01*
X138408012Y-120628209D01*
X138362898Y-120650343D01*
X138320776Y-120670830D01*
X138281321Y-120689819D01*
X138244210Y-120707457D01*
X138209119Y-120723895D01*
X138175724Y-120739280D01*
X138143701Y-120753762D01*
X138112727Y-120767489D01*
X138082476Y-120780610D01*
X138052626Y-120793274D01*
X138022852Y-120805629D01*
X137992831Y-120817825D01*
X137962239Y-120830009D01*
X137930751Y-120842331D01*
X137918971Y-120846892D01*
X137902521Y-120853261D01*
X137887243Y-120859205D01*
X137873816Y-120864460D01*
X137862915Y-120868759D01*
X137855220Y-120871837D01*
X137851521Y-120873374D01*
X137844547Y-120876501D01*
X137862626Y-120898146D01*
X137891127Y-120929827D01*
X137923908Y-120961893D01*
X137960472Y-120993967D01*
X138000320Y-121025672D01*
X138042956Y-121056630D01*
X138087883Y-121086464D01*
X138134602Y-121114796D01*
X138182616Y-121141249D01*
X138183857Y-121141898D01*
X138246538Y-121172677D01*
X138313125Y-121201709D01*
X138382941Y-121228797D01*
X138455309Y-121253741D01*
X138529552Y-121276345D01*
X138604992Y-121296410D01*
X138680954Y-121313739D01*
X138756758Y-121328134D01*
X138831729Y-121339396D01*
X138878124Y-121344783D01*
X138891878Y-121345864D01*
X138909158Y-121346713D01*
X138929064Y-121347329D01*
X138950696Y-121347713D01*
X138973153Y-121347865D01*
X138995535Y-121347784D01*
X139016942Y-121347470D01*
X139036473Y-121346924D01*
X139053228Y-121346145D01*
X139066307Y-121345133D01*
X139069229Y-121344803D01*
X139117356Y-121337101D01*
X139161722Y-121326442D01*
X139202307Y-121312833D01*
X139239087Y-121296281D01*
X139272044Y-121276793D01*
X139284643Y-121267808D01*
X139312515Y-121244111D01*
X139336293Y-121217997D01*
X139356217Y-121189136D01*
X139372528Y-121157199D01*
X139380725Y-121136296D01*
X139387044Y-121116987D01*
X139391562Y-121099431D01*
X139394522Y-121082095D01*
X139396170Y-121063448D01*
X139396748Y-121041961D01*
X139396752Y-121035593D01*
X139396615Y-120996576D01*
X139412410Y-120994957D01*
X139428205Y-120993339D01*
X139445264Y-121004946D01*
X139462324Y-121016553D01*
X139463029Y-121039534D01*
X139461958Y-121071744D01*
X139457033Y-121105431D01*
X139448555Y-121139588D01*
X139436821Y-121173208D01*
X139422130Y-121205285D01*
X139405343Y-121233962D01*
X139380807Y-121266774D01*
X139352694Y-121296339D01*
X139321016Y-121322649D01*
X139285788Y-121345697D01*
X139247025Y-121365476D01*
X139204740Y-121381978D01*
X139158949Y-121395197D01*
X139109665Y-121405126D01*
X139056902Y-121411756D01*
X139050835Y-121412288D01*
X139031649Y-121413440D01*
X139008734Y-121414063D01*
X138983167Y-121414181D01*
X138956026Y-121413821D01*
X138928387Y-121413010D01*
X138901328Y-121411773D01*
X138875926Y-121410135D01*
X138853258Y-121408124D01*
X138846304Y-121407353D01*
X138769242Y-121396672D01*
X138691100Y-121382752D01*
X138612641Y-121365807D01*
X138534628Y-121346049D01*
X138457821Y-121323691D01*
X138382982Y-121298945D01*
X138310874Y-121272024D01*
X138242258Y-121243141D01*
X138217481Y-121231800D01*
X138157591Y-121202174D01*
X138100110Y-121170605D01*
X138045356Y-121137323D01*
X137993645Y-121102560D01*
X137945292Y-121066548D01*
X137900615Y-121029519D01*
X137859929Y-120991703D01*
X137823551Y-120953332D01*
X137801833Y-120927539D01*
X137791671Y-120915158D01*
X137784019Y-120906607D01*
X137778692Y-120901697D01*
X137775507Y-120900240D01*
X137775270Y-120900285D01*
X137765275Y-120902780D01*
X137751254Y-120905610D01*
X137733997Y-120908661D01*
X137714295Y-120911818D01*
X137692938Y-120914969D01*
X137670717Y-120917997D01*
X137648424Y-120920789D01*
X137626848Y-120923231D01*
X137606780Y-120925208D01*
X137597238Y-120926012D01*
X137576489Y-120927203D01*
X137553508Y-120927670D01*
X137527991Y-120927395D01*
X137499634Y-120926358D01*
X137468131Y-120924543D01*
X137433177Y-120921929D01*
X137394469Y-120918500D01*
X137351700Y-120914236D01*
X137304567Y-120909119D01*
X137290019Y-120907471D01*
X137222865Y-120899370D01*
X137151268Y-120889916D01*
X137075417Y-120879144D01*
X136995503Y-120867088D01*
X136911717Y-120853784D01*
X136824250Y-120839265D01*
X136733292Y-120823566D01*
X136639034Y-120806722D01*
X136541667Y-120788769D01*
X136441381Y-120769740D01*
X136338368Y-120749670D01*
X136232817Y-120728594D01*
X136124920Y-120706547D01*
X136014867Y-120683564D01*
X135902848Y-120659679D01*
X135789055Y-120634926D01*
X135769648Y-120630657D01*
X135748025Y-120625927D01*
X135727407Y-120621482D01*
X135708376Y-120617445D01*
X135691516Y-120613935D01*
X135677411Y-120611074D01*
X135666644Y-120608982D01*
X135659798Y-120607780D01*
X135658371Y-120607585D01*
X135639597Y-120607642D01*
X135619733Y-120611479D01*
X135600026Y-120618639D01*
X135581721Y-120628666D01*
X135566065Y-120641103D01*
X135565576Y-120641581D01*
X135558199Y-120650057D01*
X135549131Y-120662486D01*
X135538630Y-120678394D01*
X135526956Y-120697306D01*
X135514369Y-120718748D01*
X135501129Y-120742247D01*
X135487496Y-120767328D01*
X135473728Y-120793518D01*
X135460087Y-120820341D01*
X135446831Y-120847324D01*
X135434220Y-120873993D01*
X135422515Y-120899874D01*
X135416528Y-120913666D01*
X135397685Y-120960939D01*
X135382683Y-121005460D01*
X135371527Y-121047204D01*
X135364221Y-121086151D01*
X135360766Y-121122277D01*
X135361167Y-121155560D01*
X135365426Y-121185977D01*
X135373078Y-121212272D01*
X135379648Y-121226166D01*
X135388949Y-121241192D01*
X135399782Y-121255659D01*
X135410950Y-121267874D01*
X135415053Y-121271590D01*
X135425606Y-121279757D01*
X135437001Y-121286968D01*
X135449613Y-121293298D01*
X135463815Y-121298822D01*
X135479979Y-121303616D01*
X135498479Y-121307756D01*
X135519687Y-121311316D01*
X135543978Y-121314373D01*
X135571723Y-121317002D01*
X135603297Y-121319278D01*
X135639072Y-121321277D01*
X135666838Y-121322554D01*
X135680395Y-121323088D01*
X135698106Y-121323715D01*
X135719286Y-121324415D01*
X135743253Y-121325168D01*
X135769323Y-121325951D01*
X135796812Y-121326745D01*
X135825038Y-121327528D01*
X135853316Y-121328281D01*
X135867619Y-121328648D01*
X135940281Y-121330565D01*
X136008516Y-121332528D01*
X136072734Y-121334558D01*
X136133348Y-121336674D01*
X136190767Y-121338897D01*
X136245403Y-121341247D01*
X136297667Y-121343745D01*
X136347969Y-121346410D01*
X136396721Y-121349262D01*
X136444333Y-121352322D01*
X136491217Y-121355611D01*
X136537783Y-121359147D01*
X136584443Y-121362952D01*
X136609057Y-121365059D01*
X136713566Y-121374875D01*
X136814029Y-121385858D01*
X136911127Y-121398149D01*
X137005540Y-121411888D01*
X137097947Y-121427215D01*
X137189028Y-121444270D01*
X137279464Y-121463195D01*
X137369934Y-121484128D01*
X137461118Y-121507210D01*
X137553697Y-121532582D01*
X137648349Y-121560384D01*
X137745755Y-121590757D01*
X137819790Y-121614897D01*
X137858637Y-121627856D01*
X137894588Y-121640038D01*
X137928035Y-121651626D01*
X137959370Y-121662802D01*
X137988986Y-121673748D01*
X138017274Y-121684647D01*
X138044626Y-121695682D01*
X138071435Y-121707035D01*
X138098092Y-121718888D01*
X138124989Y-121731425D01*
X138152519Y-121744827D01*
X138181073Y-121759277D01*
X138211044Y-121774959D01*
X138242824Y-121792053D01*
X138276804Y-121810743D01*
X138313376Y-121831212D01*
X138352934Y-121853641D01*
X138395868Y-121878213D01*
X138440276Y-121903788D01*
X138474694Y-121923624D01*
X138505393Y-121941252D01*
X138532825Y-121956919D01*
X138557438Y-121970873D01*
X138579682Y-121983363D01*
X138600007Y-121994636D01*
X138618864Y-122004941D01*
X138636701Y-122014525D01*
X138653969Y-122023636D01*
X138671118Y-122032523D01*
X138688596Y-122041433D01*
X138703952Y-122049162D01*
X138748741Y-122071051D01*
X138790424Y-122090225D01*
X138829718Y-122106930D01*
X138867342Y-122121415D01*
X138904014Y-122133927D01*
X138940450Y-122144716D01*
X138977371Y-122154028D01*
X139015492Y-122162111D01*
X139048045Y-122167979D01*
X139088692Y-122174412D01*
X139126122Y-122179468D01*
X139161722Y-122183258D01*
X139196880Y-122185896D01*
X139232980Y-122187492D01*
X139271411Y-122188158D01*
X139297829Y-122188149D01*
X139316061Y-122188012D01*
X139333234Y-122187835D01*
X139348598Y-122187630D01*
X139361402Y-122187407D01*
X139370898Y-122187178D01*
X139376333Y-122186955D01*
X139376448Y-122186947D01*
X139438879Y-122180765D01*
X139500463Y-122171409D01*
X139560610Y-122159029D01*
X139618736Y-122143776D01*
X139674253Y-122125800D01*
X139726574Y-122105253D01*
X139766114Y-122086875D01*
X139824972Y-122054716D01*
X139882316Y-122018002D01*
X139938094Y-121976788D01*
X139992253Y-121931130D01*
X140044741Y-121881086D01*
X140095506Y-121826710D01*
X140144496Y-121768060D01*
X140191658Y-121705192D01*
X140236940Y-121638161D01*
X140280290Y-121567024D01*
X140321656Y-121491837D01*
X140324623Y-121486140D01*
X140349999Y-121434703D01*
X140373666Y-121381393D01*
X140395868Y-121325569D01*
X140416853Y-121266594D01*
X140436866Y-121203827D01*
X140448182Y-121165234D01*
X140453370Y-121147002D01*
X140621876Y-121079030D01*
X140648946Y-121068076D01*
X140674671Y-121057600D01*
X140698703Y-121047746D01*
X140720696Y-121038662D01*
X140740301Y-121030491D01*
X140757173Y-121023380D01*
X140770962Y-121017474D01*
X140781324Y-121012918D01*
X140787909Y-121009859D01*
X140790372Y-121008441D01*
X140790381Y-121008409D01*
X140788615Y-121006437D01*
X140783493Y-121001490D01*
X140775276Y-120993808D01*
X140764225Y-120983629D01*
X140750604Y-120971189D01*
X140734673Y-120956728D01*
X140716695Y-120940482D01*
X140696931Y-120922690D01*
X140675643Y-120903590D01*
X140653094Y-120883419D01*
X140635562Y-120867777D01*
X140480743Y-120729794D01*
X140470884Y-120702558D01*
X140451454Y-120654507D01*
X140428656Y-120608631D01*
X140402210Y-120564513D01*
X140371838Y-120521736D01*
X140337261Y-120479883D01*
X140298199Y-120438536D01*
X140286961Y-120427515D01*
X140240802Y-120386250D01*
X140191025Y-120348069D01*
X140137811Y-120313064D01*
X140081341Y-120281324D01*
X140021797Y-120252941D01*
X139959361Y-120228004D01*
X139894215Y-120206605D01*
X139826540Y-120188835D01*
X139794943Y-120181972D01*
X139764499Y-120176050D01*
X139737261Y-120171407D01*
X139711814Y-120167888D01*
X139686744Y-120165335D01*
X139660636Y-120163592D01*
X139632075Y-120162501D01*
X139615933Y-120162143D01*
X139583864Y-120161853D01*
X139555436Y-120162271D01*
X139555436Y-120162271D01*
G37*
X139555436Y-120162271D02*
X139529492Y-120163488D01*
X139504876Y-120165595D01*
X139480432Y-120168681D01*
X139455001Y-120172837D01*
X139437832Y-120176069D01*
X139412483Y-120181313D01*
X139388301Y-120186924D01*
X139364569Y-120193132D01*
X139340571Y-120200164D01*
X139315588Y-120208250D01*
X139288905Y-120217618D01*
X139259804Y-120228498D01*
X139227567Y-120241118D01*
X139203180Y-120250936D01*
X139170800Y-120264238D01*
X139137927Y-120278047D01*
X139104285Y-120292494D01*
X139069596Y-120307708D01*
X139033583Y-120323820D01*
X138995969Y-120340959D01*
X138956476Y-120359255D01*
X138914828Y-120378839D01*
X138870747Y-120399840D01*
X138823956Y-120422389D01*
X138774178Y-120446615D01*
X138721136Y-120472648D01*
X138664552Y-120500619D01*
X138604150Y-120530657D01*
X138564541Y-120550436D01*
X138508510Y-120578404D01*
X138456441Y-120604279D01*
X138408012Y-120628209D01*
X138362898Y-120650343D01*
X138320776Y-120670830D01*
X138281321Y-120689819D01*
X138244210Y-120707457D01*
X138209119Y-120723895D01*
X138175724Y-120739280D01*
X138143701Y-120753762D01*
X138112727Y-120767489D01*
X138082476Y-120780610D01*
X138052626Y-120793274D01*
X138022852Y-120805629D01*
X137992831Y-120817825D01*
X137962239Y-120830009D01*
X137930751Y-120842331D01*
X137918971Y-120846892D01*
X137902521Y-120853261D01*
X137887243Y-120859205D01*
X137873816Y-120864460D01*
X137862915Y-120868759D01*
X137855220Y-120871837D01*
X137851521Y-120873374D01*
X137844547Y-120876501D01*
X137862626Y-120898146D01*
X137891127Y-120929827D01*
X137923908Y-120961893D01*
X137960472Y-120993967D01*
X138000320Y-121025672D01*
X138042956Y-121056630D01*
X138087883Y-121086464D01*
X138134602Y-121114796D01*
X138182616Y-121141249D01*
X138183857Y-121141898D01*
X138246538Y-121172677D01*
X138313125Y-121201709D01*
X138382941Y-121228797D01*
X138455309Y-121253741D01*
X138529552Y-121276345D01*
X138604992Y-121296410D01*
X138680954Y-121313739D01*
X138756758Y-121328134D01*
X138831729Y-121339396D01*
X138878124Y-121344783D01*
X138891878Y-121345864D01*
X138909158Y-121346713D01*
X138929064Y-121347329D01*
X138950696Y-121347713D01*
X138973153Y-121347865D01*
X138995535Y-121347784D01*
X139016942Y-121347470D01*
X139036473Y-121346924D01*
X139053228Y-121346145D01*
X139066307Y-121345133D01*
X139069229Y-121344803D01*
X139117356Y-121337101D01*
X139161722Y-121326442D01*
X139202307Y-121312833D01*
X139239087Y-121296281D01*
X139272044Y-121276793D01*
X139284643Y-121267808D01*
X139312515Y-121244111D01*
X139336293Y-121217997D01*
X139356217Y-121189136D01*
X139372528Y-121157199D01*
X139380725Y-121136296D01*
X139387044Y-121116987D01*
X139391562Y-121099431D01*
X139394522Y-121082095D01*
X139396170Y-121063448D01*
X139396748Y-121041961D01*
X139396752Y-121035593D01*
X139396615Y-120996576D01*
X139412410Y-120994957D01*
X139428205Y-120993339D01*
X139445264Y-121004946D01*
X139462324Y-121016553D01*
X139463029Y-121039534D01*
X139461958Y-121071744D01*
X139457033Y-121105431D01*
X139448555Y-121139588D01*
X139436821Y-121173208D01*
X139422130Y-121205285D01*
X139405343Y-121233962D01*
X139380807Y-121266774D01*
X139352694Y-121296339D01*
X139321016Y-121322649D01*
X139285788Y-121345697D01*
X139247025Y-121365476D01*
X139204740Y-121381978D01*
X139158949Y-121395197D01*
X139109665Y-121405126D01*
X139056902Y-121411756D01*
X139050835Y-121412288D01*
X139031649Y-121413440D01*
X139008734Y-121414063D01*
X138983167Y-121414181D01*
X138956026Y-121413821D01*
X138928387Y-121413010D01*
X138901328Y-121411773D01*
X138875926Y-121410135D01*
X138853258Y-121408124D01*
X138846304Y-121407353D01*
X138769242Y-121396672D01*
X138691100Y-121382752D01*
X138612641Y-121365807D01*
X138534628Y-121346049D01*
X138457821Y-121323691D01*
X138382982Y-121298945D01*
X138310874Y-121272024D01*
X138242258Y-121243141D01*
X138217481Y-121231800D01*
X138157591Y-121202174D01*
X138100110Y-121170605D01*
X138045356Y-121137323D01*
X137993645Y-121102560D01*
X137945292Y-121066548D01*
X137900615Y-121029519D01*
X137859929Y-120991703D01*
X137823551Y-120953332D01*
X137801833Y-120927539D01*
X137791671Y-120915158D01*
X137784019Y-120906607D01*
X137778692Y-120901697D01*
X137775507Y-120900240D01*
X137775270Y-120900285D01*
X137765275Y-120902780D01*
X137751254Y-120905610D01*
X137733997Y-120908661D01*
X137714295Y-120911818D01*
X137692938Y-120914969D01*
X137670717Y-120917997D01*
X137648424Y-120920789D01*
X137626848Y-120923231D01*
X137606780Y-120925208D01*
X137597238Y-120926012D01*
X137576489Y-120927203D01*
X137553508Y-120927670D01*
X137527991Y-120927395D01*
X137499634Y-120926358D01*
X137468131Y-120924543D01*
X137433177Y-120921929D01*
X137394469Y-120918500D01*
X137351700Y-120914236D01*
X137304567Y-120909119D01*
X137290019Y-120907471D01*
X137222865Y-120899370D01*
X137151268Y-120889916D01*
X137075417Y-120879144D01*
X136995503Y-120867088D01*
X136911717Y-120853784D01*
X136824250Y-120839265D01*
X136733292Y-120823566D01*
X136639034Y-120806722D01*
X136541667Y-120788769D01*
X136441381Y-120769740D01*
X136338368Y-120749670D01*
X136232817Y-120728594D01*
X136124920Y-120706547D01*
X136014867Y-120683564D01*
X135902848Y-120659679D01*
X135789055Y-120634926D01*
X135769648Y-120630657D01*
X135748025Y-120625927D01*
X135727407Y-120621482D01*
X135708376Y-120617445D01*
X135691516Y-120613935D01*
X135677411Y-120611074D01*
X135666644Y-120608982D01*
X135659798Y-120607780D01*
X135658371Y-120607585D01*
X135639597Y-120607642D01*
X135619733Y-120611479D01*
X135600026Y-120618639D01*
X135581721Y-120628666D01*
X135566065Y-120641103D01*
X135565576Y-120641581D01*
X135558199Y-120650057D01*
X135549131Y-120662486D01*
X135538630Y-120678394D01*
X135526956Y-120697306D01*
X135514369Y-120718748D01*
X135501129Y-120742247D01*
X135487496Y-120767328D01*
X135473728Y-120793518D01*
X135460087Y-120820341D01*
X135446831Y-120847324D01*
X135434220Y-120873993D01*
X135422515Y-120899874D01*
X135416528Y-120913666D01*
X135397685Y-120960939D01*
X135382683Y-121005460D01*
X135371527Y-121047204D01*
X135364221Y-121086151D01*
X135360766Y-121122277D01*
X135361167Y-121155560D01*
X135365426Y-121185977D01*
X135373078Y-121212272D01*
X135379648Y-121226166D01*
X135388949Y-121241192D01*
X135399782Y-121255659D01*
X135410950Y-121267874D01*
X135415053Y-121271590D01*
X135425606Y-121279757D01*
X135437001Y-121286968D01*
X135449613Y-121293298D01*
X135463815Y-121298822D01*
X135479979Y-121303616D01*
X135498479Y-121307756D01*
X135519687Y-121311316D01*
X135543978Y-121314373D01*
X135571723Y-121317002D01*
X135603297Y-121319278D01*
X135639072Y-121321277D01*
X135666838Y-121322554D01*
X135680395Y-121323088D01*
X135698106Y-121323715D01*
X135719286Y-121324415D01*
X135743253Y-121325168D01*
X135769323Y-121325951D01*
X135796812Y-121326745D01*
X135825038Y-121327528D01*
X135853316Y-121328281D01*
X135867619Y-121328648D01*
X135940281Y-121330565D01*
X136008516Y-121332528D01*
X136072734Y-121334558D01*
X136133348Y-121336674D01*
X136190767Y-121338897D01*
X136245403Y-121341247D01*
X136297667Y-121343745D01*
X136347969Y-121346410D01*
X136396721Y-121349262D01*
X136444333Y-121352322D01*
X136491217Y-121355611D01*
X136537783Y-121359147D01*
X136584443Y-121362952D01*
X136609057Y-121365059D01*
X136713566Y-121374875D01*
X136814029Y-121385858D01*
X136911127Y-121398149D01*
X137005540Y-121411888D01*
X137097947Y-121427215D01*
X137189028Y-121444270D01*
X137279464Y-121463195D01*
X137369934Y-121484128D01*
X137461118Y-121507210D01*
X137553697Y-121532582D01*
X137648349Y-121560384D01*
X137745755Y-121590757D01*
X137819790Y-121614897D01*
X137858637Y-121627856D01*
X137894588Y-121640038D01*
X137928035Y-121651626D01*
X137959370Y-121662802D01*
X137988986Y-121673748D01*
X138017274Y-121684647D01*
X138044626Y-121695682D01*
X138071435Y-121707035D01*
X138098092Y-121718888D01*
X138124989Y-121731425D01*
X138152519Y-121744827D01*
X138181073Y-121759277D01*
X138211044Y-121774959D01*
X138242824Y-121792053D01*
X138276804Y-121810743D01*
X138313376Y-121831212D01*
X138352934Y-121853641D01*
X138395868Y-121878213D01*
X138440276Y-121903788D01*
X138474694Y-121923624D01*
X138505393Y-121941252D01*
X138532825Y-121956919D01*
X138557438Y-121970873D01*
X138579682Y-121983363D01*
X138600007Y-121994636D01*
X138618864Y-122004941D01*
X138636701Y-122014525D01*
X138653969Y-122023636D01*
X138671118Y-122032523D01*
X138688596Y-122041433D01*
X138703952Y-122049162D01*
X138748741Y-122071051D01*
X138790424Y-122090225D01*
X138829718Y-122106930D01*
X138867342Y-122121415D01*
X138904014Y-122133927D01*
X138940450Y-122144716D01*
X138977371Y-122154028D01*
X139015492Y-122162111D01*
X139048045Y-122167979D01*
X139088692Y-122174412D01*
X139126122Y-122179468D01*
X139161722Y-122183258D01*
X139196880Y-122185896D01*
X139232980Y-122187492D01*
X139271411Y-122188158D01*
X139297829Y-122188149D01*
X139316061Y-122188012D01*
X139333234Y-122187835D01*
X139348598Y-122187630D01*
X139361402Y-122187407D01*
X139370898Y-122187178D01*
X139376333Y-122186955D01*
X139376448Y-122186947D01*
X139438879Y-122180765D01*
X139500463Y-122171409D01*
X139560610Y-122159029D01*
X139618736Y-122143776D01*
X139674253Y-122125800D01*
X139726574Y-122105253D01*
X139766114Y-122086875D01*
X139824972Y-122054716D01*
X139882316Y-122018002D01*
X139938094Y-121976788D01*
X139992253Y-121931130D01*
X140044741Y-121881086D01*
X140095506Y-121826710D01*
X140144496Y-121768060D01*
X140191658Y-121705192D01*
X140236940Y-121638161D01*
X140280290Y-121567024D01*
X140321656Y-121491837D01*
X140324623Y-121486140D01*
X140349999Y-121434703D01*
X140373666Y-121381393D01*
X140395868Y-121325569D01*
X140416853Y-121266594D01*
X140436866Y-121203827D01*
X140448182Y-121165234D01*
X140453370Y-121147002D01*
X140621876Y-121079030D01*
X140648946Y-121068076D01*
X140674671Y-121057600D01*
X140698703Y-121047746D01*
X140720696Y-121038662D01*
X140740301Y-121030491D01*
X140757173Y-121023380D01*
X140770962Y-121017474D01*
X140781324Y-121012918D01*
X140787909Y-121009859D01*
X140790372Y-121008441D01*
X140790381Y-121008409D01*
X140788615Y-121006437D01*
X140783493Y-121001490D01*
X140775276Y-120993808D01*
X140764225Y-120983629D01*
X140750604Y-120971189D01*
X140734673Y-120956728D01*
X140716695Y-120940482D01*
X140696931Y-120922690D01*
X140675643Y-120903590D01*
X140653094Y-120883419D01*
X140635562Y-120867777D01*
X140480743Y-120729794D01*
X140470884Y-120702558D01*
X140451454Y-120654507D01*
X140428656Y-120608631D01*
X140402210Y-120564513D01*
X140371838Y-120521736D01*
X140337261Y-120479883D01*
X140298199Y-120438536D01*
X140286961Y-120427515D01*
X140240802Y-120386250D01*
X140191025Y-120348069D01*
X140137811Y-120313064D01*
X140081341Y-120281324D01*
X140021797Y-120252941D01*
X139959361Y-120228004D01*
X139894215Y-120206605D01*
X139826540Y-120188835D01*
X139794943Y-120181972D01*
X139764499Y-120176050D01*
X139737261Y-120171407D01*
X139711814Y-120167888D01*
X139686744Y-120165335D01*
X139660636Y-120163592D01*
X139632075Y-120162501D01*
X139615933Y-120162143D01*
X139583864Y-120161853D01*
X139555436Y-120162271D01*
D12*
X161005000Y-115800000D03*
X158295000Y-115800000D03*
X161005000Y-100200000D03*
X158295000Y-100200000D03*
X161005000Y-115400000D03*
X161005000Y-115000000D03*
X161005000Y-114600000D03*
X161005000Y-114200000D03*
X161005000Y-113800000D03*
X161005000Y-113400000D03*
X161005000Y-113000000D03*
X161005000Y-112600000D03*
X161005000Y-112200000D03*
X161005000Y-111800000D03*
X161005000Y-111400000D03*
X161005000Y-111000000D03*
X161005000Y-110600000D03*
X161005000Y-110200000D03*
X161005000Y-109800000D03*
X161005000Y-109400000D03*
X161005000Y-109000000D03*
X161005000Y-108600000D03*
X161005000Y-108200000D03*
X161005000Y-107800000D03*
X161005000Y-107400000D03*
X161005000Y-107000000D03*
X161005000Y-106600000D03*
X161005000Y-106200000D03*
X161005000Y-105800000D03*
X161005000Y-105400000D03*
X161005000Y-105000000D03*
X161005000Y-104600000D03*
X161005000Y-104200000D03*
X161005000Y-103800000D03*
X161005000Y-103400000D03*
X161005000Y-103000000D03*
X161005000Y-102600000D03*
X161005000Y-102200000D03*
X161005000Y-101800000D03*
X161005000Y-101400000D03*
X161005000Y-101000000D03*
X161005000Y-100600000D03*
D13*
X161005000Y-99725000D03*
X158295000Y-99725000D03*
X161005000Y-116275000D03*
X158295000Y-116275000D03*
D12*
X158295000Y-100600000D03*
X158295000Y-101000000D03*
X158295000Y-101400000D03*
X158295000Y-101800000D03*
X158295000Y-102200000D03*
X158295000Y-102600000D03*
X158295000Y-103000000D03*
X158295000Y-103400000D03*
X158295000Y-103800000D03*
X158295000Y-104200000D03*
X158295000Y-104600000D03*
X158295000Y-105000000D03*
X158295000Y-105400000D03*
X158295000Y-105800000D03*
X158295000Y-106200000D03*
X158295000Y-106600000D03*
X158295000Y-107000000D03*
X158295000Y-107400000D03*
X158295000Y-107800000D03*
X158295000Y-108200000D03*
X158295000Y-108600000D03*
X158295000Y-109000000D03*
X158295000Y-109400000D03*
X158295000Y-109800000D03*
X158295000Y-110200000D03*
X158295000Y-110600000D03*
X158295000Y-111000000D03*
X158295000Y-111400000D03*
X158295000Y-111800000D03*
X158295000Y-112200000D03*
X158295000Y-112600000D03*
X158295000Y-113000000D03*
X158295000Y-113400000D03*
X158295000Y-113800000D03*
X158295000Y-114200000D03*
X158295000Y-114600000D03*
X158295000Y-115000000D03*
X158295000Y-115400000D03*
D14*
X156250000Y-95900000D03*
X158150000Y-95900000D03*
D15*
X158712500Y-92862500D03*
X158712500Y-93362500D03*
X158712500Y-93862500D03*
X158712500Y-94362500D03*
X155812500Y-94362500D03*
X155812500Y-93862500D03*
X155812500Y-93362500D03*
X155812500Y-92862500D03*
D16*
X156825000Y-93975000D03*
X156825000Y-93250000D03*
X157700000Y-93975000D03*
X157700000Y-93250000D03*
D17*
X156550000Y-91200000D03*
X154350000Y-91200000D03*
D18*
X158550000Y-91250000D03*
D19*
X148360000Y-98440000D03*
D20*
X150900000Y-98440000D03*
X148360000Y-100980000D03*
X150900000Y-100980000D03*
X148360000Y-103520000D03*
X150900000Y-103520000D03*
X148360000Y-106060000D03*
X150900000Y-106060000D03*
X148360000Y-108600000D03*
X150900000Y-108600000D03*
X148360000Y-111140000D03*
X150900000Y-111140000D03*
D21*
X140375000Y-92085000D03*
D22*
X140375000Y-94625000D03*
D23*
X142800000Y-121000000D03*
D24*
X145340000Y-121000000D03*
X147880000Y-121000000D03*
X150420000Y-121000000D03*
M02*
