G04 #@! TF.FileFunction,Copper,L2,Bot,Signal*
%FSLAX46Y46*%
G04 Gerber Fmt 4.6, Leading zero omitted, Abs format (unit mm)*
G04 Created by KiCad (PCBNEW 4.0.1-stable) date Friday, February 05, 2016 'PMt' 12:52:55 PM*
%MOMM*%
G01*
G04 APERTURE LIST*
%ADD10C,0.100000*%
%ADD11C,0.010000*%
%ADD12R,0.660000X0.230000*%
%ADD13R,0.660000X0.350000*%
%ADD14R,1.200000X0.750000*%
%ADD15R,0.750000X0.300000*%
%ADD16R,0.875000X0.725000*%
%ADD17R,1.200000X0.900000*%
%ADD18C,1.524000*%
%ADD19R,1.727200X1.727200*%
%ADD20O,1.727200X1.727200*%
%ADD21R,2.032000X2.032000*%
%ADD22O,2.032000X2.032000*%
%ADD23R,1.727200X2.032000*%
%ADD24O,1.727200X2.032000*%
%ADD25C,0.685800*%
%ADD26C,0.685801*%
%ADD27C,0.152400*%
G04 APERTURE END LIST*
D10*
D11*
G36*
X139577110Y-120218476D02*
X139555393Y-120218821D01*
X139536445Y-120219540D01*
X139519235Y-120220719D01*
X139502730Y-120222441D01*
X139485899Y-120224790D01*
X139467708Y-120227850D01*
X139452648Y-120230645D01*
X139412289Y-120239396D01*
X139370394Y-120250414D01*
X139328941Y-120263125D01*
X139289907Y-120276957D01*
X139282105Y-120279990D01*
X139252497Y-120291780D01*
X139223440Y-120303531D01*
X139194668Y-120315368D01*
X139165917Y-120327414D01*
X139136919Y-120339793D01*
X139107409Y-120352628D01*
X139077121Y-120366043D01*
X139045790Y-120380162D01*
X139013149Y-120395109D01*
X138978933Y-120411008D01*
X138942876Y-120427981D01*
X138904712Y-120446153D01*
X138864176Y-120465648D01*
X138821001Y-120486589D01*
X138774922Y-120509100D01*
X138725673Y-120533305D01*
X138672987Y-120559327D01*
X138616601Y-120587290D01*
X138556246Y-120617318D01*
X138540667Y-120625083D01*
X138488659Y-120650963D01*
X138440600Y-120674774D01*
X138396145Y-120696675D01*
X138354950Y-120716825D01*
X138316669Y-120735383D01*
X138280957Y-120752509D01*
X138247469Y-120768361D01*
X138215860Y-120783099D01*
X138185786Y-120796882D01*
X138156901Y-120809869D01*
X138128860Y-120822221D01*
X138101318Y-120834095D01*
X138073931Y-120845651D01*
X138046352Y-120857048D01*
X138018239Y-120868446D01*
X137989244Y-120880004D01*
X137983216Y-120882386D01*
X137965759Y-120889341D01*
X137949798Y-120895833D01*
X137935879Y-120901627D01*
X137924550Y-120906492D01*
X137916355Y-120910195D01*
X137911842Y-120912503D01*
X137911131Y-120913075D01*
X137912437Y-120915832D01*
X137916820Y-120921251D01*
X137923730Y-120928795D01*
X137932615Y-120937924D01*
X137942925Y-120948099D01*
X137954110Y-120958782D01*
X137965620Y-120969433D01*
X137976904Y-120979515D01*
X137987412Y-120988487D01*
X137991796Y-120992062D01*
X138042789Y-121030188D01*
X138098145Y-121066379D01*
X138157775Y-121100598D01*
X138221594Y-121132810D01*
X138289513Y-121162978D01*
X138361445Y-121191066D01*
X138437304Y-121217040D01*
X138517002Y-121240862D01*
X138600451Y-121262496D01*
X138687565Y-121281907D01*
X138701533Y-121284744D01*
X138761331Y-121295927D01*
X138817312Y-121304711D01*
X138869846Y-121311122D01*
X138919302Y-121315187D01*
X138966050Y-121316931D01*
X139010458Y-121316382D01*
X139052897Y-121313567D01*
X139072625Y-121311425D01*
X139117521Y-121304163D01*
X139158907Y-121293835D01*
X139196726Y-121280475D01*
X139230921Y-121264116D01*
X139261435Y-121244792D01*
X139288212Y-121222535D01*
X139311195Y-121197379D01*
X139330327Y-121169357D01*
X139337480Y-121156186D01*
X139346131Y-121137070D01*
X139353130Y-121116992D01*
X139358742Y-121094947D01*
X139363230Y-121069928D01*
X139366222Y-121046810D01*
X139367983Y-121031104D01*
X139415153Y-121026992D01*
X139429896Y-121025714D01*
X139443084Y-121024583D01*
X139453921Y-121023667D01*
X139461612Y-121023033D01*
X139465361Y-121022747D01*
X139465490Y-121022741D01*
X139467531Y-121021313D01*
X139467227Y-121020286D01*
X139468472Y-121019251D01*
X139473086Y-121018987D01*
X139479679Y-121019379D01*
X139486863Y-121020312D01*
X139493249Y-121021672D01*
X139496190Y-121022675D01*
X139499967Y-121023715D01*
X139507720Y-121025402D01*
X139518655Y-121027577D01*
X139531978Y-121030085D01*
X139546893Y-121032768D01*
X139550619Y-121033420D01*
X139606495Y-121042682D01*
X139659580Y-121050481D01*
X139711618Y-121057048D01*
X139764348Y-121062618D01*
X139780429Y-121064116D01*
X139795809Y-121065209D01*
X139814464Y-121066055D01*
X139835467Y-121066653D01*
X139857891Y-121067003D01*
X139880808Y-121067105D01*
X139903294Y-121066958D01*
X139924419Y-121066562D01*
X139943259Y-121065917D01*
X139958886Y-121065022D01*
X139967905Y-121064190D01*
X140017844Y-121057570D01*
X140066432Y-121049418D01*
X140114954Y-121039468D01*
X140164696Y-121027450D01*
X140216945Y-121013096D01*
X140227555Y-121009996D01*
X140243052Y-121005341D01*
X140254471Y-121001674D01*
X140262414Y-120998756D01*
X140267486Y-120996346D01*
X140270286Y-120994204D01*
X140271278Y-120992578D01*
X140271934Y-120989072D01*
X140273011Y-120981328D01*
X140274443Y-120969920D01*
X140276159Y-120955422D01*
X140278094Y-120938409D01*
X140280177Y-120919456D01*
X140282296Y-120899582D01*
X140284759Y-120875806D01*
X140286684Y-120856429D01*
X140288099Y-120841043D01*
X140289032Y-120829244D01*
X140289511Y-120820623D01*
X140289564Y-120814776D01*
X140289217Y-120811294D01*
X140288500Y-120809773D01*
X140288435Y-120809728D01*
X140284181Y-120808159D01*
X140277429Y-120806623D01*
X140275395Y-120806280D01*
X140267683Y-120804889D01*
X140255991Y-120802518D01*
X140241039Y-120799332D01*
X140223549Y-120795495D01*
X140204240Y-120791171D01*
X140183835Y-120786523D01*
X140163054Y-120781716D01*
X140142617Y-120776914D01*
X140123246Y-120772280D01*
X140105661Y-120767979D01*
X140092486Y-120764664D01*
X140022112Y-120745903D01*
X139956290Y-120726815D01*
X139894740Y-120707305D01*
X139837181Y-120687280D01*
X139783334Y-120666646D01*
X139732918Y-120645309D01*
X139724790Y-120641661D01*
X139676328Y-120618036D01*
X139626977Y-120590787D01*
X139577917Y-120560663D01*
X139530327Y-120528417D01*
X139485384Y-120494797D01*
X139455067Y-120469939D01*
X139442955Y-120459405D01*
X139430384Y-120448151D01*
X139417845Y-120436653D01*
X139405830Y-120425384D01*
X139394829Y-120414818D01*
X139385335Y-120405429D01*
X139377839Y-120397691D01*
X139372832Y-120392077D01*
X139370806Y-120389062D01*
X139370849Y-120388738D01*
X139374390Y-120386991D01*
X139381909Y-120384332D01*
X139392679Y-120380973D01*
X139405975Y-120377129D01*
X139421069Y-120373015D01*
X139437235Y-120368845D01*
X139444181Y-120367125D01*
X139492115Y-120357245D01*
X139540253Y-120351066D01*
X139589063Y-120348600D01*
X139639013Y-120349860D01*
X139690573Y-120354857D01*
X139744210Y-120363605D01*
X139800395Y-120376115D01*
X139801731Y-120376449D01*
X139858850Y-120392728D01*
X139913616Y-120412221D01*
X139965827Y-120434771D01*
X140015278Y-120460220D01*
X140061768Y-120488411D01*
X140105093Y-120519186D01*
X140145050Y-120552388D01*
X140181438Y-120587858D01*
X140214052Y-120625440D01*
X140242689Y-120664977D01*
X140267148Y-120706309D01*
X140287225Y-120749281D01*
X140289627Y-120755296D01*
X140297196Y-120774648D01*
X140398646Y-120871202D01*
X140417169Y-120888846D01*
X140434620Y-120905497D01*
X140450689Y-120920857D01*
X140465064Y-120934627D01*
X140477434Y-120946508D01*
X140487488Y-120956202D01*
X140494915Y-120963409D01*
X140499404Y-120967832D01*
X140500676Y-120969174D01*
X140498649Y-120970404D01*
X140492613Y-120973401D01*
X140482984Y-120977971D01*
X140470176Y-120983924D01*
X140454605Y-120991069D01*
X140436686Y-120999213D01*
X140416836Y-121008165D01*
X140395469Y-121017735D01*
X140390360Y-121020013D01*
X140279464Y-121069436D01*
X140267917Y-121110728D01*
X140262359Y-121129900D01*
X140255610Y-121152059D01*
X140248088Y-121175919D01*
X140240209Y-121200195D01*
X140232389Y-121223602D01*
X140225047Y-121244855D01*
X140218878Y-121261919D01*
X140215142Y-121271304D01*
X140212043Y-121277115D01*
X140208850Y-121280417D01*
X140204945Y-121282241D01*
X140199938Y-121283040D01*
X140190804Y-121283683D01*
X140178250Y-121284172D01*
X140162986Y-121284507D01*
X140145720Y-121284690D01*
X140127158Y-121284724D01*
X140108011Y-121284608D01*
X140088986Y-121284345D01*
X140070791Y-121283937D01*
X140054134Y-121283384D01*
X140039724Y-121282689D01*
X140028381Y-121281863D01*
X139916649Y-121269774D01*
X139848162Y-121260603D01*
X139818868Y-121256189D01*
X139793621Y-121251868D01*
X139771640Y-121247428D01*
X139752143Y-121242653D01*
X139734349Y-121237331D01*
X139717477Y-121231246D01*
X139700745Y-121224184D01*
X139683372Y-121215933D01*
X139681248Y-121214873D01*
X139642924Y-121193252D01*
X139605341Y-121167307D01*
X139569131Y-121137553D01*
X139534927Y-121104502D01*
X139507637Y-121073880D01*
X139494981Y-121058635D01*
X139494981Y-121066987D01*
X139494288Y-121077188D01*
X139492375Y-121090800D01*
X139489488Y-121106624D01*
X139485873Y-121123462D01*
X139481778Y-121140114D01*
X139477450Y-121155381D01*
X139475595Y-121161173D01*
X139459555Y-121201904D01*
X139439678Y-121239716D01*
X139416022Y-121274558D01*
X139388650Y-121306374D01*
X139357620Y-121335111D01*
X139322994Y-121360717D01*
X139284832Y-121383137D01*
X139243195Y-121402319D01*
X139198143Y-121418209D01*
X139178086Y-121423923D01*
X139142259Y-121432339D01*
X139105385Y-121438721D01*
X139066593Y-121443166D01*
X139025012Y-121445775D01*
X138979772Y-121446646D01*
X138978514Y-121446647D01*
X138943422Y-121446229D01*
X138909337Y-121444929D01*
X138875467Y-121442658D01*
X138841018Y-121439326D01*
X138805197Y-121434845D01*
X138767210Y-121429126D01*
X138726265Y-121422080D01*
X138681567Y-121413618D01*
X138678552Y-121413025D01*
X138593906Y-121394934D01*
X138511963Y-121374615D01*
X138432888Y-121352142D01*
X138356847Y-121327591D01*
X138284005Y-121301036D01*
X138214526Y-121272553D01*
X138148576Y-121242216D01*
X138086320Y-121210101D01*
X138027923Y-121176282D01*
X137973550Y-121140834D01*
X137923367Y-121103833D01*
X137877538Y-121065352D01*
X137845190Y-121034632D01*
X137834125Y-121023214D01*
X137822811Y-121011029D01*
X137812362Y-120999311D01*
X137803896Y-120989294D01*
X137801648Y-120986469D01*
X137794727Y-120977594D01*
X137788592Y-120969754D01*
X137784057Y-120963989D01*
X137782295Y-120961775D01*
X137780413Y-120959749D01*
X137778130Y-120958686D01*
X137774423Y-120958591D01*
X137768273Y-120959470D01*
X137758655Y-120961329D01*
X137755686Y-120961929D01*
X137684527Y-120973886D01*
X137612931Y-120981051D01*
X137540776Y-120983432D01*
X137467943Y-120981035D01*
X137456933Y-120980262D01*
X137399120Y-120975415D01*
X137336841Y-120969221D01*
X137270270Y-120961710D01*
X137199580Y-120952912D01*
X137124944Y-120942858D01*
X137046536Y-120931576D01*
X136964527Y-120919097D01*
X136879092Y-120905450D01*
X136790402Y-120890667D01*
X136698632Y-120874776D01*
X136603955Y-120857808D01*
X136506542Y-120839792D01*
X136406568Y-120820758D01*
X136304205Y-120800737D01*
X136199627Y-120779759D01*
X136093005Y-120757852D01*
X135984515Y-120735048D01*
X135874328Y-120711376D01*
X135769648Y-120688423D01*
X135739138Y-120681666D01*
X135712931Y-120675983D01*
X135690594Y-120671466D01*
X135671693Y-120668208D01*
X135655792Y-120666300D01*
X135642459Y-120665835D01*
X135631260Y-120666905D01*
X135621760Y-120669603D01*
X135613525Y-120674020D01*
X135606121Y-120680249D01*
X135599114Y-120688382D01*
X135592071Y-120698511D01*
X135584557Y-120710729D01*
X135576138Y-120725128D01*
X135573203Y-120730174D01*
X135547648Y-120775278D01*
X135523694Y-120820021D01*
X135501614Y-120863833D01*
X135481677Y-120906142D01*
X135464156Y-120946379D01*
X135449320Y-120983973D01*
X135439813Y-121011018D01*
X135429211Y-121046958D01*
X135421863Y-121080498D01*
X135417749Y-121111481D01*
X135416850Y-121139750D01*
X135419147Y-121165150D01*
X135424622Y-121187523D01*
X135433256Y-121206713D01*
X135445031Y-121222563D01*
X135459926Y-121234917D01*
X135467143Y-121239043D01*
X135474092Y-121242306D01*
X135481669Y-121245302D01*
X135490121Y-121248051D01*
X135499693Y-121250572D01*
X135510628Y-121252884D01*
X135523174Y-121255007D01*
X135537573Y-121256960D01*
X135554073Y-121258761D01*
X135572916Y-121260431D01*
X135594350Y-121261989D01*
X135618617Y-121263454D01*
X135645965Y-121264845D01*
X135676637Y-121266181D01*
X135710879Y-121267483D01*
X135748935Y-121268769D01*
X135791051Y-121270058D01*
X135837471Y-121271370D01*
X135888442Y-121272724D01*
X135897857Y-121272967D01*
X135981567Y-121275256D01*
X136060821Y-121277711D01*
X136136001Y-121280352D01*
X136207487Y-121283202D01*
X136275660Y-121286281D01*
X136340901Y-121289609D01*
X136403589Y-121293209D01*
X136464107Y-121297101D01*
X136522835Y-121301306D01*
X136580153Y-121305846D01*
X136636442Y-121310740D01*
X136692083Y-121316011D01*
X136710657Y-121317866D01*
X136798908Y-121327350D01*
X136884256Y-121337702D01*
X136967213Y-121349038D01*
X137048293Y-121361474D01*
X137128009Y-121375127D01*
X137206875Y-121390112D01*
X137285402Y-121406546D01*
X137364106Y-121424545D01*
X137443498Y-121444225D01*
X137524092Y-121465703D01*
X137606401Y-121489095D01*
X137690938Y-121514516D01*
X137778217Y-121542083D01*
X137868751Y-121571912D01*
X137940743Y-121596406D01*
X137974933Y-121608412D01*
X138007526Y-121620361D01*
X138038982Y-121632474D01*
X138069759Y-121644971D01*
X138100317Y-121658070D01*
X138131114Y-121671991D01*
X138162610Y-121686955D01*
X138195264Y-121703180D01*
X138229534Y-121720887D01*
X138265880Y-121740295D01*
X138304761Y-121761623D01*
X138346635Y-121785092D01*
X138391962Y-121810920D01*
X138406410Y-121819224D01*
X138446607Y-121842353D01*
X138482930Y-121863218D01*
X138515685Y-121881989D01*
X138545180Y-121898834D01*
X138571721Y-121913923D01*
X138595614Y-121927425D01*
X138617168Y-121939510D01*
X138636689Y-121950347D01*
X138654484Y-121960105D01*
X138670860Y-121968953D01*
X138686124Y-121977061D01*
X138700583Y-121984598D01*
X138714543Y-121991734D01*
X138728313Y-121998637D01*
X138742198Y-122005478D01*
X138756506Y-122012425D01*
X138757761Y-122013031D01*
X138804005Y-122034588D01*
X138847629Y-122053276D01*
X138889572Y-122069365D01*
X138930777Y-122083123D01*
X138972182Y-122094819D01*
X139014730Y-122104722D01*
X139059361Y-122113101D01*
X139107015Y-122120226D01*
X139151476Y-122125592D01*
X139179581Y-122128170D01*
X139211087Y-122130200D01*
X139244583Y-122131643D01*
X139278660Y-122132463D01*
X139311906Y-122132622D01*
X139342912Y-122132082D01*
X139363143Y-122131234D01*
X139417689Y-122126679D01*
X139472859Y-122119053D01*
X139527838Y-122108561D01*
X139581811Y-122095409D01*
X139633964Y-122079801D01*
X139683482Y-122061941D01*
X139729549Y-122042036D01*
X139741966Y-122036000D01*
X139797495Y-122005655D01*
X139851819Y-121970709D01*
X139904841Y-121931270D01*
X139956466Y-121887446D01*
X140006598Y-121839345D01*
X140055141Y-121787076D01*
X140101999Y-121730746D01*
X140147076Y-121670465D01*
X140190277Y-121606339D01*
X140231505Y-121538477D01*
X140270665Y-121466987D01*
X140301585Y-121404852D01*
X140314160Y-121377482D01*
X140326243Y-121349118D01*
X140338182Y-121318873D01*
X140350324Y-121285861D01*
X140363016Y-121249197D01*
X140365995Y-121240315D01*
X140371254Y-121224237D01*
X140376811Y-121206690D01*
X140382423Y-121188490D01*
X140387851Y-121170456D01*
X140392851Y-121153405D01*
X140397182Y-121138156D01*
X140400603Y-121125525D01*
X140402871Y-121116330D01*
X140403427Y-121113669D01*
X140404914Y-121105741D01*
X140545221Y-121049122D01*
X140569893Y-121039148D01*
X140593212Y-121029687D01*
X140614795Y-121020897D01*
X140634259Y-121012934D01*
X140651219Y-121005958D01*
X140665293Y-121000125D01*
X140676096Y-120995595D01*
X140683246Y-120992524D01*
X140686359Y-120991070D01*
X140686461Y-120990993D01*
X140684856Y-120989176D01*
X140679918Y-120984406D01*
X140671929Y-120976941D01*
X140661175Y-120967039D01*
X140647939Y-120954960D01*
X140632506Y-120940962D01*
X140615159Y-120925303D01*
X140596184Y-120908243D01*
X140575863Y-120890039D01*
X140558461Y-120874499D01*
X140533764Y-120852467D01*
X140512429Y-120833409D01*
X140494202Y-120817080D01*
X140478830Y-120803239D01*
X140466060Y-120791642D01*
X140455639Y-120782046D01*
X140447314Y-120774209D01*
X140440831Y-120767887D01*
X140435938Y-120762839D01*
X140432381Y-120758820D01*
X140429908Y-120755588D01*
X140428264Y-120752901D01*
X140427198Y-120750515D01*
X140426455Y-120748187D01*
X140426329Y-120747730D01*
X140421934Y-120733639D01*
X140415693Y-120716530D01*
X140408101Y-120697617D01*
X140399658Y-120678114D01*
X140390859Y-120659235D01*
X140386337Y-120650123D01*
X140364087Y-120610208D01*
X140338559Y-120571722D01*
X140309286Y-120534028D01*
X140275801Y-120496488D01*
X140266788Y-120487125D01*
X140228725Y-120450413D01*
X140189448Y-120417167D01*
X140148130Y-120386793D01*
X140103948Y-120358696D01*
X140056076Y-120332283D01*
X140041686Y-120325002D01*
X139995020Y-120303147D01*
X139948382Y-120284060D01*
X139900929Y-120267485D01*
X139851818Y-120253166D01*
X139800208Y-120240846D01*
X139745255Y-120230269D01*
X139713391Y-120225116D01*
X139699789Y-120223114D01*
X139687907Y-120221560D01*
X139676787Y-120220397D01*
X139665472Y-120219566D01*
X139653005Y-120219011D01*
X139638430Y-120218672D01*
X139620789Y-120218493D01*
X139602629Y-120218423D01*
X139577110Y-120218476D01*
X139577110Y-120218476D01*
G37*
X139577110Y-120218476D02*
X139555393Y-120218821D01*
X139536445Y-120219540D01*
X139519235Y-120220719D01*
X139502730Y-120222441D01*
X139485899Y-120224790D01*
X139467708Y-120227850D01*
X139452648Y-120230645D01*
X139412289Y-120239396D01*
X139370394Y-120250414D01*
X139328941Y-120263125D01*
X139289907Y-120276957D01*
X139282105Y-120279990D01*
X139252497Y-120291780D01*
X139223440Y-120303531D01*
X139194668Y-120315368D01*
X139165917Y-120327414D01*
X139136919Y-120339793D01*
X139107409Y-120352628D01*
X139077121Y-120366043D01*
X139045790Y-120380162D01*
X139013149Y-120395109D01*
X138978933Y-120411008D01*
X138942876Y-120427981D01*
X138904712Y-120446153D01*
X138864176Y-120465648D01*
X138821001Y-120486589D01*
X138774922Y-120509100D01*
X138725673Y-120533305D01*
X138672987Y-120559327D01*
X138616601Y-120587290D01*
X138556246Y-120617318D01*
X138540667Y-120625083D01*
X138488659Y-120650963D01*
X138440600Y-120674774D01*
X138396145Y-120696675D01*
X138354950Y-120716825D01*
X138316669Y-120735383D01*
X138280957Y-120752509D01*
X138247469Y-120768361D01*
X138215860Y-120783099D01*
X138185786Y-120796882D01*
X138156901Y-120809869D01*
X138128860Y-120822221D01*
X138101318Y-120834095D01*
X138073931Y-120845651D01*
X138046352Y-120857048D01*
X138018239Y-120868446D01*
X137989244Y-120880004D01*
X137983216Y-120882386D01*
X137965759Y-120889341D01*
X137949798Y-120895833D01*
X137935879Y-120901627D01*
X137924550Y-120906492D01*
X137916355Y-120910195D01*
X137911842Y-120912503D01*
X137911131Y-120913075D01*
X137912437Y-120915832D01*
X137916820Y-120921251D01*
X137923730Y-120928795D01*
X137932615Y-120937924D01*
X137942925Y-120948099D01*
X137954110Y-120958782D01*
X137965620Y-120969433D01*
X137976904Y-120979515D01*
X137987412Y-120988487D01*
X137991796Y-120992062D01*
X138042789Y-121030188D01*
X138098145Y-121066379D01*
X138157775Y-121100598D01*
X138221594Y-121132810D01*
X138289513Y-121162978D01*
X138361445Y-121191066D01*
X138437304Y-121217040D01*
X138517002Y-121240862D01*
X138600451Y-121262496D01*
X138687565Y-121281907D01*
X138701533Y-121284744D01*
X138761331Y-121295927D01*
X138817312Y-121304711D01*
X138869846Y-121311122D01*
X138919302Y-121315187D01*
X138966050Y-121316931D01*
X139010458Y-121316382D01*
X139052897Y-121313567D01*
X139072625Y-121311425D01*
X139117521Y-121304163D01*
X139158907Y-121293835D01*
X139196726Y-121280475D01*
X139230921Y-121264116D01*
X139261435Y-121244792D01*
X139288212Y-121222535D01*
X139311195Y-121197379D01*
X139330327Y-121169357D01*
X139337480Y-121156186D01*
X139346131Y-121137070D01*
X139353130Y-121116992D01*
X139358742Y-121094947D01*
X139363230Y-121069928D01*
X139366222Y-121046810D01*
X139367983Y-121031104D01*
X139415153Y-121026992D01*
X139429896Y-121025714D01*
X139443084Y-121024583D01*
X139453921Y-121023667D01*
X139461612Y-121023033D01*
X139465361Y-121022747D01*
X139465490Y-121022741D01*
X139467531Y-121021313D01*
X139467227Y-121020286D01*
X139468472Y-121019251D01*
X139473086Y-121018987D01*
X139479679Y-121019379D01*
X139486863Y-121020312D01*
X139493249Y-121021672D01*
X139496190Y-121022675D01*
X139499967Y-121023715D01*
X139507720Y-121025402D01*
X139518655Y-121027577D01*
X139531978Y-121030085D01*
X139546893Y-121032768D01*
X139550619Y-121033420D01*
X139606495Y-121042682D01*
X139659580Y-121050481D01*
X139711618Y-121057048D01*
X139764348Y-121062618D01*
X139780429Y-121064116D01*
X139795809Y-121065209D01*
X139814464Y-121066055D01*
X139835467Y-121066653D01*
X139857891Y-121067003D01*
X139880808Y-121067105D01*
X139903294Y-121066958D01*
X139924419Y-121066562D01*
X139943259Y-121065917D01*
X139958886Y-121065022D01*
X139967905Y-121064190D01*
X140017844Y-121057570D01*
X140066432Y-121049418D01*
X140114954Y-121039468D01*
X140164696Y-121027450D01*
X140216945Y-121013096D01*
X140227555Y-121009996D01*
X140243052Y-121005341D01*
X140254471Y-121001674D01*
X140262414Y-120998756D01*
X140267486Y-120996346D01*
X140270286Y-120994204D01*
X140271278Y-120992578D01*
X140271934Y-120989072D01*
X140273011Y-120981328D01*
X140274443Y-120969920D01*
X140276159Y-120955422D01*
X140278094Y-120938409D01*
X140280177Y-120919456D01*
X140282296Y-120899582D01*
X140284759Y-120875806D01*
X140286684Y-120856429D01*
X140288099Y-120841043D01*
X140289032Y-120829244D01*
X140289511Y-120820623D01*
X140289564Y-120814776D01*
X140289217Y-120811294D01*
X140288500Y-120809773D01*
X140288435Y-120809728D01*
X140284181Y-120808159D01*
X140277429Y-120806623D01*
X140275395Y-120806280D01*
X140267683Y-120804889D01*
X140255991Y-120802518D01*
X140241039Y-120799332D01*
X140223549Y-120795495D01*
X140204240Y-120791171D01*
X140183835Y-120786523D01*
X140163054Y-120781716D01*
X140142617Y-120776914D01*
X140123246Y-120772280D01*
X140105661Y-120767979D01*
X140092486Y-120764664D01*
X140022112Y-120745903D01*
X139956290Y-120726815D01*
X139894740Y-120707305D01*
X139837181Y-120687280D01*
X139783334Y-120666646D01*
X139732918Y-120645309D01*
X139724790Y-120641661D01*
X139676328Y-120618036D01*
X139626977Y-120590787D01*
X139577917Y-120560663D01*
X139530327Y-120528417D01*
X139485384Y-120494797D01*
X139455067Y-120469939D01*
X139442955Y-120459405D01*
X139430384Y-120448151D01*
X139417845Y-120436653D01*
X139405830Y-120425384D01*
X139394829Y-120414818D01*
X139385335Y-120405429D01*
X139377839Y-120397691D01*
X139372832Y-120392077D01*
X139370806Y-120389062D01*
X139370849Y-120388738D01*
X139374390Y-120386991D01*
X139381909Y-120384332D01*
X139392679Y-120380973D01*
X139405975Y-120377129D01*
X139421069Y-120373015D01*
X139437235Y-120368845D01*
X139444181Y-120367125D01*
X139492115Y-120357245D01*
X139540253Y-120351066D01*
X139589063Y-120348600D01*
X139639013Y-120349860D01*
X139690573Y-120354857D01*
X139744210Y-120363605D01*
X139800395Y-120376115D01*
X139801731Y-120376449D01*
X139858850Y-120392728D01*
X139913616Y-120412221D01*
X139965827Y-120434771D01*
X140015278Y-120460220D01*
X140061768Y-120488411D01*
X140105093Y-120519186D01*
X140145050Y-120552388D01*
X140181438Y-120587858D01*
X140214052Y-120625440D01*
X140242689Y-120664977D01*
X140267148Y-120706309D01*
X140287225Y-120749281D01*
X140289627Y-120755296D01*
X140297196Y-120774648D01*
X140398646Y-120871202D01*
X140417169Y-120888846D01*
X140434620Y-120905497D01*
X140450689Y-120920857D01*
X140465064Y-120934627D01*
X140477434Y-120946508D01*
X140487488Y-120956202D01*
X140494915Y-120963409D01*
X140499404Y-120967832D01*
X140500676Y-120969174D01*
X140498649Y-120970404D01*
X140492613Y-120973401D01*
X140482984Y-120977971D01*
X140470176Y-120983924D01*
X140454605Y-120991069D01*
X140436686Y-120999213D01*
X140416836Y-121008165D01*
X140395469Y-121017735D01*
X140390360Y-121020013D01*
X140279464Y-121069436D01*
X140267917Y-121110728D01*
X140262359Y-121129900D01*
X140255610Y-121152059D01*
X140248088Y-121175919D01*
X140240209Y-121200195D01*
X140232389Y-121223602D01*
X140225047Y-121244855D01*
X140218878Y-121261919D01*
X140215142Y-121271304D01*
X140212043Y-121277115D01*
X140208850Y-121280417D01*
X140204945Y-121282241D01*
X140199938Y-121283040D01*
X140190804Y-121283683D01*
X140178250Y-121284172D01*
X140162986Y-121284507D01*
X140145720Y-121284690D01*
X140127158Y-121284724D01*
X140108011Y-121284608D01*
X140088986Y-121284345D01*
X140070791Y-121283937D01*
X140054134Y-121283384D01*
X140039724Y-121282689D01*
X140028381Y-121281863D01*
X139916649Y-121269774D01*
X139848162Y-121260603D01*
X139818868Y-121256189D01*
X139793621Y-121251868D01*
X139771640Y-121247428D01*
X139752143Y-121242653D01*
X139734349Y-121237331D01*
X139717477Y-121231246D01*
X139700745Y-121224184D01*
X139683372Y-121215933D01*
X139681248Y-121214873D01*
X139642924Y-121193252D01*
X139605341Y-121167307D01*
X139569131Y-121137553D01*
X139534927Y-121104502D01*
X139507637Y-121073880D01*
X139494981Y-121058635D01*
X139494981Y-121066987D01*
X139494288Y-121077188D01*
X139492375Y-121090800D01*
X139489488Y-121106624D01*
X139485873Y-121123462D01*
X139481778Y-121140114D01*
X139477450Y-121155381D01*
X139475595Y-121161173D01*
X139459555Y-121201904D01*
X139439678Y-121239716D01*
X139416022Y-121274558D01*
X139388650Y-121306374D01*
X139357620Y-121335111D01*
X139322994Y-121360717D01*
X139284832Y-121383137D01*
X139243195Y-121402319D01*
X139198143Y-121418209D01*
X139178086Y-121423923D01*
X139142259Y-121432339D01*
X139105385Y-121438721D01*
X139066593Y-121443166D01*
X139025012Y-121445775D01*
X138979772Y-121446646D01*
X138978514Y-121446647D01*
X138943422Y-121446229D01*
X138909337Y-121444929D01*
X138875467Y-121442658D01*
X138841018Y-121439326D01*
X138805197Y-121434845D01*
X138767210Y-121429126D01*
X138726265Y-121422080D01*
X138681567Y-121413618D01*
X138678552Y-121413025D01*
X138593906Y-121394934D01*
X138511963Y-121374615D01*
X138432888Y-121352142D01*
X138356847Y-121327591D01*
X138284005Y-121301036D01*
X138214526Y-121272553D01*
X138148576Y-121242216D01*
X138086320Y-121210101D01*
X138027923Y-121176282D01*
X137973550Y-121140834D01*
X137923367Y-121103833D01*
X137877538Y-121065352D01*
X137845190Y-121034632D01*
X137834125Y-121023214D01*
X137822811Y-121011029D01*
X137812362Y-120999311D01*
X137803896Y-120989294D01*
X137801648Y-120986469D01*
X137794727Y-120977594D01*
X137788592Y-120969754D01*
X137784057Y-120963989D01*
X137782295Y-120961775D01*
X137780413Y-120959749D01*
X137778130Y-120958686D01*
X137774423Y-120958591D01*
X137768273Y-120959470D01*
X137758655Y-120961329D01*
X137755686Y-120961929D01*
X137684527Y-120973886D01*
X137612931Y-120981051D01*
X137540776Y-120983432D01*
X137467943Y-120981035D01*
X137456933Y-120980262D01*
X137399120Y-120975415D01*
X137336841Y-120969221D01*
X137270270Y-120961710D01*
X137199580Y-120952912D01*
X137124944Y-120942858D01*
X137046536Y-120931576D01*
X136964527Y-120919097D01*
X136879092Y-120905450D01*
X136790402Y-120890667D01*
X136698632Y-120874776D01*
X136603955Y-120857808D01*
X136506542Y-120839792D01*
X136406568Y-120820758D01*
X136304205Y-120800737D01*
X136199627Y-120779759D01*
X136093005Y-120757852D01*
X135984515Y-120735048D01*
X135874328Y-120711376D01*
X135769648Y-120688423D01*
X135739138Y-120681666D01*
X135712931Y-120675983D01*
X135690594Y-120671466D01*
X135671693Y-120668208D01*
X135655792Y-120666300D01*
X135642459Y-120665835D01*
X135631260Y-120666905D01*
X135621760Y-120669603D01*
X135613525Y-120674020D01*
X135606121Y-120680249D01*
X135599114Y-120688382D01*
X135592071Y-120698511D01*
X135584557Y-120710729D01*
X135576138Y-120725128D01*
X135573203Y-120730174D01*
X135547648Y-120775278D01*
X135523694Y-120820021D01*
X135501614Y-120863833D01*
X135481677Y-120906142D01*
X135464156Y-120946379D01*
X135449320Y-120983973D01*
X135439813Y-121011018D01*
X135429211Y-121046958D01*
X135421863Y-121080498D01*
X135417749Y-121111481D01*
X135416850Y-121139750D01*
X135419147Y-121165150D01*
X135424622Y-121187523D01*
X135433256Y-121206713D01*
X135445031Y-121222563D01*
X135459926Y-121234917D01*
X135467143Y-121239043D01*
X135474092Y-121242306D01*
X135481669Y-121245302D01*
X135490121Y-121248051D01*
X135499693Y-121250572D01*
X135510628Y-121252884D01*
X135523174Y-121255007D01*
X135537573Y-121256960D01*
X135554073Y-121258761D01*
X135572916Y-121260431D01*
X135594350Y-121261989D01*
X135618617Y-121263454D01*
X135645965Y-121264845D01*
X135676637Y-121266181D01*
X135710879Y-121267483D01*
X135748935Y-121268769D01*
X135791051Y-121270058D01*
X135837471Y-121271370D01*
X135888442Y-121272724D01*
X135897857Y-121272967D01*
X135981567Y-121275256D01*
X136060821Y-121277711D01*
X136136001Y-121280352D01*
X136207487Y-121283202D01*
X136275660Y-121286281D01*
X136340901Y-121289609D01*
X136403589Y-121293209D01*
X136464107Y-121297101D01*
X136522835Y-121301306D01*
X136580153Y-121305846D01*
X136636442Y-121310740D01*
X136692083Y-121316011D01*
X136710657Y-121317866D01*
X136798908Y-121327350D01*
X136884256Y-121337702D01*
X136967213Y-121349038D01*
X137048293Y-121361474D01*
X137128009Y-121375127D01*
X137206875Y-121390112D01*
X137285402Y-121406546D01*
X137364106Y-121424545D01*
X137443498Y-121444225D01*
X137524092Y-121465703D01*
X137606401Y-121489095D01*
X137690938Y-121514516D01*
X137778217Y-121542083D01*
X137868751Y-121571912D01*
X137940743Y-121596406D01*
X137974933Y-121608412D01*
X138007526Y-121620361D01*
X138038982Y-121632474D01*
X138069759Y-121644971D01*
X138100317Y-121658070D01*
X138131114Y-121671991D01*
X138162610Y-121686955D01*
X138195264Y-121703180D01*
X138229534Y-121720887D01*
X138265880Y-121740295D01*
X138304761Y-121761623D01*
X138346635Y-121785092D01*
X138391962Y-121810920D01*
X138406410Y-121819224D01*
X138446607Y-121842353D01*
X138482930Y-121863218D01*
X138515685Y-121881989D01*
X138545180Y-121898834D01*
X138571721Y-121913923D01*
X138595614Y-121927425D01*
X138617168Y-121939510D01*
X138636689Y-121950347D01*
X138654484Y-121960105D01*
X138670860Y-121968953D01*
X138686124Y-121977061D01*
X138700583Y-121984598D01*
X138714543Y-121991734D01*
X138728313Y-121998637D01*
X138742198Y-122005478D01*
X138756506Y-122012425D01*
X138757761Y-122013031D01*
X138804005Y-122034588D01*
X138847629Y-122053276D01*
X138889572Y-122069365D01*
X138930777Y-122083123D01*
X138972182Y-122094819D01*
X139014730Y-122104722D01*
X139059361Y-122113101D01*
X139107015Y-122120226D01*
X139151476Y-122125592D01*
X139179581Y-122128170D01*
X139211087Y-122130200D01*
X139244583Y-122131643D01*
X139278660Y-122132463D01*
X139311906Y-122132622D01*
X139342912Y-122132082D01*
X139363143Y-122131234D01*
X139417689Y-122126679D01*
X139472859Y-122119053D01*
X139527838Y-122108561D01*
X139581811Y-122095409D01*
X139633964Y-122079801D01*
X139683482Y-122061941D01*
X139729549Y-122042036D01*
X139741966Y-122036000D01*
X139797495Y-122005655D01*
X139851819Y-121970709D01*
X139904841Y-121931270D01*
X139956466Y-121887446D01*
X140006598Y-121839345D01*
X140055141Y-121787076D01*
X140101999Y-121730746D01*
X140147076Y-121670465D01*
X140190277Y-121606339D01*
X140231505Y-121538477D01*
X140270665Y-121466987D01*
X140301585Y-121404852D01*
X140314160Y-121377482D01*
X140326243Y-121349118D01*
X140338182Y-121318873D01*
X140350324Y-121285861D01*
X140363016Y-121249197D01*
X140365995Y-121240315D01*
X140371254Y-121224237D01*
X140376811Y-121206690D01*
X140382423Y-121188490D01*
X140387851Y-121170456D01*
X140392851Y-121153405D01*
X140397182Y-121138156D01*
X140400603Y-121125525D01*
X140402871Y-121116330D01*
X140403427Y-121113669D01*
X140404914Y-121105741D01*
X140545221Y-121049122D01*
X140569893Y-121039148D01*
X140593212Y-121029687D01*
X140614795Y-121020897D01*
X140634259Y-121012934D01*
X140651219Y-121005958D01*
X140665293Y-121000125D01*
X140676096Y-120995595D01*
X140683246Y-120992524D01*
X140686359Y-120991070D01*
X140686461Y-120990993D01*
X140684856Y-120989176D01*
X140679918Y-120984406D01*
X140671929Y-120976941D01*
X140661175Y-120967039D01*
X140647939Y-120954960D01*
X140632506Y-120940962D01*
X140615159Y-120925303D01*
X140596184Y-120908243D01*
X140575863Y-120890039D01*
X140558461Y-120874499D01*
X140533764Y-120852467D01*
X140512429Y-120833409D01*
X140494202Y-120817080D01*
X140478830Y-120803239D01*
X140466060Y-120791642D01*
X140455639Y-120782046D01*
X140447314Y-120774209D01*
X140440831Y-120767887D01*
X140435938Y-120762839D01*
X140432381Y-120758820D01*
X140429908Y-120755588D01*
X140428264Y-120752901D01*
X140427198Y-120750515D01*
X140426455Y-120748187D01*
X140426329Y-120747730D01*
X140421934Y-120733639D01*
X140415693Y-120716530D01*
X140408101Y-120697617D01*
X140399658Y-120678114D01*
X140390859Y-120659235D01*
X140386337Y-120650123D01*
X140364087Y-120610208D01*
X140338559Y-120571722D01*
X140309286Y-120534028D01*
X140275801Y-120496488D01*
X140266788Y-120487125D01*
X140228725Y-120450413D01*
X140189448Y-120417167D01*
X140148130Y-120386793D01*
X140103948Y-120358696D01*
X140056076Y-120332283D01*
X140041686Y-120325002D01*
X139995020Y-120303147D01*
X139948382Y-120284060D01*
X139900929Y-120267485D01*
X139851818Y-120253166D01*
X139800208Y-120240846D01*
X139745255Y-120230269D01*
X139713391Y-120225116D01*
X139699789Y-120223114D01*
X139687907Y-120221560D01*
X139676787Y-120220397D01*
X139665472Y-120219566D01*
X139653005Y-120219011D01*
X139638430Y-120218672D01*
X139620789Y-120218493D01*
X139602629Y-120218423D01*
X139577110Y-120218476D01*
D12*
X161005000Y-115800000D03*
X158295000Y-115800000D03*
X161005000Y-100200000D03*
X158295000Y-100200000D03*
X161005000Y-115400000D03*
X161005000Y-115000000D03*
X161005000Y-114600000D03*
X161005000Y-114200000D03*
X161005000Y-113800000D03*
X161005000Y-113400000D03*
X161005000Y-113000000D03*
X161005000Y-112600000D03*
X161005000Y-112200000D03*
X161005000Y-111800000D03*
X161005000Y-111400000D03*
X161005000Y-111000000D03*
X161005000Y-110600000D03*
X161005000Y-110200000D03*
X161005000Y-109800000D03*
X161005000Y-109400000D03*
X161005000Y-109000000D03*
X161005000Y-108600000D03*
X161005000Y-108200000D03*
X161005000Y-107800000D03*
X161005000Y-107400000D03*
X161005000Y-107000000D03*
X161005000Y-106600000D03*
X161005000Y-106200000D03*
X161005000Y-105800000D03*
X161005000Y-105400000D03*
X161005000Y-105000000D03*
X161005000Y-104600000D03*
X161005000Y-104200000D03*
X161005000Y-103800000D03*
X161005000Y-103400000D03*
X161005000Y-103000000D03*
X161005000Y-102600000D03*
X161005000Y-102200000D03*
X161005000Y-101800000D03*
X161005000Y-101400000D03*
X161005000Y-101000000D03*
X161005000Y-100600000D03*
D13*
X161005000Y-99725000D03*
X158295000Y-99725000D03*
X161005000Y-116275000D03*
X158295000Y-116275000D03*
D12*
X158295000Y-100600000D03*
X158295000Y-101000000D03*
X158295000Y-101400000D03*
X158295000Y-101800000D03*
X158295000Y-102200000D03*
X158295000Y-102600000D03*
X158295000Y-103000000D03*
X158295000Y-103400000D03*
X158295000Y-103800000D03*
X158295000Y-104200000D03*
X158295000Y-104600000D03*
X158295000Y-105000000D03*
X158295000Y-105400000D03*
X158295000Y-105800000D03*
X158295000Y-106200000D03*
X158295000Y-106600000D03*
X158295000Y-107000000D03*
X158295000Y-107400000D03*
X158295000Y-107800000D03*
X158295000Y-108200000D03*
X158295000Y-108600000D03*
X158295000Y-109000000D03*
X158295000Y-109400000D03*
X158295000Y-109800000D03*
X158295000Y-110200000D03*
X158295000Y-110600000D03*
X158295000Y-111000000D03*
X158295000Y-111400000D03*
X158295000Y-111800000D03*
X158295000Y-112200000D03*
X158295000Y-112600000D03*
X158295000Y-113000000D03*
X158295000Y-113400000D03*
X158295000Y-113800000D03*
X158295000Y-114200000D03*
X158295000Y-114600000D03*
X158295000Y-115000000D03*
X158295000Y-115400000D03*
D14*
X156250000Y-95900000D03*
X158150000Y-95900000D03*
D15*
X158712500Y-92862500D03*
X158712500Y-93362500D03*
X158712500Y-93862500D03*
X158712500Y-94362500D03*
X155812500Y-94362500D03*
X155812500Y-93862500D03*
X155812500Y-93362500D03*
X155812500Y-92862500D03*
D16*
X156825000Y-93975000D03*
X156825000Y-93250000D03*
X157700000Y-93975000D03*
X157700000Y-93250000D03*
D17*
X156550000Y-91200000D03*
X154350000Y-91200000D03*
D18*
X158550000Y-91250000D03*
D19*
X148360000Y-98440000D03*
D20*
X150900000Y-98440000D03*
X148360000Y-100980000D03*
X150900000Y-100980000D03*
X148360000Y-103520000D03*
X150900000Y-103520000D03*
X148360000Y-106060000D03*
X150900000Y-106060000D03*
X148360000Y-108600000D03*
X150900000Y-108600000D03*
X148360000Y-111140000D03*
X150900000Y-111140000D03*
D21*
X140375000Y-92085000D03*
D22*
X140375000Y-94625000D03*
D23*
X142800000Y-121000000D03*
D24*
X145340000Y-121000000D03*
X147880000Y-121000000D03*
X150420000Y-121000000D03*
D25*
X162950000Y-97849974D03*
X162500000Y-95300000D03*
X137400000Y-93350000D03*
X157025000Y-119975000D03*
D26*
X163335170Y-106128721D03*
X162579214Y-106491109D03*
X162993938Y-107218712D03*
X162237982Y-107581100D03*
X162237982Y-108419301D03*
X162993938Y-108781689D03*
X162579214Y-109509292D03*
X163335170Y-109871680D03*
D25*
X164264956Y-95352566D03*
X160500000Y-95450000D03*
X157300000Y-95000000D03*
X159100000Y-98150000D03*
X159950000Y-93400000D03*
X154522312Y-92933079D03*
X153375000Y-93400000D03*
X160729126Y-94320874D03*
X153388558Y-95488069D03*
X151948345Y-95438535D03*
X154404385Y-96551583D03*
D26*
X156306694Y-107218712D03*
X157062650Y-107581100D03*
X157062650Y-108419301D03*
X156306694Y-108781689D03*
X156721418Y-109509292D03*
X155965462Y-109871680D03*
D25*
X157909689Y-117082292D03*
D26*
X161045015Y-116945501D03*
X161045015Y-99054899D03*
X162035617Y-116147324D03*
X162511810Y-116834445D03*
X163166374Y-116308281D03*
X163642567Y-116995401D03*
X164626605Y-116049236D03*
X165041329Y-115321633D03*
X164285373Y-114959245D03*
X164700097Y-114231642D03*
X163944142Y-113869254D03*
X164358866Y-113141651D03*
X163602910Y-112779264D03*
X164017634Y-112051661D03*
X163261678Y-111689273D03*
X163676402Y-110961670D03*
X162920446Y-110599282D03*
X162920446Y-105401118D03*
X163676402Y-105038731D03*
X163261678Y-104311128D03*
X164017634Y-103948740D03*
X163602910Y-103221137D03*
X164358866Y-102858749D03*
X163944142Y-102131146D03*
X164700097Y-101768759D03*
X164285373Y-101041156D03*
X165041329Y-100678768D03*
X164626605Y-99951165D03*
X163642567Y-99005000D03*
X163166374Y-99692120D03*
X162511810Y-99165956D03*
X162035617Y-99853076D03*
X157630000Y-98890000D03*
X156788823Y-99165956D03*
X156134258Y-99692120D03*
D25*
X151300000Y-93950000D03*
X152964173Y-96612095D03*
D26*
X155658066Y-99005000D03*
X154674027Y-99951165D03*
X154259303Y-100678768D03*
X155015259Y-101041156D03*
X155965462Y-106128721D03*
X156380187Y-110599282D03*
X155624231Y-110961670D03*
X156038955Y-111689273D03*
X155282999Y-112051661D03*
X155697723Y-112779264D03*
X154941767Y-113141651D03*
X155356491Y-113869254D03*
X154600535Y-114231642D03*
X155015259Y-114959245D03*
X154259303Y-115321633D03*
X154674027Y-116049236D03*
X155560000Y-117010000D03*
D25*
X156275613Y-117454780D03*
D26*
X157130000Y-117390000D03*
D25*
X159025002Y-120650000D03*
X154322930Y-92121540D03*
X154812180Y-94881290D03*
X161200000Y-121325000D03*
X160303087Y-96914049D03*
X157300000Y-97100000D03*
X156750000Y-92200000D03*
D26*
X156380187Y-105401118D03*
X154941767Y-102858749D03*
X155697723Y-103221137D03*
X154600535Y-101768759D03*
X155356491Y-102131146D03*
X156721418Y-106491109D03*
D27*
X162154815Y-98095191D02*
X162850000Y-97400006D01*
X162850000Y-97400006D02*
X162850000Y-97749974D01*
X162850000Y-97749974D02*
X162950000Y-97849974D01*
X159945189Y-105385878D02*
X159945189Y-98623744D01*
X160473743Y-98095191D02*
X162154815Y-98095191D01*
X159531067Y-105800000D02*
X159945189Y-105385878D01*
X159945189Y-98623744D02*
X160473743Y-98095191D01*
X158295000Y-105800000D02*
X159531067Y-105800000D01*
X162500000Y-94815067D02*
X162500000Y-95300000D01*
X159239900Y-92560100D02*
X160445033Y-92560100D01*
X158937500Y-92862500D02*
X159239900Y-92560100D01*
X160445033Y-92560100D02*
X162500000Y-94615067D01*
X158712500Y-92862500D02*
X158937500Y-92862500D01*
X162500000Y-94615067D02*
X162500000Y-94815067D01*
X137400000Y-93350000D02*
X137800000Y-93350000D01*
X157025000Y-119975000D02*
X157025000Y-119490067D01*
X157025000Y-119490067D02*
X157040067Y-119475000D01*
X161005000Y-109400000D02*
X159860000Y-109400000D01*
X160522600Y-109000000D02*
X159900000Y-109000000D01*
X161005000Y-109000000D02*
X160522600Y-109000000D01*
X161005000Y-108600000D02*
X159920000Y-108600000D01*
X161005000Y-108200000D02*
X159940000Y-108200000D01*
X160522600Y-107800000D02*
X159950000Y-107800000D01*
X161005000Y-107800000D02*
X160522600Y-107800000D01*
X160522600Y-107400000D02*
X159930000Y-107400000D01*
X161005000Y-107400000D02*
X160522600Y-107400000D01*
X161005000Y-107000000D02*
X159940000Y-107000000D01*
X160522600Y-106600000D02*
X160250000Y-106327400D01*
X161005000Y-106600000D02*
X160522600Y-106600000D01*
X160250000Y-99550000D02*
X160473514Y-99326486D01*
X160473514Y-99326486D02*
X160473514Y-98780578D01*
X160770694Y-98483398D02*
X163362426Y-98483398D01*
X163362426Y-98483398D02*
X164200000Y-97645824D01*
X164200000Y-97645824D02*
X164200000Y-97400000D01*
X160250000Y-106327400D02*
X160250000Y-99550000D01*
X160473514Y-98780578D02*
X160770694Y-98483398D01*
X161190316Y-106624000D02*
X161540316Y-106624000D01*
X161540316Y-106624000D02*
X162460992Y-105841578D01*
X162460992Y-105841578D02*
X162749830Y-105946114D01*
X162749830Y-105946114D02*
X163335170Y-106128721D01*
X161190316Y-107024000D02*
X161540316Y-107024000D01*
X161540316Y-107024000D02*
X162406505Y-106287883D01*
X162406505Y-106287883D02*
X162579214Y-106491109D01*
X161190316Y-107424000D02*
X161540316Y-107424000D01*
X161540316Y-107424000D02*
X162119760Y-106931569D01*
X162119760Y-106931569D02*
X162408598Y-107036104D01*
X162408598Y-107036104D02*
X162993938Y-107218712D01*
X161190316Y-107824000D02*
X161540316Y-107824000D01*
X161540316Y-107824000D02*
X162065274Y-107377873D01*
X162065274Y-107377873D02*
X162237982Y-107581100D01*
X161190316Y-108176401D02*
X161540316Y-108176401D01*
X161540316Y-108176401D02*
X162065274Y-108622527D01*
X162065274Y-108622527D02*
X162237982Y-108419301D01*
X161190316Y-108576401D02*
X161540316Y-108576401D01*
X161540316Y-108576401D02*
X162119760Y-109068832D01*
X162119760Y-109068832D02*
X162408598Y-108964297D01*
X162408598Y-108964297D02*
X162993938Y-108781689D01*
X161190316Y-108976401D02*
X161540316Y-108976401D01*
X161540316Y-108976401D02*
X162406505Y-109712518D01*
X162406505Y-109712518D02*
X162579214Y-109509292D01*
X161190316Y-109376401D02*
X161540316Y-109376401D01*
X161540316Y-109376401D02*
X162460992Y-110158823D01*
X162460992Y-110158823D02*
X162749830Y-110054287D01*
X162749830Y-110054287D02*
X163335170Y-109871680D01*
X163750000Y-95382589D02*
X163780023Y-95352566D01*
X163780023Y-95352566D02*
X164264956Y-95352566D01*
X163750000Y-95450000D02*
X163750000Y-95382589D01*
X160500000Y-95450000D02*
X160050000Y-95900000D01*
X160050000Y-95900000D02*
X158150000Y-95900000D01*
X160500000Y-95450000D02*
X159497600Y-95450000D01*
X159497600Y-95450000D02*
X158712500Y-94664900D01*
X158712500Y-94664900D02*
X158712500Y-94362500D01*
X157300000Y-95000000D02*
X158377400Y-95000000D01*
X158377400Y-95000000D02*
X158712500Y-94664900D01*
X157300000Y-95000000D02*
X157300000Y-95050000D01*
X157300000Y-95050000D02*
X158150000Y-95900000D01*
X158808467Y-105400000D02*
X159300000Y-104908467D01*
X158295000Y-105400000D02*
X158808467Y-105400000D01*
X160228028Y-93749372D02*
X159927400Y-94050000D01*
X159589348Y-98950000D02*
X159589348Y-98548519D01*
X161003448Y-93749372D02*
X160228028Y-93749372D01*
X161376312Y-97163035D02*
X161376312Y-94122236D01*
X161376312Y-94122236D02*
X161003448Y-93749372D01*
X160748967Y-97790380D02*
X161376312Y-97163035D01*
X159589348Y-98548519D02*
X160347487Y-97790380D01*
X160347487Y-97790380D02*
X160748967Y-97790380D01*
X159589348Y-98639348D02*
X159100000Y-98150000D01*
X159300000Y-99239348D02*
X159589348Y-98950000D01*
X159589348Y-98950000D02*
X159589348Y-98639348D01*
X159300000Y-104908467D02*
X159300000Y-99239348D01*
X159950000Y-94027400D02*
X159927400Y-94050000D01*
X159950000Y-93400000D02*
X159950000Y-94027400D01*
X159927400Y-94050000D02*
X159239900Y-93362500D01*
X159239900Y-93362500D02*
X158712500Y-93362500D01*
X154055391Y-93400000D02*
X153859933Y-93400000D01*
X154522312Y-92933079D02*
X154055391Y-93400000D01*
X153859933Y-93400000D02*
X153375000Y-93400000D01*
X158295000Y-105000000D02*
X158777400Y-105000000D01*
X158777400Y-105000000D02*
X158950000Y-104827400D01*
X161071501Y-97036738D02*
X161071501Y-95175679D01*
X158528498Y-98474322D02*
X158528498Y-97875678D01*
X161071501Y-95175679D02*
X160745822Y-94850000D01*
X160745822Y-94850000D02*
X160227400Y-94850000D01*
X160622670Y-97485569D02*
X161071501Y-97036738D01*
X158950000Y-104827400D02*
X158950000Y-98895824D01*
X158528498Y-97875678D02*
X158918607Y-97485569D01*
X158918607Y-97485569D02*
X160622670Y-97485569D01*
X158950000Y-98895824D02*
X158528498Y-98474322D01*
X160227400Y-94850000D02*
X160227400Y-94822600D01*
X160227400Y-94822600D02*
X160386227Y-94663773D01*
X160386227Y-94663773D02*
X160729126Y-94320874D01*
X160227400Y-94850000D02*
X159239900Y-93862500D01*
X159239900Y-93862500D02*
X158712500Y-93862500D01*
X156400000Y-91200000D02*
X156550000Y-91200000D01*
X155812500Y-93362500D02*
X155285100Y-93362500D01*
X155208899Y-93286299D02*
X155208899Y-92391101D01*
X155208899Y-92391101D02*
X156400000Y-91200000D01*
X155285100Y-93362500D02*
X155208899Y-93286299D01*
X156550000Y-91200000D02*
X158500000Y-91200000D01*
X158500000Y-91200000D02*
X158550000Y-91250000D01*
X153388558Y-95488069D02*
X151997879Y-95488069D01*
X154747284Y-96894482D02*
X154404385Y-96551583D01*
X157770000Y-98180000D02*
X156032802Y-98180000D01*
X158295000Y-99800000D02*
X158295000Y-98705000D01*
X158295000Y-98705000D02*
X157770000Y-98180000D01*
X151997879Y-95488069D02*
X151948345Y-95438535D01*
X156032802Y-98180000D02*
X154747284Y-96894482D01*
X158295000Y-99800000D02*
X158295000Y-100200000D01*
X158110316Y-107424000D02*
X157760316Y-107424000D01*
X157760316Y-107424000D02*
X157180872Y-106931569D01*
X157180872Y-106931569D02*
X156892034Y-107036104D01*
X156892034Y-107036104D02*
X156306694Y-107218712D01*
X158110316Y-107824000D02*
X157760316Y-107824000D01*
X157760316Y-107824000D02*
X157235359Y-107377873D01*
X157235359Y-107377873D02*
X157062650Y-107581100D01*
X158110316Y-108176401D02*
X157760316Y-108176401D01*
X157760316Y-108176401D02*
X157235359Y-108622527D01*
X157235359Y-108622527D02*
X157062650Y-108419301D01*
X158110316Y-108576401D02*
X157760316Y-108576401D01*
X157760316Y-108576401D02*
X157180872Y-109068832D01*
X157180872Y-109068832D02*
X156892034Y-108964297D01*
X156892034Y-108964297D02*
X156306694Y-108781689D01*
X158110316Y-108976401D02*
X157760316Y-108976401D01*
X157760316Y-108976401D02*
X156894127Y-109712518D01*
X156894127Y-109712518D02*
X156721418Y-109509292D01*
X158110316Y-109376401D02*
X157760316Y-109376401D01*
X157760316Y-109376401D02*
X156839640Y-110158823D01*
X156839640Y-110158823D02*
X156550802Y-110054287D01*
X156550802Y-110054287D02*
X155965462Y-109871680D01*
X157566790Y-116739393D02*
X157909689Y-117082292D01*
X157566790Y-115671726D02*
X157566790Y-116739393D01*
X157862115Y-115376401D02*
X157566790Y-115671726D01*
X158110316Y-115376401D02*
X157862115Y-115376401D01*
X161045015Y-116945501D02*
X161045015Y-116240015D01*
X161045015Y-116240015D02*
X161005000Y-116200000D01*
X161005000Y-115800000D02*
X161005000Y-116200000D01*
X158295000Y-115800000D02*
X158295000Y-116200000D01*
X161045015Y-99054899D02*
X161045015Y-99759985D01*
X161045015Y-99759985D02*
X161005000Y-99800000D01*
X161005000Y-100200000D02*
X161005000Y-99800000D01*
X161190316Y-115376401D02*
X161540316Y-115376401D01*
X161540316Y-115376401D02*
X162208326Y-115944098D01*
X162208326Y-115944098D02*
X162035617Y-116147324D01*
X161190316Y-114976401D02*
X161540316Y-114976401D01*
X161540316Y-114976401D02*
X162657575Y-115925886D01*
X162657575Y-115925886D02*
X162600996Y-116227803D01*
X162600996Y-116227803D02*
X162511810Y-116834445D01*
X161190316Y-114576401D02*
X161540316Y-114576401D01*
X161540316Y-114576401D02*
X163339083Y-116105055D01*
X163339083Y-116105055D02*
X163166374Y-116308281D01*
X161190316Y-114176401D02*
X161540316Y-114176401D01*
X161540316Y-114176401D02*
X163788332Y-116086842D01*
X163788332Y-116086842D02*
X163731753Y-116388759D01*
X163731753Y-116388759D02*
X163642567Y-116995401D01*
X161190316Y-113776401D02*
X161540316Y-113776401D01*
X161540316Y-113776401D02*
X164453897Y-116252462D01*
X164453897Y-116252462D02*
X164626605Y-116049236D01*
X161190316Y-113376401D02*
X161540316Y-113376401D01*
X161540316Y-113376401D02*
X164167151Y-115608776D01*
X164167151Y-115608776D02*
X164455989Y-115504240D01*
X164455989Y-115504240D02*
X165041329Y-115321633D01*
X161190316Y-112976401D02*
X161540316Y-112976401D01*
X161540316Y-112976401D02*
X164112665Y-115162471D01*
X164112665Y-115162471D02*
X164285373Y-114959245D01*
X161190316Y-112576401D02*
X161540316Y-112576401D01*
X161540316Y-112576401D02*
X163825920Y-114518785D01*
X163825920Y-114518785D02*
X164114757Y-114414250D01*
X164114757Y-114414250D02*
X164700097Y-114231642D01*
X161190316Y-112176401D02*
X161540316Y-112176401D01*
X161540316Y-112176401D02*
X163771433Y-114072481D01*
X163771433Y-114072481D02*
X163944142Y-113869254D01*
X161190316Y-111776401D02*
X161540316Y-111776401D01*
X161540316Y-111776401D02*
X163484688Y-113428795D01*
X163484688Y-113428795D02*
X163773526Y-113324259D01*
X163773526Y-113324259D02*
X164358866Y-113141651D01*
X161190316Y-111376401D02*
X161540316Y-111376401D01*
X161540316Y-111376401D02*
X163430201Y-112982490D01*
X163430201Y-112982490D02*
X163602910Y-112779264D01*
X161190316Y-110976401D02*
X161540316Y-110976401D01*
X161540316Y-110976401D02*
X163143456Y-112338804D01*
X163143456Y-112338804D02*
X163432294Y-112234268D01*
X163432294Y-112234268D02*
X164017634Y-112051661D01*
X161190316Y-110576401D02*
X161540316Y-110576401D01*
X161540316Y-110576401D02*
X163088969Y-111892499D01*
X163088969Y-111892499D02*
X163261678Y-111689273D01*
X161190316Y-110176401D02*
X161540316Y-110176401D01*
X161540316Y-110176401D02*
X162802224Y-111248813D01*
X162802224Y-111248813D02*
X163091062Y-111144278D01*
X163091062Y-111144278D02*
X163676402Y-110961670D01*
X161190316Y-109776401D02*
X161540316Y-109776401D01*
X161540316Y-109776401D02*
X162747737Y-110802509D01*
X162747737Y-110802509D02*
X162920446Y-110599282D01*
X161190316Y-106224000D02*
X161540316Y-106224000D01*
X161540316Y-106224000D02*
X162747737Y-105197892D01*
X162747737Y-105197892D02*
X162920446Y-105401118D01*
X161190316Y-105824000D02*
X161540316Y-105824000D01*
X161540316Y-105824000D02*
X162802224Y-104751587D01*
X162802224Y-104751587D02*
X163091062Y-104856123D01*
X163091062Y-104856123D02*
X163676402Y-105038731D01*
X161190316Y-105424000D02*
X161540316Y-105424000D01*
X161540316Y-105424000D02*
X163088969Y-104107901D01*
X163088969Y-104107901D02*
X163261678Y-104311128D01*
X161190316Y-105024000D02*
X161540316Y-105024000D01*
X161540316Y-105024000D02*
X163143456Y-103661597D01*
X163143456Y-103661597D02*
X163432294Y-103766132D01*
X163432294Y-103766132D02*
X164017634Y-103948740D01*
X161190316Y-104624000D02*
X161540316Y-104624000D01*
X161540316Y-104624000D02*
X163430201Y-103017911D01*
X163430201Y-103017911D02*
X163602910Y-103221137D01*
X161190316Y-104224000D02*
X161540316Y-104224000D01*
X161540316Y-104224000D02*
X163484688Y-102571606D01*
X163484688Y-102571606D02*
X163773526Y-102676142D01*
X163773526Y-102676142D02*
X164358866Y-102858749D01*
X161190316Y-103824000D02*
X161540316Y-103824000D01*
X161540316Y-103824000D02*
X163771433Y-101927920D01*
X163771433Y-101927920D02*
X163944142Y-102131146D01*
X161190316Y-103424000D02*
X161540316Y-103424000D01*
X161540316Y-103424000D02*
X163825920Y-101481616D01*
X163825920Y-101481616D02*
X164114757Y-101586151D01*
X164114757Y-101586151D02*
X164700097Y-101768759D01*
X161190316Y-103024000D02*
X161540316Y-103024000D01*
X161540316Y-103024000D02*
X164112665Y-100837930D01*
X164112665Y-100837930D02*
X164285373Y-101041156D01*
X161190316Y-102624000D02*
X161540316Y-102624000D01*
X161540316Y-102624000D02*
X164167151Y-100391625D01*
X164167151Y-100391625D02*
X164455989Y-100496161D01*
X164455989Y-100496161D02*
X165041329Y-100678768D01*
X161190316Y-102224000D02*
X161540316Y-102224000D01*
X161540316Y-102224000D02*
X164453897Y-99747939D01*
X164453897Y-99747939D02*
X164626605Y-99951165D01*
X161190316Y-101824000D02*
X161540316Y-101824000D01*
X161540316Y-101824000D02*
X163788332Y-99913558D01*
X163788332Y-99913558D02*
X163731753Y-99611642D01*
X163731753Y-99611642D02*
X163642567Y-99005000D01*
X161190316Y-101424000D02*
X161540316Y-101424000D01*
X161540316Y-101424000D02*
X163339083Y-99895346D01*
X163339083Y-99895346D02*
X163166374Y-99692120D01*
X161190316Y-101024000D02*
X161540316Y-101024000D01*
X161540316Y-101024000D02*
X162657575Y-100074515D01*
X162657575Y-100074515D02*
X162600996Y-99772598D01*
X162600996Y-99772598D02*
X162511810Y-99165956D01*
X161190316Y-100624000D02*
X161540316Y-100624000D01*
X161540316Y-100624000D02*
X162208326Y-100056303D01*
X162208326Y-100056303D02*
X162035617Y-99853076D01*
X157630000Y-99374933D02*
X157630000Y-98890000D01*
X158110316Y-100624000D02*
X157948753Y-100624000D01*
X157948753Y-100624000D02*
X157630000Y-100305247D01*
X157630000Y-100305247D02*
X157630000Y-99374933D01*
X158110316Y-101024000D02*
X157760316Y-101024000D01*
X157760316Y-101024000D02*
X156643057Y-100074515D01*
X156643057Y-100074515D02*
X156699637Y-99772598D01*
X156699637Y-99772598D02*
X156788823Y-99165956D01*
X158110316Y-101424000D02*
X157760316Y-101424000D01*
X157760316Y-101424000D02*
X155961549Y-99895346D01*
X155961549Y-99895346D02*
X156134258Y-99692120D01*
X151300000Y-94434933D02*
X151300000Y-93950000D01*
X151300000Y-95604576D02*
X151300000Y-94434933D01*
X152307519Y-96612095D02*
X151300000Y-95604576D01*
X152964173Y-96612095D02*
X152307519Y-96612095D01*
X158110316Y-101824000D02*
X157760316Y-101824000D01*
X157760316Y-101824000D02*
X155512300Y-99913558D01*
X155512300Y-99913558D02*
X155568880Y-99611642D01*
X155568880Y-99611642D02*
X155658066Y-99005000D01*
X158110316Y-102224000D02*
X157760316Y-102224000D01*
X157760316Y-102224000D02*
X154846736Y-99747939D01*
X154846736Y-99747939D02*
X154674027Y-99951165D01*
X158110316Y-102624000D02*
X157760316Y-102624000D01*
X157760316Y-102624000D02*
X155133481Y-100391625D01*
X155133481Y-100391625D02*
X154844643Y-100496161D01*
X154844643Y-100496161D02*
X154259303Y-100678768D01*
X158110316Y-103024000D02*
X157760316Y-103024000D01*
X157760316Y-103024000D02*
X155187968Y-100837930D01*
X155187968Y-100837930D02*
X155015259Y-101041156D01*
X158110316Y-106624000D02*
X157760316Y-106624000D01*
X157760316Y-106624000D02*
X156839640Y-105841578D01*
X156839640Y-105841578D02*
X156550802Y-105946114D01*
X156550802Y-105946114D02*
X155965462Y-106128721D01*
X158110316Y-109776401D02*
X157760316Y-109776401D01*
X157760316Y-109776401D02*
X156552895Y-110802509D01*
X156552895Y-110802509D02*
X156380187Y-110599282D01*
X158110316Y-110176401D02*
X157760316Y-110176401D01*
X157760316Y-110176401D02*
X156498409Y-111248813D01*
X156498409Y-111248813D02*
X156209571Y-111144278D01*
X156209571Y-111144278D02*
X155624231Y-110961670D01*
X158110316Y-110576401D02*
X157760316Y-110576401D01*
X157760316Y-110576401D02*
X156211663Y-111892499D01*
X156211663Y-111892499D02*
X156038955Y-111689273D01*
X158110316Y-110976401D02*
X157760316Y-110976401D01*
X157760316Y-110976401D02*
X156157177Y-112338804D01*
X156157177Y-112338804D02*
X155868339Y-112234268D01*
X155868339Y-112234268D02*
X155282999Y-112051661D01*
X158110316Y-111376401D02*
X157760316Y-111376401D01*
X157760316Y-111376401D02*
X155870431Y-112982490D01*
X155870431Y-112982490D02*
X155697723Y-112779264D01*
X158110316Y-111776401D02*
X157760316Y-111776401D01*
X157760316Y-111776401D02*
X155815945Y-113428795D01*
X155815945Y-113428795D02*
X155527107Y-113324259D01*
X155527107Y-113324259D02*
X154941767Y-113141651D01*
X158110316Y-112176401D02*
X157760316Y-112176401D01*
X157760316Y-112176401D02*
X155529200Y-114072481D01*
X155529200Y-114072481D02*
X155356491Y-113869254D01*
X158110316Y-112576401D02*
X157760316Y-112576401D01*
X157760316Y-112576401D02*
X155474713Y-114518785D01*
X155474713Y-114518785D02*
X155185875Y-114414250D01*
X155185875Y-114414250D02*
X154600535Y-114231642D01*
X158110316Y-112976401D02*
X157760316Y-112976401D01*
X157760316Y-112976401D02*
X155187968Y-115162471D01*
X155187968Y-115162471D02*
X155015259Y-114959245D01*
X158110316Y-113376401D02*
X157760316Y-113376401D01*
X157760316Y-113376401D02*
X155133481Y-115608776D01*
X155133481Y-115608776D02*
X154844643Y-115504240D01*
X154844643Y-115504240D02*
X154259303Y-115321633D01*
X157760316Y-113776401D02*
X157783915Y-113800000D01*
X157783915Y-113800000D02*
X158295000Y-113800000D01*
X157760316Y-113776401D02*
X154846736Y-116252462D01*
X154846736Y-116252462D02*
X154674027Y-116049236D01*
X155217101Y-116667101D02*
X155560000Y-117010000D01*
X157760316Y-114176401D02*
X155512300Y-116086842D01*
X158110316Y-114176401D02*
X157760316Y-114176401D01*
X155512300Y-116086842D02*
X155217101Y-116382041D01*
X155217101Y-116382041D02*
X155217101Y-116667101D01*
X156275613Y-116079454D02*
X156275613Y-116969847D01*
X156275613Y-116969847D02*
X156275613Y-117454780D01*
X157755067Y-114600000D02*
X156275613Y-116079454D01*
X158295000Y-114600000D02*
X157755067Y-114600000D01*
X157130000Y-115677450D02*
X157130000Y-116905067D01*
X157831049Y-114976401D02*
X157130000Y-115677450D01*
X158110316Y-114976401D02*
X157831049Y-114976401D01*
X157130000Y-116905067D02*
X157130000Y-117390000D01*
X160525000Y-120650000D02*
X159509935Y-120650000D01*
X161200000Y-121325000D02*
X160525000Y-120650000D01*
X159509935Y-120650000D02*
X159025002Y-120650000D01*
X154350000Y-92094470D02*
X154322930Y-92121540D01*
X154350000Y-91200000D02*
X154350000Y-92094470D01*
X155006290Y-94881290D02*
X154812180Y-94881290D01*
X156025000Y-95900000D02*
X155006290Y-94881290D01*
X156250000Y-95900000D02*
X156025000Y-95900000D01*
X157300000Y-97100000D02*
X160117136Y-97100000D01*
X160117136Y-97100000D02*
X160303087Y-96914049D01*
X156250000Y-96050000D02*
X156250000Y-95900000D01*
X157300000Y-97100000D02*
X156250000Y-96050000D01*
X156750000Y-92200000D02*
X156475000Y-92200000D01*
X156475000Y-92200000D02*
X155812500Y-92862500D01*
X158110316Y-106224000D02*
X157760316Y-106224000D01*
X157760316Y-106224000D02*
X156552895Y-105197892D01*
X156552895Y-105197892D02*
X156380187Y-105401118D01*
X154386448Y-95297623D02*
X154386448Y-95727459D01*
X154598868Y-102515850D02*
X154941767Y-102858749D01*
X153650000Y-97869537D02*
X153650000Y-101664047D01*
X153835424Y-96278481D02*
X153835424Y-97684113D01*
X154386448Y-95727459D02*
X153835424Y-96278481D01*
X154539071Y-94312323D02*
X154243218Y-94608176D01*
X155285100Y-94362500D02*
X155234923Y-94312323D01*
X155234923Y-94312323D02*
X154539071Y-94312323D01*
X154501803Y-102515850D02*
X154598868Y-102515850D01*
X155812500Y-94362500D02*
X155285100Y-94362500D01*
X154243218Y-95154393D02*
X154386448Y-95297623D01*
X153835424Y-97684113D02*
X153650000Y-97869537D01*
X154243218Y-94608176D02*
X154243218Y-95154393D01*
X153650000Y-101664047D02*
X154501803Y-102515850D01*
X158110316Y-104224000D02*
X157760316Y-104224000D01*
X157760316Y-104224000D02*
X155815945Y-102571606D01*
X155815945Y-102571606D02*
X155527107Y-102676142D01*
X155527107Y-102676142D02*
X154941767Y-102858749D01*
X155812500Y-93862500D02*
X154561419Y-93862500D01*
X154561419Y-93862500D02*
X153940947Y-94482972D01*
X155354824Y-103564036D02*
X155697723Y-103221137D01*
X153533153Y-96908109D02*
X153345189Y-97096073D01*
X154801231Y-103564036D02*
X155354824Y-103564036D01*
X153345189Y-102107994D02*
X154801231Y-103564036D01*
X153940947Y-95279597D02*
X154084177Y-95422827D01*
X153533153Y-96153277D02*
X153533153Y-96908109D01*
X153533155Y-96148131D02*
X153533153Y-96153277D01*
X154084177Y-95597109D02*
X153533155Y-96148131D01*
X154084177Y-95422827D02*
X154084177Y-95597109D01*
X153345189Y-97096073D02*
X153345189Y-102107994D01*
X153940947Y-94482972D02*
X153940947Y-95279597D01*
X158110316Y-104624000D02*
X157760316Y-104624000D01*
X157760316Y-104624000D02*
X155870431Y-103017911D01*
X155870431Y-103017911D02*
X155697723Y-103221137D01*
X158110316Y-103424000D02*
X157760316Y-103424000D01*
X157760316Y-103424000D02*
X155474713Y-101481616D01*
X155474713Y-101481616D02*
X155185875Y-101586151D01*
X155185875Y-101586151D02*
X154600535Y-101768759D01*
X158110316Y-103824000D02*
X157760316Y-103824000D01*
X157760316Y-103824000D02*
X155529200Y-101927920D01*
X155529200Y-101927920D02*
X155356491Y-102131146D01*
X158110316Y-107024000D02*
X157760316Y-107024000D01*
X157760316Y-107024000D02*
X156894127Y-106287883D01*
X156894127Y-106287883D02*
X156721418Y-106491109D01*
G36*
X157624618Y-90630511D02*
X157556897Y-90793600D01*
X157486669Y-90793600D01*
X157486669Y-90750000D01*
X157463644Y-90627635D01*
X157391327Y-90515251D01*
X157280983Y-90439856D01*
X157150000Y-90413331D01*
X155950000Y-90413331D01*
X155827635Y-90436356D01*
X155715251Y-90508673D01*
X155639856Y-90619017D01*
X155613331Y-90750000D01*
X155613331Y-91411933D01*
X155264172Y-91761092D01*
X155286669Y-91650000D01*
X155286669Y-90750000D01*
X155263644Y-90627635D01*
X155191327Y-90515251D01*
X155080983Y-90439856D01*
X154950000Y-90413331D01*
X153750000Y-90413331D01*
X153627635Y-90436356D01*
X153515251Y-90508673D01*
X153439856Y-90619017D01*
X153413331Y-90750000D01*
X153413331Y-91650000D01*
X153436356Y-91772365D01*
X153508673Y-91884749D01*
X153619017Y-91960144D01*
X153657859Y-91968010D01*
X153649947Y-91987065D01*
X153649713Y-92254841D01*
X153751971Y-92502323D01*
X153907614Y-92658238D01*
X153849329Y-92798604D01*
X153849221Y-92922310D01*
X153756778Y-92829706D01*
X153509475Y-92727017D01*
X153241699Y-92726783D01*
X152994217Y-92829041D01*
X152804706Y-93018222D01*
X152702017Y-93265525D01*
X152701783Y-93533301D01*
X152804041Y-93780783D01*
X152993222Y-93970294D01*
X153240525Y-94072983D01*
X153508301Y-94073217D01*
X153755783Y-93970959D01*
X153920629Y-93806400D01*
X154042783Y-93806400D01*
X153653579Y-94195604D01*
X153565482Y-94327449D01*
X153534547Y-94482972D01*
X153534547Y-94819867D01*
X153523033Y-94815086D01*
X153255257Y-94814852D01*
X153007775Y-94917110D01*
X152842929Y-95081669D01*
X152529186Y-95081669D01*
X152519304Y-95057752D01*
X152330123Y-94868241D01*
X152082820Y-94765552D01*
X151815044Y-94765318D01*
X151706400Y-94810209D01*
X151706400Y-94495387D01*
X151870294Y-94331778D01*
X151972983Y-94084475D01*
X151973217Y-93816699D01*
X151870959Y-93569217D01*
X151681778Y-93379706D01*
X151434475Y-93277017D01*
X151166699Y-93276783D01*
X150919217Y-93379041D01*
X150729706Y-93568222D01*
X150627017Y-93815525D01*
X150626783Y-94083301D01*
X150729041Y-94330783D01*
X150893600Y-94495629D01*
X150893600Y-95604576D01*
X150924535Y-95760099D01*
X150991797Y-95860763D01*
X151012632Y-95891944D01*
X152020151Y-96899463D01*
X152151996Y-96987560D01*
X152307519Y-97018495D01*
X152418786Y-97018495D01*
X152582395Y-97182389D01*
X152829698Y-97285078D01*
X152938789Y-97285173D01*
X152938789Y-102107994D01*
X152969724Y-102263517D01*
X153030195Y-102354017D01*
X153057821Y-102395362D01*
X154513863Y-103851404D01*
X154645708Y-103939501D01*
X154801231Y-103970436D01*
X155354824Y-103970436D01*
X155510347Y-103939501D01*
X155578244Y-103894133D01*
X155831024Y-103894354D01*
X156078506Y-103792096D01*
X156113149Y-103757513D01*
X157497142Y-104933678D01*
X157552302Y-104964391D01*
X157604793Y-104999465D01*
X157621129Y-105002714D01*
X157628331Y-105006724D01*
X157628331Y-105115000D01*
X157644912Y-105203120D01*
X157628331Y-105285000D01*
X157628331Y-105515000D01*
X157642555Y-105590590D01*
X156837080Y-104906070D01*
X156761965Y-104830824D01*
X156514662Y-104728135D01*
X156246886Y-104727901D01*
X155999404Y-104830159D01*
X155809893Y-105019340D01*
X155707204Y-105266643D01*
X155706994Y-105507222D01*
X155584679Y-105557762D01*
X155395168Y-105746943D01*
X155292479Y-105994246D01*
X155292245Y-106262022D01*
X155394503Y-106509504D01*
X155583684Y-106699015D01*
X155789110Y-106784315D01*
X155736400Y-106836934D01*
X155633711Y-107084237D01*
X155633477Y-107352013D01*
X155735735Y-107599495D01*
X155924916Y-107789006D01*
X156172219Y-107891695D01*
X156439995Y-107891929D01*
X156459463Y-107883885D01*
X156491691Y-107961883D01*
X156529843Y-108000101D01*
X156492356Y-108037523D01*
X156459617Y-108116366D01*
X156441169Y-108108706D01*
X156173393Y-108108472D01*
X155925911Y-108210730D01*
X155736400Y-108399911D01*
X155633711Y-108647214D01*
X155633477Y-108914990D01*
X155735735Y-109162472D01*
X155789330Y-109216160D01*
X155584679Y-109300721D01*
X155395168Y-109489902D01*
X155292479Y-109737205D01*
X155292245Y-110004981D01*
X155394503Y-110252463D01*
X155448098Y-110306151D01*
X155243448Y-110390711D01*
X155053937Y-110579892D01*
X154951248Y-110827195D01*
X154951014Y-111094971D01*
X155053272Y-111342453D01*
X155106867Y-111396141D01*
X154902216Y-111480702D01*
X154712705Y-111669883D01*
X154610016Y-111917186D01*
X154609782Y-112184962D01*
X154712040Y-112432444D01*
X154765634Y-112486132D01*
X154560984Y-112570692D01*
X154371473Y-112759873D01*
X154268784Y-113007176D01*
X154268550Y-113274952D01*
X154370808Y-113522434D01*
X154424403Y-113576122D01*
X154219752Y-113660683D01*
X154030241Y-113849864D01*
X153927552Y-114097167D01*
X153927318Y-114364943D01*
X154029576Y-114612425D01*
X154083171Y-114666113D01*
X153878520Y-114750674D01*
X153689009Y-114939855D01*
X153586320Y-115187158D01*
X153586086Y-115454934D01*
X153688344Y-115702416D01*
X153877525Y-115891927D01*
X154001019Y-115943206D01*
X154000810Y-116182537D01*
X154103068Y-116430019D01*
X154292249Y-116619530D01*
X154539552Y-116722219D01*
X154807328Y-116722453D01*
X154820619Y-116716961D01*
X154841636Y-116822624D01*
X154887004Y-116890521D01*
X154886783Y-117143301D01*
X154989041Y-117390783D01*
X155178222Y-117580294D01*
X155425525Y-117682983D01*
X155641687Y-117683172D01*
X155704654Y-117835563D01*
X155893835Y-118025074D01*
X156141138Y-118127763D01*
X156408914Y-118127997D01*
X156656396Y-118025739D01*
X156735111Y-117947161D01*
X156748222Y-117960294D01*
X156995525Y-118062983D01*
X157263301Y-118063217D01*
X157510783Y-117960959D01*
X157700294Y-117771778D01*
X157717157Y-117731168D01*
X157775214Y-117755275D01*
X158042990Y-117755509D01*
X158290472Y-117653251D01*
X158479983Y-117464070D01*
X158582672Y-117216767D01*
X158582906Y-116948991D01*
X158515836Y-116786669D01*
X158625000Y-116786669D01*
X158747365Y-116763644D01*
X158859749Y-116691327D01*
X158935144Y-116580983D01*
X158961669Y-116450000D01*
X158961669Y-116100000D01*
X158943625Y-116004105D01*
X158961669Y-115915000D01*
X158961669Y-115685000D01*
X158945088Y-115596880D01*
X158961669Y-115515000D01*
X158961669Y-115285000D01*
X158945088Y-115196880D01*
X158961669Y-115115000D01*
X158961669Y-114885000D01*
X158945088Y-114796880D01*
X158961669Y-114715000D01*
X158961669Y-114485000D01*
X158945088Y-114396880D01*
X158961669Y-114315000D01*
X158961669Y-114085000D01*
X158945088Y-113996880D01*
X158961669Y-113915000D01*
X158961669Y-113685000D01*
X158945088Y-113596880D01*
X158961669Y-113515000D01*
X158961669Y-113285000D01*
X158945088Y-113196880D01*
X158961669Y-113115000D01*
X158961669Y-112885000D01*
X158945088Y-112796880D01*
X158961669Y-112715000D01*
X158961669Y-112485000D01*
X158945088Y-112396880D01*
X158961669Y-112315000D01*
X158961669Y-112085000D01*
X158945088Y-111996880D01*
X158961669Y-111915000D01*
X158961669Y-111685000D01*
X158945088Y-111596880D01*
X158961669Y-111515000D01*
X158961669Y-111285000D01*
X158945088Y-111196880D01*
X158961669Y-111115000D01*
X158961669Y-110885000D01*
X158945088Y-110796880D01*
X158961669Y-110715000D01*
X158961669Y-110485000D01*
X158945088Y-110396880D01*
X158961669Y-110315000D01*
X158961669Y-110085000D01*
X158945088Y-109996880D01*
X158961669Y-109915000D01*
X158961669Y-109685000D01*
X158945088Y-109596880D01*
X158961669Y-109515000D01*
X158961669Y-109285000D01*
X158945088Y-109196880D01*
X158961669Y-109115000D01*
X158961669Y-108885000D01*
X158945088Y-108796880D01*
X158961669Y-108715000D01*
X158961669Y-108485000D01*
X158945088Y-108396880D01*
X158961669Y-108315000D01*
X158961669Y-108085000D01*
X158945088Y-107996880D01*
X158961669Y-107915000D01*
X158961669Y-107685000D01*
X158945088Y-107596880D01*
X158961669Y-107515000D01*
X158961669Y-107285000D01*
X158945088Y-107196880D01*
X158961669Y-107115000D01*
X158961669Y-106885000D01*
X158945088Y-106796880D01*
X158961669Y-106715000D01*
X158961669Y-106485000D01*
X158945088Y-106396880D01*
X158961669Y-106315000D01*
X158961669Y-106206400D01*
X159531067Y-106206400D01*
X159686590Y-106175465D01*
X159818435Y-106087368D01*
X160232557Y-105673246D01*
X160251780Y-105644477D01*
X160320654Y-105541401D01*
X160338331Y-105452531D01*
X160338331Y-105515000D01*
X160354912Y-105603120D01*
X160338331Y-105685000D01*
X160338331Y-105915000D01*
X160351793Y-105986543D01*
X160344077Y-105989739D01*
X160179739Y-106154078D01*
X160090800Y-106368796D01*
X160090800Y-106396450D01*
X160214083Y-106519733D01*
X160179739Y-106554078D01*
X160090800Y-106768796D01*
X160090800Y-106796450D01*
X160094350Y-106800000D01*
X160090800Y-106803550D01*
X160090800Y-106831204D01*
X160160718Y-107000000D01*
X160090800Y-107168796D01*
X160090800Y-107196450D01*
X160094350Y-107200000D01*
X160090800Y-107203550D01*
X160090800Y-107231204D01*
X160160718Y-107400000D01*
X160090800Y-107568796D01*
X160090800Y-107596450D01*
X160094350Y-107600000D01*
X160090800Y-107603550D01*
X160090800Y-107631204D01*
X160160718Y-107800000D01*
X160090800Y-107968796D01*
X160090800Y-107996450D01*
X160094350Y-108000000D01*
X160090800Y-108003550D01*
X160090800Y-108031204D01*
X160160718Y-108200000D01*
X160090800Y-108368796D01*
X160090800Y-108396450D01*
X160094350Y-108400000D01*
X160090800Y-108403550D01*
X160090800Y-108431204D01*
X160160718Y-108600000D01*
X160090800Y-108768796D01*
X160090800Y-108796450D01*
X160094350Y-108800000D01*
X160090800Y-108803550D01*
X160090800Y-108831204D01*
X160160718Y-109000000D01*
X160090800Y-109168796D01*
X160090800Y-109196450D01*
X160094350Y-109200000D01*
X160090800Y-109203550D01*
X160090800Y-109231204D01*
X160179739Y-109445922D01*
X160214083Y-109480267D01*
X160090800Y-109603550D01*
X160090800Y-109631204D01*
X160179739Y-109845922D01*
X160344077Y-110010261D01*
X160352740Y-110013849D01*
X160338331Y-110085000D01*
X160338331Y-110315000D01*
X160354912Y-110403120D01*
X160338331Y-110485000D01*
X160338331Y-110715000D01*
X160354912Y-110803120D01*
X160338331Y-110885000D01*
X160338331Y-111115000D01*
X160354912Y-111203120D01*
X160338331Y-111285000D01*
X160338331Y-111515000D01*
X160354912Y-111603120D01*
X160338331Y-111685000D01*
X160338331Y-111915000D01*
X160354912Y-112003120D01*
X160338331Y-112085000D01*
X160338331Y-112315000D01*
X160354912Y-112403120D01*
X160338331Y-112485000D01*
X160338331Y-112715000D01*
X160354912Y-112803120D01*
X160338331Y-112885000D01*
X160338331Y-113115000D01*
X160354912Y-113203120D01*
X160338331Y-113285000D01*
X160338331Y-113515000D01*
X160354912Y-113603120D01*
X160338331Y-113685000D01*
X160338331Y-113915000D01*
X160354912Y-114003120D01*
X160338331Y-114085000D01*
X160338331Y-114315000D01*
X160354912Y-114403120D01*
X160338331Y-114485000D01*
X160338331Y-114715000D01*
X160354912Y-114803120D01*
X160338331Y-114885000D01*
X160338331Y-115115000D01*
X160354912Y-115203120D01*
X160338331Y-115285000D01*
X160338331Y-115515000D01*
X160354912Y-115603120D01*
X160338331Y-115685000D01*
X160338331Y-115915000D01*
X160356375Y-116010895D01*
X160338331Y-116100000D01*
X160338331Y-116450000D01*
X160361356Y-116572365D01*
X160428077Y-116676053D01*
X160372032Y-116811026D01*
X160371798Y-117078802D01*
X160474056Y-117326284D01*
X160663237Y-117515795D01*
X160910540Y-117618484D01*
X161178316Y-117618718D01*
X161425798Y-117516460D01*
X161615309Y-117327279D01*
X161717998Y-117079976D01*
X161718232Y-116812200D01*
X161684394Y-116730305D01*
X161838744Y-116794397D01*
X161838593Y-116967746D01*
X161940851Y-117215228D01*
X162130032Y-117404739D01*
X162377335Y-117507428D01*
X162645111Y-117507662D01*
X162892593Y-117405404D01*
X163027879Y-117270353D01*
X163071608Y-117376184D01*
X163260789Y-117565695D01*
X163508092Y-117668384D01*
X163775868Y-117668618D01*
X164023350Y-117566360D01*
X164212861Y-117377179D01*
X164315550Y-117129876D01*
X164315784Y-116862100D01*
X164213526Y-116614618D01*
X164122694Y-116523627D01*
X164125216Y-116506470D01*
X164169713Y-116544285D01*
X164244827Y-116619530D01*
X164492130Y-116722219D01*
X164759906Y-116722453D01*
X165007388Y-116620195D01*
X165196899Y-116431014D01*
X165299588Y-116183711D01*
X165299798Y-115943131D01*
X165422112Y-115892592D01*
X165594800Y-115720205D01*
X165594800Y-123210093D01*
X165408979Y-124144277D01*
X164902410Y-124902412D01*
X164144277Y-125408979D01*
X163210092Y-125594800D01*
X132789907Y-125594800D01*
X131855723Y-125408979D01*
X131097588Y-124902410D01*
X130591021Y-124144277D01*
X130485235Y-123612452D01*
X130919483Y-123612452D01*
X131197527Y-124285371D01*
X131711921Y-124800664D01*
X132384354Y-125079882D01*
X133112452Y-125080517D01*
X133785371Y-124802473D01*
X134300664Y-124288079D01*
X134579882Y-123615646D01*
X134579884Y-123612452D01*
X161419483Y-123612452D01*
X161697527Y-124285371D01*
X162211921Y-124800664D01*
X162884354Y-125079882D01*
X163612452Y-125080517D01*
X164285371Y-124802473D01*
X164800664Y-124288079D01*
X165079882Y-123615646D01*
X165080517Y-122887548D01*
X164802473Y-122214629D01*
X164288079Y-121699336D01*
X163615646Y-121420118D01*
X162887548Y-121419483D01*
X162214629Y-121697527D01*
X161699336Y-122211921D01*
X161420118Y-122884354D01*
X161419483Y-123612452D01*
X134579884Y-123612452D01*
X134580517Y-122887548D01*
X134302473Y-122214629D01*
X133788079Y-121699336D01*
X133115646Y-121420118D01*
X132387548Y-121419483D01*
X131714629Y-121697527D01*
X131199336Y-122211921D01*
X130920118Y-122884354D01*
X130919483Y-123612452D01*
X130485235Y-123612452D01*
X130405200Y-123210092D01*
X130405200Y-121129095D01*
X135081819Y-121129095D01*
X135085197Y-121149436D01*
X135083012Y-121169940D01*
X135085309Y-121195340D01*
X135092451Y-121219580D01*
X135093554Y-121244827D01*
X135099029Y-121267200D01*
X135108077Y-121286603D01*
X135108168Y-121288422D01*
X135112699Y-121297983D01*
X135118937Y-121325057D01*
X135127571Y-121344247D01*
X135145891Y-121369956D01*
X135148595Y-121379038D01*
X135154647Y-121386491D01*
X135164182Y-121406609D01*
X135175957Y-121422458D01*
X135194378Y-121439127D01*
X135194863Y-121440100D01*
X135197529Y-121442418D01*
X135203472Y-121450758D01*
X135210303Y-121455031D01*
X135231040Y-121480568D01*
X135245935Y-121492923D01*
X135265577Y-121503553D01*
X135272936Y-121510212D01*
X135277280Y-121511762D01*
X135293559Y-121525917D01*
X135300776Y-121530043D01*
X135313699Y-121534369D01*
X135324670Y-121542458D01*
X135331619Y-121545721D01*
X135341919Y-121548271D01*
X135350837Y-121554023D01*
X135358414Y-121557019D01*
X135368793Y-121558910D01*
X135377992Y-121564065D01*
X135386444Y-121566814D01*
X135396053Y-121567954D01*
X135404750Y-121572197D01*
X135414321Y-121574718D01*
X135422667Y-121575229D01*
X135430354Y-121578522D01*
X135441289Y-121580834D01*
X135448221Y-121580917D01*
X135454701Y-121583386D01*
X135467247Y-121585508D01*
X135472833Y-121585348D01*
X135478122Y-121587166D01*
X135492521Y-121589119D01*
X135496960Y-121588845D01*
X135501201Y-121590181D01*
X135517701Y-121591982D01*
X135521155Y-121591679D01*
X135524481Y-121592652D01*
X135543324Y-121594322D01*
X135546009Y-121594031D01*
X135548615Y-121594749D01*
X135570049Y-121596307D01*
X135572126Y-121596049D01*
X135574151Y-121596580D01*
X135598418Y-121598045D01*
X135600022Y-121597825D01*
X135601590Y-121598221D01*
X135628937Y-121599612D01*
X135630169Y-121599431D01*
X135631378Y-121599727D01*
X135662050Y-121601063D01*
X135662982Y-121600920D01*
X135663901Y-121601139D01*
X135698143Y-121602441D01*
X135698855Y-121602327D01*
X135699558Y-121602492D01*
X135737615Y-121603778D01*
X135738152Y-121603690D01*
X135738681Y-121603812D01*
X135780797Y-121605101D01*
X135781191Y-121605035D01*
X135781581Y-121605124D01*
X135828001Y-121606436D01*
X135828286Y-121606388D01*
X135828570Y-121606452D01*
X135879541Y-121607806D01*
X135879669Y-121607784D01*
X135879793Y-121607812D01*
X135888694Y-121608042D01*
X135888695Y-121608042D01*
X135971953Y-121610319D01*
X136049762Y-121612729D01*
X136123349Y-121615314D01*
X136193193Y-121618098D01*
X136259574Y-121621097D01*
X136322733Y-121624318D01*
X136383268Y-121627795D01*
X136441400Y-121631533D01*
X136497691Y-121635564D01*
X136552369Y-121639895D01*
X136606095Y-121644566D01*
X136659579Y-121649633D01*
X136676134Y-121651286D01*
X136760838Y-121660389D01*
X136841339Y-121670153D01*
X136919163Y-121680788D01*
X136994583Y-121692356D01*
X137068425Y-121705002D01*
X137141237Y-121718837D01*
X137213699Y-121734002D01*
X137286410Y-121750630D01*
X137359988Y-121768869D01*
X137435115Y-121788890D01*
X137512321Y-121810832D01*
X137592237Y-121834864D01*
X137675267Y-121861089D01*
X137762318Y-121889770D01*
X137831272Y-121913231D01*
X137861690Y-121923912D01*
X137889601Y-121934145D01*
X137915695Y-121944192D01*
X137940641Y-121954322D01*
X137965239Y-121964865D01*
X137990115Y-121976110D01*
X138016125Y-121988468D01*
X138043753Y-122002195D01*
X138073633Y-122017634D01*
X138106295Y-122035075D01*
X138142153Y-122054744D01*
X138181807Y-122076969D01*
X138225542Y-122101890D01*
X138239235Y-122109761D01*
X138239237Y-122109762D01*
X138279434Y-122132891D01*
X138279550Y-122132930D01*
X138279644Y-122133012D01*
X138315967Y-122153877D01*
X138316133Y-122153933D01*
X138316264Y-122154047D01*
X138349019Y-122172818D01*
X138349257Y-122172898D01*
X138349448Y-122173064D01*
X138378943Y-122189908D01*
X138379260Y-122190014D01*
X138379514Y-122190234D01*
X138406055Y-122205323D01*
X138406475Y-122205462D01*
X138406809Y-122205750D01*
X138430702Y-122219252D01*
X138431246Y-122219431D01*
X138431682Y-122219804D01*
X138453236Y-122231889D01*
X138453923Y-122232113D01*
X138454472Y-122232578D01*
X138473993Y-122243415D01*
X138474840Y-122243687D01*
X138475521Y-122244258D01*
X138493316Y-122254016D01*
X138494327Y-122254335D01*
X138495145Y-122255012D01*
X138511521Y-122263860D01*
X138512678Y-122264217D01*
X138513614Y-122264981D01*
X138528878Y-122273090D01*
X138530149Y-122273472D01*
X138531182Y-122274302D01*
X138545641Y-122281839D01*
X138546948Y-122282221D01*
X138548015Y-122283064D01*
X138561975Y-122290200D01*
X138563266Y-122290566D01*
X138564324Y-122291389D01*
X138578093Y-122298292D01*
X138579232Y-122298605D01*
X138580168Y-122299323D01*
X138594053Y-122306164D01*
X138595005Y-122306419D01*
X138595792Y-122307015D01*
X138610100Y-122313962D01*
X138610457Y-122314055D01*
X138610751Y-122314277D01*
X138612007Y-122314883D01*
X138614259Y-122315466D01*
X138616137Y-122316843D01*
X138662381Y-122338400D01*
X138667589Y-122339674D01*
X138672011Y-122342706D01*
X138715635Y-122361394D01*
X138722040Y-122362748D01*
X138727578Y-122366241D01*
X138769521Y-122382330D01*
X138776908Y-122383597D01*
X138783413Y-122387310D01*
X138824618Y-122401068D01*
X138832541Y-122402071D01*
X138839656Y-122405700D01*
X138881061Y-122417396D01*
X138888968Y-122418022D01*
X138896196Y-122421293D01*
X138938743Y-122431196D01*
X138946076Y-122431433D01*
X138952880Y-122434166D01*
X138997512Y-122442546D01*
X139003840Y-122442478D01*
X139009794Y-122444616D01*
X139057449Y-122451741D01*
X139062267Y-122451510D01*
X139066851Y-122453011D01*
X139111313Y-122458377D01*
X139116177Y-122458005D01*
X139120857Y-122459391D01*
X139148963Y-122461969D01*
X139153563Y-122461485D01*
X139158028Y-122462676D01*
X139189534Y-122464706D01*
X139193133Y-122464228D01*
X139196660Y-122465089D01*
X139230156Y-122466532D01*
X139233357Y-122466037D01*
X139236519Y-122466746D01*
X139270597Y-122467566D01*
X139273836Y-122467002D01*
X139277057Y-122467659D01*
X139310303Y-122467818D01*
X139314019Y-122467097D01*
X139317743Y-122467771D01*
X139348749Y-122467231D01*
X139352826Y-122466346D01*
X139356950Y-122466988D01*
X139377181Y-122466140D01*
X139384033Y-122464476D01*
X139391038Y-122465271D01*
X139445584Y-122460716D01*
X139454414Y-122458180D01*
X139463586Y-122458722D01*
X139518757Y-122451096D01*
X139526986Y-122448243D01*
X139535693Y-122448311D01*
X139590672Y-122437819D01*
X139598625Y-122434597D01*
X139607197Y-122434231D01*
X139661169Y-122421080D01*
X139669151Y-122417367D01*
X139677916Y-122416537D01*
X139730068Y-122400929D01*
X139738386Y-122396522D01*
X139747692Y-122395118D01*
X139797209Y-122377259D01*
X139806189Y-122371846D01*
X139816437Y-122369645D01*
X139862504Y-122349740D01*
X139868749Y-122345429D01*
X139876095Y-122343505D01*
X139888512Y-122337469D01*
X139894972Y-122332570D01*
X139902708Y-122330145D01*
X139958236Y-122299800D01*
X139967547Y-122292013D01*
X139978843Y-122287563D01*
X140033167Y-122252617D01*
X140041461Y-122244607D01*
X140051874Y-122239664D01*
X140104897Y-122200225D01*
X140112222Y-122192120D01*
X140121768Y-122186812D01*
X140173393Y-122142988D01*
X140179821Y-122134884D01*
X140188538Y-122129317D01*
X140238670Y-122081216D01*
X140244277Y-122073188D01*
X140252213Y-122067451D01*
X140300756Y-122015182D01*
X140305624Y-122007280D01*
X140312837Y-122001440D01*
X140359695Y-121945110D01*
X140363897Y-121937373D01*
X140370445Y-121931485D01*
X140415522Y-121871204D01*
X140419132Y-121863648D01*
X140425075Y-121857750D01*
X140468276Y-121793624D01*
X140471358Y-121786262D01*
X140476753Y-121780381D01*
X140517981Y-121712519D01*
X140520593Y-121705355D01*
X140525489Y-121699512D01*
X140564649Y-121628022D01*
X140566661Y-121621627D01*
X140570761Y-121616323D01*
X140601681Y-121554188D01*
X140603069Y-121549080D01*
X140606175Y-121544794D01*
X140618750Y-121517424D01*
X140619856Y-121512789D01*
X140622544Y-121508853D01*
X140634627Y-121480489D01*
X140635561Y-121476026D01*
X140638030Y-121472194D01*
X140649969Y-121441949D01*
X140650685Y-121438004D01*
X140652777Y-121434583D01*
X140664919Y-121401571D01*
X140665428Y-121398339D01*
X140667082Y-121395513D01*
X140679774Y-121358849D01*
X140679999Y-121357216D01*
X140680763Y-121355882D01*
X140695525Y-121349914D01*
X140695703Y-121349797D01*
X140695913Y-121349757D01*
X140719232Y-121340296D01*
X140719420Y-121340172D01*
X140719644Y-121340129D01*
X140741227Y-121331339D01*
X140741453Y-121331190D01*
X140741719Y-121331138D01*
X140759533Y-121323850D01*
X141352200Y-121323850D01*
X141352200Y-122132205D01*
X141441139Y-122346923D01*
X141605478Y-122511261D01*
X141820196Y-122600200D01*
X142476150Y-122600200D01*
X142622200Y-122454150D01*
X142622200Y-121177800D01*
X141498250Y-121177800D01*
X141352200Y-121323850D01*
X140759533Y-121323850D01*
X140761183Y-121323175D01*
X140761451Y-121322997D01*
X140761769Y-121322935D01*
X140778729Y-121315958D01*
X140779109Y-121315705D01*
X140779558Y-121315616D01*
X140793632Y-121309783D01*
X140794220Y-121309390D01*
X140794917Y-121309248D01*
X140805719Y-121304718D01*
X140806940Y-121303894D01*
X140808382Y-121303588D01*
X140815532Y-121300516D01*
X140819923Y-121297499D01*
X140825099Y-121296229D01*
X140828212Y-121294775D01*
X140856606Y-121273928D01*
X140888317Y-121258599D01*
X140888419Y-121258522D01*
X140897099Y-121248780D01*
X140908373Y-121242217D01*
X140917153Y-121230690D01*
X140923326Y-121226448D01*
X140925197Y-121223568D01*
X140933636Y-121217372D01*
X140951819Y-121187365D01*
X140975425Y-121160871D01*
X140979716Y-121148549D01*
X140987620Y-121138172D01*
X140992249Y-121120644D01*
X141001416Y-121105517D01*
X141006693Y-121071086D01*
X141018439Y-121037358D01*
X141017688Y-121024331D01*
X141021019Y-121011719D01*
X141018568Y-120993605D01*
X141021230Y-120976238D01*
X141012976Y-120942596D01*
X141010911Y-120906787D01*
X141005233Y-120895042D01*
X141003484Y-120882111D01*
X140994796Y-120867187D01*
X140992274Y-120855562D01*
X140991263Y-120854104D01*
X140990064Y-120849217D01*
X140969625Y-120821378D01*
X140953990Y-120789035D01*
X140944249Y-120780356D01*
X140937685Y-120769080D01*
X140936081Y-120767263D01*
X140925396Y-120759125D01*
X140917742Y-120748088D01*
X140912804Y-120743318D01*
X140910423Y-120741786D01*
X140908772Y-120739488D01*
X140900783Y-120732023D01*
X140899718Y-120731363D01*
X140898981Y-120730352D01*
X140888228Y-120720450D01*
X140887578Y-120720054D01*
X140887128Y-120719442D01*
X140873892Y-120707363D01*
X140873447Y-120707094D01*
X140873137Y-120706676D01*
X140857704Y-120692678D01*
X140857356Y-120692469D01*
X140857113Y-120692143D01*
X140839766Y-120676484D01*
X140839472Y-120676309D01*
X140839269Y-120676037D01*
X140820294Y-120658977D01*
X140820029Y-120658820D01*
X140819844Y-120658573D01*
X140799523Y-120640369D01*
X140799293Y-120640233D01*
X140799132Y-120640019D01*
X140781729Y-120624479D01*
X140781656Y-120624436D01*
X140781603Y-120624366D01*
X140756906Y-120602334D01*
X140735735Y-120583422D01*
X140718035Y-120567565D01*
X140715987Y-120565721D01*
X140715713Y-120564449D01*
X140707270Y-120544946D01*
X140704597Y-120541080D01*
X140703480Y-120536511D01*
X140694681Y-120517632D01*
X140692210Y-120514260D01*
X140691118Y-120510226D01*
X140686596Y-120501114D01*
X140681622Y-120494665D01*
X140679121Y-120486916D01*
X140656871Y-120447000D01*
X140648390Y-120437031D01*
X140643423Y-120424923D01*
X140617895Y-120386437D01*
X140608970Y-120377452D01*
X140603302Y-120366124D01*
X140574028Y-120328430D01*
X140565296Y-120320862D01*
X140559433Y-120310901D01*
X140525948Y-120273361D01*
X140520784Y-120269467D01*
X140517294Y-120264022D01*
X140508281Y-120254659D01*
X140503094Y-120251048D01*
X140499490Y-120245860D01*
X140461427Y-120209148D01*
X140452151Y-120203190D01*
X140445289Y-120194564D01*
X140406012Y-120161317D01*
X140395837Y-120155678D01*
X140387988Y-120147091D01*
X140346670Y-120116717D01*
X140336289Y-120111861D01*
X140328005Y-120103943D01*
X140283823Y-120075846D01*
X140273962Y-120072020D01*
X140265879Y-120065205D01*
X140218008Y-120038792D01*
X140212205Y-120036947D01*
X140207410Y-120033189D01*
X140193020Y-120025908D01*
X140188026Y-120024515D01*
X140183851Y-120021443D01*
X140137185Y-119999588D01*
X140129007Y-119997573D01*
X140121983Y-119992922D01*
X140075344Y-119973835D01*
X140066596Y-119972133D01*
X140058916Y-119967609D01*
X140011463Y-119951034D01*
X140002650Y-119949795D01*
X139994755Y-119945684D01*
X139945644Y-119931365D01*
X139937278Y-119930632D01*
X139929648Y-119927127D01*
X139878038Y-119914807D01*
X139870526Y-119914522D01*
X139863563Y-119911688D01*
X139808609Y-119901111D01*
X139803530Y-119901142D01*
X139798768Y-119899368D01*
X139766904Y-119894215D01*
X139764483Y-119894302D01*
X139762202Y-119893489D01*
X139748599Y-119891487D01*
X139745857Y-119891625D01*
X139743258Y-119890745D01*
X139731376Y-119889191D01*
X139726984Y-119889483D01*
X139722775Y-119888178D01*
X139711654Y-119887015D01*
X139706412Y-119887499D01*
X139701338Y-119886097D01*
X139690024Y-119885266D01*
X139685147Y-119885869D01*
X139680379Y-119884698D01*
X139667913Y-119884143D01*
X139664333Y-119884691D01*
X139660799Y-119883902D01*
X139646224Y-119883563D01*
X139644022Y-119883948D01*
X139641831Y-119883489D01*
X139624190Y-119883310D01*
X139623135Y-119883509D01*
X139622081Y-119883295D01*
X139603921Y-119883225D01*
X139602925Y-119883419D01*
X139601933Y-119883224D01*
X139576414Y-119883277D01*
X139574105Y-119883741D01*
X139571786Y-119883318D01*
X139550069Y-119883663D01*
X139546394Y-119884455D01*
X139542683Y-119883862D01*
X139523735Y-119884581D01*
X139518684Y-119885786D01*
X139513535Y-119885124D01*
X139496325Y-119886303D01*
X139490480Y-119887888D01*
X139484452Y-119887329D01*
X139467947Y-119889051D01*
X139462300Y-119890800D01*
X139456397Y-119890459D01*
X139439566Y-119892808D01*
X139435063Y-119894376D01*
X139430295Y-119894234D01*
X139412104Y-119897294D01*
X139409416Y-119898315D01*
X139406542Y-119898278D01*
X139391482Y-119901073D01*
X139386733Y-119902969D01*
X139381618Y-119903057D01*
X139341258Y-119911808D01*
X139334446Y-119914768D01*
X139327034Y-119915219D01*
X139285139Y-119926237D01*
X139278961Y-119929248D01*
X139272126Y-119929942D01*
X139230673Y-119942653D01*
X139224228Y-119946123D01*
X139216982Y-119947175D01*
X139177948Y-119961007D01*
X139173523Y-119963641D01*
X139168454Y-119964534D01*
X139160652Y-119967567D01*
X139159473Y-119968318D01*
X139158097Y-119968572D01*
X139128489Y-119980362D01*
X139127722Y-119980860D01*
X139126826Y-119981030D01*
X139097769Y-119992781D01*
X139096913Y-119993343D01*
X139095908Y-119993540D01*
X139067136Y-120005377D01*
X139066218Y-120005988D01*
X139065137Y-120006207D01*
X139036386Y-120018253D01*
X139035437Y-120018893D01*
X139034313Y-120019129D01*
X139005315Y-120031508D01*
X139004357Y-120032163D01*
X139003226Y-120032409D01*
X138973716Y-120045244D01*
X138972778Y-120045895D01*
X138971663Y-120046145D01*
X138941375Y-120059560D01*
X138940477Y-120060192D01*
X138939404Y-120060440D01*
X138908073Y-120074559D01*
X138907233Y-120075158D01*
X138906232Y-120075396D01*
X138873590Y-120090343D01*
X138872820Y-120090899D01*
X138871897Y-120091124D01*
X138837681Y-120107023D01*
X138836996Y-120107524D01*
X138836171Y-120107729D01*
X138800114Y-120124702D01*
X138799505Y-120125152D01*
X138798771Y-120125338D01*
X138760607Y-120143510D01*
X138760075Y-120143906D01*
X138759432Y-120144072D01*
X138718896Y-120163567D01*
X138718441Y-120163909D01*
X138717893Y-120164052D01*
X138674719Y-120184992D01*
X138674332Y-120185285D01*
X138673865Y-120185408D01*
X138627786Y-120207919D01*
X138627462Y-120208165D01*
X138627070Y-120208270D01*
X138577820Y-120232475D01*
X138577555Y-120232678D01*
X138577234Y-120232764D01*
X138524548Y-120258786D01*
X138524328Y-120258955D01*
X138524062Y-120259027D01*
X138467676Y-120286990D01*
X138467503Y-120287123D01*
X138467290Y-120287181D01*
X138406935Y-120317209D01*
X138406837Y-120317284D01*
X138406718Y-120317317D01*
X138391334Y-120324986D01*
X138391333Y-120324986D01*
X138339519Y-120350769D01*
X138292288Y-120374170D01*
X138248510Y-120395738D01*
X138208044Y-120415531D01*
X138171055Y-120433463D01*
X138136689Y-120449942D01*
X138105045Y-120464922D01*
X138075176Y-120478849D01*
X138047265Y-120491640D01*
X138020552Y-120503651D01*
X137994934Y-120514935D01*
X137969888Y-120525733D01*
X137944746Y-120536342D01*
X137919397Y-120546818D01*
X137893163Y-120557454D01*
X137865780Y-120568369D01*
X137860029Y-120570643D01*
X137859627Y-120570902D01*
X137859153Y-120570990D01*
X137841696Y-120577945D01*
X137840668Y-120578612D01*
X137839467Y-120578843D01*
X137823505Y-120585335D01*
X137822345Y-120586099D01*
X137820981Y-120586373D01*
X137807062Y-120592168D01*
X137805481Y-120593229D01*
X137803614Y-120593625D01*
X137792285Y-120598490D01*
X137789644Y-120600305D01*
X137786523Y-120601029D01*
X137778328Y-120604732D01*
X137772452Y-120608934D01*
X137767632Y-120610144D01*
X137766526Y-120610965D01*
X137763731Y-120611758D01*
X137759218Y-120614066D01*
X137742120Y-120627586D01*
X137726995Y-120626763D01*
X137720846Y-120627642D01*
X137712990Y-120630406D01*
X137704662Y-120630361D01*
X137695066Y-120632216D01*
X137640011Y-120641467D01*
X137590694Y-120646402D01*
X137540762Y-120648050D01*
X137485192Y-120646221D01*
X137482662Y-120646043D01*
X137429692Y-120641602D01*
X137372276Y-120635892D01*
X137309758Y-120628838D01*
X137242677Y-120620489D01*
X137171135Y-120610852D01*
X137095571Y-120599979D01*
X137016257Y-120587910D01*
X136933001Y-120574612D01*
X136846673Y-120560222D01*
X136756734Y-120544648D01*
X136663974Y-120528024D01*
X136568410Y-120510350D01*
X136470168Y-120491646D01*
X136369295Y-120471916D01*
X136266250Y-120451246D01*
X136161308Y-120429684D01*
X136054068Y-120407143D01*
X135945439Y-120383805D01*
X135841963Y-120361116D01*
X135811618Y-120354396D01*
X135810865Y-120354380D01*
X135810175Y-120354080D01*
X135783968Y-120348397D01*
X135781578Y-120348356D01*
X135779370Y-120347433D01*
X135757033Y-120342916D01*
X135752121Y-120342900D01*
X135747534Y-120341137D01*
X135728632Y-120337879D01*
X135719916Y-120338103D01*
X135711628Y-120335395D01*
X135695727Y-120333487D01*
X135681429Y-120334589D01*
X135667475Y-120331304D01*
X135654142Y-120330839D01*
X135632446Y-120334373D01*
X135610578Y-120332155D01*
X135599379Y-120333225D01*
X135589552Y-120336175D01*
X135588423Y-120336065D01*
X135568519Y-120342134D01*
X135539685Y-120344456D01*
X135530185Y-120347155D01*
X135516894Y-120353958D01*
X135512316Y-120354465D01*
X135492755Y-120365229D01*
X135474112Y-120370825D01*
X135473925Y-120370978D01*
X135463321Y-120374211D01*
X135455086Y-120378628D01*
X135432713Y-120397043D01*
X135413760Y-120406744D01*
X135410631Y-120410421D01*
X135397731Y-120417520D01*
X135390327Y-120423749D01*
X135373451Y-120444832D01*
X135352172Y-120461459D01*
X135345165Y-120469592D01*
X135336531Y-120484855D01*
X135323905Y-120497021D01*
X135316862Y-120507150D01*
X135313042Y-120515909D01*
X135306546Y-120522914D01*
X135299031Y-120535132D01*
X135297709Y-120538697D01*
X135295190Y-120541538D01*
X135286771Y-120555937D01*
X135286644Y-120556303D01*
X135286387Y-120556595D01*
X135283452Y-120561641D01*
X135282824Y-120563470D01*
X135281560Y-120564936D01*
X135256006Y-120610039D01*
X135254725Y-120613915D01*
X135252134Y-120617068D01*
X135228179Y-120661812D01*
X135226953Y-120665845D01*
X135224359Y-120669165D01*
X135202279Y-120712977D01*
X135201074Y-120717322D01*
X135198393Y-120720948D01*
X135178456Y-120763257D01*
X135177234Y-120768166D01*
X135174350Y-120772318D01*
X135156829Y-120812555D01*
X135155568Y-120818347D01*
X135152358Y-120823331D01*
X135137521Y-120860926D01*
X135136371Y-120867265D01*
X135133089Y-120872810D01*
X135123582Y-120899855D01*
X135122353Y-120908472D01*
X135118310Y-120916177D01*
X135107708Y-120952117D01*
X135106616Y-120964152D01*
X135101777Y-120975224D01*
X135094429Y-121008763D01*
X135094155Y-121022946D01*
X135089579Y-121036377D01*
X135085465Y-121067360D01*
X135086556Y-121084296D01*
X135082718Y-121100827D01*
X135081819Y-121129095D01*
X130405200Y-121129095D01*
X130405200Y-119789907D01*
X130419750Y-119716760D01*
X130438579Y-119688580D01*
X130466761Y-119669749D01*
X130539907Y-119655200D01*
X141440260Y-119655200D01*
X141352200Y-119867795D01*
X141352200Y-120676150D01*
X141498250Y-120822200D01*
X142622200Y-120822200D01*
X142622200Y-120802200D01*
X142977800Y-120802200D01*
X142977800Y-120822200D01*
X142997800Y-120822200D01*
X142997800Y-121177800D01*
X142977800Y-121177800D01*
X142977800Y-122454150D01*
X143123850Y-122600200D01*
X143779804Y-122600200D01*
X143994522Y-122511261D01*
X144158861Y-122346923D01*
X144247800Y-122132205D01*
X144247800Y-121651675D01*
X144495856Y-122022918D01*
X144883153Y-122281701D01*
X145340000Y-122372574D01*
X145796847Y-122281701D01*
X146184144Y-122022918D01*
X146442927Y-121635621D01*
X146533800Y-121178774D01*
X146533800Y-120821226D01*
X146442927Y-120364379D01*
X146184144Y-119977082D01*
X145796847Y-119718299D01*
X145479629Y-119655200D01*
X147740371Y-119655200D01*
X147423153Y-119718299D01*
X147035856Y-119977082D01*
X146777073Y-120364379D01*
X146686200Y-120821226D01*
X146686200Y-121178774D01*
X146777073Y-121635621D01*
X147035856Y-122022918D01*
X147423153Y-122281701D01*
X147880000Y-122372574D01*
X148336847Y-122281701D01*
X148724144Y-122022918D01*
X148982927Y-121635621D01*
X149073800Y-121178774D01*
X149073800Y-120821226D01*
X148982927Y-120364379D01*
X148724144Y-119977082D01*
X148336847Y-119718299D01*
X148019629Y-119655200D01*
X150280371Y-119655200D01*
X149963153Y-119718299D01*
X149575856Y-119977082D01*
X149317073Y-120364379D01*
X149226200Y-120821226D01*
X149226200Y-121178774D01*
X149317073Y-121635621D01*
X149575856Y-122022918D01*
X149963153Y-122281701D01*
X150420000Y-122372574D01*
X150876847Y-122281701D01*
X151264144Y-122022918D01*
X151522927Y-121635621D01*
X151613800Y-121178774D01*
X151613800Y-120821226D01*
X151606257Y-120783301D01*
X158351785Y-120783301D01*
X158454043Y-121030783D01*
X158643224Y-121220294D01*
X158890527Y-121322983D01*
X159158303Y-121323217D01*
X159405785Y-121220959D01*
X159570631Y-121056400D01*
X160356664Y-121056400D01*
X160526985Y-121226721D01*
X160526783Y-121458301D01*
X160629041Y-121705783D01*
X160818222Y-121895294D01*
X161065525Y-121997983D01*
X161333301Y-121998217D01*
X161580783Y-121895959D01*
X161770294Y-121706778D01*
X161872983Y-121459475D01*
X161873217Y-121191699D01*
X161770959Y-120944217D01*
X161581778Y-120754706D01*
X161334475Y-120652017D01*
X161101549Y-120651813D01*
X160812368Y-120362632D01*
X160794614Y-120350769D01*
X160680523Y-120274535D01*
X160525000Y-120243600D01*
X159570389Y-120243600D01*
X159406780Y-120079706D01*
X159159477Y-119977017D01*
X158891701Y-119976783D01*
X158644219Y-120079041D01*
X158454708Y-120268222D01*
X158352019Y-120515525D01*
X158351785Y-120783301D01*
X151606257Y-120783301D01*
X151522927Y-120364379D01*
X151264144Y-119977082D01*
X150876847Y-119718299D01*
X150559629Y-119655200D01*
X152170000Y-119655200D01*
X152325063Y-119624356D01*
X152456520Y-119536520D01*
X152544356Y-119405063D01*
X152575200Y-119250000D01*
X152575200Y-112500000D01*
X152544356Y-112344937D01*
X152456520Y-112213480D01*
X152325063Y-112125644D01*
X152170000Y-112094800D01*
X151601923Y-112094800D01*
X151767532Y-111984144D01*
X152026315Y-111596847D01*
X152117188Y-111140000D01*
X152026315Y-110683153D01*
X151767532Y-110295856D01*
X151380235Y-110037073D01*
X150923388Y-109946200D01*
X150876612Y-109946200D01*
X150419765Y-110037073D01*
X150032468Y-110295856D01*
X149773685Y-110683153D01*
X149682812Y-111140000D01*
X149773685Y-111596847D01*
X150032468Y-111984144D01*
X150198077Y-112094800D01*
X149061923Y-112094800D01*
X149227532Y-111984144D01*
X149486315Y-111596847D01*
X149577188Y-111140000D01*
X149486315Y-110683153D01*
X149227532Y-110295856D01*
X148840235Y-110037073D01*
X148383388Y-109946200D01*
X148336612Y-109946200D01*
X147879765Y-110037073D01*
X147492468Y-110295856D01*
X147405200Y-110426462D01*
X147405200Y-109313538D01*
X147492468Y-109444144D01*
X147879765Y-109702927D01*
X148336612Y-109793800D01*
X148383388Y-109793800D01*
X148840235Y-109702927D01*
X149227532Y-109444144D01*
X149486315Y-109056847D01*
X149577188Y-108600000D01*
X149486315Y-108143153D01*
X149227532Y-107755856D01*
X148840235Y-107497073D01*
X148537802Y-107436915D01*
X148537802Y-107350806D01*
X148760385Y-107451351D01*
X149262354Y-107192220D01*
X149626948Y-106760719D01*
X149630000Y-106753350D01*
X149633052Y-106760719D01*
X149997646Y-107192220D01*
X150499615Y-107451351D01*
X150722198Y-107350806D01*
X150722198Y-107436915D01*
X150419765Y-107497073D01*
X150032468Y-107755856D01*
X149773685Y-108143153D01*
X149682812Y-108600000D01*
X149773685Y-109056847D01*
X150032468Y-109444144D01*
X150419765Y-109702927D01*
X150876612Y-109793800D01*
X150923388Y-109793800D01*
X151380235Y-109702927D01*
X151767532Y-109444144D01*
X152026315Y-109056847D01*
X152117188Y-108600000D01*
X152026315Y-108143153D01*
X151767532Y-107755856D01*
X151380235Y-107497073D01*
X151077802Y-107436915D01*
X151077802Y-107350806D01*
X151300385Y-107451351D01*
X151802354Y-107192220D01*
X152166948Y-106760719D01*
X152291337Y-106460382D01*
X152189550Y-106237800D01*
X151077800Y-106237800D01*
X151077800Y-106257800D01*
X150722200Y-106257800D01*
X150722200Y-106237800D01*
X148537800Y-106237800D01*
X148537800Y-106257800D01*
X148182200Y-106257800D01*
X148182200Y-106237800D01*
X148162200Y-106237800D01*
X148162200Y-105882200D01*
X148182200Y-105882200D01*
X148182200Y-103697800D01*
X148537800Y-103697800D01*
X148537800Y-105882200D01*
X150722200Y-105882200D01*
X150722200Y-103697800D01*
X151077800Y-103697800D01*
X151077800Y-105882200D01*
X152189550Y-105882200D01*
X152291337Y-105659618D01*
X152166948Y-105359281D01*
X151802354Y-104927780D01*
X151535457Y-104790000D01*
X151802354Y-104652220D01*
X152166948Y-104220719D01*
X152291337Y-103920382D01*
X152189550Y-103697800D01*
X151077800Y-103697800D01*
X150722200Y-103697800D01*
X148537800Y-103697800D01*
X148182200Y-103697800D01*
X148162200Y-103697800D01*
X148162200Y-103342200D01*
X148182200Y-103342200D01*
X148182200Y-103322200D01*
X148537800Y-103322200D01*
X148537800Y-103342200D01*
X150722200Y-103342200D01*
X150722200Y-103322200D01*
X151077800Y-103322200D01*
X151077800Y-103342200D01*
X152189550Y-103342200D01*
X152291337Y-103119618D01*
X152166948Y-102819281D01*
X151802354Y-102387780D01*
X151300385Y-102128649D01*
X151077802Y-102229194D01*
X151077802Y-102143085D01*
X151380235Y-102082927D01*
X151767532Y-101824144D01*
X152026315Y-101436847D01*
X152117188Y-100980000D01*
X152026315Y-100523153D01*
X151767532Y-100135856D01*
X151380235Y-99877073D01*
X150923388Y-99786200D01*
X150876612Y-99786200D01*
X150419765Y-99877073D01*
X150032468Y-100135856D01*
X149773685Y-100523153D01*
X149682812Y-100980000D01*
X149773685Y-101436847D01*
X150032468Y-101824144D01*
X150419765Y-102082927D01*
X150722198Y-102143085D01*
X150722198Y-102229194D01*
X150499615Y-102128649D01*
X149997646Y-102387780D01*
X149633052Y-102819281D01*
X149630000Y-102826650D01*
X149626948Y-102819281D01*
X149262354Y-102387780D01*
X148760385Y-102128649D01*
X148537802Y-102229194D01*
X148537802Y-102143085D01*
X148840235Y-102082927D01*
X149227532Y-101824144D01*
X149486315Y-101436847D01*
X149577188Y-100980000D01*
X149486315Y-100523153D01*
X149227532Y-100135856D01*
X148840235Y-99877073D01*
X148383388Y-99786200D01*
X148336612Y-99786200D01*
X147879765Y-99877073D01*
X147492468Y-100135856D01*
X147405200Y-100266462D01*
X147405200Y-99621800D01*
X147496400Y-99640269D01*
X149223600Y-99640269D01*
X149345965Y-99617244D01*
X149458349Y-99544927D01*
X149533744Y-99434583D01*
X149560269Y-99303600D01*
X149560269Y-98440000D01*
X149682812Y-98440000D01*
X149773685Y-98896847D01*
X150032468Y-99284144D01*
X150419765Y-99542927D01*
X150876612Y-99633800D01*
X150923388Y-99633800D01*
X151380235Y-99542927D01*
X151767532Y-99284144D01*
X152026315Y-98896847D01*
X152117188Y-98440000D01*
X152026315Y-97983153D01*
X151767532Y-97595856D01*
X151380235Y-97337073D01*
X150923388Y-97246200D01*
X150876612Y-97246200D01*
X150419765Y-97337073D01*
X150032468Y-97595856D01*
X149773685Y-97983153D01*
X149682812Y-98440000D01*
X149560269Y-98440000D01*
X149560269Y-97576400D01*
X149537244Y-97454035D01*
X149464927Y-97341651D01*
X149354583Y-97266256D01*
X149223600Y-97239731D01*
X147496400Y-97239731D01*
X147405200Y-97256892D01*
X147405200Y-96750000D01*
X147374356Y-96594937D01*
X147286520Y-96463480D01*
X147155063Y-96375644D01*
X147000000Y-96344800D01*
X130539907Y-96344800D01*
X130466761Y-96330251D01*
X130438579Y-96311420D01*
X130419750Y-96283240D01*
X130405200Y-96210093D01*
X130405200Y-94625000D01*
X139002426Y-94625000D01*
X139104899Y-95140168D01*
X139396719Y-95576907D01*
X139833458Y-95868727D01*
X140348626Y-95971200D01*
X140401374Y-95971200D01*
X140916542Y-95868727D01*
X141353281Y-95576907D01*
X141645101Y-95140168D01*
X141747574Y-94625000D01*
X141645101Y-94109832D01*
X141353281Y-93673093D01*
X141000944Y-93437669D01*
X141391000Y-93437669D01*
X141513365Y-93414644D01*
X141625749Y-93342327D01*
X141701144Y-93231983D01*
X141727669Y-93101000D01*
X141727669Y-91069000D01*
X141704644Y-90946635D01*
X141632327Y-90834251D01*
X141521983Y-90758856D01*
X141391000Y-90732331D01*
X139359000Y-90732331D01*
X139236635Y-90755356D01*
X139124251Y-90827673D01*
X139048856Y-90938017D01*
X139022331Y-91069000D01*
X139022331Y-93101000D01*
X139045356Y-93223365D01*
X139117673Y-93335749D01*
X139228017Y-93411144D01*
X139359000Y-93437669D01*
X139749056Y-93437669D01*
X139396719Y-93673093D01*
X139104899Y-94109832D01*
X139002426Y-94625000D01*
X130405200Y-94625000D01*
X130405200Y-93112452D01*
X130919483Y-93112452D01*
X131197527Y-93785371D01*
X131711921Y-94300664D01*
X132384354Y-94579882D01*
X133112452Y-94580517D01*
X133785371Y-94302473D01*
X134300664Y-93788079D01*
X134579882Y-93115646D01*
X134580517Y-92387548D01*
X134302473Y-91714629D01*
X133788079Y-91199336D01*
X133115646Y-90920118D01*
X132387548Y-90919483D01*
X131714629Y-91197527D01*
X131199336Y-91711921D01*
X130920118Y-92384354D01*
X130919483Y-93112452D01*
X130405200Y-93112452D01*
X130405200Y-92789908D01*
X130591021Y-91855723D01*
X131097588Y-91097590D01*
X131855723Y-90591021D01*
X132789907Y-90405200D01*
X157850322Y-90405200D01*
X157624618Y-90630511D01*
X157624618Y-90630511D01*
G37*
X157624618Y-90630511D02*
X157556897Y-90793600D01*
X157486669Y-90793600D01*
X157486669Y-90750000D01*
X157463644Y-90627635D01*
X157391327Y-90515251D01*
X157280983Y-90439856D01*
X157150000Y-90413331D01*
X155950000Y-90413331D01*
X155827635Y-90436356D01*
X155715251Y-90508673D01*
X155639856Y-90619017D01*
X155613331Y-90750000D01*
X155613331Y-91411933D01*
X155264172Y-91761092D01*
X155286669Y-91650000D01*
X155286669Y-90750000D01*
X155263644Y-90627635D01*
X155191327Y-90515251D01*
X155080983Y-90439856D01*
X154950000Y-90413331D01*
X153750000Y-90413331D01*
X153627635Y-90436356D01*
X153515251Y-90508673D01*
X153439856Y-90619017D01*
X153413331Y-90750000D01*
X153413331Y-91650000D01*
X153436356Y-91772365D01*
X153508673Y-91884749D01*
X153619017Y-91960144D01*
X153657859Y-91968010D01*
X153649947Y-91987065D01*
X153649713Y-92254841D01*
X153751971Y-92502323D01*
X153907614Y-92658238D01*
X153849329Y-92798604D01*
X153849221Y-92922310D01*
X153756778Y-92829706D01*
X153509475Y-92727017D01*
X153241699Y-92726783D01*
X152994217Y-92829041D01*
X152804706Y-93018222D01*
X152702017Y-93265525D01*
X152701783Y-93533301D01*
X152804041Y-93780783D01*
X152993222Y-93970294D01*
X153240525Y-94072983D01*
X153508301Y-94073217D01*
X153755783Y-93970959D01*
X153920629Y-93806400D01*
X154042783Y-93806400D01*
X153653579Y-94195604D01*
X153565482Y-94327449D01*
X153534547Y-94482972D01*
X153534547Y-94819867D01*
X153523033Y-94815086D01*
X153255257Y-94814852D01*
X153007775Y-94917110D01*
X152842929Y-95081669D01*
X152529186Y-95081669D01*
X152519304Y-95057752D01*
X152330123Y-94868241D01*
X152082820Y-94765552D01*
X151815044Y-94765318D01*
X151706400Y-94810209D01*
X151706400Y-94495387D01*
X151870294Y-94331778D01*
X151972983Y-94084475D01*
X151973217Y-93816699D01*
X151870959Y-93569217D01*
X151681778Y-93379706D01*
X151434475Y-93277017D01*
X151166699Y-93276783D01*
X150919217Y-93379041D01*
X150729706Y-93568222D01*
X150627017Y-93815525D01*
X150626783Y-94083301D01*
X150729041Y-94330783D01*
X150893600Y-94495629D01*
X150893600Y-95604576D01*
X150924535Y-95760099D01*
X150991797Y-95860763D01*
X151012632Y-95891944D01*
X152020151Y-96899463D01*
X152151996Y-96987560D01*
X152307519Y-97018495D01*
X152418786Y-97018495D01*
X152582395Y-97182389D01*
X152829698Y-97285078D01*
X152938789Y-97285173D01*
X152938789Y-102107994D01*
X152969724Y-102263517D01*
X153030195Y-102354017D01*
X153057821Y-102395362D01*
X154513863Y-103851404D01*
X154645708Y-103939501D01*
X154801231Y-103970436D01*
X155354824Y-103970436D01*
X155510347Y-103939501D01*
X155578244Y-103894133D01*
X155831024Y-103894354D01*
X156078506Y-103792096D01*
X156113149Y-103757513D01*
X157497142Y-104933678D01*
X157552302Y-104964391D01*
X157604793Y-104999465D01*
X157621129Y-105002714D01*
X157628331Y-105006724D01*
X157628331Y-105115000D01*
X157644912Y-105203120D01*
X157628331Y-105285000D01*
X157628331Y-105515000D01*
X157642555Y-105590590D01*
X156837080Y-104906070D01*
X156761965Y-104830824D01*
X156514662Y-104728135D01*
X156246886Y-104727901D01*
X155999404Y-104830159D01*
X155809893Y-105019340D01*
X155707204Y-105266643D01*
X155706994Y-105507222D01*
X155584679Y-105557762D01*
X155395168Y-105746943D01*
X155292479Y-105994246D01*
X155292245Y-106262022D01*
X155394503Y-106509504D01*
X155583684Y-106699015D01*
X155789110Y-106784315D01*
X155736400Y-106836934D01*
X155633711Y-107084237D01*
X155633477Y-107352013D01*
X155735735Y-107599495D01*
X155924916Y-107789006D01*
X156172219Y-107891695D01*
X156439995Y-107891929D01*
X156459463Y-107883885D01*
X156491691Y-107961883D01*
X156529843Y-108000101D01*
X156492356Y-108037523D01*
X156459617Y-108116366D01*
X156441169Y-108108706D01*
X156173393Y-108108472D01*
X155925911Y-108210730D01*
X155736400Y-108399911D01*
X155633711Y-108647214D01*
X155633477Y-108914990D01*
X155735735Y-109162472D01*
X155789330Y-109216160D01*
X155584679Y-109300721D01*
X155395168Y-109489902D01*
X155292479Y-109737205D01*
X155292245Y-110004981D01*
X155394503Y-110252463D01*
X155448098Y-110306151D01*
X155243448Y-110390711D01*
X155053937Y-110579892D01*
X154951248Y-110827195D01*
X154951014Y-111094971D01*
X155053272Y-111342453D01*
X155106867Y-111396141D01*
X154902216Y-111480702D01*
X154712705Y-111669883D01*
X154610016Y-111917186D01*
X154609782Y-112184962D01*
X154712040Y-112432444D01*
X154765634Y-112486132D01*
X154560984Y-112570692D01*
X154371473Y-112759873D01*
X154268784Y-113007176D01*
X154268550Y-113274952D01*
X154370808Y-113522434D01*
X154424403Y-113576122D01*
X154219752Y-113660683D01*
X154030241Y-113849864D01*
X153927552Y-114097167D01*
X153927318Y-114364943D01*
X154029576Y-114612425D01*
X154083171Y-114666113D01*
X153878520Y-114750674D01*
X153689009Y-114939855D01*
X153586320Y-115187158D01*
X153586086Y-115454934D01*
X153688344Y-115702416D01*
X153877525Y-115891927D01*
X154001019Y-115943206D01*
X154000810Y-116182537D01*
X154103068Y-116430019D01*
X154292249Y-116619530D01*
X154539552Y-116722219D01*
X154807328Y-116722453D01*
X154820619Y-116716961D01*
X154841636Y-116822624D01*
X154887004Y-116890521D01*
X154886783Y-117143301D01*
X154989041Y-117390783D01*
X155178222Y-117580294D01*
X155425525Y-117682983D01*
X155641687Y-117683172D01*
X155704654Y-117835563D01*
X155893835Y-118025074D01*
X156141138Y-118127763D01*
X156408914Y-118127997D01*
X156656396Y-118025739D01*
X156735111Y-117947161D01*
X156748222Y-117960294D01*
X156995525Y-118062983D01*
X157263301Y-118063217D01*
X157510783Y-117960959D01*
X157700294Y-117771778D01*
X157717157Y-117731168D01*
X157775214Y-117755275D01*
X158042990Y-117755509D01*
X158290472Y-117653251D01*
X158479983Y-117464070D01*
X158582672Y-117216767D01*
X158582906Y-116948991D01*
X158515836Y-116786669D01*
X158625000Y-116786669D01*
X158747365Y-116763644D01*
X158859749Y-116691327D01*
X158935144Y-116580983D01*
X158961669Y-116450000D01*
X158961669Y-116100000D01*
X158943625Y-116004105D01*
X158961669Y-115915000D01*
X158961669Y-115685000D01*
X158945088Y-115596880D01*
X158961669Y-115515000D01*
X158961669Y-115285000D01*
X158945088Y-115196880D01*
X158961669Y-115115000D01*
X158961669Y-114885000D01*
X158945088Y-114796880D01*
X158961669Y-114715000D01*
X158961669Y-114485000D01*
X158945088Y-114396880D01*
X158961669Y-114315000D01*
X158961669Y-114085000D01*
X158945088Y-113996880D01*
X158961669Y-113915000D01*
X158961669Y-113685000D01*
X158945088Y-113596880D01*
X158961669Y-113515000D01*
X158961669Y-113285000D01*
X158945088Y-113196880D01*
X158961669Y-113115000D01*
X158961669Y-112885000D01*
X158945088Y-112796880D01*
X158961669Y-112715000D01*
X158961669Y-112485000D01*
X158945088Y-112396880D01*
X158961669Y-112315000D01*
X158961669Y-112085000D01*
X158945088Y-111996880D01*
X158961669Y-111915000D01*
X158961669Y-111685000D01*
X158945088Y-111596880D01*
X158961669Y-111515000D01*
X158961669Y-111285000D01*
X158945088Y-111196880D01*
X158961669Y-111115000D01*
X158961669Y-110885000D01*
X158945088Y-110796880D01*
X158961669Y-110715000D01*
X158961669Y-110485000D01*
X158945088Y-110396880D01*
X158961669Y-110315000D01*
X158961669Y-110085000D01*
X158945088Y-109996880D01*
X158961669Y-109915000D01*
X158961669Y-109685000D01*
X158945088Y-109596880D01*
X158961669Y-109515000D01*
X158961669Y-109285000D01*
X158945088Y-109196880D01*
X158961669Y-109115000D01*
X158961669Y-108885000D01*
X158945088Y-108796880D01*
X158961669Y-108715000D01*
X158961669Y-108485000D01*
X158945088Y-108396880D01*
X158961669Y-108315000D01*
X158961669Y-108085000D01*
X158945088Y-107996880D01*
X158961669Y-107915000D01*
X158961669Y-107685000D01*
X158945088Y-107596880D01*
X158961669Y-107515000D01*
X158961669Y-107285000D01*
X158945088Y-107196880D01*
X158961669Y-107115000D01*
X158961669Y-106885000D01*
X158945088Y-106796880D01*
X158961669Y-106715000D01*
X158961669Y-106485000D01*
X158945088Y-106396880D01*
X158961669Y-106315000D01*
X158961669Y-106206400D01*
X159531067Y-106206400D01*
X159686590Y-106175465D01*
X159818435Y-106087368D01*
X160232557Y-105673246D01*
X160251780Y-105644477D01*
X160320654Y-105541401D01*
X160338331Y-105452531D01*
X160338331Y-105515000D01*
X160354912Y-105603120D01*
X160338331Y-105685000D01*
X160338331Y-105915000D01*
X160351793Y-105986543D01*
X160344077Y-105989739D01*
X160179739Y-106154078D01*
X160090800Y-106368796D01*
X160090800Y-106396450D01*
X160214083Y-106519733D01*
X160179739Y-106554078D01*
X160090800Y-106768796D01*
X160090800Y-106796450D01*
X160094350Y-106800000D01*
X160090800Y-106803550D01*
X160090800Y-106831204D01*
X160160718Y-107000000D01*
X160090800Y-107168796D01*
X160090800Y-107196450D01*
X160094350Y-107200000D01*
X160090800Y-107203550D01*
X160090800Y-107231204D01*
X160160718Y-107400000D01*
X160090800Y-107568796D01*
X160090800Y-107596450D01*
X160094350Y-107600000D01*
X160090800Y-107603550D01*
X160090800Y-107631204D01*
X160160718Y-107800000D01*
X160090800Y-107968796D01*
X160090800Y-107996450D01*
X160094350Y-108000000D01*
X160090800Y-108003550D01*
X160090800Y-108031204D01*
X160160718Y-108200000D01*
X160090800Y-108368796D01*
X160090800Y-108396450D01*
X160094350Y-108400000D01*
X160090800Y-108403550D01*
X160090800Y-108431204D01*
X160160718Y-108600000D01*
X160090800Y-108768796D01*
X160090800Y-108796450D01*
X160094350Y-108800000D01*
X160090800Y-108803550D01*
X160090800Y-108831204D01*
X160160718Y-109000000D01*
X160090800Y-109168796D01*
X160090800Y-109196450D01*
X160094350Y-109200000D01*
X160090800Y-109203550D01*
X160090800Y-109231204D01*
X160179739Y-109445922D01*
X160214083Y-109480267D01*
X160090800Y-109603550D01*
X160090800Y-109631204D01*
X160179739Y-109845922D01*
X160344077Y-110010261D01*
X160352740Y-110013849D01*
X160338331Y-110085000D01*
X160338331Y-110315000D01*
X160354912Y-110403120D01*
X160338331Y-110485000D01*
X160338331Y-110715000D01*
X160354912Y-110803120D01*
X160338331Y-110885000D01*
X160338331Y-111115000D01*
X160354912Y-111203120D01*
X160338331Y-111285000D01*
X160338331Y-111515000D01*
X160354912Y-111603120D01*
X160338331Y-111685000D01*
X160338331Y-111915000D01*
X160354912Y-112003120D01*
X160338331Y-112085000D01*
X160338331Y-112315000D01*
X160354912Y-112403120D01*
X160338331Y-112485000D01*
X160338331Y-112715000D01*
X160354912Y-112803120D01*
X160338331Y-112885000D01*
X160338331Y-113115000D01*
X160354912Y-113203120D01*
X160338331Y-113285000D01*
X160338331Y-113515000D01*
X160354912Y-113603120D01*
X160338331Y-113685000D01*
X160338331Y-113915000D01*
X160354912Y-114003120D01*
X160338331Y-114085000D01*
X160338331Y-114315000D01*
X160354912Y-114403120D01*
X160338331Y-114485000D01*
X160338331Y-114715000D01*
X160354912Y-114803120D01*
X160338331Y-114885000D01*
X160338331Y-115115000D01*
X160354912Y-115203120D01*
X160338331Y-115285000D01*
X160338331Y-115515000D01*
X160354912Y-115603120D01*
X160338331Y-115685000D01*
X160338331Y-115915000D01*
X160356375Y-116010895D01*
X160338331Y-116100000D01*
X160338331Y-116450000D01*
X160361356Y-116572365D01*
X160428077Y-116676053D01*
X160372032Y-116811026D01*
X160371798Y-117078802D01*
X160474056Y-117326284D01*
X160663237Y-117515795D01*
X160910540Y-117618484D01*
X161178316Y-117618718D01*
X161425798Y-117516460D01*
X161615309Y-117327279D01*
X161717998Y-117079976D01*
X161718232Y-116812200D01*
X161684394Y-116730305D01*
X161838744Y-116794397D01*
X161838593Y-116967746D01*
X161940851Y-117215228D01*
X162130032Y-117404739D01*
X162377335Y-117507428D01*
X162645111Y-117507662D01*
X162892593Y-117405404D01*
X163027879Y-117270353D01*
X163071608Y-117376184D01*
X163260789Y-117565695D01*
X163508092Y-117668384D01*
X163775868Y-117668618D01*
X164023350Y-117566360D01*
X164212861Y-117377179D01*
X164315550Y-117129876D01*
X164315784Y-116862100D01*
X164213526Y-116614618D01*
X164122694Y-116523627D01*
X164125216Y-116506470D01*
X164169713Y-116544285D01*
X164244827Y-116619530D01*
X164492130Y-116722219D01*
X164759906Y-116722453D01*
X165007388Y-116620195D01*
X165196899Y-116431014D01*
X165299588Y-116183711D01*
X165299798Y-115943131D01*
X165422112Y-115892592D01*
X165594800Y-115720205D01*
X165594800Y-123210093D01*
X165408979Y-124144277D01*
X164902410Y-124902412D01*
X164144277Y-125408979D01*
X163210092Y-125594800D01*
X132789907Y-125594800D01*
X131855723Y-125408979D01*
X131097588Y-124902410D01*
X130591021Y-124144277D01*
X130485235Y-123612452D01*
X130919483Y-123612452D01*
X131197527Y-124285371D01*
X131711921Y-124800664D01*
X132384354Y-125079882D01*
X133112452Y-125080517D01*
X133785371Y-124802473D01*
X134300664Y-124288079D01*
X134579882Y-123615646D01*
X134579884Y-123612452D01*
X161419483Y-123612452D01*
X161697527Y-124285371D01*
X162211921Y-124800664D01*
X162884354Y-125079882D01*
X163612452Y-125080517D01*
X164285371Y-124802473D01*
X164800664Y-124288079D01*
X165079882Y-123615646D01*
X165080517Y-122887548D01*
X164802473Y-122214629D01*
X164288079Y-121699336D01*
X163615646Y-121420118D01*
X162887548Y-121419483D01*
X162214629Y-121697527D01*
X161699336Y-122211921D01*
X161420118Y-122884354D01*
X161419483Y-123612452D01*
X134579884Y-123612452D01*
X134580517Y-122887548D01*
X134302473Y-122214629D01*
X133788079Y-121699336D01*
X133115646Y-121420118D01*
X132387548Y-121419483D01*
X131714629Y-121697527D01*
X131199336Y-122211921D01*
X130920118Y-122884354D01*
X130919483Y-123612452D01*
X130485235Y-123612452D01*
X130405200Y-123210092D01*
X130405200Y-121129095D01*
X135081819Y-121129095D01*
X135085197Y-121149436D01*
X135083012Y-121169940D01*
X135085309Y-121195340D01*
X135092451Y-121219580D01*
X135093554Y-121244827D01*
X135099029Y-121267200D01*
X135108077Y-121286603D01*
X135108168Y-121288422D01*
X135112699Y-121297983D01*
X135118937Y-121325057D01*
X135127571Y-121344247D01*
X135145891Y-121369956D01*
X135148595Y-121379038D01*
X135154647Y-121386491D01*
X135164182Y-121406609D01*
X135175957Y-121422458D01*
X135194378Y-121439127D01*
X135194863Y-121440100D01*
X135197529Y-121442418D01*
X135203472Y-121450758D01*
X135210303Y-121455031D01*
X135231040Y-121480568D01*
X135245935Y-121492923D01*
X135265577Y-121503553D01*
X135272936Y-121510212D01*
X135277280Y-121511762D01*
X135293559Y-121525917D01*
X135300776Y-121530043D01*
X135313699Y-121534369D01*
X135324670Y-121542458D01*
X135331619Y-121545721D01*
X135341919Y-121548271D01*
X135350837Y-121554023D01*
X135358414Y-121557019D01*
X135368793Y-121558910D01*
X135377992Y-121564065D01*
X135386444Y-121566814D01*
X135396053Y-121567954D01*
X135404750Y-121572197D01*
X135414321Y-121574718D01*
X135422667Y-121575229D01*
X135430354Y-121578522D01*
X135441289Y-121580834D01*
X135448221Y-121580917D01*
X135454701Y-121583386D01*
X135467247Y-121585508D01*
X135472833Y-121585348D01*
X135478122Y-121587166D01*
X135492521Y-121589119D01*
X135496960Y-121588845D01*
X135501201Y-121590181D01*
X135517701Y-121591982D01*
X135521155Y-121591679D01*
X135524481Y-121592652D01*
X135543324Y-121594322D01*
X135546009Y-121594031D01*
X135548615Y-121594749D01*
X135570049Y-121596307D01*
X135572126Y-121596049D01*
X135574151Y-121596580D01*
X135598418Y-121598045D01*
X135600022Y-121597825D01*
X135601590Y-121598221D01*
X135628937Y-121599612D01*
X135630169Y-121599431D01*
X135631378Y-121599727D01*
X135662050Y-121601063D01*
X135662982Y-121600920D01*
X135663901Y-121601139D01*
X135698143Y-121602441D01*
X135698855Y-121602327D01*
X135699558Y-121602492D01*
X135737615Y-121603778D01*
X135738152Y-121603690D01*
X135738681Y-121603812D01*
X135780797Y-121605101D01*
X135781191Y-121605035D01*
X135781581Y-121605124D01*
X135828001Y-121606436D01*
X135828286Y-121606388D01*
X135828570Y-121606452D01*
X135879541Y-121607806D01*
X135879669Y-121607784D01*
X135879793Y-121607812D01*
X135888694Y-121608042D01*
X135888695Y-121608042D01*
X135971953Y-121610319D01*
X136049762Y-121612729D01*
X136123349Y-121615314D01*
X136193193Y-121618098D01*
X136259574Y-121621097D01*
X136322733Y-121624318D01*
X136383268Y-121627795D01*
X136441400Y-121631533D01*
X136497691Y-121635564D01*
X136552369Y-121639895D01*
X136606095Y-121644566D01*
X136659579Y-121649633D01*
X136676134Y-121651286D01*
X136760838Y-121660389D01*
X136841339Y-121670153D01*
X136919163Y-121680788D01*
X136994583Y-121692356D01*
X137068425Y-121705002D01*
X137141237Y-121718837D01*
X137213699Y-121734002D01*
X137286410Y-121750630D01*
X137359988Y-121768869D01*
X137435115Y-121788890D01*
X137512321Y-121810832D01*
X137592237Y-121834864D01*
X137675267Y-121861089D01*
X137762318Y-121889770D01*
X137831272Y-121913231D01*
X137861690Y-121923912D01*
X137889601Y-121934145D01*
X137915695Y-121944192D01*
X137940641Y-121954322D01*
X137965239Y-121964865D01*
X137990115Y-121976110D01*
X138016125Y-121988468D01*
X138043753Y-122002195D01*
X138073633Y-122017634D01*
X138106295Y-122035075D01*
X138142153Y-122054744D01*
X138181807Y-122076969D01*
X138225542Y-122101890D01*
X138239235Y-122109761D01*
X138239237Y-122109762D01*
X138279434Y-122132891D01*
X138279550Y-122132930D01*
X138279644Y-122133012D01*
X138315967Y-122153877D01*
X138316133Y-122153933D01*
X138316264Y-122154047D01*
X138349019Y-122172818D01*
X138349257Y-122172898D01*
X138349448Y-122173064D01*
X138378943Y-122189908D01*
X138379260Y-122190014D01*
X138379514Y-122190234D01*
X138406055Y-122205323D01*
X138406475Y-122205462D01*
X138406809Y-122205750D01*
X138430702Y-122219252D01*
X138431246Y-122219431D01*
X138431682Y-122219804D01*
X138453236Y-122231889D01*
X138453923Y-122232113D01*
X138454472Y-122232578D01*
X138473993Y-122243415D01*
X138474840Y-122243687D01*
X138475521Y-122244258D01*
X138493316Y-122254016D01*
X138494327Y-122254335D01*
X138495145Y-122255012D01*
X138511521Y-122263860D01*
X138512678Y-122264217D01*
X138513614Y-122264981D01*
X138528878Y-122273090D01*
X138530149Y-122273472D01*
X138531182Y-122274302D01*
X138545641Y-122281839D01*
X138546948Y-122282221D01*
X138548015Y-122283064D01*
X138561975Y-122290200D01*
X138563266Y-122290566D01*
X138564324Y-122291389D01*
X138578093Y-122298292D01*
X138579232Y-122298605D01*
X138580168Y-122299323D01*
X138594053Y-122306164D01*
X138595005Y-122306419D01*
X138595792Y-122307015D01*
X138610100Y-122313962D01*
X138610457Y-122314055D01*
X138610751Y-122314277D01*
X138612007Y-122314883D01*
X138614259Y-122315466D01*
X138616137Y-122316843D01*
X138662381Y-122338400D01*
X138667589Y-122339674D01*
X138672011Y-122342706D01*
X138715635Y-122361394D01*
X138722040Y-122362748D01*
X138727578Y-122366241D01*
X138769521Y-122382330D01*
X138776908Y-122383597D01*
X138783413Y-122387310D01*
X138824618Y-122401068D01*
X138832541Y-122402071D01*
X138839656Y-122405700D01*
X138881061Y-122417396D01*
X138888968Y-122418022D01*
X138896196Y-122421293D01*
X138938743Y-122431196D01*
X138946076Y-122431433D01*
X138952880Y-122434166D01*
X138997512Y-122442546D01*
X139003840Y-122442478D01*
X139009794Y-122444616D01*
X139057449Y-122451741D01*
X139062267Y-122451510D01*
X139066851Y-122453011D01*
X139111313Y-122458377D01*
X139116177Y-122458005D01*
X139120857Y-122459391D01*
X139148963Y-122461969D01*
X139153563Y-122461485D01*
X139158028Y-122462676D01*
X139189534Y-122464706D01*
X139193133Y-122464228D01*
X139196660Y-122465089D01*
X139230156Y-122466532D01*
X139233357Y-122466037D01*
X139236519Y-122466746D01*
X139270597Y-122467566D01*
X139273836Y-122467002D01*
X139277057Y-122467659D01*
X139310303Y-122467818D01*
X139314019Y-122467097D01*
X139317743Y-122467771D01*
X139348749Y-122467231D01*
X139352826Y-122466346D01*
X139356950Y-122466988D01*
X139377181Y-122466140D01*
X139384033Y-122464476D01*
X139391038Y-122465271D01*
X139445584Y-122460716D01*
X139454414Y-122458180D01*
X139463586Y-122458722D01*
X139518757Y-122451096D01*
X139526986Y-122448243D01*
X139535693Y-122448311D01*
X139590672Y-122437819D01*
X139598625Y-122434597D01*
X139607197Y-122434231D01*
X139661169Y-122421080D01*
X139669151Y-122417367D01*
X139677916Y-122416537D01*
X139730068Y-122400929D01*
X139738386Y-122396522D01*
X139747692Y-122395118D01*
X139797209Y-122377259D01*
X139806189Y-122371846D01*
X139816437Y-122369645D01*
X139862504Y-122349740D01*
X139868749Y-122345429D01*
X139876095Y-122343505D01*
X139888512Y-122337469D01*
X139894972Y-122332570D01*
X139902708Y-122330145D01*
X139958236Y-122299800D01*
X139967547Y-122292013D01*
X139978843Y-122287563D01*
X140033167Y-122252617D01*
X140041461Y-122244607D01*
X140051874Y-122239664D01*
X140104897Y-122200225D01*
X140112222Y-122192120D01*
X140121768Y-122186812D01*
X140173393Y-122142988D01*
X140179821Y-122134884D01*
X140188538Y-122129317D01*
X140238670Y-122081216D01*
X140244277Y-122073188D01*
X140252213Y-122067451D01*
X140300756Y-122015182D01*
X140305624Y-122007280D01*
X140312837Y-122001440D01*
X140359695Y-121945110D01*
X140363897Y-121937373D01*
X140370445Y-121931485D01*
X140415522Y-121871204D01*
X140419132Y-121863648D01*
X140425075Y-121857750D01*
X140468276Y-121793624D01*
X140471358Y-121786262D01*
X140476753Y-121780381D01*
X140517981Y-121712519D01*
X140520593Y-121705355D01*
X140525489Y-121699512D01*
X140564649Y-121628022D01*
X140566661Y-121621627D01*
X140570761Y-121616323D01*
X140601681Y-121554188D01*
X140603069Y-121549080D01*
X140606175Y-121544794D01*
X140618750Y-121517424D01*
X140619856Y-121512789D01*
X140622544Y-121508853D01*
X140634627Y-121480489D01*
X140635561Y-121476026D01*
X140638030Y-121472194D01*
X140649969Y-121441949D01*
X140650685Y-121438004D01*
X140652777Y-121434583D01*
X140664919Y-121401571D01*
X140665428Y-121398339D01*
X140667082Y-121395513D01*
X140679774Y-121358849D01*
X140679999Y-121357216D01*
X140680763Y-121355882D01*
X140695525Y-121349914D01*
X140695703Y-121349797D01*
X140695913Y-121349757D01*
X140719232Y-121340296D01*
X140719420Y-121340172D01*
X140719644Y-121340129D01*
X140741227Y-121331339D01*
X140741453Y-121331190D01*
X140741719Y-121331138D01*
X140759533Y-121323850D01*
X141352200Y-121323850D01*
X141352200Y-122132205D01*
X141441139Y-122346923D01*
X141605478Y-122511261D01*
X141820196Y-122600200D01*
X142476150Y-122600200D01*
X142622200Y-122454150D01*
X142622200Y-121177800D01*
X141498250Y-121177800D01*
X141352200Y-121323850D01*
X140759533Y-121323850D01*
X140761183Y-121323175D01*
X140761451Y-121322997D01*
X140761769Y-121322935D01*
X140778729Y-121315958D01*
X140779109Y-121315705D01*
X140779558Y-121315616D01*
X140793632Y-121309783D01*
X140794220Y-121309390D01*
X140794917Y-121309248D01*
X140805719Y-121304718D01*
X140806940Y-121303894D01*
X140808382Y-121303588D01*
X140815532Y-121300516D01*
X140819923Y-121297499D01*
X140825099Y-121296229D01*
X140828212Y-121294775D01*
X140856606Y-121273928D01*
X140888317Y-121258599D01*
X140888419Y-121258522D01*
X140897099Y-121248780D01*
X140908373Y-121242217D01*
X140917153Y-121230690D01*
X140923326Y-121226448D01*
X140925197Y-121223568D01*
X140933636Y-121217372D01*
X140951819Y-121187365D01*
X140975425Y-121160871D01*
X140979716Y-121148549D01*
X140987620Y-121138172D01*
X140992249Y-121120644D01*
X141001416Y-121105517D01*
X141006693Y-121071086D01*
X141018439Y-121037358D01*
X141017688Y-121024331D01*
X141021019Y-121011719D01*
X141018568Y-120993605D01*
X141021230Y-120976238D01*
X141012976Y-120942596D01*
X141010911Y-120906787D01*
X141005233Y-120895042D01*
X141003484Y-120882111D01*
X140994796Y-120867187D01*
X140992274Y-120855562D01*
X140991263Y-120854104D01*
X140990064Y-120849217D01*
X140969625Y-120821378D01*
X140953990Y-120789035D01*
X140944249Y-120780356D01*
X140937685Y-120769080D01*
X140936081Y-120767263D01*
X140925396Y-120759125D01*
X140917742Y-120748088D01*
X140912804Y-120743318D01*
X140910423Y-120741786D01*
X140908772Y-120739488D01*
X140900783Y-120732023D01*
X140899718Y-120731363D01*
X140898981Y-120730352D01*
X140888228Y-120720450D01*
X140887578Y-120720054D01*
X140887128Y-120719442D01*
X140873892Y-120707363D01*
X140873447Y-120707094D01*
X140873137Y-120706676D01*
X140857704Y-120692678D01*
X140857356Y-120692469D01*
X140857113Y-120692143D01*
X140839766Y-120676484D01*
X140839472Y-120676309D01*
X140839269Y-120676037D01*
X140820294Y-120658977D01*
X140820029Y-120658820D01*
X140819844Y-120658573D01*
X140799523Y-120640369D01*
X140799293Y-120640233D01*
X140799132Y-120640019D01*
X140781729Y-120624479D01*
X140781656Y-120624436D01*
X140781603Y-120624366D01*
X140756906Y-120602334D01*
X140735735Y-120583422D01*
X140718035Y-120567565D01*
X140715987Y-120565721D01*
X140715713Y-120564449D01*
X140707270Y-120544946D01*
X140704597Y-120541080D01*
X140703480Y-120536511D01*
X140694681Y-120517632D01*
X140692210Y-120514260D01*
X140691118Y-120510226D01*
X140686596Y-120501114D01*
X140681622Y-120494665D01*
X140679121Y-120486916D01*
X140656871Y-120447000D01*
X140648390Y-120437031D01*
X140643423Y-120424923D01*
X140617895Y-120386437D01*
X140608970Y-120377452D01*
X140603302Y-120366124D01*
X140574028Y-120328430D01*
X140565296Y-120320862D01*
X140559433Y-120310901D01*
X140525948Y-120273361D01*
X140520784Y-120269467D01*
X140517294Y-120264022D01*
X140508281Y-120254659D01*
X140503094Y-120251048D01*
X140499490Y-120245860D01*
X140461427Y-120209148D01*
X140452151Y-120203190D01*
X140445289Y-120194564D01*
X140406012Y-120161317D01*
X140395837Y-120155678D01*
X140387988Y-120147091D01*
X140346670Y-120116717D01*
X140336289Y-120111861D01*
X140328005Y-120103943D01*
X140283823Y-120075846D01*
X140273962Y-120072020D01*
X140265879Y-120065205D01*
X140218008Y-120038792D01*
X140212205Y-120036947D01*
X140207410Y-120033189D01*
X140193020Y-120025908D01*
X140188026Y-120024515D01*
X140183851Y-120021443D01*
X140137185Y-119999588D01*
X140129007Y-119997573D01*
X140121983Y-119992922D01*
X140075344Y-119973835D01*
X140066596Y-119972133D01*
X140058916Y-119967609D01*
X140011463Y-119951034D01*
X140002650Y-119949795D01*
X139994755Y-119945684D01*
X139945644Y-119931365D01*
X139937278Y-119930632D01*
X139929648Y-119927127D01*
X139878038Y-119914807D01*
X139870526Y-119914522D01*
X139863563Y-119911688D01*
X139808609Y-119901111D01*
X139803530Y-119901142D01*
X139798768Y-119899368D01*
X139766904Y-119894215D01*
X139764483Y-119894302D01*
X139762202Y-119893489D01*
X139748599Y-119891487D01*
X139745857Y-119891625D01*
X139743258Y-119890745D01*
X139731376Y-119889191D01*
X139726984Y-119889483D01*
X139722775Y-119888178D01*
X139711654Y-119887015D01*
X139706412Y-119887499D01*
X139701338Y-119886097D01*
X139690024Y-119885266D01*
X139685147Y-119885869D01*
X139680379Y-119884698D01*
X139667913Y-119884143D01*
X139664333Y-119884691D01*
X139660799Y-119883902D01*
X139646224Y-119883563D01*
X139644022Y-119883948D01*
X139641831Y-119883489D01*
X139624190Y-119883310D01*
X139623135Y-119883509D01*
X139622081Y-119883295D01*
X139603921Y-119883225D01*
X139602925Y-119883419D01*
X139601933Y-119883224D01*
X139576414Y-119883277D01*
X139574105Y-119883741D01*
X139571786Y-119883318D01*
X139550069Y-119883663D01*
X139546394Y-119884455D01*
X139542683Y-119883862D01*
X139523735Y-119884581D01*
X139518684Y-119885786D01*
X139513535Y-119885124D01*
X139496325Y-119886303D01*
X139490480Y-119887888D01*
X139484452Y-119887329D01*
X139467947Y-119889051D01*
X139462300Y-119890800D01*
X139456397Y-119890459D01*
X139439566Y-119892808D01*
X139435063Y-119894376D01*
X139430295Y-119894234D01*
X139412104Y-119897294D01*
X139409416Y-119898315D01*
X139406542Y-119898278D01*
X139391482Y-119901073D01*
X139386733Y-119902969D01*
X139381618Y-119903057D01*
X139341258Y-119911808D01*
X139334446Y-119914768D01*
X139327034Y-119915219D01*
X139285139Y-119926237D01*
X139278961Y-119929248D01*
X139272126Y-119929942D01*
X139230673Y-119942653D01*
X139224228Y-119946123D01*
X139216982Y-119947175D01*
X139177948Y-119961007D01*
X139173523Y-119963641D01*
X139168454Y-119964534D01*
X139160652Y-119967567D01*
X139159473Y-119968318D01*
X139158097Y-119968572D01*
X139128489Y-119980362D01*
X139127722Y-119980860D01*
X139126826Y-119981030D01*
X139097769Y-119992781D01*
X139096913Y-119993343D01*
X139095908Y-119993540D01*
X139067136Y-120005377D01*
X139066218Y-120005988D01*
X139065137Y-120006207D01*
X139036386Y-120018253D01*
X139035437Y-120018893D01*
X139034313Y-120019129D01*
X139005315Y-120031508D01*
X139004357Y-120032163D01*
X139003226Y-120032409D01*
X138973716Y-120045244D01*
X138972778Y-120045895D01*
X138971663Y-120046145D01*
X138941375Y-120059560D01*
X138940477Y-120060192D01*
X138939404Y-120060440D01*
X138908073Y-120074559D01*
X138907233Y-120075158D01*
X138906232Y-120075396D01*
X138873590Y-120090343D01*
X138872820Y-120090899D01*
X138871897Y-120091124D01*
X138837681Y-120107023D01*
X138836996Y-120107524D01*
X138836171Y-120107729D01*
X138800114Y-120124702D01*
X138799505Y-120125152D01*
X138798771Y-120125338D01*
X138760607Y-120143510D01*
X138760075Y-120143906D01*
X138759432Y-120144072D01*
X138718896Y-120163567D01*
X138718441Y-120163909D01*
X138717893Y-120164052D01*
X138674719Y-120184992D01*
X138674332Y-120185285D01*
X138673865Y-120185408D01*
X138627786Y-120207919D01*
X138627462Y-120208165D01*
X138627070Y-120208270D01*
X138577820Y-120232475D01*
X138577555Y-120232678D01*
X138577234Y-120232764D01*
X138524548Y-120258786D01*
X138524328Y-120258955D01*
X138524062Y-120259027D01*
X138467676Y-120286990D01*
X138467503Y-120287123D01*
X138467290Y-120287181D01*
X138406935Y-120317209D01*
X138406837Y-120317284D01*
X138406718Y-120317317D01*
X138391334Y-120324986D01*
X138391333Y-120324986D01*
X138339519Y-120350769D01*
X138292288Y-120374170D01*
X138248510Y-120395738D01*
X138208044Y-120415531D01*
X138171055Y-120433463D01*
X138136689Y-120449942D01*
X138105045Y-120464922D01*
X138075176Y-120478849D01*
X138047265Y-120491640D01*
X138020552Y-120503651D01*
X137994934Y-120514935D01*
X137969888Y-120525733D01*
X137944746Y-120536342D01*
X137919397Y-120546818D01*
X137893163Y-120557454D01*
X137865780Y-120568369D01*
X137860029Y-120570643D01*
X137859627Y-120570902D01*
X137859153Y-120570990D01*
X137841696Y-120577945D01*
X137840668Y-120578612D01*
X137839467Y-120578843D01*
X137823505Y-120585335D01*
X137822345Y-120586099D01*
X137820981Y-120586373D01*
X137807062Y-120592168D01*
X137805481Y-120593229D01*
X137803614Y-120593625D01*
X137792285Y-120598490D01*
X137789644Y-120600305D01*
X137786523Y-120601029D01*
X137778328Y-120604732D01*
X137772452Y-120608934D01*
X137767632Y-120610144D01*
X137766526Y-120610965D01*
X137763731Y-120611758D01*
X137759218Y-120614066D01*
X137742120Y-120627586D01*
X137726995Y-120626763D01*
X137720846Y-120627642D01*
X137712990Y-120630406D01*
X137704662Y-120630361D01*
X137695066Y-120632216D01*
X137640011Y-120641467D01*
X137590694Y-120646402D01*
X137540762Y-120648050D01*
X137485192Y-120646221D01*
X137482662Y-120646043D01*
X137429692Y-120641602D01*
X137372276Y-120635892D01*
X137309758Y-120628838D01*
X137242677Y-120620489D01*
X137171135Y-120610852D01*
X137095571Y-120599979D01*
X137016257Y-120587910D01*
X136933001Y-120574612D01*
X136846673Y-120560222D01*
X136756734Y-120544648D01*
X136663974Y-120528024D01*
X136568410Y-120510350D01*
X136470168Y-120491646D01*
X136369295Y-120471916D01*
X136266250Y-120451246D01*
X136161308Y-120429684D01*
X136054068Y-120407143D01*
X135945439Y-120383805D01*
X135841963Y-120361116D01*
X135811618Y-120354396D01*
X135810865Y-120354380D01*
X135810175Y-120354080D01*
X135783968Y-120348397D01*
X135781578Y-120348356D01*
X135779370Y-120347433D01*
X135757033Y-120342916D01*
X135752121Y-120342900D01*
X135747534Y-120341137D01*
X135728632Y-120337879D01*
X135719916Y-120338103D01*
X135711628Y-120335395D01*
X135695727Y-120333487D01*
X135681429Y-120334589D01*
X135667475Y-120331304D01*
X135654142Y-120330839D01*
X135632446Y-120334373D01*
X135610578Y-120332155D01*
X135599379Y-120333225D01*
X135589552Y-120336175D01*
X135588423Y-120336065D01*
X135568519Y-120342134D01*
X135539685Y-120344456D01*
X135530185Y-120347155D01*
X135516894Y-120353958D01*
X135512316Y-120354465D01*
X135492755Y-120365229D01*
X135474112Y-120370825D01*
X135473925Y-120370978D01*
X135463321Y-120374211D01*
X135455086Y-120378628D01*
X135432713Y-120397043D01*
X135413760Y-120406744D01*
X135410631Y-120410421D01*
X135397731Y-120417520D01*
X135390327Y-120423749D01*
X135373451Y-120444832D01*
X135352172Y-120461459D01*
X135345165Y-120469592D01*
X135336531Y-120484855D01*
X135323905Y-120497021D01*
X135316862Y-120507150D01*
X135313042Y-120515909D01*
X135306546Y-120522914D01*
X135299031Y-120535132D01*
X135297709Y-120538697D01*
X135295190Y-120541538D01*
X135286771Y-120555937D01*
X135286644Y-120556303D01*
X135286387Y-120556595D01*
X135283452Y-120561641D01*
X135282824Y-120563470D01*
X135281560Y-120564936D01*
X135256006Y-120610039D01*
X135254725Y-120613915D01*
X135252134Y-120617068D01*
X135228179Y-120661812D01*
X135226953Y-120665845D01*
X135224359Y-120669165D01*
X135202279Y-120712977D01*
X135201074Y-120717322D01*
X135198393Y-120720948D01*
X135178456Y-120763257D01*
X135177234Y-120768166D01*
X135174350Y-120772318D01*
X135156829Y-120812555D01*
X135155568Y-120818347D01*
X135152358Y-120823331D01*
X135137521Y-120860926D01*
X135136371Y-120867265D01*
X135133089Y-120872810D01*
X135123582Y-120899855D01*
X135122353Y-120908472D01*
X135118310Y-120916177D01*
X135107708Y-120952117D01*
X135106616Y-120964152D01*
X135101777Y-120975224D01*
X135094429Y-121008763D01*
X135094155Y-121022946D01*
X135089579Y-121036377D01*
X135085465Y-121067360D01*
X135086556Y-121084296D01*
X135082718Y-121100827D01*
X135081819Y-121129095D01*
X130405200Y-121129095D01*
X130405200Y-119789907D01*
X130419750Y-119716760D01*
X130438579Y-119688580D01*
X130466761Y-119669749D01*
X130539907Y-119655200D01*
X141440260Y-119655200D01*
X141352200Y-119867795D01*
X141352200Y-120676150D01*
X141498250Y-120822200D01*
X142622200Y-120822200D01*
X142622200Y-120802200D01*
X142977800Y-120802200D01*
X142977800Y-120822200D01*
X142997800Y-120822200D01*
X142997800Y-121177800D01*
X142977800Y-121177800D01*
X142977800Y-122454150D01*
X143123850Y-122600200D01*
X143779804Y-122600200D01*
X143994522Y-122511261D01*
X144158861Y-122346923D01*
X144247800Y-122132205D01*
X144247800Y-121651675D01*
X144495856Y-122022918D01*
X144883153Y-122281701D01*
X145340000Y-122372574D01*
X145796847Y-122281701D01*
X146184144Y-122022918D01*
X146442927Y-121635621D01*
X146533800Y-121178774D01*
X146533800Y-120821226D01*
X146442927Y-120364379D01*
X146184144Y-119977082D01*
X145796847Y-119718299D01*
X145479629Y-119655200D01*
X147740371Y-119655200D01*
X147423153Y-119718299D01*
X147035856Y-119977082D01*
X146777073Y-120364379D01*
X146686200Y-120821226D01*
X146686200Y-121178774D01*
X146777073Y-121635621D01*
X147035856Y-122022918D01*
X147423153Y-122281701D01*
X147880000Y-122372574D01*
X148336847Y-122281701D01*
X148724144Y-122022918D01*
X148982927Y-121635621D01*
X149073800Y-121178774D01*
X149073800Y-120821226D01*
X148982927Y-120364379D01*
X148724144Y-119977082D01*
X148336847Y-119718299D01*
X148019629Y-119655200D01*
X150280371Y-119655200D01*
X149963153Y-119718299D01*
X149575856Y-119977082D01*
X149317073Y-120364379D01*
X149226200Y-120821226D01*
X149226200Y-121178774D01*
X149317073Y-121635621D01*
X149575856Y-122022918D01*
X149963153Y-122281701D01*
X150420000Y-122372574D01*
X150876847Y-122281701D01*
X151264144Y-122022918D01*
X151522927Y-121635621D01*
X151613800Y-121178774D01*
X151613800Y-120821226D01*
X151606257Y-120783301D01*
X158351785Y-120783301D01*
X158454043Y-121030783D01*
X158643224Y-121220294D01*
X158890527Y-121322983D01*
X159158303Y-121323217D01*
X159405785Y-121220959D01*
X159570631Y-121056400D01*
X160356664Y-121056400D01*
X160526985Y-121226721D01*
X160526783Y-121458301D01*
X160629041Y-121705783D01*
X160818222Y-121895294D01*
X161065525Y-121997983D01*
X161333301Y-121998217D01*
X161580783Y-121895959D01*
X161770294Y-121706778D01*
X161872983Y-121459475D01*
X161873217Y-121191699D01*
X161770959Y-120944217D01*
X161581778Y-120754706D01*
X161334475Y-120652017D01*
X161101549Y-120651813D01*
X160812368Y-120362632D01*
X160794614Y-120350769D01*
X160680523Y-120274535D01*
X160525000Y-120243600D01*
X159570389Y-120243600D01*
X159406780Y-120079706D01*
X159159477Y-119977017D01*
X158891701Y-119976783D01*
X158644219Y-120079041D01*
X158454708Y-120268222D01*
X158352019Y-120515525D01*
X158351785Y-120783301D01*
X151606257Y-120783301D01*
X151522927Y-120364379D01*
X151264144Y-119977082D01*
X150876847Y-119718299D01*
X150559629Y-119655200D01*
X152170000Y-119655200D01*
X152325063Y-119624356D01*
X152456520Y-119536520D01*
X152544356Y-119405063D01*
X152575200Y-119250000D01*
X152575200Y-112500000D01*
X152544356Y-112344937D01*
X152456520Y-112213480D01*
X152325063Y-112125644D01*
X152170000Y-112094800D01*
X151601923Y-112094800D01*
X151767532Y-111984144D01*
X152026315Y-111596847D01*
X152117188Y-111140000D01*
X152026315Y-110683153D01*
X151767532Y-110295856D01*
X151380235Y-110037073D01*
X150923388Y-109946200D01*
X150876612Y-109946200D01*
X150419765Y-110037073D01*
X150032468Y-110295856D01*
X149773685Y-110683153D01*
X149682812Y-111140000D01*
X149773685Y-111596847D01*
X150032468Y-111984144D01*
X150198077Y-112094800D01*
X149061923Y-112094800D01*
X149227532Y-111984144D01*
X149486315Y-111596847D01*
X149577188Y-111140000D01*
X149486315Y-110683153D01*
X149227532Y-110295856D01*
X148840235Y-110037073D01*
X148383388Y-109946200D01*
X148336612Y-109946200D01*
X147879765Y-110037073D01*
X147492468Y-110295856D01*
X147405200Y-110426462D01*
X147405200Y-109313538D01*
X147492468Y-109444144D01*
X147879765Y-109702927D01*
X148336612Y-109793800D01*
X148383388Y-109793800D01*
X148840235Y-109702927D01*
X149227532Y-109444144D01*
X149486315Y-109056847D01*
X149577188Y-108600000D01*
X149486315Y-108143153D01*
X149227532Y-107755856D01*
X148840235Y-107497073D01*
X148537802Y-107436915D01*
X148537802Y-107350806D01*
X148760385Y-107451351D01*
X149262354Y-107192220D01*
X149626948Y-106760719D01*
X149630000Y-106753350D01*
X149633052Y-106760719D01*
X149997646Y-107192220D01*
X150499615Y-107451351D01*
X150722198Y-107350806D01*
X150722198Y-107436915D01*
X150419765Y-107497073D01*
X150032468Y-107755856D01*
X149773685Y-108143153D01*
X149682812Y-108600000D01*
X149773685Y-109056847D01*
X150032468Y-109444144D01*
X150419765Y-109702927D01*
X150876612Y-109793800D01*
X150923388Y-109793800D01*
X151380235Y-109702927D01*
X151767532Y-109444144D01*
X152026315Y-109056847D01*
X152117188Y-108600000D01*
X152026315Y-108143153D01*
X151767532Y-107755856D01*
X151380235Y-107497073D01*
X151077802Y-107436915D01*
X151077802Y-107350806D01*
X151300385Y-107451351D01*
X151802354Y-107192220D01*
X152166948Y-106760719D01*
X152291337Y-106460382D01*
X152189550Y-106237800D01*
X151077800Y-106237800D01*
X151077800Y-106257800D01*
X150722200Y-106257800D01*
X150722200Y-106237800D01*
X148537800Y-106237800D01*
X148537800Y-106257800D01*
X148182200Y-106257800D01*
X148182200Y-106237800D01*
X148162200Y-106237800D01*
X148162200Y-105882200D01*
X148182200Y-105882200D01*
X148182200Y-103697800D01*
X148537800Y-103697800D01*
X148537800Y-105882200D01*
X150722200Y-105882200D01*
X150722200Y-103697800D01*
X151077800Y-103697800D01*
X151077800Y-105882200D01*
X152189550Y-105882200D01*
X152291337Y-105659618D01*
X152166948Y-105359281D01*
X151802354Y-104927780D01*
X151535457Y-104790000D01*
X151802354Y-104652220D01*
X152166948Y-104220719D01*
X152291337Y-103920382D01*
X152189550Y-103697800D01*
X151077800Y-103697800D01*
X150722200Y-103697800D01*
X148537800Y-103697800D01*
X148182200Y-103697800D01*
X148162200Y-103697800D01*
X148162200Y-103342200D01*
X148182200Y-103342200D01*
X148182200Y-103322200D01*
X148537800Y-103322200D01*
X148537800Y-103342200D01*
X150722200Y-103342200D01*
X150722200Y-103322200D01*
X151077800Y-103322200D01*
X151077800Y-103342200D01*
X152189550Y-103342200D01*
X152291337Y-103119618D01*
X152166948Y-102819281D01*
X151802354Y-102387780D01*
X151300385Y-102128649D01*
X151077802Y-102229194D01*
X151077802Y-102143085D01*
X151380235Y-102082927D01*
X151767532Y-101824144D01*
X152026315Y-101436847D01*
X152117188Y-100980000D01*
X152026315Y-100523153D01*
X151767532Y-100135856D01*
X151380235Y-99877073D01*
X150923388Y-99786200D01*
X150876612Y-99786200D01*
X150419765Y-99877073D01*
X150032468Y-100135856D01*
X149773685Y-100523153D01*
X149682812Y-100980000D01*
X149773685Y-101436847D01*
X150032468Y-101824144D01*
X150419765Y-102082927D01*
X150722198Y-102143085D01*
X150722198Y-102229194D01*
X150499615Y-102128649D01*
X149997646Y-102387780D01*
X149633052Y-102819281D01*
X149630000Y-102826650D01*
X149626948Y-102819281D01*
X149262354Y-102387780D01*
X148760385Y-102128649D01*
X148537802Y-102229194D01*
X148537802Y-102143085D01*
X148840235Y-102082927D01*
X149227532Y-101824144D01*
X149486315Y-101436847D01*
X149577188Y-100980000D01*
X149486315Y-100523153D01*
X149227532Y-100135856D01*
X148840235Y-99877073D01*
X148383388Y-99786200D01*
X148336612Y-99786200D01*
X147879765Y-99877073D01*
X147492468Y-100135856D01*
X147405200Y-100266462D01*
X147405200Y-99621800D01*
X147496400Y-99640269D01*
X149223600Y-99640269D01*
X149345965Y-99617244D01*
X149458349Y-99544927D01*
X149533744Y-99434583D01*
X149560269Y-99303600D01*
X149560269Y-98440000D01*
X149682812Y-98440000D01*
X149773685Y-98896847D01*
X150032468Y-99284144D01*
X150419765Y-99542927D01*
X150876612Y-99633800D01*
X150923388Y-99633800D01*
X151380235Y-99542927D01*
X151767532Y-99284144D01*
X152026315Y-98896847D01*
X152117188Y-98440000D01*
X152026315Y-97983153D01*
X151767532Y-97595856D01*
X151380235Y-97337073D01*
X150923388Y-97246200D01*
X150876612Y-97246200D01*
X150419765Y-97337073D01*
X150032468Y-97595856D01*
X149773685Y-97983153D01*
X149682812Y-98440000D01*
X149560269Y-98440000D01*
X149560269Y-97576400D01*
X149537244Y-97454035D01*
X149464927Y-97341651D01*
X149354583Y-97266256D01*
X149223600Y-97239731D01*
X147496400Y-97239731D01*
X147405200Y-97256892D01*
X147405200Y-96750000D01*
X147374356Y-96594937D01*
X147286520Y-96463480D01*
X147155063Y-96375644D01*
X147000000Y-96344800D01*
X130539907Y-96344800D01*
X130466761Y-96330251D01*
X130438579Y-96311420D01*
X130419750Y-96283240D01*
X130405200Y-96210093D01*
X130405200Y-94625000D01*
X139002426Y-94625000D01*
X139104899Y-95140168D01*
X139396719Y-95576907D01*
X139833458Y-95868727D01*
X140348626Y-95971200D01*
X140401374Y-95971200D01*
X140916542Y-95868727D01*
X141353281Y-95576907D01*
X141645101Y-95140168D01*
X141747574Y-94625000D01*
X141645101Y-94109832D01*
X141353281Y-93673093D01*
X141000944Y-93437669D01*
X141391000Y-93437669D01*
X141513365Y-93414644D01*
X141625749Y-93342327D01*
X141701144Y-93231983D01*
X141727669Y-93101000D01*
X141727669Y-91069000D01*
X141704644Y-90946635D01*
X141632327Y-90834251D01*
X141521983Y-90758856D01*
X141391000Y-90732331D01*
X139359000Y-90732331D01*
X139236635Y-90755356D01*
X139124251Y-90827673D01*
X139048856Y-90938017D01*
X139022331Y-91069000D01*
X139022331Y-93101000D01*
X139045356Y-93223365D01*
X139117673Y-93335749D01*
X139228017Y-93411144D01*
X139359000Y-93437669D01*
X139749056Y-93437669D01*
X139396719Y-93673093D01*
X139104899Y-94109832D01*
X139002426Y-94625000D01*
X130405200Y-94625000D01*
X130405200Y-93112452D01*
X130919483Y-93112452D01*
X131197527Y-93785371D01*
X131711921Y-94300664D01*
X132384354Y-94579882D01*
X133112452Y-94580517D01*
X133785371Y-94302473D01*
X134300664Y-93788079D01*
X134579882Y-93115646D01*
X134580517Y-92387548D01*
X134302473Y-91714629D01*
X133788079Y-91199336D01*
X133115646Y-90920118D01*
X132387548Y-90919483D01*
X131714629Y-91197527D01*
X131199336Y-91711921D01*
X130920118Y-92384354D01*
X130919483Y-93112452D01*
X130405200Y-93112452D01*
X130405200Y-92789908D01*
X130591021Y-91855723D01*
X131097588Y-91097590D01*
X131855723Y-90591021D01*
X132789907Y-90405200D01*
X157850322Y-90405200D01*
X157624618Y-90630511D01*
G36*
X165594800Y-114923331D02*
X165423107Y-114751339D01*
X165217681Y-114666039D01*
X165270391Y-114613420D01*
X165373080Y-114366117D01*
X165373314Y-114098341D01*
X165271056Y-113850859D01*
X165081875Y-113661348D01*
X164876449Y-113576048D01*
X164929160Y-113523429D01*
X165031849Y-113276126D01*
X165032083Y-113008350D01*
X164929825Y-112760868D01*
X164740644Y-112571357D01*
X164535218Y-112486057D01*
X164587928Y-112433439D01*
X164690617Y-112186136D01*
X164690851Y-111918360D01*
X164588593Y-111670878D01*
X164399412Y-111481367D01*
X164193986Y-111396067D01*
X164246696Y-111343448D01*
X164349385Y-111096145D01*
X164349619Y-110828369D01*
X164247361Y-110580887D01*
X164058180Y-110391376D01*
X163810877Y-110288687D01*
X163543101Y-110288453D01*
X163523633Y-110296497D01*
X163491405Y-110218499D01*
X163302224Y-110028988D01*
X163054921Y-109926299D01*
X162787145Y-109926065D01*
X162539663Y-110028323D01*
X162505019Y-110062907D01*
X161806717Y-109469466D01*
X161830261Y-109445922D01*
X161919200Y-109231204D01*
X161919200Y-109203550D01*
X161915650Y-109200000D01*
X161919200Y-109196450D01*
X161919200Y-109168796D01*
X161849282Y-109000000D01*
X161919200Y-108831204D01*
X161919200Y-108803550D01*
X161915650Y-108800000D01*
X161919200Y-108796450D01*
X161919200Y-108768796D01*
X161849282Y-108600000D01*
X161919200Y-108431204D01*
X161919200Y-108403550D01*
X161915650Y-108400000D01*
X161919200Y-108396450D01*
X161919200Y-108368796D01*
X161849282Y-108200000D01*
X161919200Y-108031204D01*
X161919200Y-108003550D01*
X161915650Y-108000000D01*
X161919200Y-107996450D01*
X161919200Y-107968796D01*
X161849282Y-107800000D01*
X161919200Y-107631204D01*
X161919200Y-107603550D01*
X161915650Y-107600000D01*
X161919200Y-107596450D01*
X161919200Y-107568796D01*
X161849282Y-107400000D01*
X161919200Y-107231204D01*
X161919200Y-107203550D01*
X161915650Y-107200000D01*
X161919200Y-107196450D01*
X161919200Y-107168796D01*
X161849282Y-107000000D01*
X161919200Y-106831204D01*
X161919200Y-106803550D01*
X161915650Y-106800000D01*
X161919200Y-106796450D01*
X161919200Y-106768796D01*
X161830261Y-106554078D01*
X161806934Y-106530751D01*
X162504906Y-105937591D01*
X162538668Y-105971412D01*
X162785971Y-106074101D01*
X163053747Y-106074335D01*
X163301229Y-105972077D01*
X163490740Y-105782896D01*
X163523478Y-105704053D01*
X163541927Y-105711714D01*
X163809703Y-105711948D01*
X164057185Y-105609690D01*
X164246696Y-105420509D01*
X164349385Y-105173206D01*
X164349619Y-104905430D01*
X164247361Y-104657948D01*
X164193766Y-104604260D01*
X164398417Y-104519699D01*
X164587928Y-104330518D01*
X164690617Y-104083215D01*
X164690851Y-103815439D01*
X164588593Y-103567957D01*
X164534998Y-103514269D01*
X164739649Y-103429708D01*
X164929160Y-103240527D01*
X165031849Y-102993224D01*
X165032083Y-102725448D01*
X164929825Y-102477966D01*
X164876230Y-102424278D01*
X165080880Y-102339718D01*
X165270391Y-102150537D01*
X165373080Y-101903234D01*
X165373314Y-101635458D01*
X165271056Y-101387976D01*
X165217461Y-101334288D01*
X165422112Y-101249727D01*
X165594800Y-101077340D01*
X165594800Y-114923331D01*
X165594800Y-114923331D01*
G37*
X165594800Y-114923331D02*
X165423107Y-114751339D01*
X165217681Y-114666039D01*
X165270391Y-114613420D01*
X165373080Y-114366117D01*
X165373314Y-114098341D01*
X165271056Y-113850859D01*
X165081875Y-113661348D01*
X164876449Y-113576048D01*
X164929160Y-113523429D01*
X165031849Y-113276126D01*
X165032083Y-113008350D01*
X164929825Y-112760868D01*
X164740644Y-112571357D01*
X164535218Y-112486057D01*
X164587928Y-112433439D01*
X164690617Y-112186136D01*
X164690851Y-111918360D01*
X164588593Y-111670878D01*
X164399412Y-111481367D01*
X164193986Y-111396067D01*
X164246696Y-111343448D01*
X164349385Y-111096145D01*
X164349619Y-110828369D01*
X164247361Y-110580887D01*
X164058180Y-110391376D01*
X163810877Y-110288687D01*
X163543101Y-110288453D01*
X163523633Y-110296497D01*
X163491405Y-110218499D01*
X163302224Y-110028988D01*
X163054921Y-109926299D01*
X162787145Y-109926065D01*
X162539663Y-110028323D01*
X162505019Y-110062907D01*
X161806717Y-109469466D01*
X161830261Y-109445922D01*
X161919200Y-109231204D01*
X161919200Y-109203550D01*
X161915650Y-109200000D01*
X161919200Y-109196450D01*
X161919200Y-109168796D01*
X161849282Y-109000000D01*
X161919200Y-108831204D01*
X161919200Y-108803550D01*
X161915650Y-108800000D01*
X161919200Y-108796450D01*
X161919200Y-108768796D01*
X161849282Y-108600000D01*
X161919200Y-108431204D01*
X161919200Y-108403550D01*
X161915650Y-108400000D01*
X161919200Y-108396450D01*
X161919200Y-108368796D01*
X161849282Y-108200000D01*
X161919200Y-108031204D01*
X161919200Y-108003550D01*
X161915650Y-108000000D01*
X161919200Y-107996450D01*
X161919200Y-107968796D01*
X161849282Y-107800000D01*
X161919200Y-107631204D01*
X161919200Y-107603550D01*
X161915650Y-107600000D01*
X161919200Y-107596450D01*
X161919200Y-107568796D01*
X161849282Y-107400000D01*
X161919200Y-107231204D01*
X161919200Y-107203550D01*
X161915650Y-107200000D01*
X161919200Y-107196450D01*
X161919200Y-107168796D01*
X161849282Y-107000000D01*
X161919200Y-106831204D01*
X161919200Y-106803550D01*
X161915650Y-106800000D01*
X161919200Y-106796450D01*
X161919200Y-106768796D01*
X161830261Y-106554078D01*
X161806934Y-106530751D01*
X162504906Y-105937591D01*
X162538668Y-105971412D01*
X162785971Y-106074101D01*
X163053747Y-106074335D01*
X163301229Y-105972077D01*
X163490740Y-105782896D01*
X163523478Y-105704053D01*
X163541927Y-105711714D01*
X163809703Y-105711948D01*
X164057185Y-105609690D01*
X164246696Y-105420509D01*
X164349385Y-105173206D01*
X164349619Y-104905430D01*
X164247361Y-104657948D01*
X164193766Y-104604260D01*
X164398417Y-104519699D01*
X164587928Y-104330518D01*
X164690617Y-104083215D01*
X164690851Y-103815439D01*
X164588593Y-103567957D01*
X164534998Y-103514269D01*
X164739649Y-103429708D01*
X164929160Y-103240527D01*
X165031849Y-102993224D01*
X165032083Y-102725448D01*
X164929825Y-102477966D01*
X164876230Y-102424278D01*
X165080880Y-102339718D01*
X165270391Y-102150537D01*
X165373080Y-101903234D01*
X165373314Y-101635458D01*
X165271056Y-101387976D01*
X165217461Y-101334288D01*
X165422112Y-101249727D01*
X165594800Y-101077340D01*
X165594800Y-114923331D01*
G36*
X164144277Y-90591021D02*
X164902410Y-91097588D01*
X165408979Y-91855723D01*
X165594800Y-92789907D01*
X165594800Y-100280466D01*
X165423107Y-100108474D01*
X165299613Y-100057195D01*
X165299822Y-99817864D01*
X165197564Y-99570382D01*
X165008383Y-99380871D01*
X164761080Y-99278182D01*
X164493304Y-99277948D01*
X164245822Y-99380206D01*
X164170161Y-99455736D01*
X164125216Y-99493931D01*
X164122696Y-99476786D01*
X164212861Y-99386778D01*
X164315550Y-99139475D01*
X164315784Y-98871699D01*
X164213526Y-98624217D01*
X164024345Y-98434706D01*
X163777042Y-98332017D01*
X163509266Y-98331783D01*
X163357108Y-98394654D01*
X163520294Y-98231752D01*
X163622983Y-97984449D01*
X163623217Y-97716673D01*
X163520959Y-97469191D01*
X163331778Y-97279680D01*
X163217190Y-97232099D01*
X163137368Y-97112638D01*
X163005523Y-97024541D01*
X162850000Y-96993606D01*
X162694477Y-97024541D01*
X162562632Y-97112638D01*
X161986479Y-97688791D01*
X161425292Y-97688791D01*
X161663680Y-97450403D01*
X161668534Y-97443138D01*
X161751777Y-97318558D01*
X161782712Y-97163035D01*
X161782712Y-94472515D01*
X162079193Y-94768996D01*
X161929706Y-94918222D01*
X161827017Y-95165525D01*
X161826783Y-95433301D01*
X161929041Y-95680783D01*
X162118222Y-95870294D01*
X162365525Y-95972983D01*
X162633301Y-95973217D01*
X162880783Y-95870959D01*
X163070294Y-95681778D01*
X163172983Y-95434475D01*
X163173217Y-95166699D01*
X163070959Y-94919217D01*
X162906400Y-94754371D01*
X162906400Y-94615067D01*
X162899404Y-94579895D01*
X163612452Y-94580517D01*
X164285371Y-94302473D01*
X164800664Y-93788079D01*
X165079882Y-93115646D01*
X165080517Y-92387548D01*
X164802473Y-91714629D01*
X164288079Y-91199336D01*
X163615646Y-90920118D01*
X162887548Y-90919483D01*
X162214629Y-91197527D01*
X161699336Y-91711921D01*
X161420118Y-92384354D01*
X161419616Y-92959947D01*
X160732401Y-92272732D01*
X160713140Y-92259862D01*
X160600556Y-92184635D01*
X160445033Y-92153700D01*
X159239900Y-92153700D01*
X159178426Y-92165928D01*
X159475382Y-91869489D01*
X159642010Y-91468205D01*
X159642389Y-91033701D01*
X159476462Y-90632127D01*
X159249931Y-90405200D01*
X163210092Y-90405200D01*
X164144277Y-90591021D01*
X164144277Y-90591021D01*
G37*
X164144277Y-90591021D02*
X164902410Y-91097588D01*
X165408979Y-91855723D01*
X165594800Y-92789907D01*
X165594800Y-100280466D01*
X165423107Y-100108474D01*
X165299613Y-100057195D01*
X165299822Y-99817864D01*
X165197564Y-99570382D01*
X165008383Y-99380871D01*
X164761080Y-99278182D01*
X164493304Y-99277948D01*
X164245822Y-99380206D01*
X164170161Y-99455736D01*
X164125216Y-99493931D01*
X164122696Y-99476786D01*
X164212861Y-99386778D01*
X164315550Y-99139475D01*
X164315784Y-98871699D01*
X164213526Y-98624217D01*
X164024345Y-98434706D01*
X163777042Y-98332017D01*
X163509266Y-98331783D01*
X163357108Y-98394654D01*
X163520294Y-98231752D01*
X163622983Y-97984449D01*
X163623217Y-97716673D01*
X163520959Y-97469191D01*
X163331778Y-97279680D01*
X163217190Y-97232099D01*
X163137368Y-97112638D01*
X163005523Y-97024541D01*
X162850000Y-96993606D01*
X162694477Y-97024541D01*
X162562632Y-97112638D01*
X161986479Y-97688791D01*
X161425292Y-97688791D01*
X161663680Y-97450403D01*
X161668534Y-97443138D01*
X161751777Y-97318558D01*
X161782712Y-97163035D01*
X161782712Y-94472515D01*
X162079193Y-94768996D01*
X161929706Y-94918222D01*
X161827017Y-95165525D01*
X161826783Y-95433301D01*
X161929041Y-95680783D01*
X162118222Y-95870294D01*
X162365525Y-95972983D01*
X162633301Y-95973217D01*
X162880783Y-95870959D01*
X163070294Y-95681778D01*
X163172983Y-95434475D01*
X163173217Y-95166699D01*
X163070959Y-94919217D01*
X162906400Y-94754371D01*
X162906400Y-94615067D01*
X162899404Y-94579895D01*
X163612452Y-94580517D01*
X164285371Y-94302473D01*
X164800664Y-93788079D01*
X165079882Y-93115646D01*
X165080517Y-92387548D01*
X164802473Y-91714629D01*
X164288079Y-91199336D01*
X163615646Y-90920118D01*
X162887548Y-90919483D01*
X162214629Y-91197527D01*
X161699336Y-91711921D01*
X161420118Y-92384354D01*
X161419616Y-92959947D01*
X160732401Y-92272732D01*
X160713140Y-92259862D01*
X160600556Y-92184635D01*
X160445033Y-92153700D01*
X159239900Y-92153700D01*
X159178426Y-92165928D01*
X159475382Y-91869489D01*
X159642010Y-91468205D01*
X159642389Y-91033701D01*
X159476462Y-90632127D01*
X159249931Y-90405200D01*
X163210092Y-90405200D01*
X164144277Y-90591021D01*
G36*
X159940032Y-95137368D02*
X160071877Y-95225465D01*
X160227400Y-95256400D01*
X160577486Y-95256400D01*
X160665101Y-95344015D01*
X160665101Y-96335548D01*
X160437562Y-96241066D01*
X160169786Y-96240832D01*
X159922304Y-96343090D01*
X159732793Y-96532271D01*
X159665803Y-96693600D01*
X159157584Y-96693600D01*
X159245261Y-96605922D01*
X159334200Y-96391204D01*
X159334200Y-96223850D01*
X159188150Y-96077800D01*
X158327800Y-96077800D01*
X158327800Y-96097800D01*
X157972200Y-96097800D01*
X157972200Y-96077800D01*
X157952200Y-96077800D01*
X157952200Y-95722200D01*
X157972200Y-95722200D01*
X157972200Y-95702200D01*
X158327800Y-95702200D01*
X158327800Y-95722200D01*
X159188150Y-95722200D01*
X159334200Y-95576150D01*
X159334200Y-95408796D01*
X159245261Y-95194078D01*
X159147884Y-95096700D01*
X159203705Y-95096700D01*
X159418423Y-95007761D01*
X159582761Y-94843422D01*
X159601308Y-94798644D01*
X159940032Y-95137368D01*
X159940032Y-95137368D01*
G37*
X159940032Y-95137368D02*
X160071877Y-95225465D01*
X160227400Y-95256400D01*
X160577486Y-95256400D01*
X160665101Y-95344015D01*
X160665101Y-96335548D01*
X160437562Y-96241066D01*
X160169786Y-96240832D01*
X159922304Y-96343090D01*
X159732793Y-96532271D01*
X159665803Y-96693600D01*
X159157584Y-96693600D01*
X159245261Y-96605922D01*
X159334200Y-96391204D01*
X159334200Y-96223850D01*
X159188150Y-96077800D01*
X158327800Y-96077800D01*
X158327800Y-96097800D01*
X157972200Y-96097800D01*
X157972200Y-96077800D01*
X157952200Y-96077800D01*
X157952200Y-95722200D01*
X157972200Y-95722200D01*
X157972200Y-95702200D01*
X158327800Y-95702200D01*
X158327800Y-95722200D01*
X159188150Y-95722200D01*
X159334200Y-95576150D01*
X159334200Y-95408796D01*
X159245261Y-95194078D01*
X159147884Y-95096700D01*
X159203705Y-95096700D01*
X159418423Y-95007761D01*
X159582761Y-94843422D01*
X159601308Y-94798644D01*
X159940032Y-95137368D01*
G36*
X158910300Y-94437500D02*
X158890300Y-94437500D01*
X158890300Y-94512500D01*
X158534700Y-94512500D01*
X158534700Y-94437500D01*
X158514700Y-94437500D01*
X158514700Y-94349169D01*
X158910300Y-94349169D01*
X158910300Y-94437500D01*
X158910300Y-94437500D01*
G37*
X158910300Y-94437500D02*
X158890300Y-94437500D01*
X158890300Y-94512500D01*
X158534700Y-94512500D01*
X158534700Y-94437500D01*
X158514700Y-94437500D01*
X158514700Y-94349169D01*
X158910300Y-94349169D01*
X158910300Y-94437500D01*
M02*
