G04 #@! TF.FileFunction,Legend,Top*
%FSLAX46Y46*%
G04 Gerber Fmt 4.6, Leading zero omitted, Abs format (unit mm)*
G04 Created by KiCad (PCBNEW (2015-11-03 BZR 6296)-product) date Tuesday, November 10, 2015 'PMt' 06:19:39 PM*
%MOMM*%
G01*
G04 APERTURE LIST*
%ADD10C,0.100000*%
%ADD11C,0.300000*%
%ADD12C,0.150000*%
G04 APERTURE END LIST*
D10*
D11*
X157738572Y-118558571D02*
X157452858Y-118558571D01*
X157310001Y-118630000D01*
X157238572Y-118701429D01*
X157095715Y-118915714D01*
X157024286Y-119201429D01*
X157024286Y-119772857D01*
X157095715Y-119915714D01*
X157167143Y-119987143D01*
X157310001Y-120058571D01*
X157595715Y-120058571D01*
X157738572Y-119987143D01*
X157810001Y-119915714D01*
X157881429Y-119772857D01*
X157881429Y-119415714D01*
X157810001Y-119272857D01*
X157738572Y-119201429D01*
X157595715Y-119130000D01*
X157310001Y-119130000D01*
X157167143Y-119201429D01*
X157095715Y-119272857D01*
X157024286Y-119415714D01*
X158810000Y-118558571D02*
X158952857Y-118558571D01*
X159095714Y-118630000D01*
X159167143Y-118701429D01*
X159238572Y-118844286D01*
X159310000Y-119130000D01*
X159310000Y-119487143D01*
X159238572Y-119772857D01*
X159167143Y-119915714D01*
X159095714Y-119987143D01*
X158952857Y-120058571D01*
X158810000Y-120058571D01*
X158667143Y-119987143D01*
X158595714Y-119915714D01*
X158524286Y-119772857D01*
X158452857Y-119487143D01*
X158452857Y-119130000D01*
X158524286Y-118844286D01*
X158595714Y-118701429D01*
X158667143Y-118630000D01*
X158810000Y-118558571D01*
X159952857Y-120058571D02*
X159952857Y-119058571D01*
X159952857Y-119201429D02*
X160024285Y-119130000D01*
X160167143Y-119058571D01*
X160381428Y-119058571D01*
X160524285Y-119130000D01*
X160595714Y-119272857D01*
X160595714Y-120058571D01*
X160595714Y-119272857D02*
X160667143Y-119130000D01*
X160810000Y-119058571D01*
X161024285Y-119058571D01*
X161167143Y-119130000D01*
X161238571Y-119272857D01*
X161238571Y-120058571D01*
X161881428Y-119630000D02*
X162595714Y-119630000D01*
X161738571Y-120058571D02*
X162238571Y-118558571D01*
X162738571Y-120058571D01*
D12*
X136921905Y-93244762D02*
X136826667Y-93292381D01*
X136636190Y-93292381D01*
X136540952Y-93244762D01*
X136493333Y-93197143D01*
X136445714Y-93101905D01*
X136445714Y-92816190D01*
X136493333Y-92720952D01*
X136540952Y-92673333D01*
X136636190Y-92625714D01*
X136826667Y-92625714D01*
X136921905Y-92673333D01*
X137350476Y-93292381D02*
X137350476Y-92292381D01*
X137445714Y-92911429D02*
X137731429Y-93292381D01*
X137731429Y-92625714D02*
X137350476Y-93006667D01*
X138588572Y-93292381D02*
X138588572Y-92292381D01*
X138588572Y-93244762D02*
X138493334Y-93292381D01*
X138302857Y-93292381D01*
X138207619Y-93244762D01*
X138160000Y-93197143D01*
X138112381Y-93101905D01*
X138112381Y-92816190D01*
X138160000Y-92720952D01*
X138207619Y-92673333D01*
X138302857Y-92625714D01*
X138493334Y-92625714D01*
X138588572Y-92673333D01*
X139064762Y-93197143D02*
X139112381Y-93244762D01*
X139064762Y-93292381D01*
X139017143Y-93244762D01*
X139064762Y-93197143D01*
X139064762Y-93292381D01*
X139398095Y-92625714D02*
X139779047Y-92625714D01*
X139540952Y-92292381D02*
X139540952Y-93149524D01*
X139588571Y-93244762D01*
X139683809Y-93292381D01*
X139779047Y-93292381D01*
X140493334Y-93244762D02*
X140398096Y-93292381D01*
X140207619Y-93292381D01*
X140112381Y-93244762D01*
X140064762Y-93149524D01*
X140064762Y-92768571D01*
X140112381Y-92673333D01*
X140207619Y-92625714D01*
X140398096Y-92625714D01*
X140493334Y-92673333D01*
X140540953Y-92768571D01*
X140540953Y-92863810D01*
X140064762Y-92959048D01*
X141398096Y-93244762D02*
X141302858Y-93292381D01*
X141112381Y-93292381D01*
X141017143Y-93244762D01*
X140969524Y-93197143D01*
X140921905Y-93101905D01*
X140921905Y-92816190D01*
X140969524Y-92720952D01*
X141017143Y-92673333D01*
X141112381Y-92625714D01*
X141302858Y-92625714D01*
X141398096Y-92673333D01*
X141826667Y-93292381D02*
X141826667Y-92292381D01*
X142255239Y-93292381D02*
X142255239Y-92768571D01*
X142207620Y-92673333D01*
X142112382Y-92625714D01*
X141969524Y-92625714D01*
X141874286Y-92673333D01*
X141826667Y-92720952D01*
X143445715Y-92244762D02*
X142588572Y-93530476D01*
X144207620Y-93292381D02*
X144207620Y-92292381D01*
X144207620Y-93244762D02*
X144112382Y-93292381D01*
X143921905Y-93292381D01*
X143826667Y-93244762D01*
X143779048Y-93197143D01*
X143731429Y-93101905D01*
X143731429Y-92816190D01*
X143779048Y-92720952D01*
X143826667Y-92673333D01*
X143921905Y-92625714D01*
X144112382Y-92625714D01*
X144207620Y-92673333D01*
X145112382Y-92625714D02*
X145112382Y-93292381D01*
X144874286Y-92244762D02*
X144636191Y-92959048D01*
X145255239Y-92959048D01*
X145636191Y-93292381D02*
X145636191Y-92625714D01*
X145636191Y-92816190D02*
X145683810Y-92720952D01*
X145731429Y-92673333D01*
X145826667Y-92625714D01*
X145921906Y-92625714D01*
X146255239Y-92911429D02*
X147017144Y-92911429D01*
X147493334Y-93292381D02*
X147493334Y-92625714D01*
X147493334Y-92292381D02*
X147445715Y-92340000D01*
X147493334Y-92387619D01*
X147540953Y-92340000D01*
X147493334Y-92292381D01*
X147493334Y-92387619D01*
X147969524Y-93292381D02*
X147969524Y-92625714D01*
X147969524Y-92292381D02*
X147921905Y-92340000D01*
X147969524Y-92387619D01*
X148017143Y-92340000D01*
X147969524Y-92292381D01*
X147969524Y-92387619D01*
X148445714Y-92911429D02*
X149207619Y-92911429D01*
X150112381Y-93244762D02*
X150017143Y-93292381D01*
X149826666Y-93292381D01*
X149731428Y-93244762D01*
X149683809Y-93197143D01*
X149636190Y-93101905D01*
X149636190Y-92816190D01*
X149683809Y-92720952D01*
X149731428Y-92673333D01*
X149826666Y-92625714D01*
X150017143Y-92625714D01*
X150112381Y-92673333D01*
X151255238Y-92244762D02*
X150398095Y-93530476D01*
X151493333Y-92625714D02*
X151731428Y-93292381D01*
X151969524Y-92625714D01*
X152874286Y-93292381D02*
X152302857Y-93292381D01*
X152588571Y-93292381D02*
X152588571Y-92292381D01*
X152493333Y-92435238D01*
X152398095Y-92530476D01*
X152302857Y-92578095D01*
X136374286Y-121177381D02*
X136374286Y-120177381D01*
X136755239Y-120177381D01*
X136850477Y-120225000D01*
X136898096Y-120272619D01*
X136945715Y-120367857D01*
X136945715Y-120510714D01*
X136898096Y-120605952D01*
X136850477Y-120653571D01*
X136755239Y-120701190D01*
X136374286Y-120701190D01*
X137517143Y-121177381D02*
X137421905Y-121129762D01*
X137374286Y-121034524D01*
X137374286Y-120177381D01*
X138326668Y-121177381D02*
X138326668Y-120653571D01*
X138279049Y-120558333D01*
X138183811Y-120510714D01*
X137993334Y-120510714D01*
X137898096Y-120558333D01*
X138326668Y-121129762D02*
X138231430Y-121177381D01*
X137993334Y-121177381D01*
X137898096Y-121129762D01*
X137850477Y-121034524D01*
X137850477Y-120939286D01*
X137898096Y-120844048D01*
X137993334Y-120796429D01*
X138231430Y-120796429D01*
X138326668Y-120748810D01*
X139231430Y-121129762D02*
X139136192Y-121177381D01*
X138945715Y-121177381D01*
X138850477Y-121129762D01*
X138802858Y-121082143D01*
X138755239Y-120986905D01*
X138755239Y-120701190D01*
X138802858Y-120605952D01*
X138850477Y-120558333D01*
X138945715Y-120510714D01*
X139136192Y-120510714D01*
X139231430Y-120558333D01*
X140040954Y-121129762D02*
X139945716Y-121177381D01*
X139755239Y-121177381D01*
X139660001Y-121129762D01*
X139612382Y-121034524D01*
X139612382Y-120653571D01*
X139660001Y-120558333D01*
X139755239Y-120510714D01*
X139945716Y-120510714D01*
X140040954Y-120558333D01*
X140088573Y-120653571D01*
X140088573Y-120748810D01*
X139612382Y-120844048D01*
X141279049Y-121177381D02*
X141279049Y-120177381D01*
X141517144Y-120177381D01*
X141660002Y-120225000D01*
X141755240Y-120320238D01*
X141802859Y-120415476D01*
X141850478Y-120605952D01*
X141850478Y-120748810D01*
X141802859Y-120939286D01*
X141755240Y-121034524D01*
X141660002Y-121129762D01*
X141517144Y-121177381D01*
X141279049Y-121177381D01*
X142707621Y-120510714D02*
X142707621Y-121177381D01*
X142469525Y-120129762D02*
X142231430Y-120844048D01*
X142850478Y-120844048D01*
X143802859Y-121177381D02*
X143469525Y-120701190D01*
X143231430Y-121177381D02*
X143231430Y-120177381D01*
X143612383Y-120177381D01*
X143707621Y-120225000D01*
X143755240Y-120272619D01*
X143802859Y-120367857D01*
X143802859Y-120510714D01*
X143755240Y-120605952D01*
X143707621Y-120653571D01*
X143612383Y-120701190D01*
X143231430Y-120701190D01*
X144231430Y-120796429D02*
X144993335Y-120796429D01*
X145469525Y-121177381D02*
X145469525Y-120177381D01*
X145945715Y-121177381D02*
X145945715Y-120177381D01*
X136231428Y-122727381D02*
X136231428Y-122060714D01*
X136231428Y-122251190D02*
X136279047Y-122155952D01*
X136326666Y-122108333D01*
X136421904Y-122060714D01*
X136517143Y-122060714D01*
X136850476Y-122727381D02*
X136850476Y-122060714D01*
X136850476Y-121727381D02*
X136802857Y-121775000D01*
X136850476Y-121822619D01*
X136898095Y-121775000D01*
X136850476Y-121727381D01*
X136850476Y-121822619D01*
X137755238Y-122060714D02*
X137755238Y-122870238D01*
X137707619Y-122965476D01*
X137660000Y-123013095D01*
X137564761Y-123060714D01*
X137421904Y-123060714D01*
X137326666Y-123013095D01*
X137755238Y-122679762D02*
X137660000Y-122727381D01*
X137469523Y-122727381D01*
X137374285Y-122679762D01*
X137326666Y-122632143D01*
X137279047Y-122536905D01*
X137279047Y-122251190D01*
X137326666Y-122155952D01*
X137374285Y-122108333D01*
X137469523Y-122060714D01*
X137660000Y-122060714D01*
X137755238Y-122108333D01*
X138231428Y-122727381D02*
X138231428Y-121727381D01*
X138660000Y-122727381D02*
X138660000Y-122203571D01*
X138612381Y-122108333D01*
X138517143Y-122060714D01*
X138374285Y-122060714D01*
X138279047Y-122108333D01*
X138231428Y-122155952D01*
X138993333Y-122060714D02*
X139374285Y-122060714D01*
X139136190Y-121727381D02*
X139136190Y-122584524D01*
X139183809Y-122679762D01*
X139279047Y-122727381D01*
X139374285Y-122727381D01*
X140421905Y-122679762D02*
X140517143Y-122727381D01*
X140707619Y-122727381D01*
X140802858Y-122679762D01*
X140850477Y-122584524D01*
X140850477Y-122536905D01*
X140802858Y-122441667D01*
X140707619Y-122394048D01*
X140564762Y-122394048D01*
X140469524Y-122346429D01*
X140421905Y-122251190D01*
X140421905Y-122203571D01*
X140469524Y-122108333D01*
X140564762Y-122060714D01*
X140707619Y-122060714D01*
X140802858Y-122108333D01*
X141279048Y-122727381D02*
X141279048Y-122060714D01*
X141279048Y-121727381D02*
X141231429Y-121775000D01*
X141279048Y-121822619D01*
X141326667Y-121775000D01*
X141279048Y-121727381D01*
X141279048Y-121822619D01*
X142183810Y-122727381D02*
X142183810Y-121727381D01*
X142183810Y-122679762D02*
X142088572Y-122727381D01*
X141898095Y-122727381D01*
X141802857Y-122679762D01*
X141755238Y-122632143D01*
X141707619Y-122536905D01*
X141707619Y-122251190D01*
X141755238Y-122155952D01*
X141802857Y-122108333D01*
X141898095Y-122060714D01*
X142088572Y-122060714D01*
X142183810Y-122108333D01*
X143040953Y-122679762D02*
X142945715Y-122727381D01*
X142755238Y-122727381D01*
X142660000Y-122679762D01*
X142612381Y-122584524D01*
X142612381Y-122203571D01*
X142660000Y-122108333D01*
X142755238Y-122060714D01*
X142945715Y-122060714D01*
X143040953Y-122108333D01*
X143088572Y-122203571D01*
X143088572Y-122298810D01*
X142612381Y-122394048D01*
X144707620Y-122060714D02*
X144707620Y-122727381D01*
X144279048Y-122060714D02*
X144279048Y-122584524D01*
X144326667Y-122679762D01*
X144421905Y-122727381D01*
X144564763Y-122727381D01*
X144660001Y-122679762D01*
X144707620Y-122632143D01*
X145183810Y-122060714D02*
X145183810Y-123060714D01*
X145183810Y-122108333D02*
X145279048Y-122060714D01*
X145469525Y-122060714D01*
X145564763Y-122108333D01*
X145612382Y-122155952D01*
X145660001Y-122251190D01*
X145660001Y-122536905D01*
X145612382Y-122632143D01*
X145564763Y-122679762D01*
X145469525Y-122727381D01*
X145279048Y-122727381D01*
X145183810Y-122679762D01*
X146088572Y-122632143D02*
X146136191Y-122679762D01*
X146088572Y-122727381D01*
X146040953Y-122679762D01*
X146088572Y-122632143D01*
X146088572Y-122727381D01*
D11*
X148185715Y-123518571D02*
X149042858Y-123518571D01*
X148614287Y-125018571D02*
X148614287Y-123518571D01*
X150114286Y-124947143D02*
X149971429Y-125018571D01*
X149685715Y-125018571D01*
X149542858Y-124947143D01*
X149471429Y-124804286D01*
X149471429Y-124232857D01*
X149542858Y-124090000D01*
X149685715Y-124018571D01*
X149971429Y-124018571D01*
X150114286Y-124090000D01*
X150185715Y-124232857D01*
X150185715Y-124375714D01*
X149471429Y-124518571D01*
X151042858Y-125018571D02*
X150900000Y-124947143D01*
X150828572Y-124804286D01*
X150828572Y-123518571D01*
X152185714Y-124947143D02*
X152042857Y-125018571D01*
X151757143Y-125018571D01*
X151614286Y-124947143D01*
X151542857Y-124804286D01*
X151542857Y-124232857D01*
X151614286Y-124090000D01*
X151757143Y-124018571D01*
X152042857Y-124018571D01*
X152185714Y-124090000D01*
X152257143Y-124232857D01*
X152257143Y-124375714D01*
X151542857Y-124518571D01*
X152900000Y-125018571D02*
X152900000Y-124018571D01*
X152900000Y-124161429D02*
X152971428Y-124090000D01*
X153114286Y-124018571D01*
X153328571Y-124018571D01*
X153471428Y-124090000D01*
X153542857Y-124232857D01*
X153542857Y-125018571D01*
X153542857Y-124232857D02*
X153614286Y-124090000D01*
X153757143Y-124018571D01*
X153971428Y-124018571D01*
X154114286Y-124090000D01*
X154185714Y-124232857D01*
X154185714Y-125018571D01*
X155471428Y-124947143D02*
X155328571Y-125018571D01*
X155042857Y-125018571D01*
X154900000Y-124947143D01*
X154828571Y-124804286D01*
X154828571Y-124232857D01*
X154900000Y-124090000D01*
X155042857Y-124018571D01*
X155328571Y-124018571D01*
X155471428Y-124090000D01*
X155542857Y-124232857D01*
X155542857Y-124375714D01*
X154828571Y-124518571D01*
X155971428Y-124018571D02*
X156542857Y-124018571D01*
X156185714Y-123518571D02*
X156185714Y-124804286D01*
X156257142Y-124947143D01*
X156400000Y-125018571D01*
X156542857Y-125018571D01*
X157042857Y-125018571D02*
X157042857Y-124018571D01*
X157042857Y-124304286D02*
X157114285Y-124161429D01*
X157185714Y-124090000D01*
X157328571Y-124018571D01*
X157471428Y-124018571D01*
X157828571Y-124018571D02*
X158185714Y-125018571D01*
X158542856Y-124018571D02*
X158185714Y-125018571D01*
X158042856Y-125375714D01*
X157971428Y-125447143D01*
X157828571Y-125518571D01*
D12*
X159109620Y-94920560D02*
X159678580Y-94920560D01*
X159678580Y-94920560D02*
X159678580Y-94509080D01*
X164947700Y-98920560D02*
X165516660Y-98920560D01*
X165516660Y-98920560D02*
X165516660Y-98509080D01*
X159259620Y-97370560D02*
X159828580Y-97370560D01*
X159828580Y-97370560D02*
X159828580Y-96959080D01*
X152170000Y-112410000D02*
X152170000Y-97170000D01*
X147090000Y-99710000D02*
X147090000Y-112410000D01*
X152170000Y-112410000D02*
X147090000Y-112410000D01*
X152170000Y-97170000D02*
X149630000Y-97170000D01*
X148360000Y-96890000D02*
X146810000Y-96890000D01*
X149630000Y-97170000D02*
X149630000Y-99710000D01*
X149630000Y-99710000D02*
X147090000Y-99710000D01*
X146810000Y-96890000D02*
X146810000Y-98440000D01*
X148830000Y-123060000D02*
X150380000Y-123060000D01*
X148830000Y-121760000D02*
X148830000Y-123060000D01*
X150253000Y-117569000D02*
X150253000Y-111727000D01*
X150253000Y-111727000D02*
X150507000Y-111727000D01*
X150507000Y-111727000D02*
X150507000Y-117569000D01*
X150507000Y-117569000D02*
X150380000Y-117569000D01*
X150380000Y-117569000D02*
X150380000Y-111727000D01*
X150634000Y-120236000D02*
X150634000Y-120490000D01*
X150126000Y-120236000D02*
X150126000Y-120490000D01*
X149110000Y-120236000D02*
X149110000Y-117696000D01*
X149110000Y-120236000D02*
X151650000Y-120236000D01*
X151650000Y-120236000D02*
X151650000Y-117696000D01*
X150126000Y-117696000D02*
X150126000Y-111600000D01*
X150126000Y-111600000D02*
X150634000Y-111600000D01*
X150634000Y-111600000D02*
X150634000Y-117696000D01*
X151650000Y-117696000D02*
X149110000Y-117696000D01*
M02*
