G04 #@! TF.FileFunction,Copper,L1,Top,Signal*
%FSLAX46Y46*%
G04 Gerber Fmt 4.6, Leading zero omitted, Abs format (unit mm)*
G04 Created by KiCad (PCBNEW 4.0.1-stable) date Friday, February 05, 2016 'PMt' 12:52:55 PM*
%MOMM*%
G01*
G04 APERTURE LIST*
%ADD10C,0.100000*%
%ADD11C,0.010000*%
%ADD12R,1.501140X0.398780*%
%ADD13R,1.727200X1.727200*%
%ADD14O,1.727200X1.727200*%
%ADD15R,1.600000X2.000000*%
%ADD16R,2.032000X2.032000*%
%ADD17O,2.032000X2.032000*%
%ADD18R,1.800860X0.800100*%
%ADD19R,0.800100X1.800860*%
%ADD20R,0.900000X1.200000*%
%ADD21R,1.727200X2.032000*%
%ADD22O,1.727200X2.032000*%
%ADD23R,0.700000X0.200000*%
%ADD24C,0.685800*%
%ADD25C,0.685801*%
%ADD26C,0.152400*%
%ADD27C,0.254000*%
G04 APERTURE END LIST*
D10*
D11*
G36*
X136572890Y-120218476D02*
X136594607Y-120218821D01*
X136613555Y-120219540D01*
X136630765Y-120220719D01*
X136647270Y-120222441D01*
X136664101Y-120224790D01*
X136682292Y-120227850D01*
X136697352Y-120230645D01*
X136737711Y-120239396D01*
X136779606Y-120250414D01*
X136821059Y-120263125D01*
X136860093Y-120276957D01*
X136867895Y-120279990D01*
X136897503Y-120291780D01*
X136926560Y-120303531D01*
X136955332Y-120315368D01*
X136984083Y-120327414D01*
X137013081Y-120339793D01*
X137042591Y-120352628D01*
X137072879Y-120366043D01*
X137104210Y-120380162D01*
X137136851Y-120395109D01*
X137171067Y-120411008D01*
X137207124Y-120427981D01*
X137245288Y-120446153D01*
X137285824Y-120465648D01*
X137328999Y-120486589D01*
X137375078Y-120509100D01*
X137424327Y-120533305D01*
X137477013Y-120559327D01*
X137533399Y-120587290D01*
X137593754Y-120617318D01*
X137609333Y-120625083D01*
X137661341Y-120650963D01*
X137709400Y-120674774D01*
X137753855Y-120696675D01*
X137795050Y-120716825D01*
X137833331Y-120735383D01*
X137869043Y-120752509D01*
X137902531Y-120768361D01*
X137934140Y-120783099D01*
X137964214Y-120796882D01*
X137993099Y-120809869D01*
X138021140Y-120822221D01*
X138048682Y-120834095D01*
X138076069Y-120845651D01*
X138103648Y-120857048D01*
X138131761Y-120868446D01*
X138160756Y-120880004D01*
X138166784Y-120882386D01*
X138184241Y-120889341D01*
X138200202Y-120895833D01*
X138214121Y-120901627D01*
X138225450Y-120906492D01*
X138233645Y-120910195D01*
X138238158Y-120912503D01*
X138238869Y-120913075D01*
X138237563Y-120915832D01*
X138233180Y-120921251D01*
X138226270Y-120928795D01*
X138217385Y-120937924D01*
X138207075Y-120948099D01*
X138195890Y-120958782D01*
X138184380Y-120969433D01*
X138173096Y-120979515D01*
X138162588Y-120988487D01*
X138158204Y-120992062D01*
X138107211Y-121030188D01*
X138051855Y-121066379D01*
X137992225Y-121100598D01*
X137928406Y-121132810D01*
X137860487Y-121162978D01*
X137788555Y-121191066D01*
X137712696Y-121217040D01*
X137632998Y-121240862D01*
X137549549Y-121262496D01*
X137462435Y-121281907D01*
X137448467Y-121284744D01*
X137388669Y-121295927D01*
X137332688Y-121304711D01*
X137280154Y-121311122D01*
X137230698Y-121315187D01*
X137183950Y-121316931D01*
X137139542Y-121316382D01*
X137097103Y-121313567D01*
X137077375Y-121311425D01*
X137032479Y-121304163D01*
X136991093Y-121293835D01*
X136953274Y-121280475D01*
X136919079Y-121264116D01*
X136888565Y-121244792D01*
X136861788Y-121222535D01*
X136838805Y-121197379D01*
X136819673Y-121169357D01*
X136812520Y-121156186D01*
X136803869Y-121137070D01*
X136796870Y-121116992D01*
X136791258Y-121094947D01*
X136786770Y-121069928D01*
X136783778Y-121046810D01*
X136782017Y-121031104D01*
X136734847Y-121026992D01*
X136720104Y-121025714D01*
X136706916Y-121024583D01*
X136696079Y-121023667D01*
X136688388Y-121023033D01*
X136684639Y-121022747D01*
X136684510Y-121022741D01*
X136682469Y-121021313D01*
X136682773Y-121020286D01*
X136681528Y-121019251D01*
X136676914Y-121018987D01*
X136670321Y-121019379D01*
X136663137Y-121020312D01*
X136656751Y-121021672D01*
X136653810Y-121022675D01*
X136650033Y-121023715D01*
X136642280Y-121025402D01*
X136631345Y-121027577D01*
X136618022Y-121030085D01*
X136603107Y-121032768D01*
X136599381Y-121033420D01*
X136543505Y-121042682D01*
X136490420Y-121050481D01*
X136438382Y-121057048D01*
X136385652Y-121062618D01*
X136369571Y-121064116D01*
X136354191Y-121065209D01*
X136335536Y-121066055D01*
X136314533Y-121066653D01*
X136292109Y-121067003D01*
X136269192Y-121067105D01*
X136246706Y-121066958D01*
X136225581Y-121066562D01*
X136206741Y-121065917D01*
X136191114Y-121065022D01*
X136182095Y-121064190D01*
X136132156Y-121057570D01*
X136083568Y-121049418D01*
X136035046Y-121039468D01*
X135985304Y-121027450D01*
X135933055Y-121013096D01*
X135922445Y-121009996D01*
X135906948Y-121005341D01*
X135895529Y-121001674D01*
X135887586Y-120998756D01*
X135882514Y-120996346D01*
X135879714Y-120994204D01*
X135878722Y-120992578D01*
X135878066Y-120989072D01*
X135876989Y-120981328D01*
X135875557Y-120969920D01*
X135873841Y-120955422D01*
X135871906Y-120938409D01*
X135869823Y-120919456D01*
X135867704Y-120899582D01*
X135865241Y-120875806D01*
X135863316Y-120856429D01*
X135861901Y-120841043D01*
X135860968Y-120829244D01*
X135860489Y-120820623D01*
X135860436Y-120814776D01*
X135860783Y-120811294D01*
X135861500Y-120809773D01*
X135861565Y-120809728D01*
X135865819Y-120808159D01*
X135872571Y-120806623D01*
X135874605Y-120806280D01*
X135882317Y-120804889D01*
X135894009Y-120802518D01*
X135908961Y-120799332D01*
X135926451Y-120795495D01*
X135945760Y-120791171D01*
X135966165Y-120786523D01*
X135986946Y-120781716D01*
X136007383Y-120776914D01*
X136026754Y-120772280D01*
X136044339Y-120767979D01*
X136057514Y-120764664D01*
X136127888Y-120745903D01*
X136193710Y-120726815D01*
X136255260Y-120707305D01*
X136312819Y-120687280D01*
X136366666Y-120666646D01*
X136417082Y-120645309D01*
X136425210Y-120641661D01*
X136473672Y-120618036D01*
X136523023Y-120590787D01*
X136572083Y-120560663D01*
X136619673Y-120528417D01*
X136664616Y-120494797D01*
X136694933Y-120469939D01*
X136707045Y-120459405D01*
X136719616Y-120448151D01*
X136732155Y-120436653D01*
X136744170Y-120425384D01*
X136755171Y-120414818D01*
X136764665Y-120405429D01*
X136772161Y-120397691D01*
X136777168Y-120392077D01*
X136779194Y-120389062D01*
X136779151Y-120388738D01*
X136775610Y-120386991D01*
X136768091Y-120384332D01*
X136757321Y-120380973D01*
X136744025Y-120377129D01*
X136728931Y-120373015D01*
X136712765Y-120368845D01*
X136705819Y-120367125D01*
X136657885Y-120357245D01*
X136609747Y-120351066D01*
X136560937Y-120348600D01*
X136510987Y-120349860D01*
X136459427Y-120354857D01*
X136405790Y-120363605D01*
X136349605Y-120376115D01*
X136348269Y-120376449D01*
X136291150Y-120392728D01*
X136236384Y-120412221D01*
X136184173Y-120434771D01*
X136134722Y-120460220D01*
X136088232Y-120488411D01*
X136044907Y-120519186D01*
X136004950Y-120552388D01*
X135968562Y-120587858D01*
X135935948Y-120625440D01*
X135907311Y-120664977D01*
X135882852Y-120706309D01*
X135862775Y-120749281D01*
X135860373Y-120755296D01*
X135852804Y-120774648D01*
X135751354Y-120871202D01*
X135732831Y-120888846D01*
X135715380Y-120905497D01*
X135699311Y-120920857D01*
X135684936Y-120934627D01*
X135672566Y-120946508D01*
X135662512Y-120956202D01*
X135655085Y-120963409D01*
X135650596Y-120967832D01*
X135649324Y-120969174D01*
X135651351Y-120970404D01*
X135657387Y-120973401D01*
X135667016Y-120977971D01*
X135679824Y-120983924D01*
X135695395Y-120991069D01*
X135713314Y-120999213D01*
X135733164Y-121008165D01*
X135754531Y-121017735D01*
X135759640Y-121020013D01*
X135870536Y-121069436D01*
X135882083Y-121110728D01*
X135887641Y-121129900D01*
X135894390Y-121152059D01*
X135901912Y-121175919D01*
X135909791Y-121200195D01*
X135917611Y-121223602D01*
X135924953Y-121244855D01*
X135931122Y-121261919D01*
X135934858Y-121271304D01*
X135937957Y-121277115D01*
X135941150Y-121280417D01*
X135945055Y-121282241D01*
X135950062Y-121283040D01*
X135959196Y-121283683D01*
X135971750Y-121284172D01*
X135987014Y-121284507D01*
X136004280Y-121284690D01*
X136022842Y-121284724D01*
X136041989Y-121284608D01*
X136061014Y-121284345D01*
X136079209Y-121283937D01*
X136095866Y-121283384D01*
X136110276Y-121282689D01*
X136121619Y-121281863D01*
X136233351Y-121269774D01*
X136301838Y-121260603D01*
X136331132Y-121256189D01*
X136356379Y-121251868D01*
X136378360Y-121247428D01*
X136397857Y-121242653D01*
X136415651Y-121237331D01*
X136432523Y-121231246D01*
X136449255Y-121224184D01*
X136466628Y-121215933D01*
X136468752Y-121214873D01*
X136507076Y-121193252D01*
X136544659Y-121167307D01*
X136580869Y-121137553D01*
X136615073Y-121104502D01*
X136642363Y-121073880D01*
X136655019Y-121058635D01*
X136655019Y-121066987D01*
X136655712Y-121077188D01*
X136657625Y-121090800D01*
X136660512Y-121106624D01*
X136664127Y-121123462D01*
X136668222Y-121140114D01*
X136672550Y-121155381D01*
X136674405Y-121161173D01*
X136690445Y-121201904D01*
X136710322Y-121239716D01*
X136733978Y-121274558D01*
X136761350Y-121306374D01*
X136792380Y-121335111D01*
X136827006Y-121360717D01*
X136865168Y-121383137D01*
X136906805Y-121402319D01*
X136951857Y-121418209D01*
X136971914Y-121423923D01*
X137007741Y-121432339D01*
X137044615Y-121438721D01*
X137083407Y-121443166D01*
X137124988Y-121445775D01*
X137170228Y-121446646D01*
X137171486Y-121446647D01*
X137206578Y-121446229D01*
X137240663Y-121444929D01*
X137274533Y-121442658D01*
X137308982Y-121439326D01*
X137344803Y-121434845D01*
X137382790Y-121429126D01*
X137423735Y-121422080D01*
X137468433Y-121413618D01*
X137471448Y-121413025D01*
X137556094Y-121394934D01*
X137638037Y-121374615D01*
X137717112Y-121352142D01*
X137793153Y-121327591D01*
X137865995Y-121301036D01*
X137935474Y-121272553D01*
X138001424Y-121242216D01*
X138063680Y-121210101D01*
X138122077Y-121176282D01*
X138176450Y-121140834D01*
X138226633Y-121103833D01*
X138272462Y-121065352D01*
X138304810Y-121034632D01*
X138315875Y-121023214D01*
X138327189Y-121011029D01*
X138337638Y-120999311D01*
X138346104Y-120989294D01*
X138348352Y-120986469D01*
X138355273Y-120977594D01*
X138361408Y-120969754D01*
X138365943Y-120963989D01*
X138367705Y-120961775D01*
X138369587Y-120959749D01*
X138371870Y-120958686D01*
X138375577Y-120958591D01*
X138381727Y-120959470D01*
X138391345Y-120961329D01*
X138394314Y-120961929D01*
X138465473Y-120973886D01*
X138537069Y-120981051D01*
X138609224Y-120983432D01*
X138682057Y-120981035D01*
X138693067Y-120980262D01*
X138750880Y-120975415D01*
X138813159Y-120969221D01*
X138879730Y-120961710D01*
X138950420Y-120952912D01*
X139025056Y-120942858D01*
X139103464Y-120931576D01*
X139185473Y-120919097D01*
X139270908Y-120905450D01*
X139359598Y-120890667D01*
X139451368Y-120874776D01*
X139546045Y-120857808D01*
X139643458Y-120839792D01*
X139743432Y-120820758D01*
X139845795Y-120800737D01*
X139950373Y-120779759D01*
X140056995Y-120757852D01*
X140165485Y-120735048D01*
X140275672Y-120711376D01*
X140380352Y-120688423D01*
X140410862Y-120681666D01*
X140437069Y-120675983D01*
X140459406Y-120671466D01*
X140478307Y-120668208D01*
X140494208Y-120666300D01*
X140507541Y-120665835D01*
X140518740Y-120666905D01*
X140528240Y-120669603D01*
X140536475Y-120674020D01*
X140543879Y-120680249D01*
X140550886Y-120688382D01*
X140557929Y-120698511D01*
X140565443Y-120710729D01*
X140573862Y-120725128D01*
X140576797Y-120730174D01*
X140602352Y-120775278D01*
X140626306Y-120820021D01*
X140648386Y-120863833D01*
X140668323Y-120906142D01*
X140685844Y-120946379D01*
X140700680Y-120983973D01*
X140710187Y-121011018D01*
X140720789Y-121046958D01*
X140728137Y-121080498D01*
X140732251Y-121111481D01*
X140733150Y-121139750D01*
X140730853Y-121165150D01*
X140725378Y-121187523D01*
X140716744Y-121206713D01*
X140704969Y-121222563D01*
X140690074Y-121234917D01*
X140682857Y-121239043D01*
X140675908Y-121242306D01*
X140668331Y-121245302D01*
X140659879Y-121248051D01*
X140650307Y-121250572D01*
X140639372Y-121252884D01*
X140626826Y-121255007D01*
X140612427Y-121256960D01*
X140595927Y-121258761D01*
X140577084Y-121260431D01*
X140555650Y-121261989D01*
X140531383Y-121263454D01*
X140504035Y-121264845D01*
X140473363Y-121266181D01*
X140439121Y-121267483D01*
X140401065Y-121268769D01*
X140358949Y-121270058D01*
X140312529Y-121271370D01*
X140261558Y-121272724D01*
X140252143Y-121272967D01*
X140168433Y-121275256D01*
X140089179Y-121277711D01*
X140013999Y-121280352D01*
X139942513Y-121283202D01*
X139874340Y-121286281D01*
X139809099Y-121289609D01*
X139746411Y-121293209D01*
X139685893Y-121297101D01*
X139627165Y-121301306D01*
X139569847Y-121305846D01*
X139513558Y-121310740D01*
X139457917Y-121316011D01*
X139439343Y-121317866D01*
X139351092Y-121327350D01*
X139265744Y-121337702D01*
X139182787Y-121349038D01*
X139101707Y-121361474D01*
X139021991Y-121375127D01*
X138943125Y-121390112D01*
X138864598Y-121406546D01*
X138785894Y-121424545D01*
X138706502Y-121444225D01*
X138625908Y-121465703D01*
X138543599Y-121489095D01*
X138459062Y-121514516D01*
X138371783Y-121542083D01*
X138281249Y-121571912D01*
X138209257Y-121596406D01*
X138175067Y-121608412D01*
X138142474Y-121620361D01*
X138111018Y-121632474D01*
X138080241Y-121644971D01*
X138049683Y-121658070D01*
X138018886Y-121671991D01*
X137987390Y-121686955D01*
X137954736Y-121703180D01*
X137920466Y-121720887D01*
X137884120Y-121740295D01*
X137845239Y-121761623D01*
X137803365Y-121785092D01*
X137758038Y-121810920D01*
X137743590Y-121819224D01*
X137703393Y-121842353D01*
X137667070Y-121863218D01*
X137634315Y-121881989D01*
X137604820Y-121898834D01*
X137578279Y-121913923D01*
X137554386Y-121927425D01*
X137532832Y-121939510D01*
X137513311Y-121950347D01*
X137495516Y-121960105D01*
X137479140Y-121968953D01*
X137463876Y-121977061D01*
X137449417Y-121984598D01*
X137435457Y-121991734D01*
X137421687Y-121998637D01*
X137407802Y-122005478D01*
X137393494Y-122012425D01*
X137392239Y-122013031D01*
X137345995Y-122034588D01*
X137302371Y-122053276D01*
X137260428Y-122069365D01*
X137219223Y-122083123D01*
X137177818Y-122094819D01*
X137135270Y-122104722D01*
X137090639Y-122113101D01*
X137042985Y-122120226D01*
X136998524Y-122125592D01*
X136970419Y-122128170D01*
X136938913Y-122130200D01*
X136905417Y-122131643D01*
X136871340Y-122132463D01*
X136838094Y-122132622D01*
X136807088Y-122132082D01*
X136786857Y-122131234D01*
X136732311Y-122126679D01*
X136677141Y-122119053D01*
X136622162Y-122108561D01*
X136568189Y-122095409D01*
X136516036Y-122079801D01*
X136466518Y-122061941D01*
X136420451Y-122042036D01*
X136408034Y-122036000D01*
X136352505Y-122005655D01*
X136298181Y-121970709D01*
X136245159Y-121931270D01*
X136193534Y-121887446D01*
X136143402Y-121839345D01*
X136094859Y-121787076D01*
X136048001Y-121730746D01*
X136002924Y-121670465D01*
X135959723Y-121606339D01*
X135918495Y-121538477D01*
X135879335Y-121466987D01*
X135848415Y-121404852D01*
X135835840Y-121377482D01*
X135823757Y-121349118D01*
X135811818Y-121318873D01*
X135799676Y-121285861D01*
X135786984Y-121249197D01*
X135784005Y-121240315D01*
X135778746Y-121224237D01*
X135773189Y-121206690D01*
X135767577Y-121188490D01*
X135762149Y-121170456D01*
X135757149Y-121153405D01*
X135752818Y-121138156D01*
X135749397Y-121125525D01*
X135747129Y-121116330D01*
X135746573Y-121113669D01*
X135745086Y-121105741D01*
X135604779Y-121049122D01*
X135580107Y-121039148D01*
X135556788Y-121029687D01*
X135535205Y-121020897D01*
X135515741Y-121012934D01*
X135498781Y-121005958D01*
X135484707Y-121000125D01*
X135473904Y-120995595D01*
X135466754Y-120992524D01*
X135463641Y-120991070D01*
X135463539Y-120990993D01*
X135465144Y-120989176D01*
X135470082Y-120984406D01*
X135478071Y-120976941D01*
X135488825Y-120967039D01*
X135502061Y-120954960D01*
X135517494Y-120940962D01*
X135534841Y-120925303D01*
X135553816Y-120908243D01*
X135574137Y-120890039D01*
X135591539Y-120874499D01*
X135616236Y-120852467D01*
X135637571Y-120833409D01*
X135655798Y-120817080D01*
X135671170Y-120803239D01*
X135683940Y-120791642D01*
X135694361Y-120782046D01*
X135702686Y-120774209D01*
X135709169Y-120767887D01*
X135714062Y-120762839D01*
X135717619Y-120758820D01*
X135720092Y-120755588D01*
X135721736Y-120752901D01*
X135722802Y-120750515D01*
X135723545Y-120748187D01*
X135723671Y-120747730D01*
X135728066Y-120733639D01*
X135734307Y-120716530D01*
X135741899Y-120697617D01*
X135750342Y-120678114D01*
X135759141Y-120659235D01*
X135763663Y-120650123D01*
X135785913Y-120610208D01*
X135811441Y-120571722D01*
X135840714Y-120534028D01*
X135874199Y-120496488D01*
X135883212Y-120487125D01*
X135921275Y-120450413D01*
X135960552Y-120417167D01*
X136001870Y-120386793D01*
X136046052Y-120358696D01*
X136093924Y-120332283D01*
X136108314Y-120325002D01*
X136154980Y-120303147D01*
X136201618Y-120284060D01*
X136249071Y-120267485D01*
X136298182Y-120253166D01*
X136349792Y-120240846D01*
X136404745Y-120230269D01*
X136436609Y-120225116D01*
X136450211Y-120223114D01*
X136462093Y-120221560D01*
X136473213Y-120220397D01*
X136484528Y-120219566D01*
X136496995Y-120219011D01*
X136511570Y-120218672D01*
X136529211Y-120218493D01*
X136547371Y-120218423D01*
X136572890Y-120218476D01*
X136572890Y-120218476D01*
G37*
X136572890Y-120218476D02*
X136594607Y-120218821D01*
X136613555Y-120219540D01*
X136630765Y-120220719D01*
X136647270Y-120222441D01*
X136664101Y-120224790D01*
X136682292Y-120227850D01*
X136697352Y-120230645D01*
X136737711Y-120239396D01*
X136779606Y-120250414D01*
X136821059Y-120263125D01*
X136860093Y-120276957D01*
X136867895Y-120279990D01*
X136897503Y-120291780D01*
X136926560Y-120303531D01*
X136955332Y-120315368D01*
X136984083Y-120327414D01*
X137013081Y-120339793D01*
X137042591Y-120352628D01*
X137072879Y-120366043D01*
X137104210Y-120380162D01*
X137136851Y-120395109D01*
X137171067Y-120411008D01*
X137207124Y-120427981D01*
X137245288Y-120446153D01*
X137285824Y-120465648D01*
X137328999Y-120486589D01*
X137375078Y-120509100D01*
X137424327Y-120533305D01*
X137477013Y-120559327D01*
X137533399Y-120587290D01*
X137593754Y-120617318D01*
X137609333Y-120625083D01*
X137661341Y-120650963D01*
X137709400Y-120674774D01*
X137753855Y-120696675D01*
X137795050Y-120716825D01*
X137833331Y-120735383D01*
X137869043Y-120752509D01*
X137902531Y-120768361D01*
X137934140Y-120783099D01*
X137964214Y-120796882D01*
X137993099Y-120809869D01*
X138021140Y-120822221D01*
X138048682Y-120834095D01*
X138076069Y-120845651D01*
X138103648Y-120857048D01*
X138131761Y-120868446D01*
X138160756Y-120880004D01*
X138166784Y-120882386D01*
X138184241Y-120889341D01*
X138200202Y-120895833D01*
X138214121Y-120901627D01*
X138225450Y-120906492D01*
X138233645Y-120910195D01*
X138238158Y-120912503D01*
X138238869Y-120913075D01*
X138237563Y-120915832D01*
X138233180Y-120921251D01*
X138226270Y-120928795D01*
X138217385Y-120937924D01*
X138207075Y-120948099D01*
X138195890Y-120958782D01*
X138184380Y-120969433D01*
X138173096Y-120979515D01*
X138162588Y-120988487D01*
X138158204Y-120992062D01*
X138107211Y-121030188D01*
X138051855Y-121066379D01*
X137992225Y-121100598D01*
X137928406Y-121132810D01*
X137860487Y-121162978D01*
X137788555Y-121191066D01*
X137712696Y-121217040D01*
X137632998Y-121240862D01*
X137549549Y-121262496D01*
X137462435Y-121281907D01*
X137448467Y-121284744D01*
X137388669Y-121295927D01*
X137332688Y-121304711D01*
X137280154Y-121311122D01*
X137230698Y-121315187D01*
X137183950Y-121316931D01*
X137139542Y-121316382D01*
X137097103Y-121313567D01*
X137077375Y-121311425D01*
X137032479Y-121304163D01*
X136991093Y-121293835D01*
X136953274Y-121280475D01*
X136919079Y-121264116D01*
X136888565Y-121244792D01*
X136861788Y-121222535D01*
X136838805Y-121197379D01*
X136819673Y-121169357D01*
X136812520Y-121156186D01*
X136803869Y-121137070D01*
X136796870Y-121116992D01*
X136791258Y-121094947D01*
X136786770Y-121069928D01*
X136783778Y-121046810D01*
X136782017Y-121031104D01*
X136734847Y-121026992D01*
X136720104Y-121025714D01*
X136706916Y-121024583D01*
X136696079Y-121023667D01*
X136688388Y-121023033D01*
X136684639Y-121022747D01*
X136684510Y-121022741D01*
X136682469Y-121021313D01*
X136682773Y-121020286D01*
X136681528Y-121019251D01*
X136676914Y-121018987D01*
X136670321Y-121019379D01*
X136663137Y-121020312D01*
X136656751Y-121021672D01*
X136653810Y-121022675D01*
X136650033Y-121023715D01*
X136642280Y-121025402D01*
X136631345Y-121027577D01*
X136618022Y-121030085D01*
X136603107Y-121032768D01*
X136599381Y-121033420D01*
X136543505Y-121042682D01*
X136490420Y-121050481D01*
X136438382Y-121057048D01*
X136385652Y-121062618D01*
X136369571Y-121064116D01*
X136354191Y-121065209D01*
X136335536Y-121066055D01*
X136314533Y-121066653D01*
X136292109Y-121067003D01*
X136269192Y-121067105D01*
X136246706Y-121066958D01*
X136225581Y-121066562D01*
X136206741Y-121065917D01*
X136191114Y-121065022D01*
X136182095Y-121064190D01*
X136132156Y-121057570D01*
X136083568Y-121049418D01*
X136035046Y-121039468D01*
X135985304Y-121027450D01*
X135933055Y-121013096D01*
X135922445Y-121009996D01*
X135906948Y-121005341D01*
X135895529Y-121001674D01*
X135887586Y-120998756D01*
X135882514Y-120996346D01*
X135879714Y-120994204D01*
X135878722Y-120992578D01*
X135878066Y-120989072D01*
X135876989Y-120981328D01*
X135875557Y-120969920D01*
X135873841Y-120955422D01*
X135871906Y-120938409D01*
X135869823Y-120919456D01*
X135867704Y-120899582D01*
X135865241Y-120875806D01*
X135863316Y-120856429D01*
X135861901Y-120841043D01*
X135860968Y-120829244D01*
X135860489Y-120820623D01*
X135860436Y-120814776D01*
X135860783Y-120811294D01*
X135861500Y-120809773D01*
X135861565Y-120809728D01*
X135865819Y-120808159D01*
X135872571Y-120806623D01*
X135874605Y-120806280D01*
X135882317Y-120804889D01*
X135894009Y-120802518D01*
X135908961Y-120799332D01*
X135926451Y-120795495D01*
X135945760Y-120791171D01*
X135966165Y-120786523D01*
X135986946Y-120781716D01*
X136007383Y-120776914D01*
X136026754Y-120772280D01*
X136044339Y-120767979D01*
X136057514Y-120764664D01*
X136127888Y-120745903D01*
X136193710Y-120726815D01*
X136255260Y-120707305D01*
X136312819Y-120687280D01*
X136366666Y-120666646D01*
X136417082Y-120645309D01*
X136425210Y-120641661D01*
X136473672Y-120618036D01*
X136523023Y-120590787D01*
X136572083Y-120560663D01*
X136619673Y-120528417D01*
X136664616Y-120494797D01*
X136694933Y-120469939D01*
X136707045Y-120459405D01*
X136719616Y-120448151D01*
X136732155Y-120436653D01*
X136744170Y-120425384D01*
X136755171Y-120414818D01*
X136764665Y-120405429D01*
X136772161Y-120397691D01*
X136777168Y-120392077D01*
X136779194Y-120389062D01*
X136779151Y-120388738D01*
X136775610Y-120386991D01*
X136768091Y-120384332D01*
X136757321Y-120380973D01*
X136744025Y-120377129D01*
X136728931Y-120373015D01*
X136712765Y-120368845D01*
X136705819Y-120367125D01*
X136657885Y-120357245D01*
X136609747Y-120351066D01*
X136560937Y-120348600D01*
X136510987Y-120349860D01*
X136459427Y-120354857D01*
X136405790Y-120363605D01*
X136349605Y-120376115D01*
X136348269Y-120376449D01*
X136291150Y-120392728D01*
X136236384Y-120412221D01*
X136184173Y-120434771D01*
X136134722Y-120460220D01*
X136088232Y-120488411D01*
X136044907Y-120519186D01*
X136004950Y-120552388D01*
X135968562Y-120587858D01*
X135935948Y-120625440D01*
X135907311Y-120664977D01*
X135882852Y-120706309D01*
X135862775Y-120749281D01*
X135860373Y-120755296D01*
X135852804Y-120774648D01*
X135751354Y-120871202D01*
X135732831Y-120888846D01*
X135715380Y-120905497D01*
X135699311Y-120920857D01*
X135684936Y-120934627D01*
X135672566Y-120946508D01*
X135662512Y-120956202D01*
X135655085Y-120963409D01*
X135650596Y-120967832D01*
X135649324Y-120969174D01*
X135651351Y-120970404D01*
X135657387Y-120973401D01*
X135667016Y-120977971D01*
X135679824Y-120983924D01*
X135695395Y-120991069D01*
X135713314Y-120999213D01*
X135733164Y-121008165D01*
X135754531Y-121017735D01*
X135759640Y-121020013D01*
X135870536Y-121069436D01*
X135882083Y-121110728D01*
X135887641Y-121129900D01*
X135894390Y-121152059D01*
X135901912Y-121175919D01*
X135909791Y-121200195D01*
X135917611Y-121223602D01*
X135924953Y-121244855D01*
X135931122Y-121261919D01*
X135934858Y-121271304D01*
X135937957Y-121277115D01*
X135941150Y-121280417D01*
X135945055Y-121282241D01*
X135950062Y-121283040D01*
X135959196Y-121283683D01*
X135971750Y-121284172D01*
X135987014Y-121284507D01*
X136004280Y-121284690D01*
X136022842Y-121284724D01*
X136041989Y-121284608D01*
X136061014Y-121284345D01*
X136079209Y-121283937D01*
X136095866Y-121283384D01*
X136110276Y-121282689D01*
X136121619Y-121281863D01*
X136233351Y-121269774D01*
X136301838Y-121260603D01*
X136331132Y-121256189D01*
X136356379Y-121251868D01*
X136378360Y-121247428D01*
X136397857Y-121242653D01*
X136415651Y-121237331D01*
X136432523Y-121231246D01*
X136449255Y-121224184D01*
X136466628Y-121215933D01*
X136468752Y-121214873D01*
X136507076Y-121193252D01*
X136544659Y-121167307D01*
X136580869Y-121137553D01*
X136615073Y-121104502D01*
X136642363Y-121073880D01*
X136655019Y-121058635D01*
X136655019Y-121066987D01*
X136655712Y-121077188D01*
X136657625Y-121090800D01*
X136660512Y-121106624D01*
X136664127Y-121123462D01*
X136668222Y-121140114D01*
X136672550Y-121155381D01*
X136674405Y-121161173D01*
X136690445Y-121201904D01*
X136710322Y-121239716D01*
X136733978Y-121274558D01*
X136761350Y-121306374D01*
X136792380Y-121335111D01*
X136827006Y-121360717D01*
X136865168Y-121383137D01*
X136906805Y-121402319D01*
X136951857Y-121418209D01*
X136971914Y-121423923D01*
X137007741Y-121432339D01*
X137044615Y-121438721D01*
X137083407Y-121443166D01*
X137124988Y-121445775D01*
X137170228Y-121446646D01*
X137171486Y-121446647D01*
X137206578Y-121446229D01*
X137240663Y-121444929D01*
X137274533Y-121442658D01*
X137308982Y-121439326D01*
X137344803Y-121434845D01*
X137382790Y-121429126D01*
X137423735Y-121422080D01*
X137468433Y-121413618D01*
X137471448Y-121413025D01*
X137556094Y-121394934D01*
X137638037Y-121374615D01*
X137717112Y-121352142D01*
X137793153Y-121327591D01*
X137865995Y-121301036D01*
X137935474Y-121272553D01*
X138001424Y-121242216D01*
X138063680Y-121210101D01*
X138122077Y-121176282D01*
X138176450Y-121140834D01*
X138226633Y-121103833D01*
X138272462Y-121065352D01*
X138304810Y-121034632D01*
X138315875Y-121023214D01*
X138327189Y-121011029D01*
X138337638Y-120999311D01*
X138346104Y-120989294D01*
X138348352Y-120986469D01*
X138355273Y-120977594D01*
X138361408Y-120969754D01*
X138365943Y-120963989D01*
X138367705Y-120961775D01*
X138369587Y-120959749D01*
X138371870Y-120958686D01*
X138375577Y-120958591D01*
X138381727Y-120959470D01*
X138391345Y-120961329D01*
X138394314Y-120961929D01*
X138465473Y-120973886D01*
X138537069Y-120981051D01*
X138609224Y-120983432D01*
X138682057Y-120981035D01*
X138693067Y-120980262D01*
X138750880Y-120975415D01*
X138813159Y-120969221D01*
X138879730Y-120961710D01*
X138950420Y-120952912D01*
X139025056Y-120942858D01*
X139103464Y-120931576D01*
X139185473Y-120919097D01*
X139270908Y-120905450D01*
X139359598Y-120890667D01*
X139451368Y-120874776D01*
X139546045Y-120857808D01*
X139643458Y-120839792D01*
X139743432Y-120820758D01*
X139845795Y-120800737D01*
X139950373Y-120779759D01*
X140056995Y-120757852D01*
X140165485Y-120735048D01*
X140275672Y-120711376D01*
X140380352Y-120688423D01*
X140410862Y-120681666D01*
X140437069Y-120675983D01*
X140459406Y-120671466D01*
X140478307Y-120668208D01*
X140494208Y-120666300D01*
X140507541Y-120665835D01*
X140518740Y-120666905D01*
X140528240Y-120669603D01*
X140536475Y-120674020D01*
X140543879Y-120680249D01*
X140550886Y-120688382D01*
X140557929Y-120698511D01*
X140565443Y-120710729D01*
X140573862Y-120725128D01*
X140576797Y-120730174D01*
X140602352Y-120775278D01*
X140626306Y-120820021D01*
X140648386Y-120863833D01*
X140668323Y-120906142D01*
X140685844Y-120946379D01*
X140700680Y-120983973D01*
X140710187Y-121011018D01*
X140720789Y-121046958D01*
X140728137Y-121080498D01*
X140732251Y-121111481D01*
X140733150Y-121139750D01*
X140730853Y-121165150D01*
X140725378Y-121187523D01*
X140716744Y-121206713D01*
X140704969Y-121222563D01*
X140690074Y-121234917D01*
X140682857Y-121239043D01*
X140675908Y-121242306D01*
X140668331Y-121245302D01*
X140659879Y-121248051D01*
X140650307Y-121250572D01*
X140639372Y-121252884D01*
X140626826Y-121255007D01*
X140612427Y-121256960D01*
X140595927Y-121258761D01*
X140577084Y-121260431D01*
X140555650Y-121261989D01*
X140531383Y-121263454D01*
X140504035Y-121264845D01*
X140473363Y-121266181D01*
X140439121Y-121267483D01*
X140401065Y-121268769D01*
X140358949Y-121270058D01*
X140312529Y-121271370D01*
X140261558Y-121272724D01*
X140252143Y-121272967D01*
X140168433Y-121275256D01*
X140089179Y-121277711D01*
X140013999Y-121280352D01*
X139942513Y-121283202D01*
X139874340Y-121286281D01*
X139809099Y-121289609D01*
X139746411Y-121293209D01*
X139685893Y-121297101D01*
X139627165Y-121301306D01*
X139569847Y-121305846D01*
X139513558Y-121310740D01*
X139457917Y-121316011D01*
X139439343Y-121317866D01*
X139351092Y-121327350D01*
X139265744Y-121337702D01*
X139182787Y-121349038D01*
X139101707Y-121361474D01*
X139021991Y-121375127D01*
X138943125Y-121390112D01*
X138864598Y-121406546D01*
X138785894Y-121424545D01*
X138706502Y-121444225D01*
X138625908Y-121465703D01*
X138543599Y-121489095D01*
X138459062Y-121514516D01*
X138371783Y-121542083D01*
X138281249Y-121571912D01*
X138209257Y-121596406D01*
X138175067Y-121608412D01*
X138142474Y-121620361D01*
X138111018Y-121632474D01*
X138080241Y-121644971D01*
X138049683Y-121658070D01*
X138018886Y-121671991D01*
X137987390Y-121686955D01*
X137954736Y-121703180D01*
X137920466Y-121720887D01*
X137884120Y-121740295D01*
X137845239Y-121761623D01*
X137803365Y-121785092D01*
X137758038Y-121810920D01*
X137743590Y-121819224D01*
X137703393Y-121842353D01*
X137667070Y-121863218D01*
X137634315Y-121881989D01*
X137604820Y-121898834D01*
X137578279Y-121913923D01*
X137554386Y-121927425D01*
X137532832Y-121939510D01*
X137513311Y-121950347D01*
X137495516Y-121960105D01*
X137479140Y-121968953D01*
X137463876Y-121977061D01*
X137449417Y-121984598D01*
X137435457Y-121991734D01*
X137421687Y-121998637D01*
X137407802Y-122005478D01*
X137393494Y-122012425D01*
X137392239Y-122013031D01*
X137345995Y-122034588D01*
X137302371Y-122053276D01*
X137260428Y-122069365D01*
X137219223Y-122083123D01*
X137177818Y-122094819D01*
X137135270Y-122104722D01*
X137090639Y-122113101D01*
X137042985Y-122120226D01*
X136998524Y-122125592D01*
X136970419Y-122128170D01*
X136938913Y-122130200D01*
X136905417Y-122131643D01*
X136871340Y-122132463D01*
X136838094Y-122132622D01*
X136807088Y-122132082D01*
X136786857Y-122131234D01*
X136732311Y-122126679D01*
X136677141Y-122119053D01*
X136622162Y-122108561D01*
X136568189Y-122095409D01*
X136516036Y-122079801D01*
X136466518Y-122061941D01*
X136420451Y-122042036D01*
X136408034Y-122036000D01*
X136352505Y-122005655D01*
X136298181Y-121970709D01*
X136245159Y-121931270D01*
X136193534Y-121887446D01*
X136143402Y-121839345D01*
X136094859Y-121787076D01*
X136048001Y-121730746D01*
X136002924Y-121670465D01*
X135959723Y-121606339D01*
X135918495Y-121538477D01*
X135879335Y-121466987D01*
X135848415Y-121404852D01*
X135835840Y-121377482D01*
X135823757Y-121349118D01*
X135811818Y-121318873D01*
X135799676Y-121285861D01*
X135786984Y-121249197D01*
X135784005Y-121240315D01*
X135778746Y-121224237D01*
X135773189Y-121206690D01*
X135767577Y-121188490D01*
X135762149Y-121170456D01*
X135757149Y-121153405D01*
X135752818Y-121138156D01*
X135749397Y-121125525D01*
X135747129Y-121116330D01*
X135746573Y-121113669D01*
X135745086Y-121105741D01*
X135604779Y-121049122D01*
X135580107Y-121039148D01*
X135556788Y-121029687D01*
X135535205Y-121020897D01*
X135515741Y-121012934D01*
X135498781Y-121005958D01*
X135484707Y-121000125D01*
X135473904Y-120995595D01*
X135466754Y-120992524D01*
X135463641Y-120991070D01*
X135463539Y-120990993D01*
X135465144Y-120989176D01*
X135470082Y-120984406D01*
X135478071Y-120976941D01*
X135488825Y-120967039D01*
X135502061Y-120954960D01*
X135517494Y-120940962D01*
X135534841Y-120925303D01*
X135553816Y-120908243D01*
X135574137Y-120890039D01*
X135591539Y-120874499D01*
X135616236Y-120852467D01*
X135637571Y-120833409D01*
X135655798Y-120817080D01*
X135671170Y-120803239D01*
X135683940Y-120791642D01*
X135694361Y-120782046D01*
X135702686Y-120774209D01*
X135709169Y-120767887D01*
X135714062Y-120762839D01*
X135717619Y-120758820D01*
X135720092Y-120755588D01*
X135721736Y-120752901D01*
X135722802Y-120750515D01*
X135723545Y-120748187D01*
X135723671Y-120747730D01*
X135728066Y-120733639D01*
X135734307Y-120716530D01*
X135741899Y-120697617D01*
X135750342Y-120678114D01*
X135759141Y-120659235D01*
X135763663Y-120650123D01*
X135785913Y-120610208D01*
X135811441Y-120571722D01*
X135840714Y-120534028D01*
X135874199Y-120496488D01*
X135883212Y-120487125D01*
X135921275Y-120450413D01*
X135960552Y-120417167D01*
X136001870Y-120386793D01*
X136046052Y-120358696D01*
X136093924Y-120332283D01*
X136108314Y-120325002D01*
X136154980Y-120303147D01*
X136201618Y-120284060D01*
X136249071Y-120267485D01*
X136298182Y-120253166D01*
X136349792Y-120240846D01*
X136404745Y-120230269D01*
X136436609Y-120225116D01*
X136450211Y-120223114D01*
X136462093Y-120221560D01*
X136473213Y-120220397D01*
X136484528Y-120219566D01*
X136496995Y-120219011D01*
X136511570Y-120218672D01*
X136529211Y-120218493D01*
X136547371Y-120218423D01*
X136572890Y-120218476D01*
D12*
X158461920Y-94250000D03*
X158461920Y-93599760D03*
X158461920Y-92949520D03*
X155800000Y-92949520D03*
X155800000Y-93599760D03*
X155800000Y-94250000D03*
X164300000Y-98250000D03*
X164300000Y-97599760D03*
X164300000Y-96949520D03*
X161638080Y-96949520D03*
X161638080Y-97599760D03*
X161638080Y-98250000D03*
X158611920Y-96700000D03*
X158611920Y-96049760D03*
X158611920Y-95399520D03*
X155950000Y-95399520D03*
X155950000Y-96049760D03*
X155950000Y-96700000D03*
D13*
X148360000Y-98440000D03*
D14*
X150900000Y-98440000D03*
X148360000Y-100980000D03*
X150900000Y-100980000D03*
X148360000Y-103520000D03*
X150900000Y-103520000D03*
X148360000Y-106060000D03*
X150900000Y-106060000D03*
X148360000Y-108600000D03*
X150900000Y-108600000D03*
X148360000Y-111140000D03*
X150900000Y-111140000D03*
D15*
X153525000Y-109750000D03*
X153525000Y-105750000D03*
D16*
X140375000Y-92085000D03*
D17*
X140375000Y-94625000D03*
D18*
X157525000Y-123025000D03*
X157525000Y-121125000D03*
X154522720Y-122075000D03*
D19*
X136400000Y-94826140D03*
X138300000Y-94826140D03*
X137350000Y-91823860D03*
D20*
X153950000Y-117850000D03*
X153950000Y-120050000D03*
D21*
X142800000Y-121000000D03*
D22*
X145340000Y-121000000D03*
X147880000Y-121000000D03*
X150420000Y-121000000D03*
D23*
X161190000Y-100200000D03*
X161190000Y-100600000D03*
X161190000Y-101000000D03*
X161190000Y-101400000D03*
X161190000Y-101800000D03*
X161190000Y-102200000D03*
X161190000Y-102600000D03*
X161190000Y-103000000D03*
X161190000Y-103400000D03*
X161190000Y-103800000D03*
X161190000Y-107800000D03*
X161190000Y-107400000D03*
X161190000Y-107000000D03*
X161190000Y-106600000D03*
X161190000Y-106200000D03*
X161190000Y-105800000D03*
X161190000Y-105400000D03*
X161190000Y-105000000D03*
X161190000Y-104600000D03*
X161190000Y-104200000D03*
X161190000Y-108200000D03*
X161190000Y-108600000D03*
X161190000Y-109000000D03*
X161190000Y-109400000D03*
X161190000Y-109800000D03*
X161190000Y-110200000D03*
X161190000Y-110600000D03*
X161190000Y-111000000D03*
X161190000Y-111400000D03*
X161190000Y-111800000D03*
X161190000Y-115800000D03*
X161190000Y-115400000D03*
X161190000Y-115000000D03*
X161190000Y-114600000D03*
X161190000Y-114200000D03*
X161190000Y-113800000D03*
X161190000Y-113400000D03*
X161190000Y-113000000D03*
X161190000Y-112600000D03*
X161190000Y-112200000D03*
X158110000Y-112200000D03*
X158110000Y-112600000D03*
X158110000Y-113000000D03*
X158110000Y-113400000D03*
X158110000Y-113800000D03*
X158110000Y-114200000D03*
X158110000Y-114600000D03*
X158110000Y-115000000D03*
X158110000Y-115400000D03*
X158110000Y-115800000D03*
X158110000Y-111800000D03*
X158110000Y-111400000D03*
X158110000Y-111000000D03*
X158110000Y-110600000D03*
X158110000Y-110200000D03*
X158110000Y-109800000D03*
X158110000Y-109400000D03*
X158110000Y-109000000D03*
X158110000Y-108600000D03*
X158110000Y-108200000D03*
X158110000Y-104200000D03*
X158110000Y-104600000D03*
X158110000Y-105000000D03*
X158110000Y-105400000D03*
X158110000Y-105800000D03*
X158110000Y-106200000D03*
X158110000Y-106600000D03*
X158110000Y-107000000D03*
X158110000Y-107400000D03*
X158110000Y-107800000D03*
X158110000Y-103800000D03*
X158110000Y-103400000D03*
X158110000Y-103000000D03*
X158110000Y-102600000D03*
X158110000Y-102200000D03*
X158110000Y-101800000D03*
X158110000Y-101400000D03*
X158110000Y-101000000D03*
X158110000Y-100600000D03*
X158110000Y-100200000D03*
D24*
X162950000Y-97849974D03*
X162500000Y-95300000D03*
X137400000Y-93350000D03*
X157025000Y-119975000D03*
D25*
X163335170Y-106128721D03*
X162579214Y-106491109D03*
X162993938Y-107218712D03*
X162237982Y-107581100D03*
X162237982Y-108419301D03*
X162993938Y-108781689D03*
X162579214Y-109509292D03*
X163335170Y-109871680D03*
D24*
X164264956Y-95352566D03*
X160500000Y-95450000D03*
X157300000Y-95000000D03*
X159100000Y-98150000D03*
X159950000Y-93400000D03*
X154522312Y-92933079D03*
X153375000Y-93400000D03*
X160729126Y-94320874D03*
X153388558Y-95488069D03*
X151948345Y-95438535D03*
X154404385Y-96551583D03*
D25*
X156306694Y-107218712D03*
X157062650Y-107581100D03*
X157062650Y-108419301D03*
X156306694Y-108781689D03*
X156721418Y-109509292D03*
X155965462Y-109871680D03*
D24*
X157909689Y-117082292D03*
D25*
X161045015Y-116945501D03*
X161045015Y-99054899D03*
X162035617Y-116147324D03*
X162511810Y-116834445D03*
X163166374Y-116308281D03*
X163642567Y-116995401D03*
X164626605Y-116049236D03*
X165041329Y-115321633D03*
X164285373Y-114959245D03*
X164700097Y-114231642D03*
X163944142Y-113869254D03*
X164358866Y-113141651D03*
X163602910Y-112779264D03*
X164017634Y-112051661D03*
X163261678Y-111689273D03*
X163676402Y-110961670D03*
X162920446Y-110599282D03*
X162920446Y-105401118D03*
X163676402Y-105038731D03*
X163261678Y-104311128D03*
X164017634Y-103948740D03*
X163602910Y-103221137D03*
X164358866Y-102858749D03*
X163944142Y-102131146D03*
X164700097Y-101768759D03*
X164285373Y-101041156D03*
X165041329Y-100678768D03*
X164626605Y-99951165D03*
X163642567Y-99005000D03*
X163166374Y-99692120D03*
X162511810Y-99165956D03*
X162035617Y-99853076D03*
X157630000Y-98890000D03*
X156788823Y-99165956D03*
X156134258Y-99692120D03*
D24*
X151300000Y-93950000D03*
X152964173Y-96612095D03*
D25*
X155658066Y-99005000D03*
X154674027Y-99951165D03*
X154259303Y-100678768D03*
X155015259Y-101041156D03*
X155965462Y-106128721D03*
X156380187Y-110599282D03*
X155624231Y-110961670D03*
X156038955Y-111689273D03*
X155282999Y-112051661D03*
X155697723Y-112779264D03*
X154941767Y-113141651D03*
X155356491Y-113869254D03*
X154600535Y-114231642D03*
X155015259Y-114959245D03*
X154259303Y-115321633D03*
X154674027Y-116049236D03*
X155560000Y-117010000D03*
D24*
X156275613Y-117454780D03*
D25*
X157130000Y-117390000D03*
D24*
X159025002Y-120650000D03*
X154322930Y-92121540D03*
X154812180Y-94881290D03*
X161200000Y-121325000D03*
X160303087Y-96914049D03*
X157300000Y-97100000D03*
X156750000Y-92200000D03*
D25*
X156380187Y-105401118D03*
X154941767Y-102858749D03*
X155697723Y-103221137D03*
X154600535Y-101768759D03*
X155356491Y-102131146D03*
X156721418Y-106491109D03*
D26*
X162950000Y-97849974D02*
X162950000Y-96450000D01*
X162950000Y-96450000D02*
X162850000Y-96350000D01*
X162950000Y-97849974D02*
X163350266Y-98250240D01*
X163350266Y-98250240D02*
X163350506Y-98250000D01*
X163350506Y-98250000D02*
X164300000Y-98250000D01*
X162850000Y-96350000D02*
X162550000Y-96050000D01*
X158461920Y-94250000D02*
X158461920Y-95249520D01*
X158461920Y-95249520D02*
X158611920Y-95399520D01*
X159353696Y-95399520D02*
X159975678Y-96021502D01*
X158611920Y-95399520D02*
X159353696Y-95399520D01*
X160771502Y-96021502D02*
X160528498Y-96021502D01*
X162550000Y-96050000D02*
X160800000Y-96050000D01*
X160800000Y-96050000D02*
X160771502Y-96021502D01*
X160528498Y-96021502D02*
X159914476Y-96021502D01*
X159235978Y-96700000D02*
X158611920Y-96700000D01*
X159975678Y-96021502D02*
X160528498Y-96021502D01*
X159914476Y-96021502D02*
X159235978Y-96700000D01*
X162500000Y-96000000D02*
X162500000Y-95784933D01*
X162550000Y-96050000D02*
X162500000Y-96000000D01*
X162500000Y-95784933D02*
X162500000Y-95300000D01*
X158611920Y-94261920D02*
X158600000Y-94250000D01*
D27*
X150900000Y-106060000D02*
X153215000Y-106060000D01*
X153215000Y-106060000D02*
X153525000Y-105750000D01*
X150900000Y-103520000D02*
X153130000Y-105750000D01*
X153130000Y-105750000D02*
X153525000Y-105750000D01*
D26*
X138300000Y-94826140D02*
X138300000Y-94325760D01*
X138300000Y-94325760D02*
X137400000Y-93425760D01*
X137400000Y-93425760D02*
X137400000Y-93350000D01*
X157525000Y-121125000D02*
X157525000Y-120475000D01*
X157525000Y-120475000D02*
X157025000Y-119975000D01*
X161190316Y-106624000D02*
X161540316Y-106624000D01*
X161540316Y-106624000D02*
X162460992Y-105841578D01*
X162460992Y-105841578D02*
X162749830Y-105946114D01*
X162749830Y-105946114D02*
X163335170Y-106128721D01*
X161190316Y-107024000D02*
X161540316Y-107024000D01*
X161540316Y-107024000D02*
X162406505Y-106287883D01*
X162406505Y-106287883D02*
X162579214Y-106491109D01*
X161190316Y-107424000D02*
X161540316Y-107424000D01*
X161540316Y-107424000D02*
X162119760Y-106931569D01*
X162119760Y-106931569D02*
X162408598Y-107036104D01*
X162408598Y-107036104D02*
X162993938Y-107218712D01*
X161190316Y-107824000D02*
X161540316Y-107824000D01*
X161540316Y-107824000D02*
X162065274Y-107377873D01*
X162065274Y-107377873D02*
X162237982Y-107581100D01*
X161190316Y-108176401D02*
X161540316Y-108176401D01*
X161540316Y-108176401D02*
X162065274Y-108622527D01*
X162065274Y-108622527D02*
X162237982Y-108419301D01*
X161190316Y-108576401D02*
X161540316Y-108576401D01*
X161540316Y-108576401D02*
X162119760Y-109068832D01*
X162119760Y-109068832D02*
X162408598Y-108964297D01*
X162408598Y-108964297D02*
X162993938Y-108781689D01*
X161190316Y-108976401D02*
X161540316Y-108976401D01*
X161540316Y-108976401D02*
X162406505Y-109712518D01*
X162406505Y-109712518D02*
X162579214Y-109509292D01*
X161190316Y-109376401D02*
X161540316Y-109376401D01*
X161540316Y-109376401D02*
X162460992Y-110158823D01*
X162460992Y-110158823D02*
X162749830Y-110054287D01*
X162749830Y-110054287D02*
X163335170Y-109871680D01*
X165202970Y-96290580D02*
X164607855Y-95695465D01*
X163412390Y-94500000D02*
X163922057Y-95009667D01*
X164851180Y-96949520D02*
X165202970Y-96597730D01*
X164300000Y-96949520D02*
X164851180Y-96949520D01*
X160500000Y-95450000D02*
X161450000Y-94500000D01*
X163922057Y-95009667D02*
X164264956Y-95352566D01*
X165202970Y-96597730D02*
X165202970Y-96290580D01*
X161450000Y-94500000D02*
X163412390Y-94500000D01*
X164607855Y-95695465D02*
X164264956Y-95352566D01*
X164300000Y-97599760D02*
X164300000Y-96949520D01*
X160500000Y-95450000D02*
X160500000Y-94965067D01*
X160500000Y-94965067D02*
X159134693Y-93599760D01*
X159134693Y-93599760D02*
X158461920Y-93599760D01*
X157300000Y-93996790D02*
X157300000Y-94515067D01*
X157300000Y-94515067D02*
X157300000Y-95000000D01*
X158611920Y-96049760D02*
X157708950Y-96049760D01*
X157708950Y-96049760D02*
X157300000Y-95640810D01*
X157300000Y-95640810D02*
X157300000Y-95000000D01*
X159100000Y-98150000D02*
X158643687Y-97693687D01*
X158643687Y-97693687D02*
X156591897Y-97693687D01*
X155950000Y-97051790D02*
X155950000Y-96700000D01*
X156591897Y-97693687D02*
X155950000Y-97051790D01*
X159502970Y-92949520D02*
X158461920Y-92949520D01*
X159950000Y-93396550D02*
X159950000Y-93400000D01*
X159502970Y-92949520D02*
X159950000Y-93396550D01*
X156470220Y-96800240D02*
X155919040Y-96800240D01*
X152819596Y-93955404D02*
X153032101Y-93742899D01*
X153032101Y-93742899D02*
X153375000Y-93400000D01*
X152819596Y-95899944D02*
X152819596Y-93955404D01*
X152302269Y-101352953D02*
X152302269Y-96417271D01*
X154898056Y-103948740D02*
X152302269Y-101352953D01*
X156495045Y-103948740D02*
X154898056Y-103948740D01*
X156903232Y-104295632D02*
X156495045Y-103948740D01*
X157607600Y-105000000D02*
X156903232Y-104295632D01*
X158110000Y-105000000D02*
X157607600Y-105000000D01*
X152302269Y-96417271D02*
X152819596Y-95899944D01*
X154538753Y-92949520D02*
X154522312Y-92933079D01*
X155800000Y-92949520D02*
X154538753Y-92949520D01*
X155938080Y-92949520D02*
X155937600Y-92950000D01*
X160729126Y-94320874D02*
X160729126Y-92679126D01*
X160729126Y-92679126D02*
X160500000Y-92450000D01*
X156917251Y-93032749D02*
X156917251Y-94173799D01*
X156917251Y-94173799D02*
X156841050Y-94250000D01*
X156841050Y-94250000D02*
X155800000Y-94250000D01*
X160500000Y-92450000D02*
X157500000Y-92450000D01*
X157500000Y-92450000D02*
X156917251Y-93032749D01*
X159450000Y-105800000D02*
X158110000Y-105800000D01*
X159750000Y-105500000D02*
X159450000Y-105800000D01*
X159700000Y-96671314D02*
X159700000Y-99250000D01*
X159750000Y-99300000D02*
X159750000Y-105500000D01*
X159700000Y-99250000D02*
X159750000Y-99300000D01*
X159885657Y-96485657D02*
X159700000Y-96671314D01*
X161638080Y-96949520D02*
X160874588Y-96949520D01*
X160874588Y-96949520D02*
X160874588Y-96639728D01*
X160874588Y-96639728D02*
X160577408Y-96342548D01*
X160577408Y-96342548D02*
X160028766Y-96342548D01*
X160028766Y-96342548D02*
X159885657Y-96485657D01*
X157744323Y-97998498D02*
X155853901Y-97998498D01*
X154973369Y-97117966D02*
X154973369Y-95473181D01*
X158110000Y-105400000D02*
X158612400Y-105400000D01*
X154973369Y-95473181D02*
X155047030Y-95399520D01*
X159445190Y-104567210D02*
X159445190Y-99699365D01*
X159445190Y-99699365D02*
X157744323Y-97998498D01*
X155047030Y-95399520D02*
X155950000Y-95399520D01*
X155853901Y-97998498D02*
X154973369Y-97117966D01*
X158612400Y-105400000D02*
X159445190Y-104567210D01*
X148946880Y-98440000D02*
X151605446Y-95781434D01*
X151605446Y-95781434D02*
X151948345Y-95438535D01*
X154404385Y-96551583D02*
X153388558Y-95535756D01*
X153388558Y-95535756D02*
X153388558Y-95488069D01*
X148360000Y-98440000D02*
X148946880Y-98440000D01*
D27*
X155050000Y-104600000D02*
X152573001Y-102123001D01*
X152573001Y-102123001D02*
X152043001Y-102123001D01*
X155050000Y-107524995D02*
X155050000Y-104600000D01*
X156306694Y-108781689D02*
X155050000Y-107524995D01*
X153525000Y-109750000D02*
X155843782Y-109750000D01*
X155843782Y-109750000D02*
X155965462Y-109871680D01*
X150900000Y-108600000D02*
X152050000Y-109750000D01*
X152050000Y-109750000D02*
X153525000Y-109750000D01*
D26*
X141618962Y-93381038D02*
X141390999Y-93609001D01*
X152517325Y-94300260D02*
X151598103Y-93381038D01*
X151989661Y-99890339D02*
X151989661Y-96294140D01*
X152517325Y-95766476D02*
X152517325Y-94300260D01*
X151598103Y-93381038D02*
X141618962Y-93381038D01*
X150900000Y-100980000D02*
X151989661Y-99890339D01*
X141390999Y-93609001D02*
X140375000Y-94625000D01*
X151989661Y-96294140D02*
X152517325Y-95766476D01*
D27*
X150900000Y-100980000D02*
X148360000Y-100980000D01*
X152043001Y-102123001D02*
X151763599Y-101843599D01*
X151763599Y-101843599D02*
X150900000Y-100980000D01*
X156306694Y-108781689D02*
X155963795Y-108438790D01*
X155963795Y-108438790D02*
X155958790Y-108438790D01*
X150900000Y-108600000D02*
X148360000Y-108600000D01*
X151081689Y-108781689D02*
X150900000Y-108600000D01*
D26*
X155965462Y-109871680D02*
X155622563Y-109528781D01*
X155622563Y-109528781D02*
X155622563Y-109517437D01*
X156306694Y-107218712D02*
X155963795Y-107561611D01*
X155963795Y-107561611D02*
X155963795Y-107566205D01*
X158110316Y-107424000D02*
X157760316Y-107424000D01*
X157760316Y-107424000D02*
X157180872Y-106931569D01*
X157180872Y-106931569D02*
X156892034Y-107036104D01*
X156892034Y-107036104D02*
X156306694Y-107218712D01*
X158110316Y-107824000D02*
X157760316Y-107824000D01*
X157760316Y-107824000D02*
X157235359Y-107377873D01*
X157235359Y-107377873D02*
X157062650Y-107581100D01*
X158110316Y-108176401D02*
X157760316Y-108176401D01*
X157760316Y-108176401D02*
X157235359Y-108622527D01*
X157235359Y-108622527D02*
X157062650Y-108419301D01*
X158110316Y-108576401D02*
X157760316Y-108576401D01*
X157760316Y-108576401D02*
X157180872Y-109068832D01*
X157180872Y-109068832D02*
X156892034Y-108964297D01*
X156892034Y-108964297D02*
X156306694Y-108781689D01*
X158110316Y-108976401D02*
X157760316Y-108976401D01*
X157760316Y-108976401D02*
X156894127Y-109712518D01*
X156894127Y-109712518D02*
X156721418Y-109509292D01*
X158110316Y-109376401D02*
X157760316Y-109376401D01*
X157760316Y-109376401D02*
X156839640Y-110158823D01*
X156839640Y-110158823D02*
X156550802Y-110054287D01*
X156550802Y-110054287D02*
X155965462Y-109871680D01*
X150900000Y-111140000D02*
X148360000Y-111140000D01*
X159593964Y-120923103D02*
X158577830Y-121939237D01*
X157909689Y-117082292D02*
X157909689Y-118692622D01*
X158577830Y-121939237D02*
X158577830Y-122472550D01*
X158025380Y-123025000D02*
X157525000Y-123025000D01*
X157909689Y-118692622D02*
X159593964Y-120376897D01*
X159593964Y-120376897D02*
X159593964Y-120923103D01*
X158577830Y-122472550D02*
X158025380Y-123025000D01*
X161045015Y-115800200D02*
X161045015Y-116945501D01*
X161045015Y-100200200D02*
X161045015Y-99054899D01*
X161190316Y-115376401D02*
X161540316Y-115376401D01*
X161540316Y-115376401D02*
X162208326Y-115944098D01*
X162208326Y-115944098D02*
X162035617Y-116147324D01*
X161190316Y-114976401D02*
X161540316Y-114976401D01*
X161540316Y-114976401D02*
X162657575Y-115925886D01*
X162657575Y-115925886D02*
X162600996Y-116227803D01*
X162600996Y-116227803D02*
X162511810Y-116834445D01*
X161190316Y-114576401D02*
X161540316Y-114576401D01*
X161540316Y-114576401D02*
X163339083Y-116105055D01*
X163339083Y-116105055D02*
X163166374Y-116308281D01*
X161190316Y-114176401D02*
X161540316Y-114176401D01*
X161540316Y-114176401D02*
X163788332Y-116086842D01*
X163788332Y-116086842D02*
X163731753Y-116388759D01*
X163731753Y-116388759D02*
X163642567Y-116995401D01*
X161190316Y-113776401D02*
X161540316Y-113776401D01*
X161540316Y-113776401D02*
X164453897Y-116252462D01*
X164453897Y-116252462D02*
X164626605Y-116049236D01*
X161190316Y-113376401D02*
X161540316Y-113376401D01*
X161540316Y-113376401D02*
X164167151Y-115608776D01*
X164167151Y-115608776D02*
X164455989Y-115504240D01*
X164455989Y-115504240D02*
X165041329Y-115321633D01*
X161190316Y-112976401D02*
X161540316Y-112976401D01*
X161540316Y-112976401D02*
X164112665Y-115162471D01*
X164112665Y-115162471D02*
X164285373Y-114959245D01*
X161190316Y-112576401D02*
X161540316Y-112576401D01*
X161540316Y-112576401D02*
X163825920Y-114518785D01*
X163825920Y-114518785D02*
X164114757Y-114414250D01*
X164114757Y-114414250D02*
X164700097Y-114231642D01*
X161190316Y-112176401D02*
X161540316Y-112176401D01*
X161540316Y-112176401D02*
X163771433Y-114072481D01*
X163771433Y-114072481D02*
X163944142Y-113869254D01*
X161190316Y-111776401D02*
X161540316Y-111776401D01*
X161540316Y-111776401D02*
X163484688Y-113428795D01*
X163484688Y-113428795D02*
X163773526Y-113324259D01*
X163773526Y-113324259D02*
X164358866Y-113141651D01*
X161190316Y-111376401D02*
X161540316Y-111376401D01*
X161540316Y-111376401D02*
X163430201Y-112982490D01*
X163430201Y-112982490D02*
X163602910Y-112779264D01*
X161190316Y-110976401D02*
X161540316Y-110976401D01*
X161540316Y-110976401D02*
X163143456Y-112338804D01*
X163143456Y-112338804D02*
X163432294Y-112234268D01*
X163432294Y-112234268D02*
X164017634Y-112051661D01*
X161190316Y-110576401D02*
X161540316Y-110576401D01*
X161540316Y-110576401D02*
X163088969Y-111892499D01*
X163088969Y-111892499D02*
X163261678Y-111689273D01*
X161190316Y-110176401D02*
X161540316Y-110176401D01*
X161540316Y-110176401D02*
X162802224Y-111248813D01*
X162802224Y-111248813D02*
X163091062Y-111144278D01*
X163091062Y-111144278D02*
X163676402Y-110961670D01*
X161190316Y-109776401D02*
X161540316Y-109776401D01*
X161540316Y-109776401D02*
X162747737Y-110802509D01*
X162747737Y-110802509D02*
X162920446Y-110599282D01*
X161190316Y-106224000D02*
X161540316Y-106224000D01*
X161540316Y-106224000D02*
X162747737Y-105197892D01*
X162747737Y-105197892D02*
X162920446Y-105401118D01*
X161190316Y-105824000D02*
X161540316Y-105824000D01*
X161540316Y-105824000D02*
X162802224Y-104751587D01*
X162802224Y-104751587D02*
X163091062Y-104856123D01*
X163091062Y-104856123D02*
X163676402Y-105038731D01*
X161190316Y-105424000D02*
X161540316Y-105424000D01*
X161540316Y-105424000D02*
X163088969Y-104107901D01*
X163088969Y-104107901D02*
X163261678Y-104311128D01*
X161190316Y-105024000D02*
X161540316Y-105024000D01*
X161540316Y-105024000D02*
X163143456Y-103661597D01*
X163143456Y-103661597D02*
X163432294Y-103766132D01*
X163432294Y-103766132D02*
X164017634Y-103948740D01*
X161190316Y-104624000D02*
X161540316Y-104624000D01*
X161540316Y-104624000D02*
X163430201Y-103017911D01*
X163430201Y-103017911D02*
X163602910Y-103221137D01*
X161190316Y-104224000D02*
X161540316Y-104224000D01*
X161540316Y-104224000D02*
X163484688Y-102571606D01*
X163484688Y-102571606D02*
X163773526Y-102676142D01*
X163773526Y-102676142D02*
X164358866Y-102858749D01*
X161190316Y-103824000D02*
X161540316Y-103824000D01*
X161540316Y-103824000D02*
X163771433Y-101927920D01*
X163771433Y-101927920D02*
X163944142Y-102131146D01*
X161190316Y-103424000D02*
X161540316Y-103424000D01*
X161540316Y-103424000D02*
X163825920Y-101481616D01*
X163825920Y-101481616D02*
X164114757Y-101586151D01*
X164114757Y-101586151D02*
X164700097Y-101768759D01*
X161190316Y-103024000D02*
X161540316Y-103024000D01*
X161540316Y-103024000D02*
X164112665Y-100837930D01*
X164112665Y-100837930D02*
X164285373Y-101041156D01*
X161190316Y-102624000D02*
X161540316Y-102624000D01*
X161540316Y-102624000D02*
X164167151Y-100391625D01*
X164167151Y-100391625D02*
X164455989Y-100496161D01*
X164455989Y-100496161D02*
X165041329Y-100678768D01*
X161190316Y-102224000D02*
X161540316Y-102224000D01*
X161540316Y-102224000D02*
X164453897Y-99747939D01*
X164453897Y-99747939D02*
X164626605Y-99951165D01*
X161190316Y-101824000D02*
X161540316Y-101824000D01*
X161540316Y-101824000D02*
X163788332Y-99913558D01*
X163788332Y-99913558D02*
X163731753Y-99611642D01*
X163731753Y-99611642D02*
X163642567Y-99005000D01*
X161190316Y-101424000D02*
X161540316Y-101424000D01*
X161540316Y-101424000D02*
X163339083Y-99895346D01*
X163339083Y-99895346D02*
X163166374Y-99692120D01*
X161190316Y-101024000D02*
X161540316Y-101024000D01*
X161540316Y-101024000D02*
X162657575Y-100074515D01*
X162657575Y-100074515D02*
X162600996Y-99772598D01*
X162600996Y-99772598D02*
X162511810Y-99165956D01*
X161190316Y-100624000D02*
X161540316Y-100624000D01*
X161540316Y-100624000D02*
X162208326Y-100056303D01*
X162208326Y-100056303D02*
X162035617Y-99853076D01*
X157972899Y-99232899D02*
X157630000Y-98890000D01*
X158110316Y-99370316D02*
X157972899Y-99232899D01*
X158110316Y-100224000D02*
X158110316Y-99370316D01*
X156699637Y-99772598D02*
X156705760Y-99772598D01*
X156705760Y-99772598D02*
X156788823Y-99165956D01*
X157432178Y-100424578D02*
X157351617Y-100424578D01*
X157351617Y-100424578D02*
X156705760Y-99778721D01*
X156705760Y-99778721D02*
X156705760Y-99772598D01*
X158110000Y-100600000D02*
X157607600Y-100600000D01*
X157607600Y-100600000D02*
X157432178Y-100424578D01*
X158110316Y-100624000D02*
X157760316Y-100624000D01*
X156775191Y-100545191D02*
X156608075Y-100378075D01*
X156953743Y-100734809D02*
X156775191Y-100556257D01*
X157052247Y-100822247D02*
X156964809Y-100734809D01*
X156775191Y-100556257D02*
X156775191Y-100545191D01*
X157261408Y-101000000D02*
X157052247Y-100822247D01*
X158110000Y-101000000D02*
X157261408Y-101000000D01*
X156964809Y-100734809D02*
X156953743Y-100734809D01*
X156608075Y-100378075D02*
X156507388Y-100359207D01*
X156253128Y-100143128D02*
X156507388Y-100359207D01*
X156507388Y-100359207D02*
X156414530Y-100280293D01*
X156134258Y-99692120D02*
X156134258Y-100024258D01*
X156134258Y-100024258D02*
X156253128Y-100143128D01*
X158110316Y-101024000D02*
X157760316Y-101024000D01*
X150957101Y-94292899D02*
X151300000Y-93950000D01*
X149150000Y-96100000D02*
X150957101Y-94292899D01*
X137173480Y-96100000D02*
X149150000Y-96100000D01*
X136400000Y-95326520D02*
X137173480Y-96100000D01*
X136400000Y-94826140D02*
X136400000Y-95326520D01*
X153265161Y-96612095D02*
X152964173Y-96612095D01*
X155658066Y-99005000D02*
X153265161Y-96612095D01*
X155476165Y-99951165D02*
X157349000Y-101824000D01*
X157349000Y-101824000D02*
X157760316Y-101824000D01*
X154674027Y-99951165D02*
X155476165Y-99951165D01*
X158110316Y-101824000D02*
X157760316Y-101824000D01*
X154259303Y-100678768D02*
X154844643Y-100496161D01*
X157321526Y-102224000D02*
X158110316Y-102224000D01*
X155489151Y-100391625D02*
X157321526Y-102224000D01*
X154844643Y-100496161D02*
X155133481Y-100391625D01*
X155133481Y-100391625D02*
X155489151Y-100391625D01*
X157196322Y-102526271D02*
X158012587Y-102526271D01*
X158012587Y-102526271D02*
X158110316Y-102624000D01*
X155711207Y-101041156D02*
X157196322Y-102526271D01*
X155015259Y-101041156D02*
X155711207Y-101041156D01*
X158110316Y-106624000D02*
X157760316Y-106624000D01*
X157760316Y-106624000D02*
X156839640Y-105841578D01*
X156839640Y-105841578D02*
X156550802Y-105946114D01*
X156550802Y-105946114D02*
X155965462Y-106128721D01*
X158110316Y-110576401D02*
X158087435Y-110599282D01*
X158087435Y-110599282D02*
X156865120Y-110599282D01*
X156865120Y-110599282D02*
X156380187Y-110599282D01*
X157567991Y-110976401D02*
X157295579Y-111248813D01*
X158110316Y-110976401D02*
X157567991Y-110976401D01*
X157295579Y-111248813D02*
X156498409Y-111248813D01*
X156209571Y-111144278D02*
X155624231Y-110961670D01*
X156498409Y-111248813D02*
X156209571Y-111144278D01*
X158110316Y-111376401D02*
X157725778Y-111376401D01*
X156641302Y-111571859D02*
X156523888Y-111689273D01*
X156523888Y-111689273D02*
X156038955Y-111689273D01*
X157530320Y-111571859D02*
X156641302Y-111571859D01*
X157725778Y-111376401D02*
X157530320Y-111571859D01*
X156951396Y-112338804D02*
X156157177Y-112338804D01*
X156157177Y-112338804D02*
X155868339Y-112234268D01*
X158110316Y-111776401D02*
X157760316Y-111776401D01*
X157760316Y-111776401D02*
X157645318Y-111874130D01*
X155868339Y-112234268D02*
X155282999Y-112051661D01*
X157416070Y-111874130D02*
X156951396Y-112338804D01*
X157645318Y-111874130D02*
X157416070Y-111874130D01*
X158110316Y-112176401D02*
X157541275Y-112176401D01*
X156938412Y-112779264D02*
X156182656Y-112779264D01*
X157541275Y-112176401D02*
X156938412Y-112779264D01*
X156182656Y-112779264D02*
X155697723Y-112779264D01*
X156716355Y-113428795D02*
X155815945Y-113428795D01*
X157568749Y-112576401D02*
X156716355Y-113428795D01*
X158110316Y-112576401D02*
X157568749Y-112576401D01*
X155815945Y-113428795D02*
X155527107Y-113324259D01*
X155527107Y-113324259D02*
X154941767Y-113141651D01*
X156703372Y-113869254D02*
X155841424Y-113869254D01*
X157596225Y-112976401D02*
X156703372Y-113869254D01*
X155841424Y-113869254D02*
X155356491Y-113869254D01*
X158110316Y-112976401D02*
X157596225Y-112976401D01*
X156850542Y-114149558D02*
X155869476Y-114983302D01*
X157623699Y-113376401D02*
X156850542Y-114149558D01*
X158110316Y-113376401D02*
X157623699Y-113376401D01*
X155474713Y-114518785D02*
X155185875Y-114414250D01*
X155869476Y-114983302D02*
X155474713Y-114518785D01*
X155185875Y-114414250D02*
X154600535Y-114231642D01*
X158110316Y-113776401D02*
X157651175Y-113776401D01*
X157651175Y-113776401D02*
X157033509Y-114394067D01*
X157033509Y-114394067D02*
X155582730Y-115626988D01*
X155582730Y-115626988D02*
X155187968Y-115162471D01*
X155187968Y-115162471D02*
X155015259Y-114959245D01*
X158110316Y-114176401D02*
X157678650Y-114176401D01*
X155133481Y-115608776D02*
X154844643Y-115504240D01*
X155528244Y-116073293D02*
X155133481Y-115608776D01*
X154844643Y-115504240D02*
X154259303Y-115321633D01*
X157216469Y-114638582D02*
X155528244Y-116073293D01*
X157678650Y-114176401D02*
X157216469Y-114638582D01*
X155117537Y-115622325D02*
X155512300Y-116086842D01*
X157399358Y-114883168D02*
X157315957Y-114954044D01*
X157682526Y-114600000D02*
X157399358Y-114883168D01*
X158110000Y-114600000D02*
X157682526Y-114600000D01*
X157399358Y-114883168D02*
X157587336Y-114695190D01*
X156932996Y-115279498D02*
X156990503Y-115279498D01*
X156990503Y-115279498D02*
X157315957Y-114954044D01*
X154674027Y-116049236D02*
X155016926Y-116392135D01*
X155917493Y-116142507D02*
X156932996Y-115279498D01*
X155016926Y-116392135D02*
X155667865Y-116392135D01*
X155667865Y-116392135D02*
X155917493Y-116142507D01*
X158110000Y-115000000D02*
X157710000Y-115000000D01*
X157128233Y-115581767D02*
X157044088Y-115581767D01*
X157710000Y-115000000D02*
X157128233Y-115581767D01*
X157044088Y-115581767D02*
X156672142Y-115897859D01*
X156672142Y-115897859D02*
X155560000Y-117010000D01*
X155691067Y-117010000D02*
X155560000Y-117010000D01*
X156275613Y-116861861D02*
X156275613Y-116969847D01*
X157761073Y-115376401D02*
X156275613Y-116861861D01*
X158110316Y-115376401D02*
X157761073Y-115376401D01*
X156275613Y-116969847D02*
X156275613Y-117454780D01*
X158110000Y-116052400D02*
X157130000Y-117032400D01*
X158110000Y-115800000D02*
X158110000Y-116052400D01*
X157130000Y-117032400D02*
X157130000Y-117390000D01*
X140375000Y-92085000D02*
X137611140Y-92085000D01*
X137611140Y-92085000D02*
X137350000Y-91823860D01*
X159531067Y-106200000D02*
X159531067Y-107356067D01*
X158682103Y-120307101D02*
X159025002Y-120650000D01*
X159825000Y-107650000D02*
X159825000Y-119465067D01*
X153950000Y-117850000D02*
X154552400Y-117850000D01*
X155752400Y-119050000D02*
X157425002Y-119050000D01*
X154552400Y-117850000D02*
X155752400Y-119050000D01*
X161200000Y-120840067D02*
X161200000Y-121325000D01*
X159825000Y-119465067D02*
X161200000Y-120840067D01*
X157425002Y-119050000D02*
X158682103Y-120307101D01*
X159531067Y-107356067D02*
X159825000Y-107650000D01*
X156750000Y-92200000D02*
X154401390Y-92200000D01*
X154401390Y-92200000D02*
X154322930Y-92121540D01*
X154068961Y-93276898D02*
X153928499Y-93136436D01*
X154068961Y-93364783D02*
X154068961Y-93276898D01*
X153980031Y-92464439D02*
X154322930Y-92121540D01*
X154650000Y-93945822D02*
X154068961Y-93364783D01*
X153928499Y-92515971D02*
X153980031Y-92464439D01*
X153928499Y-93136436D02*
X153928499Y-92515971D01*
X154812180Y-94108002D02*
X154812180Y-94396357D01*
X154650000Y-93945822D02*
X154812180Y-94108002D01*
X154812180Y-94396357D02*
X154812180Y-94881290D01*
X161638080Y-98250000D02*
X160346552Y-98250000D01*
X160346552Y-98250000D02*
X160303087Y-98206535D01*
X160303087Y-98206535D02*
X160303087Y-97700000D01*
X160303087Y-97700000D02*
X160303087Y-97398982D01*
X161638080Y-97599760D02*
X160735110Y-97599760D01*
X160735110Y-97599760D02*
X160634870Y-97700000D01*
X160634870Y-97700000D02*
X160303087Y-97700000D01*
X158110000Y-106200000D02*
X159531067Y-106200000D01*
X154650000Y-93945822D02*
X154650000Y-93846790D01*
X154650000Y-93846790D02*
X154897030Y-93599760D01*
X154897030Y-93599760D02*
X155800000Y-93599760D01*
X160303087Y-97398982D02*
X160303087Y-96914049D01*
X160239234Y-98270388D02*
X160303087Y-98206535D01*
X156957101Y-96757101D02*
X156957101Y-96153891D01*
X157300000Y-97100000D02*
X156957101Y-96757101D01*
X156957101Y-96153891D02*
X156852970Y-96049760D01*
X156852970Y-96049760D02*
X155950000Y-96049760D01*
X160054811Y-98454811D02*
X160239234Y-98270388D01*
X160054811Y-98454811D02*
X160050000Y-98450000D01*
X160059620Y-104997487D02*
X160054811Y-104992678D01*
X159531067Y-106200000D02*
X160059620Y-105671447D01*
X160054811Y-104992678D02*
X160054811Y-98454811D01*
X160059620Y-105671447D02*
X160059620Y-104997487D01*
X158110316Y-106224000D02*
X157760316Y-106224000D01*
X157760316Y-106224000D02*
X156552895Y-105197892D01*
X156552895Y-105197892D02*
X156380187Y-105401118D01*
X158110316Y-104224000D02*
X157760316Y-104224000D01*
X157760316Y-104224000D02*
X155815945Y-102571606D01*
X155815945Y-102571606D02*
X155527107Y-102676142D01*
X155527107Y-102676142D02*
X154941767Y-102858749D01*
X158110316Y-104624000D02*
X157760316Y-104624000D01*
X157760316Y-104624000D02*
X155870431Y-103017911D01*
X155870431Y-103017911D02*
X155697723Y-103221137D01*
X155474713Y-101481616D02*
X155724192Y-101481616D01*
X157319052Y-103024000D02*
X158110316Y-103024000D01*
X157123594Y-102828542D02*
X157319052Y-103024000D01*
X155724192Y-101481616D02*
X157071118Y-102828542D01*
X154600535Y-101768759D02*
X155185875Y-101586151D01*
X155185875Y-101586151D02*
X155474713Y-101481616D01*
X157071118Y-102828542D02*
X157123594Y-102828542D01*
X157291578Y-103424000D02*
X158110316Y-103424000D01*
X156945915Y-103130813D02*
X156998391Y-103130813D01*
X155946248Y-102131146D02*
X156945915Y-103130813D01*
X156998391Y-103130813D02*
X157291578Y-103424000D01*
X155356491Y-102131146D02*
X155946248Y-102131146D01*
X145340000Y-121152400D02*
X145340000Y-121000000D01*
X158775000Y-124350000D02*
X148537600Y-124350000D01*
X159435281Y-123689719D02*
X158775000Y-124350000D01*
X159896235Y-121048307D02*
X159435281Y-121509261D01*
X159896235Y-120251693D02*
X159896235Y-121048307D01*
X159425000Y-107812600D02*
X159425000Y-119780458D01*
X158612400Y-107000000D02*
X159425000Y-107812600D01*
X158110000Y-107000000D02*
X158612400Y-107000000D01*
X159425000Y-119780458D02*
X159896235Y-120251693D01*
X148537600Y-124350000D02*
X145340000Y-121152400D01*
X159435281Y-121509261D02*
X159435281Y-123689719D01*
X158110316Y-107024000D02*
X157760316Y-107024000D01*
X157760316Y-107024000D02*
X156894127Y-106287883D01*
X156894127Y-106287883D02*
X156721418Y-106491109D01*
X153950000Y-120050000D02*
X151370000Y-120050000D01*
X151370000Y-120050000D02*
X150420000Y-121000000D01*
X154522720Y-122075000D02*
X154522720Y-120622720D01*
X154522720Y-120622720D02*
X153950000Y-120050000D01*
D27*
G36*
X155410803Y-106957261D02*
X155770092Y-107106451D01*
X155954093Y-107106611D01*
X156166759Y-107319649D01*
X156526048Y-107468839D01*
X156915081Y-107469178D01*
X157097307Y-107393884D01*
X157125000Y-107417418D01*
X157125000Y-107527002D01*
X157144339Y-107527002D01*
X157125000Y-107573690D01*
X157125000Y-107591250D01*
X157133750Y-107600000D01*
X157125000Y-107608750D01*
X157125000Y-107626310D01*
X157196945Y-107800000D01*
X157125000Y-107973690D01*
X157125000Y-107991250D01*
X157133750Y-108000000D01*
X157125000Y-108008750D01*
X157125000Y-108026310D01*
X157196945Y-108200000D01*
X157125000Y-108373690D01*
X157125000Y-108391250D01*
X157133750Y-108400000D01*
X157125000Y-108408750D01*
X157125000Y-108426310D01*
X157196945Y-108600000D01*
X157125000Y-108773690D01*
X157125000Y-108791250D01*
X157133750Y-108800000D01*
X157125000Y-108808750D01*
X157125000Y-108826310D01*
X157196945Y-109000000D01*
X157125000Y-109173690D01*
X157125000Y-109191250D01*
X157133750Y-109200000D01*
X157125000Y-109208750D01*
X157125000Y-109226310D01*
X157196755Y-109399541D01*
X157163569Y-109448110D01*
X157132572Y-109601178D01*
X157125000Y-109608750D01*
X157125000Y-109626310D01*
X157126667Y-109630335D01*
X157112560Y-109700000D01*
X157112560Y-109816921D01*
X157025499Y-109861553D01*
X156934846Y-109770742D01*
X156575557Y-109621552D01*
X156186524Y-109621213D01*
X155826975Y-109769775D01*
X155612617Y-109983760D01*
X155430568Y-109983601D01*
X155157000Y-110096637D01*
X155157000Y-106959759D01*
X155383029Y-106929438D01*
X155410803Y-106957261D01*
X155410803Y-106957261D01*
G37*
X155410803Y-106957261D02*
X155770092Y-107106451D01*
X155954093Y-107106611D01*
X156166759Y-107319649D01*
X156526048Y-107468839D01*
X156915081Y-107469178D01*
X157097307Y-107393884D01*
X157125000Y-107417418D01*
X157125000Y-107527002D01*
X157144339Y-107527002D01*
X157125000Y-107573690D01*
X157125000Y-107591250D01*
X157133750Y-107600000D01*
X157125000Y-107608750D01*
X157125000Y-107626310D01*
X157196945Y-107800000D01*
X157125000Y-107973690D01*
X157125000Y-107991250D01*
X157133750Y-108000000D01*
X157125000Y-108008750D01*
X157125000Y-108026310D01*
X157196945Y-108200000D01*
X157125000Y-108373690D01*
X157125000Y-108391250D01*
X157133750Y-108400000D01*
X157125000Y-108408750D01*
X157125000Y-108426310D01*
X157196945Y-108600000D01*
X157125000Y-108773690D01*
X157125000Y-108791250D01*
X157133750Y-108800000D01*
X157125000Y-108808750D01*
X157125000Y-108826310D01*
X157196945Y-109000000D01*
X157125000Y-109173690D01*
X157125000Y-109191250D01*
X157133750Y-109200000D01*
X157125000Y-109208750D01*
X157125000Y-109226310D01*
X157196755Y-109399541D01*
X157163569Y-109448110D01*
X157132572Y-109601178D01*
X157125000Y-109608750D01*
X157125000Y-109626310D01*
X157126667Y-109630335D01*
X157112560Y-109700000D01*
X157112560Y-109816921D01*
X157025499Y-109861553D01*
X156934846Y-109770742D01*
X156575557Y-109621552D01*
X156186524Y-109621213D01*
X155826975Y-109769775D01*
X155612617Y-109983760D01*
X155430568Y-109983601D01*
X155157000Y-110096637D01*
X155157000Y-106959759D01*
X155383029Y-106929438D01*
X155410803Y-106957261D01*
M02*
