G04 #@! TF.FileFunction,Soldermask,Bot*
%FSLAX46Y46*%
G04 Gerber Fmt 4.6, Leading zero omitted, Abs format (unit mm)*
G04 Created by KiCad (PCBNEW (2015-11-03 BZR 6296)-product) date Tuesday, November 10, 2015 'PMt' 06:19:39 PM*
%MOMM*%
G01*
G04 APERTURE LIST*
%ADD10C,0.100000*%
%ADD11C,0.010000*%
%ADD12R,1.060000X0.630000*%
%ADD13R,1.060000X0.750000*%
%ADD14R,1.600000X1.150000*%
%ADD15R,1.150000X0.700000*%
%ADD16R,1.275000X1.125000*%
%ADD17R,1.600000X1.300000*%
%ADD18C,1.924000*%
%ADD19R,2.127200X2.127200*%
%ADD20O,2.127200X2.127200*%
%ADD21R,2.635200X2.635200*%
G04 APERTURE END LIST*
D10*
D11*
G36*
X142938969Y-93663103D02*
X142901134Y-93664878D01*
X142865237Y-93667950D01*
X142829588Y-93672451D01*
X142792501Y-93678512D01*
X142767463Y-93683226D01*
X142730495Y-93690873D01*
X142695230Y-93699056D01*
X142660622Y-93708108D01*
X142625624Y-93718364D01*
X142589191Y-93730156D01*
X142550278Y-93743818D01*
X142507839Y-93759684D01*
X142460827Y-93778088D01*
X142425263Y-93792406D01*
X142378042Y-93811805D01*
X142330102Y-93831943D01*
X142281041Y-93853011D01*
X142230453Y-93875199D01*
X142177934Y-93898695D01*
X142123079Y-93923689D01*
X142065486Y-93950372D01*
X142004749Y-93978932D01*
X141940464Y-94009559D01*
X141872227Y-94042442D01*
X141799635Y-94077772D01*
X141722281Y-94115737D01*
X141639764Y-94156528D01*
X141551677Y-94200333D01*
X141493915Y-94229177D01*
X141412201Y-94269964D01*
X141336268Y-94307698D01*
X141265642Y-94342596D01*
X141199851Y-94374875D01*
X141138423Y-94404752D01*
X141080885Y-94432444D01*
X141026765Y-94458167D01*
X140975591Y-94482138D01*
X140926889Y-94504575D01*
X140880189Y-94525695D01*
X140835018Y-94545714D01*
X140790903Y-94564848D01*
X140747371Y-94583316D01*
X140703951Y-94601334D01*
X140660171Y-94619119D01*
X140615557Y-94636888D01*
X140569637Y-94654857D01*
X140552458Y-94661509D01*
X140528476Y-94670793D01*
X140506212Y-94679455D01*
X140486652Y-94687109D01*
X140470781Y-94693366D01*
X140459586Y-94697840D01*
X140454216Y-94700070D01*
X140444168Y-94704573D01*
X140459302Y-94723849D01*
X140471111Y-94737902D01*
X140487080Y-94755482D01*
X140506079Y-94775449D01*
X140526977Y-94796663D01*
X140548643Y-94817986D01*
X140569945Y-94838277D01*
X140589754Y-94856397D01*
X140598319Y-94863920D01*
X140673898Y-94925039D01*
X140755648Y-94983238D01*
X140843253Y-95038375D01*
X140936399Y-95090306D01*
X141034769Y-95138886D01*
X141138048Y-95183973D01*
X141245921Y-95225422D01*
X141358072Y-95263091D01*
X141474186Y-95296835D01*
X141593946Y-95326510D01*
X141633722Y-95335281D01*
X141692747Y-95347567D01*
X141746586Y-95358013D01*
X141796795Y-95366877D01*
X141844926Y-95374413D01*
X141892531Y-95380877D01*
X141941165Y-95386526D01*
X141951222Y-95387588D01*
X141971268Y-95389185D01*
X141996488Y-95390438D01*
X142025561Y-95391348D01*
X142057167Y-95391913D01*
X142089986Y-95392134D01*
X142122697Y-95392011D01*
X142153980Y-95391543D01*
X142182515Y-95390730D01*
X142206981Y-95389572D01*
X142226059Y-95388069D01*
X142229917Y-95387629D01*
X142300413Y-95376359D01*
X142365332Y-95360777D01*
X142424686Y-95340875D01*
X142478489Y-95316642D01*
X142526754Y-95288071D01*
X142569494Y-95255152D01*
X142606725Y-95217875D01*
X142638458Y-95176233D01*
X142664708Y-95130216D01*
X142684186Y-95083556D01*
X142693436Y-95055336D01*
X142700050Y-95029790D01*
X142704389Y-95004670D01*
X142706811Y-94977726D01*
X142707677Y-94946710D01*
X142707689Y-94936690D01*
X142707494Y-94879783D01*
X142730459Y-94877430D01*
X142753423Y-94875078D01*
X142803181Y-94909010D01*
X142802739Y-94958359D01*
X142798754Y-95016590D01*
X142787973Y-95073341D01*
X142770573Y-95128195D01*
X142746733Y-95180732D01*
X142716631Y-95230536D01*
X142680446Y-95277188D01*
X142655226Y-95304155D01*
X142614590Y-95341000D01*
X142570860Y-95373371D01*
X142523528Y-95401491D01*
X142472089Y-95425584D01*
X142416034Y-95445873D01*
X142354857Y-95462584D01*
X142288052Y-95475938D01*
X142254611Y-95481113D01*
X142233545Y-95483389D01*
X142206697Y-95485185D01*
X142175325Y-95486500D01*
X142140685Y-95487334D01*
X142104034Y-95487688D01*
X142066631Y-95487562D01*
X142029731Y-95486956D01*
X141994593Y-95485870D01*
X141962474Y-95484303D01*
X141934630Y-95482257D01*
X141923000Y-95481088D01*
X141808753Y-95465915D01*
X141693621Y-95446055D01*
X141578476Y-95421770D01*
X141464191Y-95393321D01*
X141351641Y-95360969D01*
X141241697Y-95324975D01*
X141135234Y-95285600D01*
X141033124Y-95243106D01*
X140936240Y-95197754D01*
X140881392Y-95169498D01*
X140798282Y-95122751D01*
X140719342Y-95073631D01*
X140645019Y-95022487D01*
X140575759Y-94969668D01*
X140512007Y-94915522D01*
X140454209Y-94860397D01*
X140402812Y-94804643D01*
X140381120Y-94778480D01*
X140366411Y-94760572D01*
X140355353Y-94748259D01*
X140347679Y-94741267D01*
X140343122Y-94739322D01*
X140342894Y-94739373D01*
X140328318Y-94743012D01*
X140307871Y-94747139D01*
X140282704Y-94751588D01*
X140253971Y-94756193D01*
X140222826Y-94760787D01*
X140190421Y-94765204D01*
X140157909Y-94769276D01*
X140126444Y-94772837D01*
X140097179Y-94775720D01*
X140083264Y-94776893D01*
X140053004Y-94778630D01*
X140019491Y-94779311D01*
X139982279Y-94778909D01*
X139940925Y-94777398D01*
X139894983Y-94774750D01*
X139844009Y-94770938D01*
X139787559Y-94765937D01*
X139725188Y-94759719D01*
X139656452Y-94752256D01*
X139635236Y-94749853D01*
X139537304Y-94738039D01*
X139432890Y-94724253D01*
X139322274Y-94708544D01*
X139205733Y-94690962D01*
X139083546Y-94671559D01*
X138955989Y-94650386D01*
X138823343Y-94627492D01*
X138685883Y-94602928D01*
X138543890Y-94576746D01*
X138397640Y-94548995D01*
X138247412Y-94519727D01*
X138093483Y-94488991D01*
X137936133Y-94456840D01*
X137775639Y-94423322D01*
X137612279Y-94388489D01*
X137446331Y-94352392D01*
X137418028Y-94346166D01*
X137386495Y-94339268D01*
X137356427Y-94332787D01*
X137328674Y-94326899D01*
X137304087Y-94321780D01*
X137283516Y-94317607D01*
X137267814Y-94314556D01*
X137257830Y-94312804D01*
X137255750Y-94312520D01*
X137228371Y-94312603D01*
X137199403Y-94318198D01*
X137170663Y-94328640D01*
X137143968Y-94343263D01*
X137121137Y-94361400D01*
X137120423Y-94362097D01*
X137109666Y-94374458D01*
X137096441Y-94392584D01*
X137081127Y-94415782D01*
X137064102Y-94443362D01*
X137045747Y-94474633D01*
X137026438Y-94508902D01*
X137006556Y-94545479D01*
X136986479Y-94583671D01*
X136966585Y-94622789D01*
X136947253Y-94662139D01*
X136928863Y-94701031D01*
X136911792Y-94738774D01*
X136903062Y-94758888D01*
X136875582Y-94827828D01*
X136853705Y-94892753D01*
X136837436Y-94953631D01*
X136826780Y-95010428D01*
X136821742Y-95063112D01*
X136822326Y-95111650D01*
X136828538Y-95156008D01*
X136839697Y-95194355D01*
X136849279Y-95214617D01*
X136862842Y-95236530D01*
X136878641Y-95257628D01*
X136894928Y-95275441D01*
X136900911Y-95280860D01*
X136916300Y-95292771D01*
X136932919Y-95303287D01*
X136951311Y-95312518D01*
X136972022Y-95320574D01*
X136995594Y-95327565D01*
X137022573Y-95333602D01*
X137053502Y-95338794D01*
X137088926Y-95343252D01*
X137129388Y-95347086D01*
X137175433Y-95350405D01*
X137227604Y-95353321D01*
X137268097Y-95355182D01*
X137287868Y-95355961D01*
X137313696Y-95356876D01*
X137344584Y-95357897D01*
X137379536Y-95358994D01*
X137417554Y-95360137D01*
X137457643Y-95361294D01*
X137498805Y-95362437D01*
X137540044Y-95363534D01*
X137560903Y-95364070D01*
X137666868Y-95366865D01*
X137766377Y-95369728D01*
X137860029Y-95372688D01*
X137948424Y-95375774D01*
X138032160Y-95379016D01*
X138111838Y-95382444D01*
X138188056Y-95386086D01*
X138261413Y-95389972D01*
X138332509Y-95394132D01*
X138401944Y-95398595D01*
X138470317Y-95403390D01*
X138538226Y-95408548D01*
X138606271Y-95414096D01*
X138642167Y-95417168D01*
X138794575Y-95431484D01*
X138941084Y-95447501D01*
X139082686Y-95465426D01*
X139220371Y-95485462D01*
X139355131Y-95507813D01*
X139487958Y-95532686D01*
X139619844Y-95560283D01*
X139751779Y-95590811D01*
X139884756Y-95624473D01*
X140019766Y-95661474D01*
X140157801Y-95702018D01*
X140299851Y-95746311D01*
X140407819Y-95781516D01*
X140464471Y-95800415D01*
X140516899Y-95818181D01*
X140565676Y-95835079D01*
X140611373Y-95851377D01*
X140654563Y-95867340D01*
X140695816Y-95883235D01*
X140735705Y-95899327D01*
X140774801Y-95915884D01*
X140813675Y-95933170D01*
X140852901Y-95951452D01*
X140893048Y-95970997D01*
X140934690Y-95992071D01*
X140978398Y-96014939D01*
X141024743Y-96039869D01*
X141074297Y-96067125D01*
X141127632Y-96096975D01*
X141185320Y-96129684D01*
X141247932Y-96165519D01*
X141312694Y-96202815D01*
X141362887Y-96231743D01*
X141407657Y-96257450D01*
X141447661Y-96280298D01*
X141483555Y-96300648D01*
X141515994Y-96318863D01*
X141545635Y-96335303D01*
X141573134Y-96350330D01*
X141599147Y-96364307D01*
X141624330Y-96377594D01*
X141649338Y-96390554D01*
X141674828Y-96403549D01*
X141697222Y-96414820D01*
X141762539Y-96446741D01*
X141823326Y-96474702D01*
X141880631Y-96499064D01*
X141935499Y-96520188D01*
X141988978Y-96538436D01*
X142042115Y-96554169D01*
X142095957Y-96567748D01*
X142151551Y-96579537D01*
X142199025Y-96588094D01*
X142258301Y-96597475D01*
X142312886Y-96604849D01*
X142364804Y-96610377D01*
X142416074Y-96614223D01*
X142468721Y-96616550D01*
X142524766Y-96617522D01*
X142563292Y-96617509D01*
X142589880Y-96617309D01*
X142614924Y-96617051D01*
X142637330Y-96616751D01*
X142656003Y-96616426D01*
X142669851Y-96616092D01*
X142677777Y-96615767D01*
X142677944Y-96615755D01*
X142768991Y-96606740D01*
X142858800Y-96593096D01*
X142946515Y-96575042D01*
X143031282Y-96552798D01*
X143112244Y-96526583D01*
X143188545Y-96496619D01*
X143246209Y-96469817D01*
X143332043Y-96422919D01*
X143415670Y-96369377D01*
X143497012Y-96309273D01*
X143575994Y-96242690D01*
X143652539Y-96169708D01*
X143726571Y-96090411D01*
X143798015Y-96004879D01*
X143866793Y-95913196D01*
X143932829Y-95815442D01*
X143996048Y-95711701D01*
X144056373Y-95602053D01*
X144060700Y-95593746D01*
X144097707Y-95518734D01*
X144132221Y-95440989D01*
X144164600Y-95359580D01*
X144195202Y-95273574D01*
X144224388Y-95182039D01*
X144240890Y-95125758D01*
X144248457Y-95099169D01*
X144494194Y-95000044D01*
X144533671Y-94984069D01*
X144571187Y-94968791D01*
X144606234Y-94954422D01*
X144638306Y-94941173D01*
X144666898Y-94929257D01*
X144691502Y-94918887D01*
X144711612Y-94910274D01*
X144726722Y-94903630D01*
X144736326Y-94899168D01*
X144739917Y-94897101D01*
X144739931Y-94897055D01*
X144737356Y-94894178D01*
X144729885Y-94886965D01*
X144717902Y-94875762D01*
X144701787Y-94860917D01*
X144681922Y-94842776D01*
X144658690Y-94821686D01*
X144632471Y-94797994D01*
X144603649Y-94772048D01*
X144572605Y-94744193D01*
X144539720Y-94714778D01*
X144514153Y-94691966D01*
X144288375Y-94490741D01*
X144273997Y-94451022D01*
X144245662Y-94380948D01*
X144212414Y-94314045D01*
X144173848Y-94249707D01*
X144129555Y-94187324D01*
X144079130Y-94126287D01*
X144022165Y-94065990D01*
X144005776Y-94049917D01*
X143938462Y-93989739D01*
X143865870Y-93934059D01*
X143788266Y-93883010D01*
X143705914Y-93836722D01*
X143619079Y-93795330D01*
X143528026Y-93758964D01*
X143433021Y-93727758D01*
X143334329Y-93701842D01*
X143288250Y-93691834D01*
X143243853Y-93683197D01*
X143204131Y-93676427D01*
X143167021Y-93671295D01*
X143130460Y-93667572D01*
X143092386Y-93665029D01*
X143050735Y-93663439D01*
X143027194Y-93662916D01*
X142980426Y-93662493D01*
X142938969Y-93663103D01*
X142938969Y-93663103D01*
G37*
X142938969Y-93663103D02*
X142901134Y-93664878D01*
X142865237Y-93667950D01*
X142829588Y-93672451D01*
X142792501Y-93678512D01*
X142767463Y-93683226D01*
X142730495Y-93690873D01*
X142695230Y-93699056D01*
X142660622Y-93708108D01*
X142625624Y-93718364D01*
X142589191Y-93730156D01*
X142550278Y-93743818D01*
X142507839Y-93759684D01*
X142460827Y-93778088D01*
X142425263Y-93792406D01*
X142378042Y-93811805D01*
X142330102Y-93831943D01*
X142281041Y-93853011D01*
X142230453Y-93875199D01*
X142177934Y-93898695D01*
X142123079Y-93923689D01*
X142065486Y-93950372D01*
X142004749Y-93978932D01*
X141940464Y-94009559D01*
X141872227Y-94042442D01*
X141799635Y-94077772D01*
X141722281Y-94115737D01*
X141639764Y-94156528D01*
X141551677Y-94200333D01*
X141493915Y-94229177D01*
X141412201Y-94269964D01*
X141336268Y-94307698D01*
X141265642Y-94342596D01*
X141199851Y-94374875D01*
X141138423Y-94404752D01*
X141080885Y-94432444D01*
X141026765Y-94458167D01*
X140975591Y-94482138D01*
X140926889Y-94504575D01*
X140880189Y-94525695D01*
X140835018Y-94545714D01*
X140790903Y-94564848D01*
X140747371Y-94583316D01*
X140703951Y-94601334D01*
X140660171Y-94619119D01*
X140615557Y-94636888D01*
X140569637Y-94654857D01*
X140552458Y-94661509D01*
X140528476Y-94670793D01*
X140506212Y-94679455D01*
X140486652Y-94687109D01*
X140470781Y-94693366D01*
X140459586Y-94697840D01*
X140454216Y-94700070D01*
X140444168Y-94704573D01*
X140459302Y-94723849D01*
X140471111Y-94737902D01*
X140487080Y-94755482D01*
X140506079Y-94775449D01*
X140526977Y-94796663D01*
X140548643Y-94817986D01*
X140569945Y-94838277D01*
X140589754Y-94856397D01*
X140598319Y-94863920D01*
X140673898Y-94925039D01*
X140755648Y-94983238D01*
X140843253Y-95038375D01*
X140936399Y-95090306D01*
X141034769Y-95138886D01*
X141138048Y-95183973D01*
X141245921Y-95225422D01*
X141358072Y-95263091D01*
X141474186Y-95296835D01*
X141593946Y-95326510D01*
X141633722Y-95335281D01*
X141692747Y-95347567D01*
X141746586Y-95358013D01*
X141796795Y-95366877D01*
X141844926Y-95374413D01*
X141892531Y-95380877D01*
X141941165Y-95386526D01*
X141951222Y-95387588D01*
X141971268Y-95389185D01*
X141996488Y-95390438D01*
X142025561Y-95391348D01*
X142057167Y-95391913D01*
X142089986Y-95392134D01*
X142122697Y-95392011D01*
X142153980Y-95391543D01*
X142182515Y-95390730D01*
X142206981Y-95389572D01*
X142226059Y-95388069D01*
X142229917Y-95387629D01*
X142300413Y-95376359D01*
X142365332Y-95360777D01*
X142424686Y-95340875D01*
X142478489Y-95316642D01*
X142526754Y-95288071D01*
X142569494Y-95255152D01*
X142606725Y-95217875D01*
X142638458Y-95176233D01*
X142664708Y-95130216D01*
X142684186Y-95083556D01*
X142693436Y-95055336D01*
X142700050Y-95029790D01*
X142704389Y-95004670D01*
X142706811Y-94977726D01*
X142707677Y-94946710D01*
X142707689Y-94936690D01*
X142707494Y-94879783D01*
X142730459Y-94877430D01*
X142753423Y-94875078D01*
X142803181Y-94909010D01*
X142802739Y-94958359D01*
X142798754Y-95016590D01*
X142787973Y-95073341D01*
X142770573Y-95128195D01*
X142746733Y-95180732D01*
X142716631Y-95230536D01*
X142680446Y-95277188D01*
X142655226Y-95304155D01*
X142614590Y-95341000D01*
X142570860Y-95373371D01*
X142523528Y-95401491D01*
X142472089Y-95425584D01*
X142416034Y-95445873D01*
X142354857Y-95462584D01*
X142288052Y-95475938D01*
X142254611Y-95481113D01*
X142233545Y-95483389D01*
X142206697Y-95485185D01*
X142175325Y-95486500D01*
X142140685Y-95487334D01*
X142104034Y-95487688D01*
X142066631Y-95487562D01*
X142029731Y-95486956D01*
X141994593Y-95485870D01*
X141962474Y-95484303D01*
X141934630Y-95482257D01*
X141923000Y-95481088D01*
X141808753Y-95465915D01*
X141693621Y-95446055D01*
X141578476Y-95421770D01*
X141464191Y-95393321D01*
X141351641Y-95360969D01*
X141241697Y-95324975D01*
X141135234Y-95285600D01*
X141033124Y-95243106D01*
X140936240Y-95197754D01*
X140881392Y-95169498D01*
X140798282Y-95122751D01*
X140719342Y-95073631D01*
X140645019Y-95022487D01*
X140575759Y-94969668D01*
X140512007Y-94915522D01*
X140454209Y-94860397D01*
X140402812Y-94804643D01*
X140381120Y-94778480D01*
X140366411Y-94760572D01*
X140355353Y-94748259D01*
X140347679Y-94741267D01*
X140343122Y-94739322D01*
X140342894Y-94739373D01*
X140328318Y-94743012D01*
X140307871Y-94747139D01*
X140282704Y-94751588D01*
X140253971Y-94756193D01*
X140222826Y-94760787D01*
X140190421Y-94765204D01*
X140157909Y-94769276D01*
X140126444Y-94772837D01*
X140097179Y-94775720D01*
X140083264Y-94776893D01*
X140053004Y-94778630D01*
X140019491Y-94779311D01*
X139982279Y-94778909D01*
X139940925Y-94777398D01*
X139894983Y-94774750D01*
X139844009Y-94770938D01*
X139787559Y-94765937D01*
X139725188Y-94759719D01*
X139656452Y-94752256D01*
X139635236Y-94749853D01*
X139537304Y-94738039D01*
X139432890Y-94724253D01*
X139322274Y-94708544D01*
X139205733Y-94690962D01*
X139083546Y-94671559D01*
X138955989Y-94650386D01*
X138823343Y-94627492D01*
X138685883Y-94602928D01*
X138543890Y-94576746D01*
X138397640Y-94548995D01*
X138247412Y-94519727D01*
X138093483Y-94488991D01*
X137936133Y-94456840D01*
X137775639Y-94423322D01*
X137612279Y-94388489D01*
X137446331Y-94352392D01*
X137418028Y-94346166D01*
X137386495Y-94339268D01*
X137356427Y-94332787D01*
X137328674Y-94326899D01*
X137304087Y-94321780D01*
X137283516Y-94317607D01*
X137267814Y-94314556D01*
X137257830Y-94312804D01*
X137255750Y-94312520D01*
X137228371Y-94312603D01*
X137199403Y-94318198D01*
X137170663Y-94328640D01*
X137143968Y-94343263D01*
X137121137Y-94361400D01*
X137120423Y-94362097D01*
X137109666Y-94374458D01*
X137096441Y-94392584D01*
X137081127Y-94415782D01*
X137064102Y-94443362D01*
X137045747Y-94474633D01*
X137026438Y-94508902D01*
X137006556Y-94545479D01*
X136986479Y-94583671D01*
X136966585Y-94622789D01*
X136947253Y-94662139D01*
X136928863Y-94701031D01*
X136911792Y-94738774D01*
X136903062Y-94758888D01*
X136875582Y-94827828D01*
X136853705Y-94892753D01*
X136837436Y-94953631D01*
X136826780Y-95010428D01*
X136821742Y-95063112D01*
X136822326Y-95111650D01*
X136828538Y-95156008D01*
X136839697Y-95194355D01*
X136849279Y-95214617D01*
X136862842Y-95236530D01*
X136878641Y-95257628D01*
X136894928Y-95275441D01*
X136900911Y-95280860D01*
X136916300Y-95292771D01*
X136932919Y-95303287D01*
X136951311Y-95312518D01*
X136972022Y-95320574D01*
X136995594Y-95327565D01*
X137022573Y-95333602D01*
X137053502Y-95338794D01*
X137088926Y-95343252D01*
X137129388Y-95347086D01*
X137175433Y-95350405D01*
X137227604Y-95353321D01*
X137268097Y-95355182D01*
X137287868Y-95355961D01*
X137313696Y-95356876D01*
X137344584Y-95357897D01*
X137379536Y-95358994D01*
X137417554Y-95360137D01*
X137457643Y-95361294D01*
X137498805Y-95362437D01*
X137540044Y-95363534D01*
X137560903Y-95364070D01*
X137666868Y-95366865D01*
X137766377Y-95369728D01*
X137860029Y-95372688D01*
X137948424Y-95375774D01*
X138032160Y-95379016D01*
X138111838Y-95382444D01*
X138188056Y-95386086D01*
X138261413Y-95389972D01*
X138332509Y-95394132D01*
X138401944Y-95398595D01*
X138470317Y-95403390D01*
X138538226Y-95408548D01*
X138606271Y-95414096D01*
X138642167Y-95417168D01*
X138794575Y-95431484D01*
X138941084Y-95447501D01*
X139082686Y-95465426D01*
X139220371Y-95485462D01*
X139355131Y-95507813D01*
X139487958Y-95532686D01*
X139619844Y-95560283D01*
X139751779Y-95590811D01*
X139884756Y-95624473D01*
X140019766Y-95661474D01*
X140157801Y-95702018D01*
X140299851Y-95746311D01*
X140407819Y-95781516D01*
X140464471Y-95800415D01*
X140516899Y-95818181D01*
X140565676Y-95835079D01*
X140611373Y-95851377D01*
X140654563Y-95867340D01*
X140695816Y-95883235D01*
X140735705Y-95899327D01*
X140774801Y-95915884D01*
X140813675Y-95933170D01*
X140852901Y-95951452D01*
X140893048Y-95970997D01*
X140934690Y-95992071D01*
X140978398Y-96014939D01*
X141024743Y-96039869D01*
X141074297Y-96067125D01*
X141127632Y-96096975D01*
X141185320Y-96129684D01*
X141247932Y-96165519D01*
X141312694Y-96202815D01*
X141362887Y-96231743D01*
X141407657Y-96257450D01*
X141447661Y-96280298D01*
X141483555Y-96300648D01*
X141515994Y-96318863D01*
X141545635Y-96335303D01*
X141573134Y-96350330D01*
X141599147Y-96364307D01*
X141624330Y-96377594D01*
X141649338Y-96390554D01*
X141674828Y-96403549D01*
X141697222Y-96414820D01*
X141762539Y-96446741D01*
X141823326Y-96474702D01*
X141880631Y-96499064D01*
X141935499Y-96520188D01*
X141988978Y-96538436D01*
X142042115Y-96554169D01*
X142095957Y-96567748D01*
X142151551Y-96579537D01*
X142199025Y-96588094D01*
X142258301Y-96597475D01*
X142312886Y-96604849D01*
X142364804Y-96610377D01*
X142416074Y-96614223D01*
X142468721Y-96616550D01*
X142524766Y-96617522D01*
X142563292Y-96617509D01*
X142589880Y-96617309D01*
X142614924Y-96617051D01*
X142637330Y-96616751D01*
X142656003Y-96616426D01*
X142669851Y-96616092D01*
X142677777Y-96615767D01*
X142677944Y-96615755D01*
X142768991Y-96606740D01*
X142858800Y-96593096D01*
X142946515Y-96575042D01*
X143031282Y-96552798D01*
X143112244Y-96526583D01*
X143188545Y-96496619D01*
X143246209Y-96469817D01*
X143332043Y-96422919D01*
X143415670Y-96369377D01*
X143497012Y-96309273D01*
X143575994Y-96242690D01*
X143652539Y-96169708D01*
X143726571Y-96090411D01*
X143798015Y-96004879D01*
X143866793Y-95913196D01*
X143932829Y-95815442D01*
X143996048Y-95711701D01*
X144056373Y-95602053D01*
X144060700Y-95593746D01*
X144097707Y-95518734D01*
X144132221Y-95440989D01*
X144164600Y-95359580D01*
X144195202Y-95273574D01*
X144224388Y-95182039D01*
X144240890Y-95125758D01*
X144248457Y-95099169D01*
X144494194Y-95000044D01*
X144533671Y-94984069D01*
X144571187Y-94968791D01*
X144606234Y-94954422D01*
X144638306Y-94941173D01*
X144666898Y-94929257D01*
X144691502Y-94918887D01*
X144711612Y-94910274D01*
X144726722Y-94903630D01*
X144736326Y-94899168D01*
X144739917Y-94897101D01*
X144739931Y-94897055D01*
X144737356Y-94894178D01*
X144729885Y-94886965D01*
X144717902Y-94875762D01*
X144701787Y-94860917D01*
X144681922Y-94842776D01*
X144658690Y-94821686D01*
X144632471Y-94797994D01*
X144603649Y-94772048D01*
X144572605Y-94744193D01*
X144539720Y-94714778D01*
X144514153Y-94691966D01*
X144288375Y-94490741D01*
X144273997Y-94451022D01*
X144245662Y-94380948D01*
X144212414Y-94314045D01*
X144173848Y-94249707D01*
X144129555Y-94187324D01*
X144079130Y-94126287D01*
X144022165Y-94065990D01*
X144005776Y-94049917D01*
X143938462Y-93989739D01*
X143865870Y-93934059D01*
X143788266Y-93883010D01*
X143705914Y-93836722D01*
X143619079Y-93795330D01*
X143528026Y-93758964D01*
X143433021Y-93727758D01*
X143334329Y-93701842D01*
X143288250Y-93691834D01*
X143243853Y-93683197D01*
X143204131Y-93676427D01*
X143167021Y-93671295D01*
X143130460Y-93667572D01*
X143092386Y-93665029D01*
X143050735Y-93663439D01*
X143027194Y-93662916D01*
X142980426Y-93662493D01*
X142938969Y-93663103D01*
D12*
X161005000Y-115800000D03*
X158295000Y-115800000D03*
X161005000Y-100200000D03*
X158295000Y-100200000D03*
X161005000Y-115400000D03*
X161005000Y-115000000D03*
X161005000Y-114600000D03*
X161005000Y-114200000D03*
X161005000Y-113800000D03*
X161005000Y-113400000D03*
X161005000Y-113000000D03*
X161005000Y-112600000D03*
X161005000Y-112200000D03*
X161005000Y-111800000D03*
X161005000Y-111400000D03*
X161005000Y-111000000D03*
X161005000Y-110600000D03*
X161005000Y-110200000D03*
X161005000Y-109800000D03*
X161005000Y-109400000D03*
X161005000Y-109000000D03*
X161005000Y-108600000D03*
X161005000Y-108200000D03*
X161005000Y-107800000D03*
X161005000Y-107400000D03*
X161005000Y-107000000D03*
X161005000Y-106600000D03*
X161005000Y-106200000D03*
X161005000Y-105800000D03*
X161005000Y-105400000D03*
X161005000Y-105000000D03*
X161005000Y-104600000D03*
X161005000Y-104200000D03*
X161005000Y-103800000D03*
X161005000Y-103400000D03*
X161005000Y-103000000D03*
X161005000Y-102600000D03*
X161005000Y-102200000D03*
X161005000Y-101800000D03*
X161005000Y-101400000D03*
X161005000Y-101000000D03*
X161005000Y-100600000D03*
D13*
X161005000Y-99725000D03*
X158295000Y-99725000D03*
X161005000Y-116275000D03*
X158295000Y-116275000D03*
D12*
X158295000Y-100600000D03*
X158295000Y-101000000D03*
X158295000Y-101400000D03*
X158295000Y-101800000D03*
X158295000Y-102200000D03*
X158295000Y-102600000D03*
X158295000Y-103000000D03*
X158295000Y-103400000D03*
X158295000Y-103800000D03*
X158295000Y-104200000D03*
X158295000Y-104600000D03*
X158295000Y-105000000D03*
X158295000Y-105400000D03*
X158295000Y-105800000D03*
X158295000Y-106200000D03*
X158295000Y-106600000D03*
X158295000Y-107000000D03*
X158295000Y-107400000D03*
X158295000Y-107800000D03*
X158295000Y-108200000D03*
X158295000Y-108600000D03*
X158295000Y-109000000D03*
X158295000Y-109400000D03*
X158295000Y-109800000D03*
X158295000Y-110200000D03*
X158295000Y-110600000D03*
X158295000Y-111000000D03*
X158295000Y-111400000D03*
X158295000Y-111800000D03*
X158295000Y-112200000D03*
X158295000Y-112600000D03*
X158295000Y-113000000D03*
X158295000Y-113400000D03*
X158295000Y-113800000D03*
X158295000Y-114200000D03*
X158295000Y-114600000D03*
X158295000Y-115000000D03*
X158295000Y-115400000D03*
D14*
X156250000Y-95900000D03*
X158150000Y-95900000D03*
D15*
X158712500Y-92862500D03*
X158712500Y-93362500D03*
X158712500Y-93862500D03*
X158712500Y-94362500D03*
X155812500Y-94362500D03*
X155812500Y-93862500D03*
X155812500Y-93362500D03*
X155812500Y-92862500D03*
D16*
X156825000Y-93975000D03*
X156825000Y-93250000D03*
X157700000Y-93975000D03*
X157700000Y-93250000D03*
D17*
X156550000Y-91200000D03*
X154350000Y-91200000D03*
D18*
X158550000Y-91250000D03*
D19*
X148360000Y-98440000D03*
D20*
X150900000Y-98440000D03*
X148360000Y-100980000D03*
X150900000Y-100980000D03*
X148360000Y-103520000D03*
X150900000Y-103520000D03*
X148360000Y-106060000D03*
X150900000Y-106060000D03*
X148360000Y-108600000D03*
X150900000Y-108600000D03*
X148360000Y-111140000D03*
X150900000Y-111140000D03*
D21*
X150380000Y-121760000D03*
M02*
