G04 #@! TF.FileFunction,Legend,Top*
%FSLAX46Y46*%
G04 Gerber Fmt 4.6, Leading zero omitted, Abs format (unit mm)*
G04 Created by KiCad (PCBNEW 4.0.1-stable) date Friday, February 05, 2016 'PMt' 12:52:55 PM*
%MOMM*%
G01*
G04 APERTURE LIST*
%ADD10C,0.100000*%
%ADD11C,0.150000*%
%ADD12C,0.300000*%
%ADD13C,0.200000*%
%ADD14C,0.010000*%
G04 APERTURE END LIST*
D10*
D11*
X148377381Y-124085714D02*
X147377381Y-124085714D01*
X148377381Y-123514285D01*
X147377381Y-123514285D01*
X148282143Y-122466666D02*
X148329762Y-122514285D01*
X148377381Y-122657142D01*
X148377381Y-122752380D01*
X148329762Y-122895238D01*
X148234524Y-122990476D01*
X148139286Y-123038095D01*
X147948810Y-123085714D01*
X147805952Y-123085714D01*
X147615476Y-123038095D01*
X147520238Y-122990476D01*
X147425000Y-122895238D01*
X147377381Y-122752380D01*
X147377381Y-122657142D01*
X147425000Y-122514285D01*
X147472619Y-122466666D01*
X145491667Y-123538095D02*
X145491667Y-123061904D01*
X145777381Y-123633333D02*
X144777381Y-123300000D01*
X145777381Y-122966666D01*
X142250000Y-123038095D02*
X142202381Y-123133333D01*
X142202381Y-123276190D01*
X142250000Y-123419048D01*
X142345238Y-123514286D01*
X142440476Y-123561905D01*
X142630952Y-123609524D01*
X142773810Y-123609524D01*
X142964286Y-123561905D01*
X143059524Y-123514286D01*
X143154762Y-123419048D01*
X143202381Y-123276190D01*
X143202381Y-123180952D01*
X143154762Y-123038095D01*
X143107143Y-122990476D01*
X142773810Y-122990476D01*
X142773810Y-123180952D01*
X150927381Y-123466666D02*
X150451190Y-123800000D01*
X150927381Y-124038095D02*
X149927381Y-124038095D01*
X149927381Y-123657142D01*
X149975000Y-123561904D01*
X150022619Y-123514285D01*
X150117857Y-123466666D01*
X150260714Y-123466666D01*
X150355952Y-123514285D01*
X150403571Y-123561904D01*
X150451190Y-123657142D01*
X150451190Y-124038095D01*
X149927381Y-123133333D02*
X150927381Y-122466666D01*
X149927381Y-122466666D02*
X150927381Y-123133333D01*
X145721429Y-91003571D02*
X145864286Y-91051190D01*
X145911905Y-91098810D01*
X145959524Y-91194048D01*
X145959524Y-91336905D01*
X145911905Y-91432143D01*
X145864286Y-91479762D01*
X145769048Y-91527381D01*
X145388095Y-91527381D01*
X145388095Y-90527381D01*
X145721429Y-90527381D01*
X145816667Y-90575000D01*
X145864286Y-90622619D01*
X145911905Y-90717857D01*
X145911905Y-90813095D01*
X145864286Y-90908333D01*
X145816667Y-90955952D01*
X145721429Y-91003571D01*
X145388095Y-91003571D01*
X146816667Y-90860714D02*
X146816667Y-91527381D01*
X146388095Y-90860714D02*
X146388095Y-91384524D01*
X146435714Y-91479762D01*
X146530952Y-91527381D01*
X146673810Y-91527381D01*
X146769048Y-91479762D01*
X146816667Y-91432143D01*
X147197619Y-90860714D02*
X147721429Y-90860714D01*
X147197619Y-91527381D01*
X147721429Y-91527381D01*
X148007143Y-90860714D02*
X148530953Y-90860714D01*
X148007143Y-91527381D01*
X148530953Y-91527381D01*
X149292858Y-91479762D02*
X149197620Y-91527381D01*
X149007143Y-91527381D01*
X148911905Y-91479762D01*
X148864286Y-91384524D01*
X148864286Y-91003571D01*
X148911905Y-90908333D01*
X149007143Y-90860714D01*
X149197620Y-90860714D01*
X149292858Y-90908333D01*
X149340477Y-91003571D01*
X149340477Y-91098810D01*
X148864286Y-91194048D01*
X149769048Y-91527381D02*
X149769048Y-90860714D01*
X149769048Y-91051190D02*
X149816667Y-90955952D01*
X149864286Y-90908333D01*
X149959524Y-90860714D01*
X150054763Y-90860714D01*
X142984524Y-94127381D02*
X142508333Y-94127381D01*
X142460714Y-94603571D01*
X142508333Y-94555952D01*
X142603571Y-94508333D01*
X142841667Y-94508333D01*
X142936905Y-94555952D01*
X142984524Y-94603571D01*
X143032143Y-94698810D01*
X143032143Y-94936905D01*
X142984524Y-95032143D01*
X142936905Y-95079762D01*
X142841667Y-95127381D01*
X142603571Y-95127381D01*
X142508333Y-95079762D01*
X142460714Y-95032143D01*
X143317857Y-94127381D02*
X143651190Y-95127381D01*
X143984524Y-94127381D01*
D12*
X143542857Y-91325000D02*
X143400000Y-91253571D01*
X143185714Y-91253571D01*
X142971429Y-91325000D01*
X142828571Y-91467857D01*
X142757143Y-91610714D01*
X142685714Y-91896429D01*
X142685714Y-92110714D01*
X142757143Y-92396429D01*
X142828571Y-92539286D01*
X142971429Y-92682143D01*
X143185714Y-92753571D01*
X143328571Y-92753571D01*
X143542857Y-92682143D01*
X143614286Y-92610714D01*
X143614286Y-92110714D01*
X143328571Y-92110714D01*
D11*
X151364286Y-94696429D02*
X152126191Y-94696429D01*
X151745239Y-95077381D02*
X151745239Y-94315476D01*
X153078572Y-94077381D02*
X152602381Y-94077381D01*
X152554762Y-94553571D01*
X152602381Y-94505952D01*
X152697619Y-94458333D01*
X152935715Y-94458333D01*
X153030953Y-94505952D01*
X153078572Y-94553571D01*
X153126191Y-94648810D01*
X153126191Y-94886905D01*
X153078572Y-94982143D01*
X153030953Y-95029762D01*
X152935715Y-95077381D01*
X152697619Y-95077381D01*
X152602381Y-95029762D01*
X152554762Y-94982143D01*
X153411905Y-94077381D02*
X153745238Y-95077381D01*
X154078572Y-94077381D01*
D12*
X153217857Y-91250000D02*
X153075000Y-91178571D01*
X152860714Y-91178571D01*
X152646429Y-91250000D01*
X152503571Y-91392857D01*
X152432143Y-91535714D01*
X152360714Y-91821429D01*
X152360714Y-92035714D01*
X152432143Y-92321429D01*
X152503571Y-92464286D01*
X152646429Y-92607143D01*
X152860714Y-92678571D01*
X153003571Y-92678571D01*
X153217857Y-92607143D01*
X153289286Y-92535714D01*
X153289286Y-92035714D01*
X153003571Y-92035714D01*
D11*
X158532144Y-117885714D02*
X158532144Y-118552381D01*
X158294048Y-117504762D02*
X158055953Y-118219048D01*
X158675001Y-118219048D01*
X159055953Y-118552381D02*
X159055953Y-117885714D01*
X159055953Y-117980952D02*
X159103572Y-117933333D01*
X159198810Y-117885714D01*
X159341668Y-117885714D01*
X159436906Y-117933333D01*
X159484525Y-118028571D01*
X159484525Y-118552381D01*
X159484525Y-118028571D02*
X159532144Y-117933333D01*
X159627382Y-117885714D01*
X159770239Y-117885714D01*
X159865477Y-117933333D01*
X159913096Y-118028571D01*
X159913096Y-118552381D01*
X160389286Y-118552381D02*
X160389286Y-117885714D01*
X160389286Y-117980952D02*
X160436905Y-117933333D01*
X160532143Y-117885714D01*
X160675001Y-117885714D01*
X160770239Y-117933333D01*
X160817858Y-118028571D01*
X160817858Y-118552381D01*
X160817858Y-118028571D02*
X160865477Y-117933333D01*
X160960715Y-117885714D01*
X161103572Y-117885714D01*
X161198810Y-117933333D01*
X161246429Y-118028571D01*
X161246429Y-118552381D01*
D13*
X138624287Y-125500714D02*
X138510001Y-125557857D01*
X138281430Y-125557857D01*
X138167144Y-125500714D01*
X138110001Y-125443571D01*
X138052858Y-125329286D01*
X138052858Y-124986429D01*
X138110001Y-124872143D01*
X138167144Y-124815000D01*
X138281430Y-124757857D01*
X138510001Y-124757857D01*
X138624287Y-124815000D01*
X139138572Y-125557857D02*
X139138572Y-124357857D01*
X139252858Y-125100714D02*
X139595715Y-125557857D01*
X139595715Y-124757857D02*
X139138572Y-125215000D01*
X140624287Y-125557857D02*
X140624287Y-124357857D01*
X140624287Y-125500714D02*
X140510001Y-125557857D01*
X140281430Y-125557857D01*
X140167144Y-125500714D01*
X140110001Y-125443571D01*
X140052858Y-125329286D01*
X140052858Y-124986429D01*
X140110001Y-124872143D01*
X140167144Y-124815000D01*
X140281430Y-124757857D01*
X140510001Y-124757857D01*
X140624287Y-124815000D01*
X141195715Y-125443571D02*
X141252858Y-125500714D01*
X141195715Y-125557857D01*
X141138572Y-125500714D01*
X141195715Y-125443571D01*
X141195715Y-125557857D01*
X141595716Y-124757857D02*
X142052859Y-124757857D01*
X141767144Y-124357857D02*
X141767144Y-125386429D01*
X141824287Y-125500714D01*
X141938573Y-125557857D01*
X142052859Y-125557857D01*
X142910001Y-125500714D02*
X142795715Y-125557857D01*
X142567144Y-125557857D01*
X142452858Y-125500714D01*
X142395715Y-125386429D01*
X142395715Y-124929286D01*
X142452858Y-124815000D01*
X142567144Y-124757857D01*
X142795715Y-124757857D01*
X142910001Y-124815000D01*
X142967144Y-124929286D01*
X142967144Y-125043571D01*
X142395715Y-125157857D01*
X143995715Y-125500714D02*
X143881429Y-125557857D01*
X143652858Y-125557857D01*
X143538572Y-125500714D01*
X143481429Y-125443571D01*
X143424286Y-125329286D01*
X143424286Y-124986429D01*
X143481429Y-124872143D01*
X143538572Y-124815000D01*
X143652858Y-124757857D01*
X143881429Y-124757857D01*
X143995715Y-124815000D01*
X144510000Y-125557857D02*
X144510000Y-124357857D01*
X145024286Y-125557857D02*
X145024286Y-124929286D01*
X144967143Y-124815000D01*
X144852857Y-124757857D01*
X144681429Y-124757857D01*
X144567143Y-124815000D01*
X144510000Y-124872143D01*
X146452857Y-124300714D02*
X145424286Y-125843571D01*
X147367143Y-125557857D02*
X147367143Y-124357857D01*
X147367143Y-125500714D02*
X147252857Y-125557857D01*
X147024286Y-125557857D01*
X146910000Y-125500714D01*
X146852857Y-125443571D01*
X146795714Y-125329286D01*
X146795714Y-124986429D01*
X146852857Y-124872143D01*
X146910000Y-124815000D01*
X147024286Y-124757857D01*
X147252857Y-124757857D01*
X147367143Y-124815000D01*
X148452857Y-124757857D02*
X148452857Y-125557857D01*
X148167143Y-124300714D02*
X147881428Y-125157857D01*
X148624286Y-125157857D01*
X149081428Y-125557857D02*
X149081428Y-124757857D01*
X149081428Y-124986429D02*
X149138571Y-124872143D01*
X149195714Y-124815000D01*
X149310000Y-124757857D01*
X149424285Y-124757857D01*
X149824285Y-125100714D02*
X150738571Y-125100714D01*
X151309999Y-125557857D02*
X151309999Y-124757857D01*
X151309999Y-124357857D02*
X151252856Y-124415000D01*
X151309999Y-124472143D01*
X151367142Y-124415000D01*
X151309999Y-124357857D01*
X151309999Y-124472143D01*
X151881428Y-125557857D02*
X151881428Y-124757857D01*
X151881428Y-124357857D02*
X151824285Y-124415000D01*
X151881428Y-124472143D01*
X151938571Y-124415000D01*
X151881428Y-124357857D01*
X151881428Y-124472143D01*
X152452857Y-125100714D02*
X153367143Y-125100714D01*
X154452857Y-125500714D02*
X154338571Y-125557857D01*
X154110000Y-125557857D01*
X153995714Y-125500714D01*
X153938571Y-125443571D01*
X153881428Y-125329286D01*
X153881428Y-124986429D01*
X153938571Y-124872143D01*
X153995714Y-124815000D01*
X154110000Y-124757857D01*
X154338571Y-124757857D01*
X154452857Y-124815000D01*
X155824285Y-124300714D02*
X154795714Y-125843571D01*
X156110000Y-124757857D02*
X156395714Y-125557857D01*
X156681428Y-124757857D01*
X157081428Y-124472143D02*
X157138571Y-124415000D01*
X157252857Y-124357857D01*
X157538571Y-124357857D01*
X157652857Y-124415000D01*
X157710000Y-124472143D01*
X157767143Y-124586429D01*
X157767143Y-124700714D01*
X157710000Y-124872143D01*
X157024286Y-125557857D01*
X157767143Y-125557857D01*
D11*
X159109620Y-94920560D02*
X159678580Y-94920560D01*
X159678580Y-94920560D02*
X159678580Y-94509080D01*
X164947700Y-98920560D02*
X165516660Y-98920560D01*
X165516660Y-98920560D02*
X165516660Y-98509080D01*
X159259620Y-97370560D02*
X159828580Y-97370560D01*
X159828580Y-97370560D02*
X159828580Y-96959080D01*
X152170000Y-112410000D02*
X152170000Y-97170000D01*
X147090000Y-99710000D02*
X147090000Y-112410000D01*
X152170000Y-112410000D02*
X147090000Y-112410000D01*
X152170000Y-97170000D02*
X149630000Y-97170000D01*
X148360000Y-96890000D02*
X146810000Y-96890000D01*
X149630000Y-97170000D02*
X149630000Y-99710000D01*
X149630000Y-99710000D02*
X147090000Y-99710000D01*
X146810000Y-96890000D02*
X146810000Y-98440000D01*
X152500000Y-106750000D02*
X152500000Y-108750000D01*
X154550000Y-108750000D02*
X154550000Y-106750000D01*
X139075000Y-90535000D02*
X139075000Y-92085000D01*
X140375000Y-90535000D02*
X139075000Y-90535000D01*
X144566000Y-91958000D02*
X150408000Y-91958000D01*
X150408000Y-91958000D02*
X150408000Y-92212000D01*
X150408000Y-92212000D02*
X144566000Y-92212000D01*
X144566000Y-92212000D02*
X144566000Y-92085000D01*
X144566000Y-92085000D02*
X150408000Y-92085000D01*
X141899000Y-91831000D02*
X141518000Y-91831000D01*
X141899000Y-92339000D02*
X141518000Y-92339000D01*
X141899000Y-94371000D02*
X141518000Y-94371000D01*
X141899000Y-94879000D02*
X141518000Y-94879000D01*
X141899000Y-90815000D02*
X144439000Y-90815000D01*
X141899000Y-93355000D02*
X144439000Y-93355000D01*
X141899000Y-93355000D02*
X141899000Y-95895000D01*
X141899000Y-95895000D02*
X144439000Y-95895000D01*
X144439000Y-94371000D02*
X150535000Y-94371000D01*
X150535000Y-94371000D02*
X150535000Y-94879000D01*
X150535000Y-94879000D02*
X144439000Y-94879000D01*
X144439000Y-95895000D02*
X144439000Y-93355000D01*
X144439000Y-93355000D02*
X144439000Y-90815000D01*
X150535000Y-92339000D02*
X144439000Y-92339000D01*
X150535000Y-91831000D02*
X150535000Y-92339000D01*
X144439000Y-91831000D02*
X150535000Y-91831000D01*
X141899000Y-93355000D02*
X144439000Y-93355000D01*
X141899000Y-90815000D02*
X141899000Y-93355000D01*
X156074660Y-123574820D02*
X155373620Y-123574820D01*
X155373620Y-123574820D02*
X155373620Y-123325900D01*
X155373620Y-120775840D02*
X155373620Y-120575180D01*
X155373620Y-120575180D02*
X156074660Y-120575180D01*
X135850180Y-93375800D02*
X135850180Y-92674760D01*
X135850180Y-92674760D02*
X136099100Y-92674760D01*
X138649160Y-92674760D02*
X138849820Y-92674760D01*
X138849820Y-92674760D02*
X138849820Y-93375800D01*
X153275000Y-119450000D02*
X153275000Y-118450000D01*
X154625000Y-118450000D02*
X154625000Y-119450000D01*
X144070000Y-122270000D02*
X151690000Y-122270000D01*
X144070000Y-119730000D02*
X151690000Y-119730000D01*
X141250000Y-119450000D02*
X142800000Y-119450000D01*
X151690000Y-122270000D02*
X151690000Y-119730000D01*
X144070000Y-119730000D02*
X144070000Y-122270000D01*
X142800000Y-122550000D02*
X141250000Y-122550000D01*
X141250000Y-122550000D02*
X141250000Y-119450000D01*
D14*
G36*
X159986839Y-119166149D02*
X160037956Y-119173165D01*
X160087582Y-119184021D01*
X160132306Y-119197299D01*
X160147582Y-119202477D01*
X160160869Y-119207163D01*
X160170848Y-119210878D01*
X160176200Y-119213144D01*
X160176481Y-119213303D01*
X160177017Y-119214523D01*
X160177171Y-119217504D01*
X160176892Y-119222545D01*
X160176132Y-119229947D01*
X160174843Y-119240011D01*
X160172974Y-119253037D01*
X160170478Y-119269326D01*
X160167306Y-119289178D01*
X160163407Y-119312895D01*
X160158735Y-119340776D01*
X160153238Y-119373122D01*
X160146870Y-119410234D01*
X160139580Y-119452412D01*
X160131320Y-119499958D01*
X160122041Y-119553170D01*
X160111694Y-119612351D01*
X160109415Y-119625374D01*
X160098226Y-119689206D01*
X160088053Y-119747056D01*
X160078824Y-119799279D01*
X160070470Y-119846233D01*
X160062918Y-119888272D01*
X160056099Y-119925753D01*
X160049941Y-119959031D01*
X160044375Y-119988463D01*
X160039328Y-120014405D01*
X160034731Y-120037212D01*
X160030513Y-120057241D01*
X160026603Y-120074847D01*
X160022930Y-120090387D01*
X160019423Y-120104216D01*
X160016012Y-120116690D01*
X160012627Y-120128165D01*
X160009195Y-120138997D01*
X160005647Y-120149543D01*
X160004693Y-120152291D01*
X159983719Y-120204928D01*
X159959362Y-120252135D01*
X159931493Y-120294026D01*
X159899981Y-120330717D01*
X159864697Y-120362325D01*
X159825511Y-120388966D01*
X159782292Y-120410755D01*
X159734912Y-120427808D01*
X159683240Y-120440241D01*
X159681625Y-120440543D01*
X159667803Y-120442425D01*
X159648958Y-120444023D01*
X159626490Y-120445306D01*
X159601802Y-120446241D01*
X159576296Y-120446798D01*
X159551373Y-120446945D01*
X159528435Y-120446651D01*
X159508883Y-120445883D01*
X159495101Y-120444733D01*
X159476766Y-120442169D01*
X159456580Y-120438745D01*
X159435638Y-120434713D01*
X159415033Y-120430321D01*
X159395860Y-120425821D01*
X159379211Y-120421464D01*
X159366181Y-120417499D01*
X159357864Y-120414177D01*
X159355823Y-120412843D01*
X159355524Y-120409106D01*
X159356212Y-120400486D01*
X159357673Y-120388419D01*
X159359690Y-120374339D01*
X159362050Y-120359683D01*
X159364537Y-120345883D01*
X159366936Y-120334377D01*
X159368486Y-120328323D01*
X159369317Y-120326799D01*
X159371247Y-120325576D01*
X159374920Y-120324622D01*
X159380979Y-120323903D01*
X159390069Y-120323385D01*
X159402834Y-120323037D01*
X159419917Y-120322825D01*
X159441962Y-120322715D01*
X159469614Y-120322675D01*
X159478438Y-120322672D01*
X159505208Y-120322570D01*
X159530783Y-120322293D01*
X159554230Y-120321864D01*
X159574614Y-120321306D01*
X159591001Y-120320645D01*
X159602456Y-120319902D01*
X159606596Y-120319424D01*
X159644380Y-120310367D01*
X159678488Y-120296050D01*
X159708936Y-120276459D01*
X159735742Y-120251579D01*
X159758921Y-120221397D01*
X159778489Y-120185898D01*
X159787907Y-120163612D01*
X159792045Y-120151757D01*
X159796770Y-120136574D01*
X159801709Y-120119469D01*
X159806488Y-120101850D01*
X159810734Y-120085124D01*
X159814075Y-120070699D01*
X159816137Y-120059980D01*
X159816620Y-120055321D01*
X159815780Y-120053115D01*
X159812601Y-120052959D01*
X159806090Y-120055119D01*
X159795259Y-120059857D01*
X159789400Y-120062578D01*
X159768178Y-120071981D01*
X159749219Y-120078942D01*
X159730847Y-120083797D01*
X159711389Y-120086883D01*
X159689169Y-120088538D01*
X159662515Y-120089096D01*
X159657468Y-120089106D01*
X159635803Y-120088984D01*
X159619105Y-120088531D01*
X159605918Y-120087618D01*
X159594782Y-120086119D01*
X159584237Y-120083905D01*
X159577088Y-120082043D01*
X159541021Y-120069775D01*
X159510152Y-120054112D01*
X159484064Y-120034795D01*
X159462343Y-120011563D01*
X159460828Y-120009589D01*
X159440600Y-119977613D01*
X159424754Y-119940946D01*
X159413291Y-119899605D01*
X159406214Y-119853608D01*
X159403809Y-119808318D01*
X159620187Y-119808318D01*
X159623346Y-119847148D01*
X159629779Y-119880872D01*
X159633470Y-119893468D01*
X159644356Y-119917615D01*
X159659410Y-119936979D01*
X159678355Y-119951425D01*
X159700915Y-119960820D01*
X159726816Y-119965029D01*
X159755781Y-119963918D01*
X159772435Y-119961094D01*
X159785460Y-119957493D01*
X159799689Y-119952216D01*
X159813699Y-119945965D01*
X159826070Y-119939435D01*
X159835378Y-119933327D01*
X159840201Y-119928338D01*
X159840462Y-119927690D01*
X159841251Y-119923743D01*
X159843042Y-119914007D01*
X159845743Y-119899004D01*
X159849264Y-119879255D01*
X159853514Y-119855282D01*
X159858400Y-119827607D01*
X159863834Y-119796750D01*
X159869723Y-119763234D01*
X159875976Y-119727580D01*
X159882503Y-119690310D01*
X159889212Y-119651944D01*
X159896013Y-119613005D01*
X159902814Y-119574014D01*
X159909524Y-119535492D01*
X159916053Y-119497962D01*
X159922310Y-119461944D01*
X159928202Y-119427960D01*
X159933640Y-119396532D01*
X159938533Y-119368180D01*
X159942789Y-119343428D01*
X159946317Y-119322796D01*
X159949026Y-119306805D01*
X159950826Y-119295977D01*
X159951625Y-119290835D01*
X159951658Y-119290502D01*
X159949931Y-119289091D01*
X159944338Y-119288169D01*
X159934265Y-119287711D01*
X159919096Y-119287691D01*
X159898214Y-119288085D01*
X159894588Y-119288177D01*
X159872203Y-119288890D01*
X159854961Y-119289795D01*
X159841576Y-119291031D01*
X159830761Y-119292735D01*
X159821228Y-119295047D01*
X159816138Y-119296604D01*
X159788192Y-119308827D01*
X159762427Y-119326695D01*
X159738793Y-119350284D01*
X159717241Y-119379669D01*
X159697723Y-119414924D01*
X159680190Y-119456125D01*
X159664592Y-119503348D01*
X159652924Y-119547835D01*
X159639960Y-119607802D01*
X159630188Y-119664126D01*
X159623625Y-119716515D01*
X159620285Y-119764677D01*
X159620187Y-119808318D01*
X159403809Y-119808318D01*
X159403525Y-119802973D01*
X159405226Y-119747718D01*
X159411319Y-119687860D01*
X159415091Y-119661975D01*
X159427815Y-119591769D01*
X159442943Y-119527453D01*
X159460517Y-119468934D01*
X159480578Y-119416120D01*
X159503169Y-119368919D01*
X159528332Y-119327240D01*
X159556109Y-119290989D01*
X159586542Y-119260077D01*
X159606121Y-119244032D01*
X159640543Y-119220869D01*
X159676973Y-119201886D01*
X159716091Y-119186879D01*
X159758580Y-119175641D01*
X159805120Y-119167967D01*
X159856394Y-119163651D01*
X159874764Y-119162919D01*
X159932889Y-119162793D01*
X159986839Y-119166149D01*
X159986839Y-119166149D01*
G37*
X159986839Y-119166149D02*
X160037956Y-119173165D01*
X160087582Y-119184021D01*
X160132306Y-119197299D01*
X160147582Y-119202477D01*
X160160869Y-119207163D01*
X160170848Y-119210878D01*
X160176200Y-119213144D01*
X160176481Y-119213303D01*
X160177017Y-119214523D01*
X160177171Y-119217504D01*
X160176892Y-119222545D01*
X160176132Y-119229947D01*
X160174843Y-119240011D01*
X160172974Y-119253037D01*
X160170478Y-119269326D01*
X160167306Y-119289178D01*
X160163407Y-119312895D01*
X160158735Y-119340776D01*
X160153238Y-119373122D01*
X160146870Y-119410234D01*
X160139580Y-119452412D01*
X160131320Y-119499958D01*
X160122041Y-119553170D01*
X160111694Y-119612351D01*
X160109415Y-119625374D01*
X160098226Y-119689206D01*
X160088053Y-119747056D01*
X160078824Y-119799279D01*
X160070470Y-119846233D01*
X160062918Y-119888272D01*
X160056099Y-119925753D01*
X160049941Y-119959031D01*
X160044375Y-119988463D01*
X160039328Y-120014405D01*
X160034731Y-120037212D01*
X160030513Y-120057241D01*
X160026603Y-120074847D01*
X160022930Y-120090387D01*
X160019423Y-120104216D01*
X160016012Y-120116690D01*
X160012627Y-120128165D01*
X160009195Y-120138997D01*
X160005647Y-120149543D01*
X160004693Y-120152291D01*
X159983719Y-120204928D01*
X159959362Y-120252135D01*
X159931493Y-120294026D01*
X159899981Y-120330717D01*
X159864697Y-120362325D01*
X159825511Y-120388966D01*
X159782292Y-120410755D01*
X159734912Y-120427808D01*
X159683240Y-120440241D01*
X159681625Y-120440543D01*
X159667803Y-120442425D01*
X159648958Y-120444023D01*
X159626490Y-120445306D01*
X159601802Y-120446241D01*
X159576296Y-120446798D01*
X159551373Y-120446945D01*
X159528435Y-120446651D01*
X159508883Y-120445883D01*
X159495101Y-120444733D01*
X159476766Y-120442169D01*
X159456580Y-120438745D01*
X159435638Y-120434713D01*
X159415033Y-120430321D01*
X159395860Y-120425821D01*
X159379211Y-120421464D01*
X159366181Y-120417499D01*
X159357864Y-120414177D01*
X159355823Y-120412843D01*
X159355524Y-120409106D01*
X159356212Y-120400486D01*
X159357673Y-120388419D01*
X159359690Y-120374339D01*
X159362050Y-120359683D01*
X159364537Y-120345883D01*
X159366936Y-120334377D01*
X159368486Y-120328323D01*
X159369317Y-120326799D01*
X159371247Y-120325576D01*
X159374920Y-120324622D01*
X159380979Y-120323903D01*
X159390069Y-120323385D01*
X159402834Y-120323037D01*
X159419917Y-120322825D01*
X159441962Y-120322715D01*
X159469614Y-120322675D01*
X159478438Y-120322672D01*
X159505208Y-120322570D01*
X159530783Y-120322293D01*
X159554230Y-120321864D01*
X159574614Y-120321306D01*
X159591001Y-120320645D01*
X159602456Y-120319902D01*
X159606596Y-120319424D01*
X159644380Y-120310367D01*
X159678488Y-120296050D01*
X159708936Y-120276459D01*
X159735742Y-120251579D01*
X159758921Y-120221397D01*
X159778489Y-120185898D01*
X159787907Y-120163612D01*
X159792045Y-120151757D01*
X159796770Y-120136574D01*
X159801709Y-120119469D01*
X159806488Y-120101850D01*
X159810734Y-120085124D01*
X159814075Y-120070699D01*
X159816137Y-120059980D01*
X159816620Y-120055321D01*
X159815780Y-120053115D01*
X159812601Y-120052959D01*
X159806090Y-120055119D01*
X159795259Y-120059857D01*
X159789400Y-120062578D01*
X159768178Y-120071981D01*
X159749219Y-120078942D01*
X159730847Y-120083797D01*
X159711389Y-120086883D01*
X159689169Y-120088538D01*
X159662515Y-120089096D01*
X159657468Y-120089106D01*
X159635803Y-120088984D01*
X159619105Y-120088531D01*
X159605918Y-120087618D01*
X159594782Y-120086119D01*
X159584237Y-120083905D01*
X159577088Y-120082043D01*
X159541021Y-120069775D01*
X159510152Y-120054112D01*
X159484064Y-120034795D01*
X159462343Y-120011563D01*
X159460828Y-120009589D01*
X159440600Y-119977613D01*
X159424754Y-119940946D01*
X159413291Y-119899605D01*
X159406214Y-119853608D01*
X159403809Y-119808318D01*
X159620187Y-119808318D01*
X159623346Y-119847148D01*
X159629779Y-119880872D01*
X159633470Y-119893468D01*
X159644356Y-119917615D01*
X159659410Y-119936979D01*
X159678355Y-119951425D01*
X159700915Y-119960820D01*
X159726816Y-119965029D01*
X159755781Y-119963918D01*
X159772435Y-119961094D01*
X159785460Y-119957493D01*
X159799689Y-119952216D01*
X159813699Y-119945965D01*
X159826070Y-119939435D01*
X159835378Y-119933327D01*
X159840201Y-119928338D01*
X159840462Y-119927690D01*
X159841251Y-119923743D01*
X159843042Y-119914007D01*
X159845743Y-119899004D01*
X159849264Y-119879255D01*
X159853514Y-119855282D01*
X159858400Y-119827607D01*
X159863834Y-119796750D01*
X159869723Y-119763234D01*
X159875976Y-119727580D01*
X159882503Y-119690310D01*
X159889212Y-119651944D01*
X159896013Y-119613005D01*
X159902814Y-119574014D01*
X159909524Y-119535492D01*
X159916053Y-119497962D01*
X159922310Y-119461944D01*
X159928202Y-119427960D01*
X159933640Y-119396532D01*
X159938533Y-119368180D01*
X159942789Y-119343428D01*
X159946317Y-119322796D01*
X159949026Y-119306805D01*
X159950826Y-119295977D01*
X159951625Y-119290835D01*
X159951658Y-119290502D01*
X159949931Y-119289091D01*
X159944338Y-119288169D01*
X159934265Y-119287711D01*
X159919096Y-119287691D01*
X159898214Y-119288085D01*
X159894588Y-119288177D01*
X159872203Y-119288890D01*
X159854961Y-119289795D01*
X159841576Y-119291031D01*
X159830761Y-119292735D01*
X159821228Y-119295047D01*
X159816138Y-119296604D01*
X159788192Y-119308827D01*
X159762427Y-119326695D01*
X159738793Y-119350284D01*
X159717241Y-119379669D01*
X159697723Y-119414924D01*
X159680190Y-119456125D01*
X159664592Y-119503348D01*
X159652924Y-119547835D01*
X159639960Y-119607802D01*
X159630188Y-119664126D01*
X159623625Y-119716515D01*
X159620285Y-119764677D01*
X159620187Y-119808318D01*
X159403809Y-119808318D01*
X159403525Y-119802973D01*
X159405226Y-119747718D01*
X159411319Y-119687860D01*
X159415091Y-119661975D01*
X159427815Y-119591769D01*
X159442943Y-119527453D01*
X159460517Y-119468934D01*
X159480578Y-119416120D01*
X159503169Y-119368919D01*
X159528332Y-119327240D01*
X159556109Y-119290989D01*
X159586542Y-119260077D01*
X159606121Y-119244032D01*
X159640543Y-119220869D01*
X159676973Y-119201886D01*
X159716091Y-119186879D01*
X159758580Y-119175641D01*
X159805120Y-119167967D01*
X159856394Y-119163651D01*
X159874764Y-119162919D01*
X159932889Y-119162793D01*
X159986839Y-119166149D01*
G36*
X161513821Y-118982033D02*
X161537137Y-118982233D01*
X161557574Y-118982546D01*
X161574371Y-118982954D01*
X161586765Y-118983441D01*
X161593992Y-118983988D01*
X161595561Y-118984373D01*
X161595279Y-118987853D01*
X161594027Y-118996766D01*
X161591956Y-119010216D01*
X161589217Y-119027303D01*
X161585962Y-119047130D01*
X161582342Y-119068798D01*
X161578508Y-119091411D01*
X161574612Y-119114069D01*
X161570804Y-119135876D01*
X161567237Y-119155932D01*
X161564061Y-119173339D01*
X161561427Y-119187201D01*
X161561164Y-119188538D01*
X161559414Y-119197380D01*
X161801196Y-119197380D01*
X161799221Y-119207257D01*
X161797903Y-119214219D01*
X161795770Y-119225893D01*
X161793118Y-119240656D01*
X161790238Y-119256886D01*
X161790213Y-119257029D01*
X161783180Y-119296925D01*
X161765337Y-119302112D01*
X161727499Y-119311693D01*
X161685541Y-119319833D01*
X161641677Y-119326181D01*
X161598125Y-119330388D01*
X161579284Y-119331486D01*
X161561966Y-119332333D01*
X161550025Y-119333170D01*
X161542410Y-119334204D01*
X161538072Y-119335640D01*
X161535960Y-119337684D01*
X161535108Y-119340151D01*
X161534311Y-119344357D01*
X161532487Y-119354378D01*
X161529726Y-119369697D01*
X161526123Y-119389797D01*
X161521769Y-119414161D01*
X161516757Y-119442271D01*
X161511179Y-119473612D01*
X161505126Y-119507665D01*
X161498693Y-119543914D01*
X161492868Y-119576772D01*
X161485024Y-119621114D01*
X161478246Y-119659638D01*
X161472456Y-119692852D01*
X161467576Y-119721268D01*
X161463530Y-119745394D01*
X161460238Y-119765740D01*
X161457626Y-119782815D01*
X161455614Y-119797129D01*
X161454125Y-119809192D01*
X161453082Y-119819514D01*
X161452408Y-119828603D01*
X161452025Y-119836970D01*
X161451856Y-119845124D01*
X161451841Y-119846848D01*
X161452277Y-119871917D01*
X161454253Y-119891924D01*
X161458149Y-119908132D01*
X161464346Y-119921806D01*
X161473225Y-119934208D01*
X161480533Y-119942104D01*
X161487196Y-119948468D01*
X161493688Y-119953582D01*
X161500785Y-119957582D01*
X161509260Y-119960603D01*
X161519889Y-119962782D01*
X161533448Y-119964255D01*
X161550712Y-119965157D01*
X161572456Y-119965625D01*
X161599454Y-119965795D01*
X161615677Y-119965810D01*
X161638303Y-119965839D01*
X161658661Y-119965921D01*
X161675914Y-119966048D01*
X161689227Y-119966212D01*
X161697761Y-119966405D01*
X161700684Y-119966614D01*
X161699804Y-119974185D01*
X161697853Y-119985586D01*
X161695141Y-119999416D01*
X161691979Y-120014276D01*
X161688678Y-120028766D01*
X161685550Y-120041486D01*
X161682904Y-120051034D01*
X161681053Y-120056012D01*
X161680751Y-120056379D01*
X161673987Y-120059417D01*
X161662408Y-120063257D01*
X161647513Y-120067485D01*
X161630799Y-120071685D01*
X161613767Y-120075443D01*
X161607481Y-120076676D01*
X161568765Y-120082903D01*
X161529110Y-120087312D01*
X161489966Y-120089839D01*
X161452783Y-120090418D01*
X161419011Y-120088985D01*
X161394578Y-120086215D01*
X161358096Y-120078444D01*
X161326835Y-120067201D01*
X161300477Y-120052279D01*
X161278705Y-120033472D01*
X161261199Y-120010572D01*
X161252117Y-119993736D01*
X161241019Y-119963328D01*
X161234016Y-119928532D01*
X161231171Y-119889977D01*
X161232553Y-119848288D01*
X161234676Y-119827825D01*
X161235660Y-119821219D01*
X161237639Y-119808998D01*
X161240505Y-119791786D01*
X161244149Y-119770207D01*
X161248462Y-119744884D01*
X161253336Y-119716443D01*
X161258662Y-119685506D01*
X161264331Y-119652698D01*
X161270235Y-119618643D01*
X161276264Y-119583966D01*
X161282311Y-119549289D01*
X161288266Y-119515237D01*
X161294021Y-119482435D01*
X161299467Y-119451506D01*
X161304496Y-119423073D01*
X161308998Y-119397762D01*
X161312866Y-119376197D01*
X161315990Y-119359000D01*
X161318262Y-119346797D01*
X161319572Y-119340211D01*
X161319682Y-119339734D01*
X161320171Y-119337010D01*
X161319498Y-119335065D01*
X161316749Y-119333743D01*
X161311010Y-119332890D01*
X161301364Y-119332351D01*
X161286898Y-119331972D01*
X161272142Y-119331696D01*
X161222873Y-119330810D01*
X161234322Y-119264899D01*
X161245772Y-119198987D01*
X161294763Y-119198100D01*
X161313468Y-119197725D01*
X161326725Y-119197284D01*
X161335517Y-119196620D01*
X161340826Y-119195578D01*
X161343635Y-119194002D01*
X161344926Y-119191735D01*
X161345362Y-119190062D01*
X161346305Y-119185149D01*
X161348184Y-119174763D01*
X161350848Y-119159767D01*
X161354143Y-119141026D01*
X161357917Y-119119403D01*
X161362017Y-119095763D01*
X161363070Y-119089671D01*
X161367231Y-119065658D01*
X161371108Y-119043443D01*
X161374548Y-119023891D01*
X161377397Y-119007867D01*
X161379503Y-118996236D01*
X161380712Y-118989863D01*
X161380856Y-118989196D01*
X161382540Y-118981962D01*
X161488390Y-118981962D01*
X161513821Y-118982033D01*
X161513821Y-118982033D01*
G37*
X161513821Y-118982033D02*
X161537137Y-118982233D01*
X161557574Y-118982546D01*
X161574371Y-118982954D01*
X161586765Y-118983441D01*
X161593992Y-118983988D01*
X161595561Y-118984373D01*
X161595279Y-118987853D01*
X161594027Y-118996766D01*
X161591956Y-119010216D01*
X161589217Y-119027303D01*
X161585962Y-119047130D01*
X161582342Y-119068798D01*
X161578508Y-119091411D01*
X161574612Y-119114069D01*
X161570804Y-119135876D01*
X161567237Y-119155932D01*
X161564061Y-119173339D01*
X161561427Y-119187201D01*
X161561164Y-119188538D01*
X161559414Y-119197380D01*
X161801196Y-119197380D01*
X161799221Y-119207257D01*
X161797903Y-119214219D01*
X161795770Y-119225893D01*
X161793118Y-119240656D01*
X161790238Y-119256886D01*
X161790213Y-119257029D01*
X161783180Y-119296925D01*
X161765337Y-119302112D01*
X161727499Y-119311693D01*
X161685541Y-119319833D01*
X161641677Y-119326181D01*
X161598125Y-119330388D01*
X161579284Y-119331486D01*
X161561966Y-119332333D01*
X161550025Y-119333170D01*
X161542410Y-119334204D01*
X161538072Y-119335640D01*
X161535960Y-119337684D01*
X161535108Y-119340151D01*
X161534311Y-119344357D01*
X161532487Y-119354378D01*
X161529726Y-119369697D01*
X161526123Y-119389797D01*
X161521769Y-119414161D01*
X161516757Y-119442271D01*
X161511179Y-119473612D01*
X161505126Y-119507665D01*
X161498693Y-119543914D01*
X161492868Y-119576772D01*
X161485024Y-119621114D01*
X161478246Y-119659638D01*
X161472456Y-119692852D01*
X161467576Y-119721268D01*
X161463530Y-119745394D01*
X161460238Y-119765740D01*
X161457626Y-119782815D01*
X161455614Y-119797129D01*
X161454125Y-119809192D01*
X161453082Y-119819514D01*
X161452408Y-119828603D01*
X161452025Y-119836970D01*
X161451856Y-119845124D01*
X161451841Y-119846848D01*
X161452277Y-119871917D01*
X161454253Y-119891924D01*
X161458149Y-119908132D01*
X161464346Y-119921806D01*
X161473225Y-119934208D01*
X161480533Y-119942104D01*
X161487196Y-119948468D01*
X161493688Y-119953582D01*
X161500785Y-119957582D01*
X161509260Y-119960603D01*
X161519889Y-119962782D01*
X161533448Y-119964255D01*
X161550712Y-119965157D01*
X161572456Y-119965625D01*
X161599454Y-119965795D01*
X161615677Y-119965810D01*
X161638303Y-119965839D01*
X161658661Y-119965921D01*
X161675914Y-119966048D01*
X161689227Y-119966212D01*
X161697761Y-119966405D01*
X161700684Y-119966614D01*
X161699804Y-119974185D01*
X161697853Y-119985586D01*
X161695141Y-119999416D01*
X161691979Y-120014276D01*
X161688678Y-120028766D01*
X161685550Y-120041486D01*
X161682904Y-120051034D01*
X161681053Y-120056012D01*
X161680751Y-120056379D01*
X161673987Y-120059417D01*
X161662408Y-120063257D01*
X161647513Y-120067485D01*
X161630799Y-120071685D01*
X161613767Y-120075443D01*
X161607481Y-120076676D01*
X161568765Y-120082903D01*
X161529110Y-120087312D01*
X161489966Y-120089839D01*
X161452783Y-120090418D01*
X161419011Y-120088985D01*
X161394578Y-120086215D01*
X161358096Y-120078444D01*
X161326835Y-120067201D01*
X161300477Y-120052279D01*
X161278705Y-120033472D01*
X161261199Y-120010572D01*
X161252117Y-119993736D01*
X161241019Y-119963328D01*
X161234016Y-119928532D01*
X161231171Y-119889977D01*
X161232553Y-119848288D01*
X161234676Y-119827825D01*
X161235660Y-119821219D01*
X161237639Y-119808998D01*
X161240505Y-119791786D01*
X161244149Y-119770207D01*
X161248462Y-119744884D01*
X161253336Y-119716443D01*
X161258662Y-119685506D01*
X161264331Y-119652698D01*
X161270235Y-119618643D01*
X161276264Y-119583966D01*
X161282311Y-119549289D01*
X161288266Y-119515237D01*
X161294021Y-119482435D01*
X161299467Y-119451506D01*
X161304496Y-119423073D01*
X161308998Y-119397762D01*
X161312866Y-119376197D01*
X161315990Y-119359000D01*
X161318262Y-119346797D01*
X161319572Y-119340211D01*
X161319682Y-119339734D01*
X161320171Y-119337010D01*
X161319498Y-119335065D01*
X161316749Y-119333743D01*
X161311010Y-119332890D01*
X161301364Y-119332351D01*
X161286898Y-119331972D01*
X161272142Y-119331696D01*
X161222873Y-119330810D01*
X161234322Y-119264899D01*
X161245772Y-119198987D01*
X161294763Y-119198100D01*
X161313468Y-119197725D01*
X161326725Y-119197284D01*
X161335517Y-119196620D01*
X161340826Y-119195578D01*
X161343635Y-119194002D01*
X161344926Y-119191735D01*
X161345362Y-119190062D01*
X161346305Y-119185149D01*
X161348184Y-119174763D01*
X161350848Y-119159767D01*
X161354143Y-119141026D01*
X161357917Y-119119403D01*
X161362017Y-119095763D01*
X161363070Y-119089671D01*
X161367231Y-119065658D01*
X161371108Y-119043443D01*
X161374548Y-119023891D01*
X161377397Y-119007867D01*
X161379503Y-118996236D01*
X161380712Y-118989863D01*
X161380856Y-118989196D01*
X161382540Y-118981962D01*
X161488390Y-118981962D01*
X161513821Y-118982033D01*
G36*
X162407081Y-118806424D02*
X162444792Y-118808269D01*
X162481605Y-118811106D01*
X162516316Y-118814915D01*
X162530240Y-118816840D01*
X162547870Y-118819754D01*
X162566319Y-118823323D01*
X162584366Y-118827250D01*
X162600789Y-118831243D01*
X162614367Y-118835006D01*
X162623879Y-118838245D01*
X162627877Y-118840388D01*
X162628420Y-118844479D01*
X162627877Y-118853637D01*
X162626422Y-118866624D01*
X162624231Y-118882200D01*
X162621479Y-118899129D01*
X162618341Y-118916170D01*
X162614992Y-118932087D01*
X162614799Y-118932930D01*
X162613138Y-118940164D01*
X162475516Y-118940164D01*
X162438249Y-118940211D01*
X162406737Y-118940388D01*
X162380303Y-118940754D01*
X162358275Y-118941363D01*
X162339975Y-118942274D01*
X162324729Y-118943543D01*
X162311861Y-118945227D01*
X162300697Y-118947383D01*
X162290560Y-118950067D01*
X162280777Y-118953336D01*
X162270671Y-118957247D01*
X162270224Y-118957428D01*
X162238639Y-118973553D01*
X162211255Y-118994508D01*
X162188131Y-119020207D01*
X162169324Y-119050563D01*
X162154893Y-119085490D01*
X162144895Y-119124902D01*
X162141072Y-119150460D01*
X162139596Y-119181517D01*
X162142972Y-119209457D01*
X162151555Y-119235297D01*
X162165702Y-119260054D01*
X162185770Y-119284744D01*
X162189549Y-119288750D01*
X162201731Y-119300889D01*
X162214163Y-119311975D01*
X162227677Y-119322558D01*
X162243107Y-119333188D01*
X162261287Y-119344415D01*
X162283049Y-119356790D01*
X162309228Y-119370862D01*
X162331651Y-119382546D01*
X162362654Y-119398951D01*
X162388710Y-119413726D01*
X162410860Y-119427592D01*
X162430144Y-119441271D01*
X162447600Y-119455483D01*
X162464269Y-119470949D01*
X162475376Y-119482228D01*
X162501425Y-119513469D01*
X162521985Y-119547243D01*
X162537714Y-119584672D01*
X162540387Y-119592848D01*
X162543184Y-119602415D01*
X162545188Y-119611315D01*
X162546523Y-119620897D01*
X162547309Y-119632512D01*
X162547672Y-119647509D01*
X162547735Y-119667239D01*
X162547717Y-119673228D01*
X162547451Y-119696936D01*
X162546759Y-119715886D01*
X162545505Y-119731740D01*
X162543553Y-119746163D01*
X162540768Y-119760819D01*
X162540462Y-119762251D01*
X162526615Y-119813585D01*
X162508080Y-119860975D01*
X162485005Y-119904216D01*
X162457536Y-119943105D01*
X162425821Y-119977438D01*
X162390008Y-120007009D01*
X162350244Y-120031614D01*
X162343759Y-120034959D01*
X162307983Y-120051033D01*
X162270047Y-120064188D01*
X162228598Y-120074830D01*
X162183000Y-120083255D01*
X162167721Y-120085053D01*
X162147252Y-120086610D01*
X162122832Y-120087903D01*
X162095697Y-120088908D01*
X162067086Y-120089601D01*
X162038235Y-120089957D01*
X162010382Y-120089952D01*
X161984766Y-120089563D01*
X161962622Y-120088765D01*
X161948291Y-120087821D01*
X161924258Y-120085403D01*
X161899459Y-120082281D01*
X161874752Y-120078623D01*
X161850994Y-120074598D01*
X161829043Y-120070374D01*
X161809755Y-120066121D01*
X161793988Y-120062007D01*
X161782599Y-120058200D01*
X161776446Y-120054870D01*
X161775690Y-120053853D01*
X161775607Y-120049019D01*
X161776679Y-120038886D01*
X161778751Y-120024454D01*
X161781666Y-120006719D01*
X161785272Y-119986679D01*
X161789412Y-119965333D01*
X161789478Y-119965006D01*
X161791258Y-119956164D01*
X161934882Y-119956102D01*
X161973856Y-119956022D01*
X162006982Y-119955811D01*
X162034842Y-119955452D01*
X162058017Y-119954930D01*
X162077087Y-119954230D01*
X162092636Y-119953335D01*
X162105243Y-119952231D01*
X162112266Y-119951376D01*
X162148562Y-119945079D01*
X162179672Y-119936706D01*
X162206637Y-119925778D01*
X162230500Y-119911818D01*
X162252302Y-119894346D01*
X162265960Y-119880775D01*
X162282509Y-119861256D01*
X162295596Y-119841245D01*
X162306441Y-119818630D01*
X162314424Y-119796945D01*
X162324613Y-119759103D01*
X162329010Y-119723984D01*
X162327583Y-119691457D01*
X162320300Y-119661391D01*
X162307131Y-119633654D01*
X162288043Y-119608113D01*
X162264168Y-119585576D01*
X162254730Y-119578199D01*
X162244611Y-119570970D01*
X162233036Y-119563429D01*
X162219229Y-119555120D01*
X162202416Y-119545584D01*
X162181821Y-119534362D01*
X162156669Y-119520997D01*
X162140519Y-119512519D01*
X162100247Y-119490543D01*
X162065647Y-119469616D01*
X162036148Y-119449251D01*
X162011176Y-119428964D01*
X161990161Y-119408269D01*
X161972529Y-119386679D01*
X161957709Y-119363710D01*
X161951392Y-119351986D01*
X161935414Y-119313707D01*
X161925153Y-119272919D01*
X161920578Y-119229424D01*
X161921656Y-119183026D01*
X161922395Y-119174873D01*
X161929506Y-119123330D01*
X161940165Y-119076730D01*
X161954629Y-119034494D01*
X161973154Y-118996042D01*
X161995996Y-118960793D01*
X162023412Y-118928170D01*
X162037720Y-118913798D01*
X162071745Y-118884911D01*
X162108612Y-118860748D01*
X162148947Y-118841006D01*
X162193375Y-118825383D01*
X162242523Y-118813577D01*
X162247260Y-118812680D01*
X162271375Y-118809306D01*
X162300619Y-118807010D01*
X162333789Y-118805777D01*
X162369678Y-118805587D01*
X162407081Y-118806424D01*
X162407081Y-118806424D01*
G37*
X162407081Y-118806424D02*
X162444792Y-118808269D01*
X162481605Y-118811106D01*
X162516316Y-118814915D01*
X162530240Y-118816840D01*
X162547870Y-118819754D01*
X162566319Y-118823323D01*
X162584366Y-118827250D01*
X162600789Y-118831243D01*
X162614367Y-118835006D01*
X162623879Y-118838245D01*
X162627877Y-118840388D01*
X162628420Y-118844479D01*
X162627877Y-118853637D01*
X162626422Y-118866624D01*
X162624231Y-118882200D01*
X162621479Y-118899129D01*
X162618341Y-118916170D01*
X162614992Y-118932087D01*
X162614799Y-118932930D01*
X162613138Y-118940164D01*
X162475516Y-118940164D01*
X162438249Y-118940211D01*
X162406737Y-118940388D01*
X162380303Y-118940754D01*
X162358275Y-118941363D01*
X162339975Y-118942274D01*
X162324729Y-118943543D01*
X162311861Y-118945227D01*
X162300697Y-118947383D01*
X162290560Y-118950067D01*
X162280777Y-118953336D01*
X162270671Y-118957247D01*
X162270224Y-118957428D01*
X162238639Y-118973553D01*
X162211255Y-118994508D01*
X162188131Y-119020207D01*
X162169324Y-119050563D01*
X162154893Y-119085490D01*
X162144895Y-119124902D01*
X162141072Y-119150460D01*
X162139596Y-119181517D01*
X162142972Y-119209457D01*
X162151555Y-119235297D01*
X162165702Y-119260054D01*
X162185770Y-119284744D01*
X162189549Y-119288750D01*
X162201731Y-119300889D01*
X162214163Y-119311975D01*
X162227677Y-119322558D01*
X162243107Y-119333188D01*
X162261287Y-119344415D01*
X162283049Y-119356790D01*
X162309228Y-119370862D01*
X162331651Y-119382546D01*
X162362654Y-119398951D01*
X162388710Y-119413726D01*
X162410860Y-119427592D01*
X162430144Y-119441271D01*
X162447600Y-119455483D01*
X162464269Y-119470949D01*
X162475376Y-119482228D01*
X162501425Y-119513469D01*
X162521985Y-119547243D01*
X162537714Y-119584672D01*
X162540387Y-119592848D01*
X162543184Y-119602415D01*
X162545188Y-119611315D01*
X162546523Y-119620897D01*
X162547309Y-119632512D01*
X162547672Y-119647509D01*
X162547735Y-119667239D01*
X162547717Y-119673228D01*
X162547451Y-119696936D01*
X162546759Y-119715886D01*
X162545505Y-119731740D01*
X162543553Y-119746163D01*
X162540768Y-119760819D01*
X162540462Y-119762251D01*
X162526615Y-119813585D01*
X162508080Y-119860975D01*
X162485005Y-119904216D01*
X162457536Y-119943105D01*
X162425821Y-119977438D01*
X162390008Y-120007009D01*
X162350244Y-120031614D01*
X162343759Y-120034959D01*
X162307983Y-120051033D01*
X162270047Y-120064188D01*
X162228598Y-120074830D01*
X162183000Y-120083255D01*
X162167721Y-120085053D01*
X162147252Y-120086610D01*
X162122832Y-120087903D01*
X162095697Y-120088908D01*
X162067086Y-120089601D01*
X162038235Y-120089957D01*
X162010382Y-120089952D01*
X161984766Y-120089563D01*
X161962622Y-120088765D01*
X161948291Y-120087821D01*
X161924258Y-120085403D01*
X161899459Y-120082281D01*
X161874752Y-120078623D01*
X161850994Y-120074598D01*
X161829043Y-120070374D01*
X161809755Y-120066121D01*
X161793988Y-120062007D01*
X161782599Y-120058200D01*
X161776446Y-120054870D01*
X161775690Y-120053853D01*
X161775607Y-120049019D01*
X161776679Y-120038886D01*
X161778751Y-120024454D01*
X161781666Y-120006719D01*
X161785272Y-119986679D01*
X161789412Y-119965333D01*
X161789478Y-119965006D01*
X161791258Y-119956164D01*
X161934882Y-119956102D01*
X161973856Y-119956022D01*
X162006982Y-119955811D01*
X162034842Y-119955452D01*
X162058017Y-119954930D01*
X162077087Y-119954230D01*
X162092636Y-119953335D01*
X162105243Y-119952231D01*
X162112266Y-119951376D01*
X162148562Y-119945079D01*
X162179672Y-119936706D01*
X162206637Y-119925778D01*
X162230500Y-119911818D01*
X162252302Y-119894346D01*
X162265960Y-119880775D01*
X162282509Y-119861256D01*
X162295596Y-119841245D01*
X162306441Y-119818630D01*
X162314424Y-119796945D01*
X162324613Y-119759103D01*
X162329010Y-119723984D01*
X162327583Y-119691457D01*
X162320300Y-119661391D01*
X162307131Y-119633654D01*
X162288043Y-119608113D01*
X162264168Y-119585576D01*
X162254730Y-119578199D01*
X162244611Y-119570970D01*
X162233036Y-119563429D01*
X162219229Y-119555120D01*
X162202416Y-119545584D01*
X162181821Y-119534362D01*
X162156669Y-119520997D01*
X162140519Y-119512519D01*
X162100247Y-119490543D01*
X162065647Y-119469616D01*
X162036148Y-119449251D01*
X162011176Y-119428964D01*
X161990161Y-119408269D01*
X161972529Y-119386679D01*
X161957709Y-119363710D01*
X161951392Y-119351986D01*
X161935414Y-119313707D01*
X161925153Y-119272919D01*
X161920578Y-119229424D01*
X161921656Y-119183026D01*
X161922395Y-119174873D01*
X161929506Y-119123330D01*
X161940165Y-119076730D01*
X161954629Y-119034494D01*
X161973154Y-118996042D01*
X161995996Y-118960793D01*
X162023412Y-118928170D01*
X162037720Y-118913798D01*
X162071745Y-118884911D01*
X162108612Y-118860748D01*
X162148947Y-118841006D01*
X162193375Y-118825383D01*
X162242523Y-118813577D01*
X162247260Y-118812680D01*
X162271375Y-118809306D01*
X162300619Y-118807010D01*
X162333789Y-118805777D01*
X162369678Y-118805587D01*
X162407081Y-118806424D01*
G36*
X162996024Y-118982033D02*
X163019340Y-118982233D01*
X163039779Y-118982546D01*
X163056577Y-118982954D01*
X163068971Y-118983441D01*
X163076200Y-118983988D01*
X163077770Y-118984373D01*
X163077497Y-118987865D01*
X163076255Y-118996782D01*
X163074198Y-119010219D01*
X163071476Y-119027271D01*
X163068243Y-119047032D01*
X163064651Y-119068594D01*
X163060851Y-119091054D01*
X163056997Y-119113504D01*
X163053241Y-119135039D01*
X163049734Y-119154754D01*
X163046630Y-119171741D01*
X163044081Y-119185095D01*
X163043715Y-119186930D01*
X163041616Y-119197380D01*
X163283399Y-119197380D01*
X163281423Y-119207257D01*
X163280105Y-119214219D01*
X163277973Y-119225893D01*
X163275320Y-119240656D01*
X163272441Y-119256886D01*
X163272415Y-119257029D01*
X163265383Y-119296925D01*
X163247539Y-119302112D01*
X163209702Y-119311693D01*
X163167743Y-119319833D01*
X163123880Y-119326181D01*
X163080327Y-119330388D01*
X163061487Y-119331486D01*
X163044169Y-119332333D01*
X163032227Y-119333170D01*
X163024613Y-119334204D01*
X163020275Y-119335640D01*
X163018163Y-119337684D01*
X163017312Y-119340151D01*
X163016215Y-119345757D01*
X163014137Y-119357065D01*
X163011190Y-119373436D01*
X163007484Y-119394236D01*
X163003131Y-119418827D01*
X162998241Y-119446573D01*
X162992925Y-119476837D01*
X162987294Y-119508984D01*
X162981459Y-119542377D01*
X162975530Y-119576378D01*
X162969619Y-119610353D01*
X162963837Y-119643664D01*
X162958294Y-119675676D01*
X162953101Y-119705751D01*
X162948369Y-119733253D01*
X162944209Y-119757546D01*
X162940731Y-119777993D01*
X162938048Y-119793959D01*
X162936268Y-119804806D01*
X162935580Y-119809302D01*
X162932758Y-119843231D01*
X162933919Y-119873706D01*
X162938923Y-119900371D01*
X162947627Y-119922871D01*
X162959888Y-119940853D01*
X162975565Y-119953960D01*
X162994515Y-119961837D01*
X162996958Y-119962405D01*
X163004656Y-119963359D01*
X163017773Y-119964203D01*
X163035299Y-119964904D01*
X163056223Y-119965426D01*
X163079534Y-119965737D01*
X163097880Y-119965810D01*
X163120508Y-119965850D01*
X163140870Y-119965963D01*
X163158130Y-119966139D01*
X163171450Y-119966366D01*
X163179993Y-119966632D01*
X163182924Y-119966921D01*
X163182252Y-119973508D01*
X163180448Y-119984200D01*
X163177824Y-119997587D01*
X163174698Y-120012261D01*
X163171382Y-120026811D01*
X163168192Y-120039830D01*
X163165444Y-120049907D01*
X163163450Y-120055633D01*
X163162939Y-120056388D01*
X163156185Y-120059420D01*
X163144617Y-120063256D01*
X163129733Y-120067480D01*
X163113033Y-120071678D01*
X163096015Y-120075433D01*
X163089683Y-120076676D01*
X163050968Y-120082903D01*
X163011313Y-120087312D01*
X162972169Y-120089839D01*
X162934986Y-120090418D01*
X162901214Y-120088985D01*
X162876780Y-120086215D01*
X162839940Y-120078285D01*
X162808243Y-120066652D01*
X162781430Y-120051106D01*
X162759244Y-120031436D01*
X162741427Y-120007429D01*
X162727722Y-119978875D01*
X162721131Y-119958635D01*
X162717974Y-119942760D01*
X162715726Y-119922276D01*
X162714453Y-119898947D01*
X162714218Y-119874537D01*
X162715086Y-119850813D01*
X162716562Y-119833998D01*
X162717581Y-119826818D01*
X162719605Y-119813961D01*
X162722522Y-119796064D01*
X162726223Y-119773768D01*
X162730598Y-119747708D01*
X162735535Y-119718524D01*
X162740926Y-119686853D01*
X162746660Y-119653334D01*
X162752626Y-119618604D01*
X162758715Y-119583302D01*
X162764816Y-119548066D01*
X162770818Y-119513533D01*
X162776613Y-119480343D01*
X162782089Y-119449132D01*
X162787136Y-119420539D01*
X162791644Y-119395202D01*
X162795503Y-119373760D01*
X162798603Y-119356850D01*
X162800832Y-119345110D01*
X162801947Y-119339734D01*
X162802411Y-119337009D01*
X162801716Y-119335063D01*
X162798947Y-119333741D01*
X162793187Y-119332888D01*
X162783520Y-119332349D01*
X162769028Y-119331970D01*
X162754397Y-119331696D01*
X162705180Y-119330810D01*
X162716577Y-119264899D01*
X162727975Y-119198987D01*
X162776966Y-119198100D01*
X162795670Y-119197725D01*
X162808928Y-119197283D01*
X162817721Y-119196620D01*
X162823031Y-119195577D01*
X162825842Y-119194001D01*
X162827136Y-119191734D01*
X162827574Y-119190062D01*
X162828520Y-119185149D01*
X162830402Y-119174763D01*
X162833069Y-119159767D01*
X162836367Y-119141026D01*
X162840144Y-119119404D01*
X162844247Y-119095764D01*
X162845301Y-119089671D01*
X162849463Y-119065658D01*
X162853341Y-119043444D01*
X162856779Y-119023892D01*
X162859627Y-119007867D01*
X162861729Y-118996236D01*
X162862935Y-118989863D01*
X162863077Y-118989196D01*
X162864743Y-118981962D01*
X162970593Y-118981962D01*
X162996024Y-118982033D01*
X162996024Y-118982033D01*
G37*
X162996024Y-118982033D02*
X163019340Y-118982233D01*
X163039779Y-118982546D01*
X163056577Y-118982954D01*
X163068971Y-118983441D01*
X163076200Y-118983988D01*
X163077770Y-118984373D01*
X163077497Y-118987865D01*
X163076255Y-118996782D01*
X163074198Y-119010219D01*
X163071476Y-119027271D01*
X163068243Y-119047032D01*
X163064651Y-119068594D01*
X163060851Y-119091054D01*
X163056997Y-119113504D01*
X163053241Y-119135039D01*
X163049734Y-119154754D01*
X163046630Y-119171741D01*
X163044081Y-119185095D01*
X163043715Y-119186930D01*
X163041616Y-119197380D01*
X163283399Y-119197380D01*
X163281423Y-119207257D01*
X163280105Y-119214219D01*
X163277973Y-119225893D01*
X163275320Y-119240656D01*
X163272441Y-119256886D01*
X163272415Y-119257029D01*
X163265383Y-119296925D01*
X163247539Y-119302112D01*
X163209702Y-119311693D01*
X163167743Y-119319833D01*
X163123880Y-119326181D01*
X163080327Y-119330388D01*
X163061487Y-119331486D01*
X163044169Y-119332333D01*
X163032227Y-119333170D01*
X163024613Y-119334204D01*
X163020275Y-119335640D01*
X163018163Y-119337684D01*
X163017312Y-119340151D01*
X163016215Y-119345757D01*
X163014137Y-119357065D01*
X163011190Y-119373436D01*
X163007484Y-119394236D01*
X163003131Y-119418827D01*
X162998241Y-119446573D01*
X162992925Y-119476837D01*
X162987294Y-119508984D01*
X162981459Y-119542377D01*
X162975530Y-119576378D01*
X162969619Y-119610353D01*
X162963837Y-119643664D01*
X162958294Y-119675676D01*
X162953101Y-119705751D01*
X162948369Y-119733253D01*
X162944209Y-119757546D01*
X162940731Y-119777993D01*
X162938048Y-119793959D01*
X162936268Y-119804806D01*
X162935580Y-119809302D01*
X162932758Y-119843231D01*
X162933919Y-119873706D01*
X162938923Y-119900371D01*
X162947627Y-119922871D01*
X162959888Y-119940853D01*
X162975565Y-119953960D01*
X162994515Y-119961837D01*
X162996958Y-119962405D01*
X163004656Y-119963359D01*
X163017773Y-119964203D01*
X163035299Y-119964904D01*
X163056223Y-119965426D01*
X163079534Y-119965737D01*
X163097880Y-119965810D01*
X163120508Y-119965850D01*
X163140870Y-119965963D01*
X163158130Y-119966139D01*
X163171450Y-119966366D01*
X163179993Y-119966632D01*
X163182924Y-119966921D01*
X163182252Y-119973508D01*
X163180448Y-119984200D01*
X163177824Y-119997587D01*
X163174698Y-120012261D01*
X163171382Y-120026811D01*
X163168192Y-120039830D01*
X163165444Y-120049907D01*
X163163450Y-120055633D01*
X163162939Y-120056388D01*
X163156185Y-120059420D01*
X163144617Y-120063256D01*
X163129733Y-120067480D01*
X163113033Y-120071678D01*
X163096015Y-120075433D01*
X163089683Y-120076676D01*
X163050968Y-120082903D01*
X163011313Y-120087312D01*
X162972169Y-120089839D01*
X162934986Y-120090418D01*
X162901214Y-120088985D01*
X162876780Y-120086215D01*
X162839940Y-120078285D01*
X162808243Y-120066652D01*
X162781430Y-120051106D01*
X162759244Y-120031436D01*
X162741427Y-120007429D01*
X162727722Y-119978875D01*
X162721131Y-119958635D01*
X162717974Y-119942760D01*
X162715726Y-119922276D01*
X162714453Y-119898947D01*
X162714218Y-119874537D01*
X162715086Y-119850813D01*
X162716562Y-119833998D01*
X162717581Y-119826818D01*
X162719605Y-119813961D01*
X162722522Y-119796064D01*
X162726223Y-119773768D01*
X162730598Y-119747708D01*
X162735535Y-119718524D01*
X162740926Y-119686853D01*
X162746660Y-119653334D01*
X162752626Y-119618604D01*
X162758715Y-119583302D01*
X162764816Y-119548066D01*
X162770818Y-119513533D01*
X162776613Y-119480343D01*
X162782089Y-119449132D01*
X162787136Y-119420539D01*
X162791644Y-119395202D01*
X162795503Y-119373760D01*
X162798603Y-119356850D01*
X162800832Y-119345110D01*
X162801947Y-119339734D01*
X162802411Y-119337009D01*
X162801716Y-119335063D01*
X162798947Y-119333741D01*
X162793187Y-119332888D01*
X162783520Y-119332349D01*
X162769028Y-119331970D01*
X162754397Y-119331696D01*
X162705180Y-119330810D01*
X162716577Y-119264899D01*
X162727975Y-119198987D01*
X162776966Y-119198100D01*
X162795670Y-119197725D01*
X162808928Y-119197283D01*
X162817721Y-119196620D01*
X162823031Y-119195577D01*
X162825842Y-119194001D01*
X162827136Y-119191734D01*
X162827574Y-119190062D01*
X162828520Y-119185149D01*
X162830402Y-119174763D01*
X162833069Y-119159767D01*
X162836367Y-119141026D01*
X162840144Y-119119404D01*
X162844247Y-119095764D01*
X162845301Y-119089671D01*
X162849463Y-119065658D01*
X162853341Y-119043444D01*
X162856779Y-119023892D01*
X162859627Y-119007867D01*
X162861729Y-118996236D01*
X162862935Y-118989863D01*
X162863077Y-118989196D01*
X162864743Y-118981962D01*
X162970593Y-118981962D01*
X162996024Y-118982033D01*
G36*
X163832209Y-119163611D02*
X163858540Y-119164179D01*
X163882206Y-119165210D01*
X163901910Y-119166714D01*
X163911164Y-119167828D01*
X163930062Y-119171008D01*
X163950946Y-119175253D01*
X163972929Y-119180308D01*
X163995121Y-119185915D01*
X164016633Y-119191816D01*
X164036576Y-119197755D01*
X164054061Y-119203473D01*
X164068199Y-119208715D01*
X164078100Y-119213223D01*
X164082876Y-119216739D01*
X164083177Y-119217591D01*
X164082633Y-119221175D01*
X164081052Y-119230643D01*
X164078513Y-119245546D01*
X164075095Y-119265435D01*
X164070876Y-119289860D01*
X164065935Y-119318373D01*
X164060351Y-119350524D01*
X164054203Y-119385865D01*
X164047568Y-119423946D01*
X164040526Y-119464318D01*
X164033156Y-119506532D01*
X164025535Y-119550140D01*
X164017743Y-119594691D01*
X164009858Y-119639738D01*
X164001959Y-119684830D01*
X163994124Y-119729519D01*
X163986433Y-119773356D01*
X163978963Y-119815892D01*
X163971794Y-119856677D01*
X163965004Y-119895262D01*
X163958671Y-119931199D01*
X163952875Y-119964038D01*
X163947694Y-119993331D01*
X163943206Y-120018627D01*
X163939491Y-120039479D01*
X163936627Y-120055437D01*
X163934692Y-120066051D01*
X163933766Y-120070874D01*
X163933707Y-120071108D01*
X163931645Y-120072460D01*
X163926152Y-120073497D01*
X163916635Y-120074252D01*
X163902497Y-120074754D01*
X163883145Y-120075035D01*
X163857984Y-120075126D01*
X163856806Y-120075127D01*
X163781348Y-120075127D01*
X163772448Y-120047797D01*
X163768032Y-120035543D01*
X163763838Y-120026172D01*
X163760507Y-120021037D01*
X163759487Y-120020468D01*
X163755140Y-120022137D01*
X163746906Y-120026607D01*
X163736220Y-120033072D01*
X163730623Y-120036661D01*
X163701828Y-120054318D01*
X163675417Y-120067745D01*
X163649664Y-120077478D01*
X163622845Y-120084050D01*
X163593236Y-120087998D01*
X163559113Y-120089854D01*
X163559101Y-120089855D01*
X163537450Y-120090255D01*
X163520503Y-120090071D01*
X163506553Y-120089198D01*
X163493891Y-120087531D01*
X163481307Y-120085073D01*
X163446026Y-120074533D01*
X163414796Y-120059197D01*
X163387575Y-120039006D01*
X163364320Y-120013901D01*
X163344988Y-119983823D01*
X163329537Y-119948712D01*
X163317924Y-119908508D01*
X163310105Y-119863152D01*
X163308133Y-119844692D01*
X163306178Y-119805882D01*
X163306611Y-119784972D01*
X163522896Y-119784972D01*
X163522896Y-119785759D01*
X163524167Y-119825672D01*
X163528052Y-119859936D01*
X163534683Y-119888837D01*
X163544191Y-119912659D01*
X163556710Y-119931686D01*
X163572370Y-119946203D01*
X163591303Y-119956494D01*
X163604114Y-119960712D01*
X163629494Y-119964985D01*
X163655956Y-119964353D01*
X163675240Y-119961185D01*
X163690438Y-119957004D01*
X163706298Y-119951059D01*
X163721032Y-119944174D01*
X163732852Y-119937176D01*
X163739404Y-119931598D01*
X163740811Y-119927848D01*
X163743044Y-119918878D01*
X163746125Y-119904569D01*
X163750076Y-119884804D01*
X163754919Y-119859462D01*
X163760677Y-119828427D01*
X163767370Y-119791579D01*
X163775023Y-119748799D01*
X163783656Y-119699969D01*
X163793292Y-119644970D01*
X163798452Y-119615354D01*
X163806102Y-119571385D01*
X163813462Y-119529095D01*
X163820454Y-119488930D01*
X163827000Y-119451336D01*
X163833023Y-119416756D01*
X163838446Y-119385636D01*
X163843191Y-119358421D01*
X163847180Y-119335555D01*
X163850336Y-119317484D01*
X163852581Y-119304653D01*
X163853839Y-119297506D01*
X163854064Y-119296247D01*
X163855702Y-119287405D01*
X163807876Y-119287461D01*
X163772616Y-119288543D01*
X163742599Y-119291881D01*
X163716955Y-119297746D01*
X163694811Y-119306410D01*
X163675295Y-119318145D01*
X163657535Y-119333221D01*
X163656006Y-119334738D01*
X163635751Y-119357569D01*
X163617473Y-119383607D01*
X163600978Y-119413327D01*
X163586072Y-119447209D01*
X163572560Y-119485728D01*
X163560248Y-119529364D01*
X163548940Y-119578593D01*
X163541755Y-119615354D01*
X163534620Y-119656532D01*
X163529304Y-119692833D01*
X163525671Y-119725508D01*
X163523581Y-119755804D01*
X163522896Y-119784972D01*
X163306611Y-119784972D01*
X163307060Y-119763304D01*
X163310817Y-119716469D01*
X163317488Y-119664887D01*
X163326357Y-119612139D01*
X163337298Y-119558749D01*
X163349606Y-119510489D01*
X163363654Y-119466133D01*
X163379818Y-119424459D01*
X163392039Y-119397385D01*
X163416638Y-119351158D01*
X163443764Y-119310660D01*
X163473808Y-119275590D01*
X163507164Y-119245650D01*
X163544222Y-119220541D01*
X163585376Y-119199963D01*
X163631017Y-119183617D01*
X163681538Y-119171204D01*
X163690924Y-119169411D01*
X163705995Y-119167395D01*
X163726187Y-119165787D01*
X163750202Y-119164595D01*
X163776742Y-119163828D01*
X163804510Y-119163498D01*
X163832209Y-119163611D01*
X163832209Y-119163611D01*
G37*
X163832209Y-119163611D02*
X163858540Y-119164179D01*
X163882206Y-119165210D01*
X163901910Y-119166714D01*
X163911164Y-119167828D01*
X163930062Y-119171008D01*
X163950946Y-119175253D01*
X163972929Y-119180308D01*
X163995121Y-119185915D01*
X164016633Y-119191816D01*
X164036576Y-119197755D01*
X164054061Y-119203473D01*
X164068199Y-119208715D01*
X164078100Y-119213223D01*
X164082876Y-119216739D01*
X164083177Y-119217591D01*
X164082633Y-119221175D01*
X164081052Y-119230643D01*
X164078513Y-119245546D01*
X164075095Y-119265435D01*
X164070876Y-119289860D01*
X164065935Y-119318373D01*
X164060351Y-119350524D01*
X164054203Y-119385865D01*
X164047568Y-119423946D01*
X164040526Y-119464318D01*
X164033156Y-119506532D01*
X164025535Y-119550140D01*
X164017743Y-119594691D01*
X164009858Y-119639738D01*
X164001959Y-119684830D01*
X163994124Y-119729519D01*
X163986433Y-119773356D01*
X163978963Y-119815892D01*
X163971794Y-119856677D01*
X163965004Y-119895262D01*
X163958671Y-119931199D01*
X163952875Y-119964038D01*
X163947694Y-119993331D01*
X163943206Y-120018627D01*
X163939491Y-120039479D01*
X163936627Y-120055437D01*
X163934692Y-120066051D01*
X163933766Y-120070874D01*
X163933707Y-120071108D01*
X163931645Y-120072460D01*
X163926152Y-120073497D01*
X163916635Y-120074252D01*
X163902497Y-120074754D01*
X163883145Y-120075035D01*
X163857984Y-120075126D01*
X163856806Y-120075127D01*
X163781348Y-120075127D01*
X163772448Y-120047797D01*
X163768032Y-120035543D01*
X163763838Y-120026172D01*
X163760507Y-120021037D01*
X163759487Y-120020468D01*
X163755140Y-120022137D01*
X163746906Y-120026607D01*
X163736220Y-120033072D01*
X163730623Y-120036661D01*
X163701828Y-120054318D01*
X163675417Y-120067745D01*
X163649664Y-120077478D01*
X163622845Y-120084050D01*
X163593236Y-120087998D01*
X163559113Y-120089854D01*
X163559101Y-120089855D01*
X163537450Y-120090255D01*
X163520503Y-120090071D01*
X163506553Y-120089198D01*
X163493891Y-120087531D01*
X163481307Y-120085073D01*
X163446026Y-120074533D01*
X163414796Y-120059197D01*
X163387575Y-120039006D01*
X163364320Y-120013901D01*
X163344988Y-119983823D01*
X163329537Y-119948712D01*
X163317924Y-119908508D01*
X163310105Y-119863152D01*
X163308133Y-119844692D01*
X163306178Y-119805882D01*
X163306611Y-119784972D01*
X163522896Y-119784972D01*
X163522896Y-119785759D01*
X163524167Y-119825672D01*
X163528052Y-119859936D01*
X163534683Y-119888837D01*
X163544191Y-119912659D01*
X163556710Y-119931686D01*
X163572370Y-119946203D01*
X163591303Y-119956494D01*
X163604114Y-119960712D01*
X163629494Y-119964985D01*
X163655956Y-119964353D01*
X163675240Y-119961185D01*
X163690438Y-119957004D01*
X163706298Y-119951059D01*
X163721032Y-119944174D01*
X163732852Y-119937176D01*
X163739404Y-119931598D01*
X163740811Y-119927848D01*
X163743044Y-119918878D01*
X163746125Y-119904569D01*
X163750076Y-119884804D01*
X163754919Y-119859462D01*
X163760677Y-119828427D01*
X163767370Y-119791579D01*
X163775023Y-119748799D01*
X163783656Y-119699969D01*
X163793292Y-119644970D01*
X163798452Y-119615354D01*
X163806102Y-119571385D01*
X163813462Y-119529095D01*
X163820454Y-119488930D01*
X163827000Y-119451336D01*
X163833023Y-119416756D01*
X163838446Y-119385636D01*
X163843191Y-119358421D01*
X163847180Y-119335555D01*
X163850336Y-119317484D01*
X163852581Y-119304653D01*
X163853839Y-119297506D01*
X163854064Y-119296247D01*
X163855702Y-119287405D01*
X163807876Y-119287461D01*
X163772616Y-119288543D01*
X163742599Y-119291881D01*
X163716955Y-119297746D01*
X163694811Y-119306410D01*
X163675295Y-119318145D01*
X163657535Y-119333221D01*
X163656006Y-119334738D01*
X163635751Y-119357569D01*
X163617473Y-119383607D01*
X163600978Y-119413327D01*
X163586072Y-119447209D01*
X163572560Y-119485728D01*
X163560248Y-119529364D01*
X163548940Y-119578593D01*
X163541755Y-119615354D01*
X163534620Y-119656532D01*
X163529304Y-119692833D01*
X163525671Y-119725508D01*
X163523581Y-119755804D01*
X163522896Y-119784972D01*
X163306611Y-119784972D01*
X163307060Y-119763304D01*
X163310817Y-119716469D01*
X163317488Y-119664887D01*
X163326357Y-119612139D01*
X163337298Y-119558749D01*
X163349606Y-119510489D01*
X163363654Y-119466133D01*
X163379818Y-119424459D01*
X163392039Y-119397385D01*
X163416638Y-119351158D01*
X163443764Y-119310660D01*
X163473808Y-119275590D01*
X163507164Y-119245650D01*
X163544222Y-119220541D01*
X163585376Y-119199963D01*
X163631017Y-119183617D01*
X163681538Y-119171204D01*
X163690924Y-119169411D01*
X163705995Y-119167395D01*
X163726187Y-119165787D01*
X163750202Y-119164595D01*
X163776742Y-119163828D01*
X163804510Y-119163498D01*
X163832209Y-119163611D01*
G36*
X164725370Y-119166907D02*
X164783866Y-119176015D01*
X164803135Y-119180070D01*
X164820474Y-119184197D01*
X164836352Y-119188414D01*
X164849659Y-119192381D01*
X164859283Y-119195760D01*
X164864115Y-119198213D01*
X164864468Y-119198774D01*
X164863933Y-119202330D01*
X164862505Y-119210724D01*
X164860451Y-119222471D01*
X164858034Y-119236084D01*
X164855522Y-119250077D01*
X164853180Y-119262962D01*
X164851274Y-119273254D01*
X164850069Y-119279467D01*
X164849918Y-119280171D01*
X164848270Y-119287405D01*
X164741426Y-119287461D01*
X164708057Y-119287553D01*
X164680332Y-119287849D01*
X164657465Y-119288437D01*
X164638669Y-119289404D01*
X164623159Y-119290839D01*
X164610148Y-119292829D01*
X164598852Y-119295461D01*
X164588484Y-119298823D01*
X164578259Y-119303004D01*
X164570655Y-119306516D01*
X164548328Y-119320363D01*
X164526598Y-119340056D01*
X164505893Y-119365011D01*
X164486643Y-119394648D01*
X164469276Y-119428383D01*
X164454914Y-119463693D01*
X164444726Y-119495264D01*
X164434926Y-119531695D01*
X164425767Y-119571535D01*
X164417505Y-119613332D01*
X164410395Y-119655632D01*
X164404693Y-119696984D01*
X164400652Y-119735936D01*
X164398529Y-119771036D01*
X164398266Y-119786184D01*
X164399500Y-119822271D01*
X164403343Y-119853058D01*
X164410001Y-119879211D01*
X164419681Y-119901396D01*
X164432591Y-119920279D01*
X164443614Y-119931845D01*
X164452660Y-119939693D01*
X164461806Y-119946245D01*
X164471712Y-119951618D01*
X164483038Y-119955923D01*
X164496445Y-119959276D01*
X164512592Y-119961791D01*
X164532141Y-119963580D01*
X164555751Y-119964760D01*
X164584082Y-119965442D01*
X164617795Y-119965742D01*
X164640209Y-119965786D01*
X164670695Y-119965851D01*
X164695232Y-119966043D01*
X164714300Y-119966379D01*
X164728379Y-119966878D01*
X164737949Y-119967556D01*
X164743490Y-119968432D01*
X164745483Y-119969523D01*
X164745506Y-119969675D01*
X164744883Y-119976684D01*
X164743214Y-119987712D01*
X164740802Y-120001270D01*
X164737950Y-120015866D01*
X164734960Y-120030009D01*
X164732135Y-120042209D01*
X164729777Y-120050975D01*
X164728243Y-120054766D01*
X164723439Y-120057195D01*
X164713455Y-120060510D01*
X164699437Y-120064435D01*
X164682529Y-120068693D01*
X164663876Y-120073007D01*
X164644623Y-120077099D01*
X164625914Y-120080693D01*
X164610468Y-120083275D01*
X164589652Y-120085764D01*
X164564596Y-120087692D01*
X164536832Y-120089034D01*
X164507893Y-120089768D01*
X164479313Y-120089869D01*
X164452623Y-120089316D01*
X164429358Y-120088084D01*
X164412064Y-120086299D01*
X164381651Y-120080611D01*
X164351680Y-120072509D01*
X164324072Y-120062603D01*
X164300749Y-120051503D01*
X164298615Y-120050287D01*
X164286780Y-120042359D01*
X164272955Y-120031518D01*
X164259455Y-120019628D01*
X164254417Y-120014748D01*
X164242051Y-120001615D01*
X164232416Y-119989321D01*
X164223889Y-119975539D01*
X164215105Y-119958482D01*
X164205108Y-119936584D01*
X164197478Y-119916269D01*
X164191880Y-119895997D01*
X164187980Y-119874226D01*
X164185443Y-119849415D01*
X164183934Y-119820023D01*
X164183746Y-119814146D01*
X164183262Y-119784315D01*
X164183757Y-119756476D01*
X164185361Y-119729041D01*
X164188206Y-119700424D01*
X164192424Y-119669040D01*
X164198146Y-119633302D01*
X164199291Y-119626608D01*
X164211805Y-119562664D01*
X164226391Y-119504466D01*
X164243206Y-119451620D01*
X164262409Y-119403734D01*
X164284159Y-119360415D01*
X164308612Y-119321268D01*
X164335927Y-119285901D01*
X164336543Y-119285184D01*
X164363152Y-119258080D01*
X164394013Y-119233141D01*
X164427656Y-119211293D01*
X164462611Y-119193466D01*
X164497406Y-119180588D01*
X164505975Y-119178233D01*
X164556750Y-119168226D01*
X164610869Y-119163007D01*
X164667390Y-119162569D01*
X164725370Y-119166907D01*
X164725370Y-119166907D01*
G37*
X164725370Y-119166907D02*
X164783866Y-119176015D01*
X164803135Y-119180070D01*
X164820474Y-119184197D01*
X164836352Y-119188414D01*
X164849659Y-119192381D01*
X164859283Y-119195760D01*
X164864115Y-119198213D01*
X164864468Y-119198774D01*
X164863933Y-119202330D01*
X164862505Y-119210724D01*
X164860451Y-119222471D01*
X164858034Y-119236084D01*
X164855522Y-119250077D01*
X164853180Y-119262962D01*
X164851274Y-119273254D01*
X164850069Y-119279467D01*
X164849918Y-119280171D01*
X164848270Y-119287405D01*
X164741426Y-119287461D01*
X164708057Y-119287553D01*
X164680332Y-119287849D01*
X164657465Y-119288437D01*
X164638669Y-119289404D01*
X164623159Y-119290839D01*
X164610148Y-119292829D01*
X164598852Y-119295461D01*
X164588484Y-119298823D01*
X164578259Y-119303004D01*
X164570655Y-119306516D01*
X164548328Y-119320363D01*
X164526598Y-119340056D01*
X164505893Y-119365011D01*
X164486643Y-119394648D01*
X164469276Y-119428383D01*
X164454914Y-119463693D01*
X164444726Y-119495264D01*
X164434926Y-119531695D01*
X164425767Y-119571535D01*
X164417505Y-119613332D01*
X164410395Y-119655632D01*
X164404693Y-119696984D01*
X164400652Y-119735936D01*
X164398529Y-119771036D01*
X164398266Y-119786184D01*
X164399500Y-119822271D01*
X164403343Y-119853058D01*
X164410001Y-119879211D01*
X164419681Y-119901396D01*
X164432591Y-119920279D01*
X164443614Y-119931845D01*
X164452660Y-119939693D01*
X164461806Y-119946245D01*
X164471712Y-119951618D01*
X164483038Y-119955923D01*
X164496445Y-119959276D01*
X164512592Y-119961791D01*
X164532141Y-119963580D01*
X164555751Y-119964760D01*
X164584082Y-119965442D01*
X164617795Y-119965742D01*
X164640209Y-119965786D01*
X164670695Y-119965851D01*
X164695232Y-119966043D01*
X164714300Y-119966379D01*
X164728379Y-119966878D01*
X164737949Y-119967556D01*
X164743490Y-119968432D01*
X164745483Y-119969523D01*
X164745506Y-119969675D01*
X164744883Y-119976684D01*
X164743214Y-119987712D01*
X164740802Y-120001270D01*
X164737950Y-120015866D01*
X164734960Y-120030009D01*
X164732135Y-120042209D01*
X164729777Y-120050975D01*
X164728243Y-120054766D01*
X164723439Y-120057195D01*
X164713455Y-120060510D01*
X164699437Y-120064435D01*
X164682529Y-120068693D01*
X164663876Y-120073007D01*
X164644623Y-120077099D01*
X164625914Y-120080693D01*
X164610468Y-120083275D01*
X164589652Y-120085764D01*
X164564596Y-120087692D01*
X164536832Y-120089034D01*
X164507893Y-120089768D01*
X164479313Y-120089869D01*
X164452623Y-120089316D01*
X164429358Y-120088084D01*
X164412064Y-120086299D01*
X164381651Y-120080611D01*
X164351680Y-120072509D01*
X164324072Y-120062603D01*
X164300749Y-120051503D01*
X164298615Y-120050287D01*
X164286780Y-120042359D01*
X164272955Y-120031518D01*
X164259455Y-120019628D01*
X164254417Y-120014748D01*
X164242051Y-120001615D01*
X164232416Y-119989321D01*
X164223889Y-119975539D01*
X164215105Y-119958482D01*
X164205108Y-119936584D01*
X164197478Y-119916269D01*
X164191880Y-119895997D01*
X164187980Y-119874226D01*
X164185443Y-119849415D01*
X164183934Y-119820023D01*
X164183746Y-119814146D01*
X164183262Y-119784315D01*
X164183757Y-119756476D01*
X164185361Y-119729041D01*
X164188206Y-119700424D01*
X164192424Y-119669040D01*
X164198146Y-119633302D01*
X164199291Y-119626608D01*
X164211805Y-119562664D01*
X164226391Y-119504466D01*
X164243206Y-119451620D01*
X164262409Y-119403734D01*
X164284159Y-119360415D01*
X164308612Y-119321268D01*
X164335927Y-119285901D01*
X164336543Y-119285184D01*
X164363152Y-119258080D01*
X164394013Y-119233141D01*
X164427656Y-119211293D01*
X164462611Y-119193466D01*
X164497406Y-119180588D01*
X164505975Y-119178233D01*
X164556750Y-119168226D01*
X164610869Y-119163007D01*
X164667390Y-119162569D01*
X164725370Y-119166907D01*
G36*
X158246536Y-118821226D02*
X158289871Y-118821293D01*
X158330924Y-118821402D01*
X158369266Y-118821549D01*
X158404471Y-118821731D01*
X158436109Y-118821945D01*
X158463754Y-118822187D01*
X158486978Y-118822455D01*
X158505354Y-118822745D01*
X158518454Y-118823054D01*
X158525849Y-118823379D01*
X158527404Y-118823614D01*
X158526898Y-118827355D01*
X158525442Y-118836486D01*
X158523191Y-118850063D01*
X158520304Y-118867141D01*
X158516938Y-118886775D01*
X158515350Y-118895956D01*
X158503222Y-118965886D01*
X158065576Y-118965886D01*
X158029483Y-119169247D01*
X158023222Y-119204567D01*
X158017309Y-119238015D01*
X158011838Y-119269054D01*
X158006902Y-119297146D01*
X158002595Y-119321754D01*
X157999012Y-119342341D01*
X157996247Y-119358370D01*
X157994392Y-119369305D01*
X157993543Y-119374607D01*
X157993498Y-119375019D01*
X157996639Y-119375464D01*
X158005636Y-119375882D01*
X158019918Y-119376266D01*
X158038910Y-119376608D01*
X158062041Y-119376901D01*
X158088736Y-119377137D01*
X158118423Y-119377309D01*
X158150528Y-119377408D01*
X158175266Y-119377430D01*
X158215558Y-119377458D01*
X158249833Y-119377546D01*
X158278503Y-119377705D01*
X158301981Y-119377944D01*
X158320679Y-119378271D01*
X158335009Y-119378695D01*
X158345385Y-119379226D01*
X158352219Y-119379874D01*
X158355924Y-119380646D01*
X158356924Y-119381456D01*
X158356391Y-119385729D01*
X158354904Y-119395314D01*
X158352631Y-119409189D01*
X158349739Y-119426333D01*
X158346396Y-119445727D01*
X158345690Y-119449779D01*
X158342286Y-119469372D01*
X158339294Y-119486797D01*
X158336882Y-119501066D01*
X158335216Y-119511190D01*
X158334463Y-119516181D01*
X158334437Y-119516487D01*
X158331313Y-119516930D01*
X158322329Y-119517347D01*
X158308056Y-119517730D01*
X158289063Y-119518071D01*
X158265921Y-119518364D01*
X158239200Y-119518600D01*
X158209471Y-119518773D01*
X158177304Y-119518874D01*
X158151213Y-119518899D01*
X157968008Y-119518899D01*
X157966354Y-119526133D01*
X157965563Y-119530342D01*
X157963758Y-119540409D01*
X157961021Y-119555856D01*
X157957438Y-119576204D01*
X157953092Y-119600975D01*
X157948066Y-119629692D01*
X157942445Y-119661877D01*
X157936312Y-119697050D01*
X157929750Y-119734734D01*
X157922844Y-119774451D01*
X157918215Y-119801096D01*
X157911138Y-119841764D01*
X157904343Y-119880626D01*
X157897915Y-119917214D01*
X157891937Y-119951058D01*
X157886494Y-119981691D01*
X157881668Y-120008642D01*
X157877545Y-120031444D01*
X157874206Y-120049628D01*
X157871738Y-120062725D01*
X157870222Y-120070266D01*
X157869783Y-120071976D01*
X157866208Y-120072806D01*
X157857193Y-120073513D01*
X157843648Y-120074095D01*
X157826483Y-120074552D01*
X157806609Y-120074883D01*
X157784936Y-120075089D01*
X157762374Y-120075168D01*
X157739833Y-120075121D01*
X157718225Y-120074945D01*
X157698458Y-120074642D01*
X157681444Y-120074209D01*
X157668092Y-120073648D01*
X157659313Y-120072957D01*
X157656017Y-120072136D01*
X157656013Y-120072101D01*
X157656558Y-120068791D01*
X157658151Y-120059518D01*
X157660726Y-120044652D01*
X157664219Y-120024564D01*
X157668564Y-119999623D01*
X157673698Y-119970200D01*
X157679554Y-119936665D01*
X157686068Y-119899389D01*
X157693176Y-119858742D01*
X157700811Y-119815094D01*
X157708910Y-119768815D01*
X157717407Y-119720276D01*
X157726238Y-119669847D01*
X157735337Y-119617898D01*
X157744640Y-119564800D01*
X157754081Y-119510923D01*
X157763596Y-119456636D01*
X157773121Y-119402311D01*
X157782589Y-119348318D01*
X157791936Y-119295027D01*
X157801098Y-119242808D01*
X157810009Y-119192031D01*
X157818604Y-119143067D01*
X157826818Y-119096287D01*
X157834588Y-119052060D01*
X157841846Y-119010756D01*
X157848530Y-118972746D01*
X157854574Y-118938401D01*
X157859912Y-118908090D01*
X157864480Y-118882184D01*
X157868214Y-118861053D01*
X157871048Y-118845068D01*
X157872917Y-118834598D01*
X157873450Y-118831652D01*
X157875361Y-118821202D01*
X158201345Y-118821202D01*
X158246536Y-118821226D01*
X158246536Y-118821226D01*
G37*
X158246536Y-118821226D02*
X158289871Y-118821293D01*
X158330924Y-118821402D01*
X158369266Y-118821549D01*
X158404471Y-118821731D01*
X158436109Y-118821945D01*
X158463754Y-118822187D01*
X158486978Y-118822455D01*
X158505354Y-118822745D01*
X158518454Y-118823054D01*
X158525849Y-118823379D01*
X158527404Y-118823614D01*
X158526898Y-118827355D01*
X158525442Y-118836486D01*
X158523191Y-118850063D01*
X158520304Y-118867141D01*
X158516938Y-118886775D01*
X158515350Y-118895956D01*
X158503222Y-118965886D01*
X158065576Y-118965886D01*
X158029483Y-119169247D01*
X158023222Y-119204567D01*
X158017309Y-119238015D01*
X158011838Y-119269054D01*
X158006902Y-119297146D01*
X158002595Y-119321754D01*
X157999012Y-119342341D01*
X157996247Y-119358370D01*
X157994392Y-119369305D01*
X157993543Y-119374607D01*
X157993498Y-119375019D01*
X157996639Y-119375464D01*
X158005636Y-119375882D01*
X158019918Y-119376266D01*
X158038910Y-119376608D01*
X158062041Y-119376901D01*
X158088736Y-119377137D01*
X158118423Y-119377309D01*
X158150528Y-119377408D01*
X158175266Y-119377430D01*
X158215558Y-119377458D01*
X158249833Y-119377546D01*
X158278503Y-119377705D01*
X158301981Y-119377944D01*
X158320679Y-119378271D01*
X158335009Y-119378695D01*
X158345385Y-119379226D01*
X158352219Y-119379874D01*
X158355924Y-119380646D01*
X158356924Y-119381456D01*
X158356391Y-119385729D01*
X158354904Y-119395314D01*
X158352631Y-119409189D01*
X158349739Y-119426333D01*
X158346396Y-119445727D01*
X158345690Y-119449779D01*
X158342286Y-119469372D01*
X158339294Y-119486797D01*
X158336882Y-119501066D01*
X158335216Y-119511190D01*
X158334463Y-119516181D01*
X158334437Y-119516487D01*
X158331313Y-119516930D01*
X158322329Y-119517347D01*
X158308056Y-119517730D01*
X158289063Y-119518071D01*
X158265921Y-119518364D01*
X158239200Y-119518600D01*
X158209471Y-119518773D01*
X158177304Y-119518874D01*
X158151213Y-119518899D01*
X157968008Y-119518899D01*
X157966354Y-119526133D01*
X157965563Y-119530342D01*
X157963758Y-119540409D01*
X157961021Y-119555856D01*
X157957438Y-119576204D01*
X157953092Y-119600975D01*
X157948066Y-119629692D01*
X157942445Y-119661877D01*
X157936312Y-119697050D01*
X157929750Y-119734734D01*
X157922844Y-119774451D01*
X157918215Y-119801096D01*
X157911138Y-119841764D01*
X157904343Y-119880626D01*
X157897915Y-119917214D01*
X157891937Y-119951058D01*
X157886494Y-119981691D01*
X157881668Y-120008642D01*
X157877545Y-120031444D01*
X157874206Y-120049628D01*
X157871738Y-120062725D01*
X157870222Y-120070266D01*
X157869783Y-120071976D01*
X157866208Y-120072806D01*
X157857193Y-120073513D01*
X157843648Y-120074095D01*
X157826483Y-120074552D01*
X157806609Y-120074883D01*
X157784936Y-120075089D01*
X157762374Y-120075168D01*
X157739833Y-120075121D01*
X157718225Y-120074945D01*
X157698458Y-120074642D01*
X157681444Y-120074209D01*
X157668092Y-120073648D01*
X157659313Y-120072957D01*
X157656017Y-120072136D01*
X157656013Y-120072101D01*
X157656558Y-120068791D01*
X157658151Y-120059518D01*
X157660726Y-120044652D01*
X157664219Y-120024564D01*
X157668564Y-119999623D01*
X157673698Y-119970200D01*
X157679554Y-119936665D01*
X157686068Y-119899389D01*
X157693176Y-119858742D01*
X157700811Y-119815094D01*
X157708910Y-119768815D01*
X157717407Y-119720276D01*
X157726238Y-119669847D01*
X157735337Y-119617898D01*
X157744640Y-119564800D01*
X157754081Y-119510923D01*
X157763596Y-119456636D01*
X157773121Y-119402311D01*
X157782589Y-119348318D01*
X157791936Y-119295027D01*
X157801098Y-119242808D01*
X157810009Y-119192031D01*
X157818604Y-119143067D01*
X157826818Y-119096287D01*
X157834588Y-119052060D01*
X157841846Y-119010756D01*
X157848530Y-118972746D01*
X157854574Y-118938401D01*
X157859912Y-118908090D01*
X157864480Y-118882184D01*
X157868214Y-118861053D01*
X157871048Y-118845068D01*
X157872917Y-118834598D01*
X157873450Y-118831652D01*
X157875361Y-118821202D01*
X158201345Y-118821202D01*
X158246536Y-118821226D01*
G36*
X158902166Y-118830044D02*
X158901431Y-118834062D01*
X158899640Y-118844104D01*
X158896847Y-118859859D01*
X158893108Y-118881016D01*
X158888476Y-118907266D01*
X158883007Y-118938298D01*
X158876754Y-118973802D01*
X158869774Y-119013467D01*
X158862119Y-119056983D01*
X158853846Y-119104039D01*
X158845008Y-119154326D01*
X158835660Y-119207533D01*
X158825856Y-119263350D01*
X158815652Y-119321465D01*
X158805101Y-119381570D01*
X158794259Y-119443354D01*
X158792569Y-119452987D01*
X158781698Y-119514924D01*
X158771113Y-119575186D01*
X158760869Y-119633465D01*
X158751019Y-119689455D01*
X158741619Y-119742848D01*
X158732722Y-119793338D01*
X158724383Y-119840616D01*
X158716656Y-119884376D01*
X158709595Y-119924312D01*
X158703255Y-119960114D01*
X158697689Y-119991477D01*
X158692952Y-120018094D01*
X158689099Y-120039656D01*
X158686183Y-120055858D01*
X158684260Y-120066392D01*
X158683382Y-120070950D01*
X158683341Y-120071108D01*
X158681480Y-120072259D01*
X158676485Y-120073186D01*
X158667837Y-120073907D01*
X158655013Y-120074441D01*
X158637492Y-120074809D01*
X158614755Y-120075029D01*
X158586279Y-120075121D01*
X158575658Y-120075127D01*
X158546584Y-120075103D01*
X158523307Y-120075010D01*
X158505193Y-120074818D01*
X158491609Y-120074494D01*
X158481921Y-120074008D01*
X158475495Y-120073328D01*
X158471698Y-120072422D01*
X158469896Y-120071260D01*
X158469456Y-120069874D01*
X158470002Y-120066321D01*
X158471596Y-120056808D01*
X158474173Y-120041708D01*
X158477669Y-120021394D01*
X158482017Y-119996238D01*
X158487152Y-119966614D01*
X158493009Y-119932895D01*
X158499522Y-119895453D01*
X158506627Y-119854662D01*
X158514257Y-119810895D01*
X158522348Y-119764524D01*
X158530835Y-119715922D01*
X158539651Y-119665464D01*
X158548732Y-119613520D01*
X158558013Y-119560465D01*
X158567427Y-119506672D01*
X158576910Y-119452513D01*
X158586396Y-119398361D01*
X158595821Y-119344590D01*
X158605118Y-119291572D01*
X158614223Y-119239681D01*
X158623070Y-119189289D01*
X158631594Y-119140769D01*
X158639729Y-119094494D01*
X158647410Y-119050838D01*
X158654572Y-119010173D01*
X158661150Y-118972872D01*
X158667078Y-118939308D01*
X158672291Y-118909854D01*
X158676723Y-118884884D01*
X158680310Y-118864769D01*
X158682986Y-118849884D01*
X158684685Y-118840601D01*
X158685167Y-118838082D01*
X158688544Y-118821202D01*
X158904017Y-118821202D01*
X158902166Y-118830044D01*
X158902166Y-118830044D01*
G37*
X158902166Y-118830044D02*
X158901431Y-118834062D01*
X158899640Y-118844104D01*
X158896847Y-118859859D01*
X158893108Y-118881016D01*
X158888476Y-118907266D01*
X158883007Y-118938298D01*
X158876754Y-118973802D01*
X158869774Y-119013467D01*
X158862119Y-119056983D01*
X158853846Y-119104039D01*
X158845008Y-119154326D01*
X158835660Y-119207533D01*
X158825856Y-119263350D01*
X158815652Y-119321465D01*
X158805101Y-119381570D01*
X158794259Y-119443354D01*
X158792569Y-119452987D01*
X158781698Y-119514924D01*
X158771113Y-119575186D01*
X158760869Y-119633465D01*
X158751019Y-119689455D01*
X158741619Y-119742848D01*
X158732722Y-119793338D01*
X158724383Y-119840616D01*
X158716656Y-119884376D01*
X158709595Y-119924312D01*
X158703255Y-119960114D01*
X158697689Y-119991477D01*
X158692952Y-120018094D01*
X158689099Y-120039656D01*
X158686183Y-120055858D01*
X158684260Y-120066392D01*
X158683382Y-120070950D01*
X158683341Y-120071108D01*
X158681480Y-120072259D01*
X158676485Y-120073186D01*
X158667837Y-120073907D01*
X158655013Y-120074441D01*
X158637492Y-120074809D01*
X158614755Y-120075029D01*
X158586279Y-120075121D01*
X158575658Y-120075127D01*
X158546584Y-120075103D01*
X158523307Y-120075010D01*
X158505193Y-120074818D01*
X158491609Y-120074494D01*
X158481921Y-120074008D01*
X158475495Y-120073328D01*
X158471698Y-120072422D01*
X158469896Y-120071260D01*
X158469456Y-120069874D01*
X158470002Y-120066321D01*
X158471596Y-120056808D01*
X158474173Y-120041708D01*
X158477669Y-120021394D01*
X158482017Y-119996238D01*
X158487152Y-119966614D01*
X158493009Y-119932895D01*
X158499522Y-119895453D01*
X158506627Y-119854662D01*
X158514257Y-119810895D01*
X158522348Y-119764524D01*
X158530835Y-119715922D01*
X158539651Y-119665464D01*
X158548732Y-119613520D01*
X158558013Y-119560465D01*
X158567427Y-119506672D01*
X158576910Y-119452513D01*
X158586396Y-119398361D01*
X158595821Y-119344590D01*
X158605118Y-119291572D01*
X158614223Y-119239681D01*
X158623070Y-119189289D01*
X158631594Y-119140769D01*
X158639729Y-119094494D01*
X158647410Y-119050838D01*
X158654572Y-119010173D01*
X158661150Y-118972872D01*
X158667078Y-118939308D01*
X158672291Y-118909854D01*
X158676723Y-118884884D01*
X158680310Y-118864769D01*
X158682986Y-118849884D01*
X158684685Y-118840601D01*
X158685167Y-118838082D01*
X158688544Y-118821202D01*
X158904017Y-118821202D01*
X158902166Y-118830044D01*
G36*
X159221391Y-119178159D02*
X159244706Y-119178359D01*
X159265143Y-119178672D01*
X159281940Y-119179081D01*
X159294334Y-119179567D01*
X159301561Y-119180115D01*
X159303129Y-119180500D01*
X159302729Y-119183866D01*
X159301280Y-119193125D01*
X159298860Y-119207839D01*
X159295544Y-119227570D01*
X159291411Y-119251879D01*
X159286537Y-119280328D01*
X159280999Y-119312480D01*
X159274874Y-119347895D01*
X159268238Y-119386136D01*
X159261170Y-119426765D01*
X159253746Y-119469343D01*
X159246042Y-119513433D01*
X159238137Y-119558595D01*
X159230106Y-119604393D01*
X159222026Y-119650388D01*
X159213976Y-119696141D01*
X159206031Y-119741214D01*
X159198268Y-119785170D01*
X159190765Y-119827570D01*
X159183599Y-119867976D01*
X159176846Y-119905950D01*
X159170583Y-119941054D01*
X159164887Y-119972849D01*
X159159836Y-120000897D01*
X159155506Y-120024760D01*
X159151975Y-120044001D01*
X159149318Y-120058180D01*
X159147613Y-120066861D01*
X159146990Y-120069542D01*
X159145998Y-120071069D01*
X159143883Y-120072291D01*
X159139994Y-120073241D01*
X159133677Y-120073954D01*
X159124280Y-120074462D01*
X159111149Y-120074800D01*
X159093633Y-120075001D01*
X159071077Y-120075098D01*
X159042831Y-120075126D01*
X159038645Y-120075127D01*
X159013243Y-120075049D01*
X158990019Y-120074827D01*
X158969722Y-120074481D01*
X158953101Y-120074030D01*
X158940904Y-120073492D01*
X158933881Y-120072886D01*
X158932443Y-120072447D01*
X158932989Y-120068998D01*
X158934575Y-120059656D01*
X158937124Y-120044860D01*
X158940560Y-120025050D01*
X158944803Y-120000664D01*
X158949778Y-119972143D01*
X158955408Y-119939926D01*
X158961614Y-119904452D01*
X158968320Y-119866160D01*
X158975448Y-119825491D01*
X158982921Y-119782882D01*
X158990663Y-119738774D01*
X158998595Y-119693606D01*
X159006640Y-119647818D01*
X159014722Y-119601848D01*
X159022763Y-119556136D01*
X159030685Y-119511122D01*
X159038412Y-119467244D01*
X159045867Y-119424943D01*
X159052971Y-119384657D01*
X159059648Y-119346827D01*
X159065821Y-119311890D01*
X159071412Y-119280288D01*
X159076344Y-119252458D01*
X159080540Y-119228841D01*
X159083922Y-119209876D01*
X159086414Y-119196002D01*
X159087938Y-119187659D01*
X159088393Y-119185323D01*
X159090110Y-119178089D01*
X159195960Y-119178089D01*
X159221391Y-119178159D01*
X159221391Y-119178159D01*
G37*
X159221391Y-119178159D02*
X159244706Y-119178359D01*
X159265143Y-119178672D01*
X159281940Y-119179081D01*
X159294334Y-119179567D01*
X159301561Y-119180115D01*
X159303129Y-119180500D01*
X159302729Y-119183866D01*
X159301280Y-119193125D01*
X159298860Y-119207839D01*
X159295544Y-119227570D01*
X159291411Y-119251879D01*
X159286537Y-119280328D01*
X159280999Y-119312480D01*
X159274874Y-119347895D01*
X159268238Y-119386136D01*
X159261170Y-119426765D01*
X159253746Y-119469343D01*
X159246042Y-119513433D01*
X159238137Y-119558595D01*
X159230106Y-119604393D01*
X159222026Y-119650388D01*
X159213976Y-119696141D01*
X159206031Y-119741214D01*
X159198268Y-119785170D01*
X159190765Y-119827570D01*
X159183599Y-119867976D01*
X159176846Y-119905950D01*
X159170583Y-119941054D01*
X159164887Y-119972849D01*
X159159836Y-120000897D01*
X159155506Y-120024760D01*
X159151975Y-120044001D01*
X159149318Y-120058180D01*
X159147613Y-120066861D01*
X159146990Y-120069542D01*
X159145998Y-120071069D01*
X159143883Y-120072291D01*
X159139994Y-120073241D01*
X159133677Y-120073954D01*
X159124280Y-120074462D01*
X159111149Y-120074800D01*
X159093633Y-120075001D01*
X159071077Y-120075098D01*
X159042831Y-120075126D01*
X159038645Y-120075127D01*
X159013243Y-120075049D01*
X158990019Y-120074827D01*
X158969722Y-120074481D01*
X158953101Y-120074030D01*
X158940904Y-120073492D01*
X158933881Y-120072886D01*
X158932443Y-120072447D01*
X158932989Y-120068998D01*
X158934575Y-120059656D01*
X158937124Y-120044860D01*
X158940560Y-120025050D01*
X158944803Y-120000664D01*
X158949778Y-119972143D01*
X158955408Y-119939926D01*
X158961614Y-119904452D01*
X158968320Y-119866160D01*
X158975448Y-119825491D01*
X158982921Y-119782882D01*
X158990663Y-119738774D01*
X158998595Y-119693606D01*
X159006640Y-119647818D01*
X159014722Y-119601848D01*
X159022763Y-119556136D01*
X159030685Y-119511122D01*
X159038412Y-119467244D01*
X159045867Y-119424943D01*
X159052971Y-119384657D01*
X159059648Y-119346827D01*
X159065821Y-119311890D01*
X159071412Y-119280288D01*
X159076344Y-119252458D01*
X159080540Y-119228841D01*
X159083922Y-119209876D01*
X159086414Y-119196002D01*
X159087938Y-119187659D01*
X159088393Y-119185323D01*
X159090110Y-119178089D01*
X159195960Y-119178089D01*
X159221391Y-119178159D01*
G36*
X160623349Y-118821273D02*
X160646642Y-118821474D01*
X160667056Y-118821787D01*
X160683827Y-118822196D01*
X160696192Y-118822683D01*
X160703388Y-118823231D01*
X160704933Y-118823614D01*
X160704655Y-118827183D01*
X160703339Y-118836431D01*
X160701093Y-118850711D01*
X160698025Y-118869375D01*
X160694242Y-118891775D01*
X160689852Y-118917263D01*
X160684962Y-118945191D01*
X160681007Y-118967494D01*
X160675360Y-118999175D01*
X160669718Y-119030863D01*
X160664255Y-119061573D01*
X160659145Y-119090324D01*
X160654563Y-119116131D01*
X160650685Y-119138012D01*
X160647684Y-119154983D01*
X160646676Y-119160705D01*
X160637571Y-119212448D01*
X160668380Y-119196748D01*
X160687376Y-119188028D01*
X160708674Y-119179751D01*
X160728672Y-119173302D01*
X160731342Y-119172577D01*
X160743372Y-119169544D01*
X160753952Y-119167330D01*
X160764477Y-119165805D01*
X160776345Y-119164843D01*
X160790951Y-119164316D01*
X160809691Y-119164097D01*
X160824582Y-119164058D01*
X160858333Y-119164625D01*
X160886960Y-119166514D01*
X160911672Y-119169927D01*
X160933677Y-119175063D01*
X160954182Y-119182122D01*
X160966814Y-119187619D01*
X160992453Y-119203062D01*
X161014265Y-119223370D01*
X161032062Y-119248109D01*
X161045655Y-119276843D01*
X161054855Y-119309135D01*
X161059474Y-119344551D01*
X161059323Y-119382653D01*
X161057920Y-119398242D01*
X161057021Y-119404517D01*
X161055111Y-119416593D01*
X161052281Y-119433935D01*
X161048623Y-119456008D01*
X161044229Y-119482279D01*
X161039190Y-119512213D01*
X161033599Y-119545275D01*
X161027546Y-119580931D01*
X161021125Y-119618646D01*
X161014426Y-119657887D01*
X161007541Y-119698118D01*
X161000562Y-119738805D01*
X160993580Y-119779414D01*
X160986688Y-119819410D01*
X160979977Y-119858259D01*
X160973538Y-119895426D01*
X160967464Y-119930377D01*
X160961847Y-119962577D01*
X160956777Y-119991493D01*
X160952346Y-120016589D01*
X160948647Y-120037331D01*
X160945772Y-120053185D01*
X160943810Y-120063616D01*
X160943275Y-120066285D01*
X160941426Y-120075127D01*
X160835770Y-120075127D01*
X160810352Y-120075055D01*
X160787042Y-120074851D01*
X160766603Y-120074533D01*
X160749801Y-120074118D01*
X160737401Y-120073624D01*
X160730170Y-120073068D01*
X160728602Y-120072681D01*
X160728933Y-120069241D01*
X160730304Y-120059891D01*
X160732644Y-120045059D01*
X160735880Y-120025168D01*
X160739943Y-120000644D01*
X160744759Y-119971912D01*
X160750258Y-119939398D01*
X160756369Y-119903526D01*
X160763019Y-119864721D01*
X160770137Y-119823409D01*
X160777651Y-119780015D01*
X160783071Y-119748848D01*
X160793111Y-119691045D01*
X160802037Y-119639314D01*
X160809888Y-119593401D01*
X160816706Y-119553051D01*
X160822532Y-119518010D01*
X160827407Y-119488025D01*
X160831372Y-119462842D01*
X160834467Y-119442205D01*
X160836735Y-119425862D01*
X160838215Y-119413558D01*
X160838950Y-119405040D01*
X160839050Y-119401923D01*
X160836947Y-119374536D01*
X160830425Y-119351037D01*
X160819166Y-119330360D01*
X160816713Y-119326989D01*
X160801253Y-119311648D01*
X160781523Y-119300039D01*
X160758557Y-119292256D01*
X160733389Y-119288394D01*
X160707049Y-119288546D01*
X160680573Y-119292806D01*
X160654993Y-119301268D01*
X160636710Y-119310614D01*
X160619243Y-119321164D01*
X160553006Y-119697342D01*
X160486770Y-120073519D01*
X160379973Y-120074366D01*
X160350986Y-120074589D01*
X160327785Y-120074724D01*
X160309726Y-120074736D01*
X160296164Y-120074590D01*
X160286456Y-120074249D01*
X160279958Y-120073679D01*
X160276025Y-120072844D01*
X160274013Y-120071708D01*
X160273279Y-120070236D01*
X160273177Y-120068476D01*
X160273724Y-120064763D01*
X160275320Y-120055089D01*
X160277902Y-120039827D01*
X160281403Y-120019349D01*
X160285758Y-119994028D01*
X160290903Y-119964235D01*
X160296771Y-119930345D01*
X160303299Y-119892728D01*
X160310419Y-119851757D01*
X160318068Y-119807805D01*
X160326180Y-119761245D01*
X160334691Y-119712447D01*
X160343533Y-119661786D01*
X160352643Y-119609632D01*
X160361956Y-119556360D01*
X160371406Y-119502340D01*
X160380927Y-119447946D01*
X160390455Y-119393550D01*
X160399925Y-119339524D01*
X160409270Y-119286241D01*
X160418427Y-119234073D01*
X160427330Y-119183392D01*
X160435913Y-119134572D01*
X160444111Y-119087983D01*
X160451860Y-119043999D01*
X160459094Y-119002993D01*
X160465748Y-118965335D01*
X160471756Y-118931400D01*
X160477053Y-118901559D01*
X160481575Y-118876184D01*
X160485256Y-118855649D01*
X160488030Y-118840325D01*
X160489833Y-118830585D01*
X160490591Y-118826829D01*
X160491429Y-118825288D01*
X160493377Y-118824056D01*
X160497086Y-118823099D01*
X160503208Y-118822381D01*
X160512395Y-118821870D01*
X160525299Y-118821531D01*
X160542572Y-118821329D01*
X160564866Y-118821231D01*
X160592832Y-118821203D01*
X160597938Y-118821202D01*
X160623349Y-118821273D01*
X160623349Y-118821273D01*
G37*
X160623349Y-118821273D02*
X160646642Y-118821474D01*
X160667056Y-118821787D01*
X160683827Y-118822196D01*
X160696192Y-118822683D01*
X160703388Y-118823231D01*
X160704933Y-118823614D01*
X160704655Y-118827183D01*
X160703339Y-118836431D01*
X160701093Y-118850711D01*
X160698025Y-118869375D01*
X160694242Y-118891775D01*
X160689852Y-118917263D01*
X160684962Y-118945191D01*
X160681007Y-118967494D01*
X160675360Y-118999175D01*
X160669718Y-119030863D01*
X160664255Y-119061573D01*
X160659145Y-119090324D01*
X160654563Y-119116131D01*
X160650685Y-119138012D01*
X160647684Y-119154983D01*
X160646676Y-119160705D01*
X160637571Y-119212448D01*
X160668380Y-119196748D01*
X160687376Y-119188028D01*
X160708674Y-119179751D01*
X160728672Y-119173302D01*
X160731342Y-119172577D01*
X160743372Y-119169544D01*
X160753952Y-119167330D01*
X160764477Y-119165805D01*
X160776345Y-119164843D01*
X160790951Y-119164316D01*
X160809691Y-119164097D01*
X160824582Y-119164058D01*
X160858333Y-119164625D01*
X160886960Y-119166514D01*
X160911672Y-119169927D01*
X160933677Y-119175063D01*
X160954182Y-119182122D01*
X160966814Y-119187619D01*
X160992453Y-119203062D01*
X161014265Y-119223370D01*
X161032062Y-119248109D01*
X161045655Y-119276843D01*
X161054855Y-119309135D01*
X161059474Y-119344551D01*
X161059323Y-119382653D01*
X161057920Y-119398242D01*
X161057021Y-119404517D01*
X161055111Y-119416593D01*
X161052281Y-119433935D01*
X161048623Y-119456008D01*
X161044229Y-119482279D01*
X161039190Y-119512213D01*
X161033599Y-119545275D01*
X161027546Y-119580931D01*
X161021125Y-119618646D01*
X161014426Y-119657887D01*
X161007541Y-119698118D01*
X161000562Y-119738805D01*
X160993580Y-119779414D01*
X160986688Y-119819410D01*
X160979977Y-119858259D01*
X160973538Y-119895426D01*
X160967464Y-119930377D01*
X160961847Y-119962577D01*
X160956777Y-119991493D01*
X160952346Y-120016589D01*
X160948647Y-120037331D01*
X160945772Y-120053185D01*
X160943810Y-120063616D01*
X160943275Y-120066285D01*
X160941426Y-120075127D01*
X160835770Y-120075127D01*
X160810352Y-120075055D01*
X160787042Y-120074851D01*
X160766603Y-120074533D01*
X160749801Y-120074118D01*
X160737401Y-120073624D01*
X160730170Y-120073068D01*
X160728602Y-120072681D01*
X160728933Y-120069241D01*
X160730304Y-120059891D01*
X160732644Y-120045059D01*
X160735880Y-120025168D01*
X160739943Y-120000644D01*
X160744759Y-119971912D01*
X160750258Y-119939398D01*
X160756369Y-119903526D01*
X160763019Y-119864721D01*
X160770137Y-119823409D01*
X160777651Y-119780015D01*
X160783071Y-119748848D01*
X160793111Y-119691045D01*
X160802037Y-119639314D01*
X160809888Y-119593401D01*
X160816706Y-119553051D01*
X160822532Y-119518010D01*
X160827407Y-119488025D01*
X160831372Y-119462842D01*
X160834467Y-119442205D01*
X160836735Y-119425862D01*
X160838215Y-119413558D01*
X160838950Y-119405040D01*
X160839050Y-119401923D01*
X160836947Y-119374536D01*
X160830425Y-119351037D01*
X160819166Y-119330360D01*
X160816713Y-119326989D01*
X160801253Y-119311648D01*
X160781523Y-119300039D01*
X160758557Y-119292256D01*
X160733389Y-119288394D01*
X160707049Y-119288546D01*
X160680573Y-119292806D01*
X160654993Y-119301268D01*
X160636710Y-119310614D01*
X160619243Y-119321164D01*
X160553006Y-119697342D01*
X160486770Y-120073519D01*
X160379973Y-120074366D01*
X160350986Y-120074589D01*
X160327785Y-120074724D01*
X160309726Y-120074736D01*
X160296164Y-120074590D01*
X160286456Y-120074249D01*
X160279958Y-120073679D01*
X160276025Y-120072844D01*
X160274013Y-120071708D01*
X160273279Y-120070236D01*
X160273177Y-120068476D01*
X160273724Y-120064763D01*
X160275320Y-120055089D01*
X160277902Y-120039827D01*
X160281403Y-120019349D01*
X160285758Y-119994028D01*
X160290903Y-119964235D01*
X160296771Y-119930345D01*
X160303299Y-119892728D01*
X160310419Y-119851757D01*
X160318068Y-119807805D01*
X160326180Y-119761245D01*
X160334691Y-119712447D01*
X160343533Y-119661786D01*
X160352643Y-119609632D01*
X160361956Y-119556360D01*
X160371406Y-119502340D01*
X160380927Y-119447946D01*
X160390455Y-119393550D01*
X160399925Y-119339524D01*
X160409270Y-119286241D01*
X160418427Y-119234073D01*
X160427330Y-119183392D01*
X160435913Y-119134572D01*
X160444111Y-119087983D01*
X160451860Y-119043999D01*
X160459094Y-119002993D01*
X160465748Y-118965335D01*
X160471756Y-118931400D01*
X160477053Y-118901559D01*
X160481575Y-118876184D01*
X160485256Y-118855649D01*
X160488030Y-118840325D01*
X160489833Y-118830585D01*
X160490591Y-118826829D01*
X160491429Y-118825288D01*
X160493377Y-118824056D01*
X160497086Y-118823099D01*
X160503208Y-118822381D01*
X160512395Y-118821870D01*
X160525299Y-118821531D01*
X160542572Y-118821329D01*
X160564866Y-118821231D01*
X160592832Y-118821203D01*
X160597938Y-118821202D01*
X160623349Y-118821273D01*
G36*
X165230580Y-118821273D02*
X165253895Y-118821473D01*
X165274332Y-118821786D01*
X165291129Y-118822195D01*
X165303521Y-118822681D01*
X165310748Y-118823229D01*
X165312316Y-118823614D01*
X165311941Y-118827033D01*
X165310510Y-118836384D01*
X165308093Y-118851267D01*
X165304758Y-118871280D01*
X165300573Y-118896025D01*
X165295608Y-118925101D01*
X165289931Y-118958109D01*
X165283611Y-118994647D01*
X165276716Y-119034317D01*
X165269315Y-119076718D01*
X165261477Y-119121449D01*
X165253271Y-119168112D01*
X165249811Y-119187734D01*
X165241465Y-119235105D01*
X165233452Y-119280730D01*
X165225840Y-119324207D01*
X165218699Y-119365133D01*
X165212098Y-119403106D01*
X165206106Y-119437725D01*
X165200794Y-119468588D01*
X165196230Y-119495292D01*
X165192483Y-119517435D01*
X165189623Y-119534616D01*
X165187719Y-119546432D01*
X165186840Y-119552482D01*
X165186792Y-119553200D01*
X165188772Y-119551294D01*
X165194245Y-119544592D01*
X165202912Y-119533492D01*
X165214473Y-119518389D01*
X165228630Y-119499682D01*
X165245082Y-119477768D01*
X165263532Y-119453043D01*
X165283678Y-119425905D01*
X165305223Y-119396750D01*
X165326140Y-119368326D01*
X165464686Y-119179696D01*
X165578330Y-119178851D01*
X165604755Y-119178721D01*
X165629127Y-119178732D01*
X165650704Y-119178872D01*
X165668743Y-119179132D01*
X165682501Y-119179500D01*
X165691235Y-119179966D01*
X165694183Y-119180458D01*
X165692635Y-119183341D01*
X165687482Y-119190960D01*
X165679008Y-119202928D01*
X165667498Y-119218860D01*
X165653236Y-119238369D01*
X165636505Y-119261070D01*
X165617590Y-119286576D01*
X165596774Y-119314502D01*
X165574342Y-119344461D01*
X165550576Y-119376068D01*
X165539076Y-119391317D01*
X165381760Y-119599723D01*
X165469828Y-119835014D01*
X165483692Y-119872127D01*
X165496854Y-119907500D01*
X165509143Y-119940671D01*
X165520393Y-119971178D01*
X165530434Y-119998558D01*
X165539097Y-120022351D01*
X165546214Y-120042094D01*
X165551616Y-120057326D01*
X165555135Y-120067584D01*
X165556601Y-120072407D01*
X165556625Y-120072715D01*
X165553229Y-120073273D01*
X165544136Y-120073785D01*
X165530079Y-120074237D01*
X165511793Y-120074612D01*
X165490010Y-120074895D01*
X165465464Y-120075072D01*
X165441291Y-120075127D01*
X165327227Y-120075127D01*
X165321497Y-120061462D01*
X165319458Y-120056134D01*
X165315472Y-120045283D01*
X165309733Y-120029450D01*
X165302434Y-120009176D01*
X165293769Y-119985001D01*
X165283931Y-119957465D01*
X165273115Y-119927110D01*
X165261513Y-119894477D01*
X165249320Y-119860105D01*
X165243704Y-119844251D01*
X165231485Y-119809856D01*
X165219876Y-119777410D01*
X165209055Y-119747396D01*
X165199200Y-119720296D01*
X165190489Y-119696592D01*
X165183100Y-119676766D01*
X165177210Y-119661302D01*
X165172997Y-119650681D01*
X165170640Y-119645385D01*
X165170201Y-119644909D01*
X165169413Y-119648719D01*
X165167611Y-119658331D01*
X165164893Y-119673213D01*
X165161352Y-119692835D01*
X165157083Y-119716664D01*
X165152183Y-119744168D01*
X165146746Y-119774815D01*
X165140866Y-119808075D01*
X165134640Y-119843414D01*
X165131494Y-119861316D01*
X165094228Y-120073519D01*
X164987386Y-120074366D01*
X164958391Y-120074587D01*
X164935182Y-120074719D01*
X164917115Y-120074727D01*
X164903546Y-120074576D01*
X164893832Y-120074232D01*
X164887329Y-120073660D01*
X164883393Y-120072826D01*
X164881379Y-120071695D01*
X164880644Y-120070232D01*
X164880544Y-120068629D01*
X164881090Y-120064995D01*
X164882685Y-120055400D01*
X164885263Y-120040217D01*
X164888760Y-120019817D01*
X164893110Y-119994572D01*
X164898248Y-119964855D01*
X164904109Y-119931039D01*
X164910628Y-119893495D01*
X164917739Y-119852595D01*
X164925379Y-119808712D01*
X164933480Y-119762218D01*
X164941979Y-119713485D01*
X164950810Y-119662886D01*
X164959908Y-119610792D01*
X164969208Y-119557576D01*
X164978644Y-119503610D01*
X164988152Y-119449266D01*
X164997667Y-119394917D01*
X165007123Y-119340934D01*
X165016455Y-119287690D01*
X165025598Y-119235557D01*
X165034487Y-119184908D01*
X165043057Y-119136114D01*
X165051242Y-119089548D01*
X165058978Y-119045582D01*
X165066199Y-119004588D01*
X165072840Y-118966938D01*
X165078836Y-118933005D01*
X165084123Y-118903161D01*
X165088634Y-118877778D01*
X165092304Y-118857228D01*
X165095069Y-118841883D01*
X165096864Y-118832116D01*
X165097587Y-118828437D01*
X165099300Y-118821202D01*
X165205150Y-118821202D01*
X165230580Y-118821273D01*
X165230580Y-118821273D01*
G37*
X165230580Y-118821273D02*
X165253895Y-118821473D01*
X165274332Y-118821786D01*
X165291129Y-118822195D01*
X165303521Y-118822681D01*
X165310748Y-118823229D01*
X165312316Y-118823614D01*
X165311941Y-118827033D01*
X165310510Y-118836384D01*
X165308093Y-118851267D01*
X165304758Y-118871280D01*
X165300573Y-118896025D01*
X165295608Y-118925101D01*
X165289931Y-118958109D01*
X165283611Y-118994647D01*
X165276716Y-119034317D01*
X165269315Y-119076718D01*
X165261477Y-119121449D01*
X165253271Y-119168112D01*
X165249811Y-119187734D01*
X165241465Y-119235105D01*
X165233452Y-119280730D01*
X165225840Y-119324207D01*
X165218699Y-119365133D01*
X165212098Y-119403106D01*
X165206106Y-119437725D01*
X165200794Y-119468588D01*
X165196230Y-119495292D01*
X165192483Y-119517435D01*
X165189623Y-119534616D01*
X165187719Y-119546432D01*
X165186840Y-119552482D01*
X165186792Y-119553200D01*
X165188772Y-119551294D01*
X165194245Y-119544592D01*
X165202912Y-119533492D01*
X165214473Y-119518389D01*
X165228630Y-119499682D01*
X165245082Y-119477768D01*
X165263532Y-119453043D01*
X165283678Y-119425905D01*
X165305223Y-119396750D01*
X165326140Y-119368326D01*
X165464686Y-119179696D01*
X165578330Y-119178851D01*
X165604755Y-119178721D01*
X165629127Y-119178732D01*
X165650704Y-119178872D01*
X165668743Y-119179132D01*
X165682501Y-119179500D01*
X165691235Y-119179966D01*
X165694183Y-119180458D01*
X165692635Y-119183341D01*
X165687482Y-119190960D01*
X165679008Y-119202928D01*
X165667498Y-119218860D01*
X165653236Y-119238369D01*
X165636505Y-119261070D01*
X165617590Y-119286576D01*
X165596774Y-119314502D01*
X165574342Y-119344461D01*
X165550576Y-119376068D01*
X165539076Y-119391317D01*
X165381760Y-119599723D01*
X165469828Y-119835014D01*
X165483692Y-119872127D01*
X165496854Y-119907500D01*
X165509143Y-119940671D01*
X165520393Y-119971178D01*
X165530434Y-119998558D01*
X165539097Y-120022351D01*
X165546214Y-120042094D01*
X165551616Y-120057326D01*
X165555135Y-120067584D01*
X165556601Y-120072407D01*
X165556625Y-120072715D01*
X165553229Y-120073273D01*
X165544136Y-120073785D01*
X165530079Y-120074237D01*
X165511793Y-120074612D01*
X165490010Y-120074895D01*
X165465464Y-120075072D01*
X165441291Y-120075127D01*
X165327227Y-120075127D01*
X165321497Y-120061462D01*
X165319458Y-120056134D01*
X165315472Y-120045283D01*
X165309733Y-120029450D01*
X165302434Y-120009176D01*
X165293769Y-119985001D01*
X165283931Y-119957465D01*
X165273115Y-119927110D01*
X165261513Y-119894477D01*
X165249320Y-119860105D01*
X165243704Y-119844251D01*
X165231485Y-119809856D01*
X165219876Y-119777410D01*
X165209055Y-119747396D01*
X165199200Y-119720296D01*
X165190489Y-119696592D01*
X165183100Y-119676766D01*
X165177210Y-119661302D01*
X165172997Y-119650681D01*
X165170640Y-119645385D01*
X165170201Y-119644909D01*
X165169413Y-119648719D01*
X165167611Y-119658331D01*
X165164893Y-119673213D01*
X165161352Y-119692835D01*
X165157083Y-119716664D01*
X165152183Y-119744168D01*
X165146746Y-119774815D01*
X165140866Y-119808075D01*
X165134640Y-119843414D01*
X165131494Y-119861316D01*
X165094228Y-120073519D01*
X164987386Y-120074366D01*
X164958391Y-120074587D01*
X164935182Y-120074719D01*
X164917115Y-120074727D01*
X164903546Y-120074576D01*
X164893832Y-120074232D01*
X164887329Y-120073660D01*
X164883393Y-120072826D01*
X164881379Y-120071695D01*
X164880644Y-120070232D01*
X164880544Y-120068629D01*
X164881090Y-120064995D01*
X164882685Y-120055400D01*
X164885263Y-120040217D01*
X164888760Y-120019817D01*
X164893110Y-119994572D01*
X164898248Y-119964855D01*
X164904109Y-119931039D01*
X164910628Y-119893495D01*
X164917739Y-119852595D01*
X164925379Y-119808712D01*
X164933480Y-119762218D01*
X164941979Y-119713485D01*
X164950810Y-119662886D01*
X164959908Y-119610792D01*
X164969208Y-119557576D01*
X164978644Y-119503610D01*
X164988152Y-119449266D01*
X164997667Y-119394917D01*
X165007123Y-119340934D01*
X165016455Y-119287690D01*
X165025598Y-119235557D01*
X165034487Y-119184908D01*
X165043057Y-119136114D01*
X165051242Y-119089548D01*
X165058978Y-119045582D01*
X165066199Y-119004588D01*
X165072840Y-118966938D01*
X165078836Y-118933005D01*
X165084123Y-118903161D01*
X165088634Y-118877778D01*
X165092304Y-118857228D01*
X165095069Y-118841883D01*
X165096864Y-118832116D01*
X165097587Y-118828437D01*
X165099300Y-118821202D01*
X165205150Y-118821202D01*
X165230580Y-118821273D01*
G36*
X159276133Y-118856641D02*
X159299458Y-118856844D01*
X159319911Y-118857161D01*
X159336728Y-118857575D01*
X159349144Y-118858067D01*
X159356395Y-118858622D01*
X159357976Y-118859010D01*
X159357735Y-118862493D01*
X159356532Y-118871399D01*
X159354520Y-118884819D01*
X159351851Y-118901843D01*
X159348676Y-118921560D01*
X159345148Y-118943060D01*
X159341418Y-118965434D01*
X159337639Y-118987771D01*
X159333961Y-119009162D01*
X159330538Y-119028697D01*
X159327520Y-119045465D01*
X159325061Y-119058557D01*
X159323311Y-119067063D01*
X159323099Y-119067968D01*
X159321358Y-119075202D01*
X159215508Y-119075202D01*
X159190078Y-119075132D01*
X159166763Y-119074932D01*
X159146326Y-119074619D01*
X159129531Y-119074210D01*
X159117139Y-119073724D01*
X159109913Y-119073176D01*
X159108345Y-119072791D01*
X159108609Y-119069248D01*
X159109870Y-119060188D01*
X159111991Y-119046422D01*
X159114834Y-119028763D01*
X159118264Y-119008023D01*
X159122143Y-118985014D01*
X159126334Y-118960549D01*
X159130702Y-118935439D01*
X159135108Y-118910496D01*
X159139417Y-118886534D01*
X159142998Y-118867019D01*
X159144937Y-118856570D01*
X159250703Y-118856570D01*
X159276133Y-118856641D01*
X159276133Y-118856641D01*
G37*
X159276133Y-118856641D02*
X159299458Y-118856844D01*
X159319911Y-118857161D01*
X159336728Y-118857575D01*
X159349144Y-118858067D01*
X159356395Y-118858622D01*
X159357976Y-118859010D01*
X159357735Y-118862493D01*
X159356532Y-118871399D01*
X159354520Y-118884819D01*
X159351851Y-118901843D01*
X159348676Y-118921560D01*
X159345148Y-118943060D01*
X159341418Y-118965434D01*
X159337639Y-118987771D01*
X159333961Y-119009162D01*
X159330538Y-119028697D01*
X159327520Y-119045465D01*
X159325061Y-119058557D01*
X159323311Y-119067063D01*
X159323099Y-119067968D01*
X159321358Y-119075202D01*
X159215508Y-119075202D01*
X159190078Y-119075132D01*
X159166763Y-119074932D01*
X159146326Y-119074619D01*
X159129531Y-119074210D01*
X159117139Y-119073724D01*
X159109913Y-119073176D01*
X159108345Y-119072791D01*
X159108609Y-119069248D01*
X159109870Y-119060188D01*
X159111991Y-119046422D01*
X159114834Y-119028763D01*
X159118264Y-119008023D01*
X159122143Y-118985014D01*
X159126334Y-118960549D01*
X159130702Y-118935439D01*
X159135108Y-118910496D01*
X159139417Y-118886534D01*
X159142998Y-118867019D01*
X159144937Y-118856570D01*
X159250703Y-118856570D01*
X159276133Y-118856641D01*
D11*
X153383334Y-112232143D02*
X153335715Y-112279762D01*
X153192858Y-112327381D01*
X153097620Y-112327381D01*
X152954762Y-112279762D01*
X152859524Y-112184524D01*
X152811905Y-112089286D01*
X152764286Y-111898810D01*
X152764286Y-111755952D01*
X152811905Y-111565476D01*
X152859524Y-111470238D01*
X152954762Y-111375000D01*
X153097620Y-111327381D01*
X153192858Y-111327381D01*
X153335715Y-111375000D01*
X153383334Y-111422619D01*
X154335715Y-112327381D02*
X153764286Y-112327381D01*
X154050000Y-112327381D02*
X154050000Y-111327381D01*
X153954762Y-111470238D01*
X153859524Y-111565476D01*
X153764286Y-111613095D01*
X159554762Y-122572619D02*
X159459524Y-122525000D01*
X159364286Y-122429762D01*
X159221429Y-122286905D01*
X159126190Y-122239286D01*
X159030952Y-122239286D01*
X159078571Y-122477381D02*
X158983333Y-122429762D01*
X158888095Y-122334524D01*
X158840476Y-122144048D01*
X158840476Y-121810714D01*
X158888095Y-121620238D01*
X158983333Y-121525000D01*
X159078571Y-121477381D01*
X159269048Y-121477381D01*
X159364286Y-121525000D01*
X159459524Y-121620238D01*
X159507143Y-121810714D01*
X159507143Y-122144048D01*
X159459524Y-122334524D01*
X159364286Y-122429762D01*
X159269048Y-122477381D01*
X159078571Y-122477381D01*
X160459524Y-122477381D02*
X159888095Y-122477381D01*
X160173809Y-122477381D02*
X160173809Y-121477381D01*
X160078571Y-121620238D01*
X159983333Y-121715476D01*
X159888095Y-121763095D01*
X134579762Y-95797619D02*
X134484524Y-95750000D01*
X134389286Y-95654762D01*
X134246429Y-95511905D01*
X134151190Y-95464286D01*
X134055952Y-95464286D01*
X134103571Y-95702381D02*
X134008333Y-95654762D01*
X133913095Y-95559524D01*
X133865476Y-95369048D01*
X133865476Y-95035714D01*
X133913095Y-94845238D01*
X134008333Y-94750000D01*
X134103571Y-94702381D01*
X134294048Y-94702381D01*
X134389286Y-94750000D01*
X134484524Y-94845238D01*
X134532143Y-95035714D01*
X134532143Y-95369048D01*
X134484524Y-95559524D01*
X134389286Y-95654762D01*
X134294048Y-95702381D01*
X134103571Y-95702381D01*
X134913095Y-94797619D02*
X134960714Y-94750000D01*
X135055952Y-94702381D01*
X135294048Y-94702381D01*
X135389286Y-94750000D01*
X135436905Y-94797619D01*
X135484524Y-94892857D01*
X135484524Y-94988095D01*
X135436905Y-95130952D01*
X134865476Y-95702381D01*
X135484524Y-95702381D01*
X156302381Y-119116666D02*
X155826190Y-119450000D01*
X156302381Y-119688095D02*
X155302381Y-119688095D01*
X155302381Y-119307142D01*
X155350000Y-119211904D01*
X155397619Y-119164285D01*
X155492857Y-119116666D01*
X155635714Y-119116666D01*
X155730952Y-119164285D01*
X155778571Y-119211904D01*
X155826190Y-119307142D01*
X155826190Y-119688095D01*
X156302381Y-118164285D02*
X156302381Y-118735714D01*
X156302381Y-118450000D02*
X155302381Y-118450000D01*
X155445238Y-118545238D01*
X155540476Y-118640476D01*
X155588095Y-118735714D01*
M02*
