M48
INCH,TZ
T1C0.013
T2C0.013
T3C0.040
T4C0.118
%
G90
G05
T1
X54094Y-36752
X59567Y-36988
X59822Y-37574
X60222Y-38036
X60384Y-36772
X60389Y-37594
X60757Y-36268
X60789Y-38012
X60836Y-36588
X60950Y-37355
X61526Y-46242
X61713Y-36299
X61821Y-47234
X61929Y-37402
X61929Y-38228
X62169Y-46095
X62608Y-47500
X62638Y-38642
X62972Y-36772
X63111Y-38155
X63189Y-37579
X63279Y-37134
X63465Y-47766
X63976Y-37520
X64154Y-38524
X64671Y-37540
T2
X60732Y-39637
X60732Y-45402
X60866Y-40066
X60866Y-44973
X60895Y-39351
X60895Y-45689
X61001Y-40496
X61001Y-44544
X61030Y-39780
X61030Y-45260
X61135Y-44115
X61164Y-40209
X61164Y-44830
X61244Y-46067
X61269Y-43686
X61283Y-38978
X61298Y-40638
X61298Y-44401
X61404Y-41783
X61404Y-43257
X61433Y-43972
X61470Y-39249
X61538Y-42212
X61538Y-42827
X61567Y-41497
X61567Y-43543
X61701Y-41926
X61701Y-43114
X61728Y-39042
X61836Y-42355
X61836Y-42685
X61862Y-46217
X62059Y-38933
X63404Y-38998
X63404Y-46042
X63794Y-39312
X63794Y-45727
X63873Y-42355
X63873Y-42685
X63981Y-39042
X63981Y-45998
X64008Y-41926
X64008Y-43114
X64142Y-41497
X64142Y-43543
X64171Y-42212
X64171Y-42827
X64239Y-39249
X64239Y-45791
X64276Y-41067
X64276Y-43972
X64305Y-41783
X64305Y-43257
X64411Y-40638
X64411Y-44401
X64426Y-38978
X64426Y-46061
X64440Y-41354
X64440Y-43686
X64545Y-40209
X64545Y-44830
X64574Y-40925
X64574Y-44115
X64679Y-39780
X64679Y-45260
X64708Y-40496
X64708Y-44544
X64814Y-39351
X64814Y-45689
X64843Y-40066
X64843Y-44973
X64977Y-39637
X64977Y-45402
T3
X55266Y-36254
X55266Y-37254
X56220Y-47638
X57220Y-47638
X58220Y-47638
X58409Y-38756
X58409Y-39756
X58409Y-40756
X58409Y-41756
X58409Y-42756
X58409Y-43756
X59220Y-47638
X59409Y-38756
X59409Y-39756
X59409Y-40756
X59409Y-41756
X59409Y-42756
X59409Y-43756
T4
X52264Y-36516
X52264Y-48524
X64272Y-36516
X64272Y-48524
T0
M30
