G04 #@! TF.FileFunction,Copper,L1,Top,Signal*
%FSLAX46Y46*%
G04 Gerber Fmt 4.6, Leading zero omitted, Abs format (unit mm)*
G04 Created by KiCad (PCBNEW (2015-11-03 BZR 6296)-product) date Tuesday, November 10, 2015 'PMt' 06:19:39 PM*
%MOMM*%
G01*
G04 APERTURE LIST*
%ADD10C,0.100000*%
%ADD11C,0.010000*%
%ADD12R,0.700000X0.200000*%
%ADD13R,1.501140X0.398780*%
%ADD14R,1.727200X1.727200*%
%ADD15O,1.727200X1.727200*%
%ADD16R,2.235200X2.235200*%
%ADD17C,0.685800*%
%ADD18C,0.685801*%
%ADD19C,0.152400*%
%ADD20C,0.254000*%
G04 APERTURE END LIST*
D10*
D11*
G36*
X138559423Y-93725069D02*
X138591094Y-93725572D01*
X138618725Y-93726621D01*
X138643824Y-93728340D01*
X138667893Y-93730851D01*
X138692439Y-93734276D01*
X138718967Y-93738740D01*
X138740931Y-93742815D01*
X138799786Y-93755578D01*
X138860883Y-93771645D01*
X138921336Y-93790182D01*
X138978260Y-93810354D01*
X138989639Y-93814777D01*
X139032817Y-93831970D01*
X139075192Y-93849108D01*
X139117150Y-93866370D01*
X139159080Y-93883937D01*
X139201369Y-93901989D01*
X139244404Y-93920707D01*
X139288573Y-93940271D01*
X139334265Y-93960862D01*
X139381866Y-93982659D01*
X139431764Y-94005844D01*
X139484347Y-94030597D01*
X139540003Y-94057099D01*
X139599118Y-94085528D01*
X139662082Y-94116067D01*
X139729280Y-94148896D01*
X139801102Y-94184194D01*
X139877935Y-94222143D01*
X139960166Y-94262923D01*
X140048183Y-94306714D01*
X140070903Y-94318037D01*
X140149183Y-94356981D01*
X140221702Y-94392880D01*
X140288949Y-94425961D01*
X140351415Y-94456448D01*
X140409589Y-94484567D01*
X140463962Y-94510545D01*
X140515024Y-94534606D01*
X140563265Y-94556978D01*
X140609175Y-94577885D01*
X140653244Y-94597553D01*
X140695962Y-94616208D01*
X140737819Y-94634076D01*
X140779306Y-94651382D01*
X140820912Y-94668353D01*
X140863128Y-94685213D01*
X140896403Y-94698281D01*
X140919926Y-94707518D01*
X140941319Y-94716037D01*
X140959688Y-94723473D01*
X140974143Y-94729460D01*
X140983791Y-94733635D01*
X140987732Y-94735624D01*
X140987199Y-94739719D01*
X140981987Y-94747737D01*
X140972739Y-94758968D01*
X140960100Y-94772704D01*
X140944712Y-94788236D01*
X140927219Y-94804855D01*
X140914178Y-94816657D01*
X140846199Y-94872758D01*
X140771764Y-94926253D01*
X140690994Y-94977086D01*
X140604011Y-95025200D01*
X140510938Y-95070538D01*
X140411897Y-95113043D01*
X140307009Y-95152658D01*
X140196398Y-95189327D01*
X140080185Y-95222992D01*
X139993292Y-95245296D01*
X139892697Y-95268538D01*
X139797709Y-95287867D01*
X139708081Y-95303303D01*
X139623561Y-95314868D01*
X139543901Y-95322580D01*
X139468851Y-95326462D01*
X139398163Y-95326535D01*
X139331587Y-95322818D01*
X139268874Y-95315332D01*
X139231082Y-95308660D01*
X139170450Y-95293748D01*
X139115094Y-95274367D01*
X139065086Y-95250590D01*
X139020499Y-95222491D01*
X138981404Y-95190142D01*
X138947873Y-95153617D01*
X138919979Y-95112988D01*
X138897795Y-95068329D01*
X138881392Y-95019713D01*
X138870842Y-94967214D01*
X138867903Y-94940940D01*
X138867085Y-94929833D01*
X138866149Y-94921698D01*
X138864111Y-94915994D01*
X138859991Y-94912178D01*
X138852806Y-94909710D01*
X138841575Y-94908046D01*
X138825315Y-94906646D01*
X138803045Y-94904967D01*
X138802667Y-94904937D01*
X138775115Y-94902710D01*
X138753944Y-94900816D01*
X138738491Y-94899166D01*
X138728094Y-94897673D01*
X138722090Y-94896249D01*
X138719817Y-94894807D01*
X138719918Y-94893974D01*
X138717973Y-94892665D01*
X138711139Y-94892440D01*
X138701468Y-94893114D01*
X138691010Y-94894497D01*
X138681817Y-94896403D01*
X138677431Y-94897859D01*
X138671923Y-94899376D01*
X138660616Y-94901836D01*
X138644669Y-94905008D01*
X138625241Y-94908665D01*
X138603489Y-94912578D01*
X138598056Y-94913529D01*
X138516570Y-94927036D01*
X138439154Y-94938409D01*
X138363266Y-94947987D01*
X138286367Y-94956109D01*
X138262917Y-94958294D01*
X138240487Y-94959888D01*
X138213281Y-94961121D01*
X138182652Y-94961993D01*
X138149951Y-94962504D01*
X138116529Y-94962652D01*
X138083738Y-94962438D01*
X138052930Y-94961861D01*
X138025455Y-94960920D01*
X138002666Y-94959615D01*
X137989514Y-94958402D01*
X137916686Y-94948747D01*
X137845829Y-94936860D01*
X137775068Y-94922349D01*
X137702527Y-94904822D01*
X137626331Y-94883890D01*
X137610857Y-94879368D01*
X137588243Y-94872575D01*
X137571577Y-94867222D01*
X137559982Y-94862959D01*
X137552578Y-94859438D01*
X137548490Y-94856309D01*
X137547057Y-94853968D01*
X137546091Y-94848855D01*
X137544509Y-94837561D01*
X137542410Y-94820925D01*
X137539895Y-94799783D01*
X137537063Y-94774975D01*
X137534013Y-94747338D01*
X137530918Y-94718392D01*
X137527321Y-94684399D01*
X137524435Y-94656757D01*
X137522312Y-94634791D01*
X137521001Y-94617830D01*
X137520553Y-94605198D01*
X137521018Y-94596223D01*
X137522447Y-94590230D01*
X137524890Y-94586547D01*
X137528397Y-94584499D01*
X137533018Y-94583413D01*
X137538805Y-94582615D01*
X137541091Y-94582283D01*
X137552337Y-94580254D01*
X137569389Y-94576797D01*
X137591193Y-94572151D01*
X137616700Y-94566555D01*
X137644858Y-94560249D01*
X137674615Y-94553471D01*
X137704921Y-94546461D01*
X137734725Y-94539457D01*
X137762975Y-94532700D01*
X137788620Y-94526427D01*
X137807833Y-94521593D01*
X137910462Y-94494234D01*
X138006453Y-94466397D01*
X138096213Y-94437945D01*
X138180153Y-94408742D01*
X138258680Y-94378650D01*
X138332203Y-94347534D01*
X138344056Y-94342213D01*
X138414730Y-94307760D01*
X138486700Y-94268022D01*
X138558246Y-94224092D01*
X138627648Y-94177066D01*
X138693190Y-94128037D01*
X138737403Y-94091786D01*
X138755065Y-94076423D01*
X138773398Y-94060012D01*
X138791684Y-94043244D01*
X138809206Y-94026810D01*
X138825249Y-94011401D01*
X138839095Y-93997709D01*
X138850027Y-93986424D01*
X138857329Y-93978238D01*
X138860283Y-93973841D01*
X138860219Y-93973368D01*
X138854114Y-93970119D01*
X138842137Y-93965797D01*
X138825347Y-93960663D01*
X138804801Y-93954980D01*
X138781556Y-93949011D01*
X138756670Y-93943019D01*
X138731199Y-93937265D01*
X138706201Y-93932013D01*
X138682732Y-93927526D01*
X138661852Y-93924065D01*
X138661556Y-93924021D01*
X138606513Y-93917477D01*
X138552179Y-93914423D01*
X138497039Y-93914893D01*
X138439581Y-93918923D01*
X138378289Y-93926548D01*
X138348461Y-93931261D01*
X138255204Y-93949850D01*
X138165771Y-93973707D01*
X138080377Y-94002725D01*
X137999234Y-94036797D01*
X137922557Y-94075818D01*
X137850558Y-94119681D01*
X137783451Y-94168280D01*
X137721449Y-94221509D01*
X137677949Y-94264915D01*
X137635574Y-94313556D01*
X137597536Y-94364333D01*
X137564493Y-94416230D01*
X137537105Y-94468230D01*
X137519656Y-94509355D01*
X137514680Y-94521769D01*
X137510056Y-94531937D01*
X137506789Y-94537652D01*
X137503532Y-94540958D01*
X137495631Y-94548670D01*
X137483561Y-94560334D01*
X137467793Y-94575496D01*
X137448801Y-94593704D01*
X137427057Y-94614504D01*
X137403034Y-94637442D01*
X137377205Y-94662065D01*
X137358042Y-94680309D01*
X137331341Y-94705737D01*
X137306208Y-94729712D01*
X137283104Y-94751794D01*
X137262486Y-94771540D01*
X137244813Y-94788513D01*
X137230545Y-94802270D01*
X137220139Y-94812371D01*
X137214055Y-94818376D01*
X137212607Y-94819922D01*
X137215572Y-94821699D01*
X137224384Y-94826052D01*
X137238436Y-94832701D01*
X137257123Y-94841368D01*
X137279836Y-94851773D01*
X137305972Y-94863637D01*
X137334923Y-94876683D01*
X137366083Y-94890630D01*
X137373468Y-94893923D01*
X137535126Y-94965942D01*
X137551981Y-95026214D01*
X137560094Y-95054199D01*
X137569941Y-95086534D01*
X137580916Y-95121347D01*
X137592411Y-95156762D01*
X137603817Y-95190907D01*
X137614527Y-95221907D01*
X137623511Y-95246757D01*
X137628959Y-95260443D01*
X137633479Y-95268917D01*
X137638136Y-95273733D01*
X137643830Y-95276392D01*
X137651132Y-95277558D01*
X137664453Y-95278496D01*
X137682760Y-95279209D01*
X137705020Y-95279697D01*
X137730201Y-95279965D01*
X137757269Y-95280013D01*
X137785192Y-95279845D01*
X137812937Y-95279461D01*
X137839472Y-95278866D01*
X137863763Y-95278060D01*
X137884777Y-95277046D01*
X137901319Y-95275841D01*
X138064261Y-95258212D01*
X138164139Y-95244838D01*
X138206859Y-95238400D01*
X138243678Y-95232100D01*
X138275734Y-95225624D01*
X138304167Y-95218661D01*
X138330116Y-95210899D01*
X138354721Y-95202025D01*
X138379122Y-95191727D01*
X138404457Y-95179694D01*
X138407556Y-95178147D01*
X138463115Y-95146813D01*
X138517664Y-95109211D01*
X138570233Y-95066128D01*
X138619852Y-95018353D01*
X138660314Y-94973042D01*
X138678347Y-94951319D01*
X138680748Y-94976569D01*
X138687775Y-95023991D01*
X138699681Y-95073168D01*
X138715802Y-95122224D01*
X138735477Y-95169282D01*
X138758042Y-95212463D01*
X138771719Y-95234289D01*
X138809340Y-95284006D01*
X138852141Y-95329003D01*
X138900037Y-95369251D01*
X138952937Y-95404723D01*
X139010757Y-95435389D01*
X139073406Y-95461223D01*
X139140799Y-95482197D01*
X139212848Y-95498282D01*
X139289465Y-95509451D01*
X139370562Y-95515676D01*
X139456053Y-95516929D01*
X139545848Y-95513182D01*
X139624639Y-95506139D01*
X139697782Y-95496822D01*
X139775875Y-95484509D01*
X139857621Y-95469481D01*
X139941724Y-95452024D01*
X140026887Y-95432418D01*
X140111813Y-95410949D01*
X140195205Y-95387899D01*
X140271986Y-95364745D01*
X140369460Y-95332112D01*
X140463786Y-95296670D01*
X140554613Y-95258629D01*
X140641592Y-95218203D01*
X140724372Y-95175600D01*
X140802604Y-95131034D01*
X140875937Y-95084714D01*
X140944021Y-95036853D01*
X141006506Y-94987661D01*
X141063041Y-94937350D01*
X141113278Y-94886131D01*
X141156865Y-94834215D01*
X141161516Y-94828103D01*
X141171132Y-94815676D01*
X141177892Y-94808104D01*
X141182929Y-94804422D01*
X141187377Y-94803664D01*
X141189726Y-94804079D01*
X141209163Y-94808388D01*
X141234240Y-94813070D01*
X141263568Y-94817922D01*
X141295757Y-94822737D01*
X141329415Y-94827313D01*
X141363152Y-94831443D01*
X141395578Y-94834923D01*
X141406167Y-94835932D01*
X141437905Y-94838462D01*
X141469888Y-94840184D01*
X141502791Y-94841067D01*
X141537290Y-94841080D01*
X141574060Y-94840194D01*
X141613775Y-94838377D01*
X141657113Y-94835599D01*
X141704746Y-94831829D01*
X141757352Y-94827037D01*
X141815605Y-94821192D01*
X141877125Y-94814600D01*
X141966165Y-94804237D01*
X142061639Y-94792018D01*
X142163193Y-94778007D01*
X142270469Y-94762269D01*
X142383115Y-94744868D01*
X142500774Y-94725867D01*
X142623091Y-94705332D01*
X142749712Y-94683326D01*
X142880280Y-94659914D01*
X143014441Y-94635160D01*
X143151840Y-94609128D01*
X143292121Y-94581882D01*
X143434930Y-94553486D01*
X143579911Y-94524006D01*
X143726709Y-94493505D01*
X143874969Y-94462046D01*
X144024335Y-94429696D01*
X144111972Y-94410408D01*
X144156466Y-94400554D01*
X144194684Y-94392267D01*
X144227258Y-94385680D01*
X144254823Y-94380928D01*
X144278011Y-94378146D01*
X144297455Y-94377468D01*
X144313788Y-94379028D01*
X144327642Y-94382962D01*
X144339652Y-94389404D01*
X144350449Y-94398488D01*
X144360667Y-94410348D01*
X144370938Y-94425120D01*
X144381896Y-94442938D01*
X144394174Y-94463936D01*
X144398453Y-94471295D01*
X144435722Y-94537072D01*
X144470654Y-94602322D01*
X144502855Y-94666214D01*
X144531929Y-94727915D01*
X144557481Y-94786594D01*
X144579117Y-94841419D01*
X144592982Y-94880859D01*
X144608442Y-94933272D01*
X144619158Y-94982184D01*
X144625158Y-95027367D01*
X144626469Y-95068594D01*
X144623119Y-95105635D01*
X144615134Y-95138262D01*
X144602543Y-95166247D01*
X144585372Y-95189362D01*
X144563649Y-95207378D01*
X144553124Y-95213395D01*
X144542991Y-95218154D01*
X144531941Y-95222524D01*
X144519615Y-95226533D01*
X144505657Y-95230209D01*
X144489709Y-95233581D01*
X144471413Y-95236677D01*
X144450414Y-95239524D01*
X144426352Y-95242152D01*
X144398872Y-95244587D01*
X144367615Y-95246859D01*
X144332225Y-95248995D01*
X144292343Y-95251023D01*
X144247613Y-95252973D01*
X144197677Y-95254871D01*
X144142178Y-95256746D01*
X144080759Y-95258626D01*
X144013062Y-95260540D01*
X143938731Y-95262515D01*
X143925000Y-95262869D01*
X143802923Y-95266207D01*
X143687344Y-95269786D01*
X143577707Y-95273639D01*
X143473456Y-95277794D01*
X143374037Y-95282284D01*
X143278895Y-95287138D01*
X143187474Y-95292388D01*
X143099219Y-95298064D01*
X143013574Y-95304196D01*
X142929985Y-95310816D01*
X142847897Y-95317954D01*
X142766754Y-95325640D01*
X142739667Y-95328345D01*
X142610967Y-95342177D01*
X142486502Y-95357273D01*
X142365523Y-95373805D01*
X142247281Y-95391941D01*
X142131028Y-95411851D01*
X142016016Y-95433705D01*
X141901496Y-95457671D01*
X141786721Y-95483920D01*
X141670941Y-95512620D01*
X141553408Y-95543942D01*
X141433373Y-95578054D01*
X141310090Y-95615127D01*
X141182808Y-95655329D01*
X141050780Y-95698830D01*
X140945792Y-95734551D01*
X140895932Y-95752059D01*
X140848400Y-95769485D01*
X140802527Y-95787150D01*
X140757643Y-95805374D01*
X140713080Y-95824476D01*
X140668167Y-95844779D01*
X140622235Y-95866601D01*
X140574615Y-95890263D01*
X140524637Y-95916085D01*
X140471633Y-95944388D01*
X140414932Y-95975492D01*
X140353865Y-96009717D01*
X140287763Y-96047384D01*
X140266694Y-96059493D01*
X140208073Y-96093223D01*
X140155102Y-96123651D01*
X140107334Y-96151025D01*
X140064321Y-96175591D01*
X140025616Y-96197596D01*
X139990771Y-96217287D01*
X139959338Y-96234910D01*
X139930870Y-96250714D01*
X139904919Y-96264944D01*
X139881037Y-96277848D01*
X139858777Y-96289672D01*
X139837692Y-96300664D01*
X139817332Y-96311070D01*
X139797252Y-96321138D01*
X139777003Y-96331113D01*
X139756138Y-96341244D01*
X139754306Y-96342128D01*
X139686867Y-96373565D01*
X139623250Y-96400819D01*
X139562082Y-96424282D01*
X139501992Y-96444345D01*
X139441609Y-96461402D01*
X139379560Y-96475844D01*
X139314474Y-96488064D01*
X139244978Y-96498454D01*
X139180139Y-96506279D01*
X139139152Y-96510039D01*
X139093206Y-96512999D01*
X139044358Y-96515105D01*
X138994663Y-96516301D01*
X138946179Y-96516532D01*
X138900962Y-96515744D01*
X138871458Y-96514508D01*
X138791912Y-96507865D01*
X138711456Y-96496743D01*
X138631278Y-96481443D01*
X138552567Y-96462263D01*
X138476511Y-96439501D01*
X138404298Y-96413456D01*
X138337116Y-96384427D01*
X138319008Y-96375625D01*
X138238028Y-96331372D01*
X138158806Y-96280408D01*
X138081482Y-96222893D01*
X138006195Y-96158983D01*
X137933086Y-96088836D01*
X137862295Y-96012610D01*
X137793960Y-95930463D01*
X137728223Y-95842552D01*
X137665222Y-95749036D01*
X137605097Y-95650070D01*
X137547989Y-95545814D01*
X137502897Y-95455201D01*
X137484559Y-95415287D01*
X137466937Y-95373922D01*
X137449526Y-95329814D01*
X137431819Y-95281672D01*
X137413310Y-95228204D01*
X137408965Y-95215250D01*
X137401296Y-95191804D01*
X137393193Y-95166214D01*
X137385008Y-95139673D01*
X137377093Y-95113373D01*
X137369801Y-95088508D01*
X137363485Y-95066269D01*
X137358496Y-95047848D01*
X137355187Y-95034440D01*
X137354378Y-95030558D01*
X137352209Y-95018996D01*
X137147595Y-94936428D01*
X137111615Y-94921883D01*
X137077607Y-94908085D01*
X137046132Y-94895266D01*
X137017748Y-94883654D01*
X136993014Y-94873480D01*
X136972490Y-94864974D01*
X136956734Y-94858367D01*
X136946307Y-94853889D01*
X136941768Y-94851769D01*
X136941619Y-94851656D01*
X136943960Y-94849006D01*
X136951162Y-94842050D01*
X136962812Y-94831163D01*
X136978495Y-94816724D01*
X136997797Y-94799108D01*
X137020304Y-94778694D01*
X137045601Y-94755859D01*
X137073274Y-94730979D01*
X137102909Y-94704432D01*
X137128286Y-94681769D01*
X137164302Y-94649640D01*
X137195416Y-94621846D01*
X137221998Y-94598033D01*
X137244415Y-94577848D01*
X137263038Y-94560935D01*
X137278235Y-94546942D01*
X137290376Y-94535513D01*
X137299830Y-94526294D01*
X137306965Y-94518931D01*
X137312152Y-94513071D01*
X137315759Y-94508358D01*
X137318156Y-94504439D01*
X137319712Y-94500959D01*
X137320795Y-94497565D01*
X137320979Y-94496897D01*
X137327388Y-94476348D01*
X137336490Y-94451398D01*
X137347560Y-94423816D01*
X137359874Y-94395375D01*
X137372705Y-94367843D01*
X137379300Y-94354554D01*
X137411749Y-94296345D01*
X137448977Y-94240220D01*
X137491666Y-94185249D01*
X137540499Y-94130502D01*
X137553642Y-94116849D01*
X137609151Y-94063310D01*
X137666431Y-94014827D01*
X137726685Y-93970531D01*
X137791117Y-93929557D01*
X137860931Y-93891037D01*
X137881917Y-93880420D01*
X137949971Y-93848548D01*
X138017985Y-93820713D01*
X138087187Y-93796541D01*
X138158807Y-93775659D01*
X138234072Y-93757692D01*
X138314212Y-93742268D01*
X138360680Y-93734752D01*
X138380516Y-93731832D01*
X138397844Y-93729566D01*
X138414061Y-93727870D01*
X138430562Y-93726659D01*
X138448742Y-93725848D01*
X138469998Y-93725355D01*
X138495724Y-93725094D01*
X138522208Y-93724991D01*
X138559423Y-93725069D01*
X138559423Y-93725069D01*
G37*
X138559423Y-93725069D02*
X138591094Y-93725572D01*
X138618725Y-93726621D01*
X138643824Y-93728340D01*
X138667893Y-93730851D01*
X138692439Y-93734276D01*
X138718967Y-93738740D01*
X138740931Y-93742815D01*
X138799786Y-93755578D01*
X138860883Y-93771645D01*
X138921336Y-93790182D01*
X138978260Y-93810354D01*
X138989639Y-93814777D01*
X139032817Y-93831970D01*
X139075192Y-93849108D01*
X139117150Y-93866370D01*
X139159080Y-93883937D01*
X139201369Y-93901989D01*
X139244404Y-93920707D01*
X139288573Y-93940271D01*
X139334265Y-93960862D01*
X139381866Y-93982659D01*
X139431764Y-94005844D01*
X139484347Y-94030597D01*
X139540003Y-94057099D01*
X139599118Y-94085528D01*
X139662082Y-94116067D01*
X139729280Y-94148896D01*
X139801102Y-94184194D01*
X139877935Y-94222143D01*
X139960166Y-94262923D01*
X140048183Y-94306714D01*
X140070903Y-94318037D01*
X140149183Y-94356981D01*
X140221702Y-94392880D01*
X140288949Y-94425961D01*
X140351415Y-94456448D01*
X140409589Y-94484567D01*
X140463962Y-94510545D01*
X140515024Y-94534606D01*
X140563265Y-94556978D01*
X140609175Y-94577885D01*
X140653244Y-94597553D01*
X140695962Y-94616208D01*
X140737819Y-94634076D01*
X140779306Y-94651382D01*
X140820912Y-94668353D01*
X140863128Y-94685213D01*
X140896403Y-94698281D01*
X140919926Y-94707518D01*
X140941319Y-94716037D01*
X140959688Y-94723473D01*
X140974143Y-94729460D01*
X140983791Y-94733635D01*
X140987732Y-94735624D01*
X140987199Y-94739719D01*
X140981987Y-94747737D01*
X140972739Y-94758968D01*
X140960100Y-94772704D01*
X140944712Y-94788236D01*
X140927219Y-94804855D01*
X140914178Y-94816657D01*
X140846199Y-94872758D01*
X140771764Y-94926253D01*
X140690994Y-94977086D01*
X140604011Y-95025200D01*
X140510938Y-95070538D01*
X140411897Y-95113043D01*
X140307009Y-95152658D01*
X140196398Y-95189327D01*
X140080185Y-95222992D01*
X139993292Y-95245296D01*
X139892697Y-95268538D01*
X139797709Y-95287867D01*
X139708081Y-95303303D01*
X139623561Y-95314868D01*
X139543901Y-95322580D01*
X139468851Y-95326462D01*
X139398163Y-95326535D01*
X139331587Y-95322818D01*
X139268874Y-95315332D01*
X139231082Y-95308660D01*
X139170450Y-95293748D01*
X139115094Y-95274367D01*
X139065086Y-95250590D01*
X139020499Y-95222491D01*
X138981404Y-95190142D01*
X138947873Y-95153617D01*
X138919979Y-95112988D01*
X138897795Y-95068329D01*
X138881392Y-95019713D01*
X138870842Y-94967214D01*
X138867903Y-94940940D01*
X138867085Y-94929833D01*
X138866149Y-94921698D01*
X138864111Y-94915994D01*
X138859991Y-94912178D01*
X138852806Y-94909710D01*
X138841575Y-94908046D01*
X138825315Y-94906646D01*
X138803045Y-94904967D01*
X138802667Y-94904937D01*
X138775115Y-94902710D01*
X138753944Y-94900816D01*
X138738491Y-94899166D01*
X138728094Y-94897673D01*
X138722090Y-94896249D01*
X138719817Y-94894807D01*
X138719918Y-94893974D01*
X138717973Y-94892665D01*
X138711139Y-94892440D01*
X138701468Y-94893114D01*
X138691010Y-94894497D01*
X138681817Y-94896403D01*
X138677431Y-94897859D01*
X138671923Y-94899376D01*
X138660616Y-94901836D01*
X138644669Y-94905008D01*
X138625241Y-94908665D01*
X138603489Y-94912578D01*
X138598056Y-94913529D01*
X138516570Y-94927036D01*
X138439154Y-94938409D01*
X138363266Y-94947987D01*
X138286367Y-94956109D01*
X138262917Y-94958294D01*
X138240487Y-94959888D01*
X138213281Y-94961121D01*
X138182652Y-94961993D01*
X138149951Y-94962504D01*
X138116529Y-94962652D01*
X138083738Y-94962438D01*
X138052930Y-94961861D01*
X138025455Y-94960920D01*
X138002666Y-94959615D01*
X137989514Y-94958402D01*
X137916686Y-94948747D01*
X137845829Y-94936860D01*
X137775068Y-94922349D01*
X137702527Y-94904822D01*
X137626331Y-94883890D01*
X137610857Y-94879368D01*
X137588243Y-94872575D01*
X137571577Y-94867222D01*
X137559982Y-94862959D01*
X137552578Y-94859438D01*
X137548490Y-94856309D01*
X137547057Y-94853968D01*
X137546091Y-94848855D01*
X137544509Y-94837561D01*
X137542410Y-94820925D01*
X137539895Y-94799783D01*
X137537063Y-94774975D01*
X137534013Y-94747338D01*
X137530918Y-94718392D01*
X137527321Y-94684399D01*
X137524435Y-94656757D01*
X137522312Y-94634791D01*
X137521001Y-94617830D01*
X137520553Y-94605198D01*
X137521018Y-94596223D01*
X137522447Y-94590230D01*
X137524890Y-94586547D01*
X137528397Y-94584499D01*
X137533018Y-94583413D01*
X137538805Y-94582615D01*
X137541091Y-94582283D01*
X137552337Y-94580254D01*
X137569389Y-94576797D01*
X137591193Y-94572151D01*
X137616700Y-94566555D01*
X137644858Y-94560249D01*
X137674615Y-94553471D01*
X137704921Y-94546461D01*
X137734725Y-94539457D01*
X137762975Y-94532700D01*
X137788620Y-94526427D01*
X137807833Y-94521593D01*
X137910462Y-94494234D01*
X138006453Y-94466397D01*
X138096213Y-94437945D01*
X138180153Y-94408742D01*
X138258680Y-94378650D01*
X138332203Y-94347534D01*
X138344056Y-94342213D01*
X138414730Y-94307760D01*
X138486700Y-94268022D01*
X138558246Y-94224092D01*
X138627648Y-94177066D01*
X138693190Y-94128037D01*
X138737403Y-94091786D01*
X138755065Y-94076423D01*
X138773398Y-94060012D01*
X138791684Y-94043244D01*
X138809206Y-94026810D01*
X138825249Y-94011401D01*
X138839095Y-93997709D01*
X138850027Y-93986424D01*
X138857329Y-93978238D01*
X138860283Y-93973841D01*
X138860219Y-93973368D01*
X138854114Y-93970119D01*
X138842137Y-93965797D01*
X138825347Y-93960663D01*
X138804801Y-93954980D01*
X138781556Y-93949011D01*
X138756670Y-93943019D01*
X138731199Y-93937265D01*
X138706201Y-93932013D01*
X138682732Y-93927526D01*
X138661852Y-93924065D01*
X138661556Y-93924021D01*
X138606513Y-93917477D01*
X138552179Y-93914423D01*
X138497039Y-93914893D01*
X138439581Y-93918923D01*
X138378289Y-93926548D01*
X138348461Y-93931261D01*
X138255204Y-93949850D01*
X138165771Y-93973707D01*
X138080377Y-94002725D01*
X137999234Y-94036797D01*
X137922557Y-94075818D01*
X137850558Y-94119681D01*
X137783451Y-94168280D01*
X137721449Y-94221509D01*
X137677949Y-94264915D01*
X137635574Y-94313556D01*
X137597536Y-94364333D01*
X137564493Y-94416230D01*
X137537105Y-94468230D01*
X137519656Y-94509355D01*
X137514680Y-94521769D01*
X137510056Y-94531937D01*
X137506789Y-94537652D01*
X137503532Y-94540958D01*
X137495631Y-94548670D01*
X137483561Y-94560334D01*
X137467793Y-94575496D01*
X137448801Y-94593704D01*
X137427057Y-94614504D01*
X137403034Y-94637442D01*
X137377205Y-94662065D01*
X137358042Y-94680309D01*
X137331341Y-94705737D01*
X137306208Y-94729712D01*
X137283104Y-94751794D01*
X137262486Y-94771540D01*
X137244813Y-94788513D01*
X137230545Y-94802270D01*
X137220139Y-94812371D01*
X137214055Y-94818376D01*
X137212607Y-94819922D01*
X137215572Y-94821699D01*
X137224384Y-94826052D01*
X137238436Y-94832701D01*
X137257123Y-94841368D01*
X137279836Y-94851773D01*
X137305972Y-94863637D01*
X137334923Y-94876683D01*
X137366083Y-94890630D01*
X137373468Y-94893923D01*
X137535126Y-94965942D01*
X137551981Y-95026214D01*
X137560094Y-95054199D01*
X137569941Y-95086534D01*
X137580916Y-95121347D01*
X137592411Y-95156762D01*
X137603817Y-95190907D01*
X137614527Y-95221907D01*
X137623511Y-95246757D01*
X137628959Y-95260443D01*
X137633479Y-95268917D01*
X137638136Y-95273733D01*
X137643830Y-95276392D01*
X137651132Y-95277558D01*
X137664453Y-95278496D01*
X137682760Y-95279209D01*
X137705020Y-95279697D01*
X137730201Y-95279965D01*
X137757269Y-95280013D01*
X137785192Y-95279845D01*
X137812937Y-95279461D01*
X137839472Y-95278866D01*
X137863763Y-95278060D01*
X137884777Y-95277046D01*
X137901319Y-95275841D01*
X138064261Y-95258212D01*
X138164139Y-95244838D01*
X138206859Y-95238400D01*
X138243678Y-95232100D01*
X138275734Y-95225624D01*
X138304167Y-95218661D01*
X138330116Y-95210899D01*
X138354721Y-95202025D01*
X138379122Y-95191727D01*
X138404457Y-95179694D01*
X138407556Y-95178147D01*
X138463115Y-95146813D01*
X138517664Y-95109211D01*
X138570233Y-95066128D01*
X138619852Y-95018353D01*
X138660314Y-94973042D01*
X138678347Y-94951319D01*
X138680748Y-94976569D01*
X138687775Y-95023991D01*
X138699681Y-95073168D01*
X138715802Y-95122224D01*
X138735477Y-95169282D01*
X138758042Y-95212463D01*
X138771719Y-95234289D01*
X138809340Y-95284006D01*
X138852141Y-95329003D01*
X138900037Y-95369251D01*
X138952937Y-95404723D01*
X139010757Y-95435389D01*
X139073406Y-95461223D01*
X139140799Y-95482197D01*
X139212848Y-95498282D01*
X139289465Y-95509451D01*
X139370562Y-95515676D01*
X139456053Y-95516929D01*
X139545848Y-95513182D01*
X139624639Y-95506139D01*
X139697782Y-95496822D01*
X139775875Y-95484509D01*
X139857621Y-95469481D01*
X139941724Y-95452024D01*
X140026887Y-95432418D01*
X140111813Y-95410949D01*
X140195205Y-95387899D01*
X140271986Y-95364745D01*
X140369460Y-95332112D01*
X140463786Y-95296670D01*
X140554613Y-95258629D01*
X140641592Y-95218203D01*
X140724372Y-95175600D01*
X140802604Y-95131034D01*
X140875937Y-95084714D01*
X140944021Y-95036853D01*
X141006506Y-94987661D01*
X141063041Y-94937350D01*
X141113278Y-94886131D01*
X141156865Y-94834215D01*
X141161516Y-94828103D01*
X141171132Y-94815676D01*
X141177892Y-94808104D01*
X141182929Y-94804422D01*
X141187377Y-94803664D01*
X141189726Y-94804079D01*
X141209163Y-94808388D01*
X141234240Y-94813070D01*
X141263568Y-94817922D01*
X141295757Y-94822737D01*
X141329415Y-94827313D01*
X141363152Y-94831443D01*
X141395578Y-94834923D01*
X141406167Y-94835932D01*
X141437905Y-94838462D01*
X141469888Y-94840184D01*
X141502791Y-94841067D01*
X141537290Y-94841080D01*
X141574060Y-94840194D01*
X141613775Y-94838377D01*
X141657113Y-94835599D01*
X141704746Y-94831829D01*
X141757352Y-94827037D01*
X141815605Y-94821192D01*
X141877125Y-94814600D01*
X141966165Y-94804237D01*
X142061639Y-94792018D01*
X142163193Y-94778007D01*
X142270469Y-94762269D01*
X142383115Y-94744868D01*
X142500774Y-94725867D01*
X142623091Y-94705332D01*
X142749712Y-94683326D01*
X142880280Y-94659914D01*
X143014441Y-94635160D01*
X143151840Y-94609128D01*
X143292121Y-94581882D01*
X143434930Y-94553486D01*
X143579911Y-94524006D01*
X143726709Y-94493505D01*
X143874969Y-94462046D01*
X144024335Y-94429696D01*
X144111972Y-94410408D01*
X144156466Y-94400554D01*
X144194684Y-94392267D01*
X144227258Y-94385680D01*
X144254823Y-94380928D01*
X144278011Y-94378146D01*
X144297455Y-94377468D01*
X144313788Y-94379028D01*
X144327642Y-94382962D01*
X144339652Y-94389404D01*
X144350449Y-94398488D01*
X144360667Y-94410348D01*
X144370938Y-94425120D01*
X144381896Y-94442938D01*
X144394174Y-94463936D01*
X144398453Y-94471295D01*
X144435722Y-94537072D01*
X144470654Y-94602322D01*
X144502855Y-94666214D01*
X144531929Y-94727915D01*
X144557481Y-94786594D01*
X144579117Y-94841419D01*
X144592982Y-94880859D01*
X144608442Y-94933272D01*
X144619158Y-94982184D01*
X144625158Y-95027367D01*
X144626469Y-95068594D01*
X144623119Y-95105635D01*
X144615134Y-95138262D01*
X144602543Y-95166247D01*
X144585372Y-95189362D01*
X144563649Y-95207378D01*
X144553124Y-95213395D01*
X144542991Y-95218154D01*
X144531941Y-95222524D01*
X144519615Y-95226533D01*
X144505657Y-95230209D01*
X144489709Y-95233581D01*
X144471413Y-95236677D01*
X144450414Y-95239524D01*
X144426352Y-95242152D01*
X144398872Y-95244587D01*
X144367615Y-95246859D01*
X144332225Y-95248995D01*
X144292343Y-95251023D01*
X144247613Y-95252973D01*
X144197677Y-95254871D01*
X144142178Y-95256746D01*
X144080759Y-95258626D01*
X144013062Y-95260540D01*
X143938731Y-95262515D01*
X143925000Y-95262869D01*
X143802923Y-95266207D01*
X143687344Y-95269786D01*
X143577707Y-95273639D01*
X143473456Y-95277794D01*
X143374037Y-95282284D01*
X143278895Y-95287138D01*
X143187474Y-95292388D01*
X143099219Y-95298064D01*
X143013574Y-95304196D01*
X142929985Y-95310816D01*
X142847897Y-95317954D01*
X142766754Y-95325640D01*
X142739667Y-95328345D01*
X142610967Y-95342177D01*
X142486502Y-95357273D01*
X142365523Y-95373805D01*
X142247281Y-95391941D01*
X142131028Y-95411851D01*
X142016016Y-95433705D01*
X141901496Y-95457671D01*
X141786721Y-95483920D01*
X141670941Y-95512620D01*
X141553408Y-95543942D01*
X141433373Y-95578054D01*
X141310090Y-95615127D01*
X141182808Y-95655329D01*
X141050780Y-95698830D01*
X140945792Y-95734551D01*
X140895932Y-95752059D01*
X140848400Y-95769485D01*
X140802527Y-95787150D01*
X140757643Y-95805374D01*
X140713080Y-95824476D01*
X140668167Y-95844779D01*
X140622235Y-95866601D01*
X140574615Y-95890263D01*
X140524637Y-95916085D01*
X140471633Y-95944388D01*
X140414932Y-95975492D01*
X140353865Y-96009717D01*
X140287763Y-96047384D01*
X140266694Y-96059493D01*
X140208073Y-96093223D01*
X140155102Y-96123651D01*
X140107334Y-96151025D01*
X140064321Y-96175591D01*
X140025616Y-96197596D01*
X139990771Y-96217287D01*
X139959338Y-96234910D01*
X139930870Y-96250714D01*
X139904919Y-96264944D01*
X139881037Y-96277848D01*
X139858777Y-96289672D01*
X139837692Y-96300664D01*
X139817332Y-96311070D01*
X139797252Y-96321138D01*
X139777003Y-96331113D01*
X139756138Y-96341244D01*
X139754306Y-96342128D01*
X139686867Y-96373565D01*
X139623250Y-96400819D01*
X139562082Y-96424282D01*
X139501992Y-96444345D01*
X139441609Y-96461402D01*
X139379560Y-96475844D01*
X139314474Y-96488064D01*
X139244978Y-96498454D01*
X139180139Y-96506279D01*
X139139152Y-96510039D01*
X139093206Y-96512999D01*
X139044358Y-96515105D01*
X138994663Y-96516301D01*
X138946179Y-96516532D01*
X138900962Y-96515744D01*
X138871458Y-96514508D01*
X138791912Y-96507865D01*
X138711456Y-96496743D01*
X138631278Y-96481443D01*
X138552567Y-96462263D01*
X138476511Y-96439501D01*
X138404298Y-96413456D01*
X138337116Y-96384427D01*
X138319008Y-96375625D01*
X138238028Y-96331372D01*
X138158806Y-96280408D01*
X138081482Y-96222893D01*
X138006195Y-96158983D01*
X137933086Y-96088836D01*
X137862295Y-96012610D01*
X137793960Y-95930463D01*
X137728223Y-95842552D01*
X137665222Y-95749036D01*
X137605097Y-95650070D01*
X137547989Y-95545814D01*
X137502897Y-95455201D01*
X137484559Y-95415287D01*
X137466937Y-95373922D01*
X137449526Y-95329814D01*
X137431819Y-95281672D01*
X137413310Y-95228204D01*
X137408965Y-95215250D01*
X137401296Y-95191804D01*
X137393193Y-95166214D01*
X137385008Y-95139673D01*
X137377093Y-95113373D01*
X137369801Y-95088508D01*
X137363485Y-95066269D01*
X137358496Y-95047848D01*
X137355187Y-95034440D01*
X137354378Y-95030558D01*
X137352209Y-95018996D01*
X137147595Y-94936428D01*
X137111615Y-94921883D01*
X137077607Y-94908085D01*
X137046132Y-94895266D01*
X137017748Y-94883654D01*
X136993014Y-94873480D01*
X136972490Y-94864974D01*
X136956734Y-94858367D01*
X136946307Y-94853889D01*
X136941768Y-94851769D01*
X136941619Y-94851656D01*
X136943960Y-94849006D01*
X136951162Y-94842050D01*
X136962812Y-94831163D01*
X136978495Y-94816724D01*
X136997797Y-94799108D01*
X137020304Y-94778694D01*
X137045601Y-94755859D01*
X137073274Y-94730979D01*
X137102909Y-94704432D01*
X137128286Y-94681769D01*
X137164302Y-94649640D01*
X137195416Y-94621846D01*
X137221998Y-94598033D01*
X137244415Y-94577848D01*
X137263038Y-94560935D01*
X137278235Y-94546942D01*
X137290376Y-94535513D01*
X137299830Y-94526294D01*
X137306965Y-94518931D01*
X137312152Y-94513071D01*
X137315759Y-94508358D01*
X137318156Y-94504439D01*
X137319712Y-94500959D01*
X137320795Y-94497565D01*
X137320979Y-94496897D01*
X137327388Y-94476348D01*
X137336490Y-94451398D01*
X137347560Y-94423816D01*
X137359874Y-94395375D01*
X137372705Y-94367843D01*
X137379300Y-94354554D01*
X137411749Y-94296345D01*
X137448977Y-94240220D01*
X137491666Y-94185249D01*
X137540499Y-94130502D01*
X137553642Y-94116849D01*
X137609151Y-94063310D01*
X137666431Y-94014827D01*
X137726685Y-93970531D01*
X137791117Y-93929557D01*
X137860931Y-93891037D01*
X137881917Y-93880420D01*
X137949971Y-93848548D01*
X138017985Y-93820713D01*
X138087187Y-93796541D01*
X138158807Y-93775659D01*
X138234072Y-93757692D01*
X138314212Y-93742268D01*
X138360680Y-93734752D01*
X138380516Y-93731832D01*
X138397844Y-93729566D01*
X138414061Y-93727870D01*
X138430562Y-93726659D01*
X138448742Y-93725848D01*
X138469998Y-93725355D01*
X138495724Y-93725094D01*
X138522208Y-93724991D01*
X138559423Y-93725069D01*
D12*
X161190000Y-100200000D03*
X161190000Y-100600000D03*
X161190000Y-101000000D03*
X161190000Y-101400000D03*
X161190000Y-101800000D03*
X161190000Y-102200000D03*
X161190000Y-102600000D03*
X161190000Y-103000000D03*
X161190000Y-103400000D03*
X161190000Y-103800000D03*
X161190000Y-107800000D03*
X161190000Y-107400000D03*
X161190000Y-107000000D03*
X161190000Y-106600000D03*
X161190000Y-106200000D03*
X161190000Y-105800000D03*
X161190000Y-105400000D03*
X161190000Y-105000000D03*
X161190000Y-104600000D03*
X161190000Y-104200000D03*
X161190000Y-108200000D03*
X161190000Y-108600000D03*
X161190000Y-109000000D03*
X161190000Y-109400000D03*
X161190000Y-109800000D03*
X161190000Y-110200000D03*
X161190000Y-110600000D03*
X161190000Y-111000000D03*
X161190000Y-111400000D03*
X161190000Y-111800000D03*
X161190000Y-115800000D03*
X161190000Y-115400000D03*
X161190000Y-115000000D03*
X161190000Y-114600000D03*
X161190000Y-114200000D03*
X161190000Y-113800000D03*
X161190000Y-113400000D03*
X161190000Y-113000000D03*
X161190000Y-112600000D03*
X161190000Y-112200000D03*
X158110000Y-112200000D03*
X158110000Y-112600000D03*
X158110000Y-113000000D03*
X158110000Y-113400000D03*
X158110000Y-113800000D03*
X158110000Y-114200000D03*
X158110000Y-114600000D03*
X158110000Y-115000000D03*
X158110000Y-115400000D03*
X158110000Y-115800000D03*
X158110000Y-111800000D03*
X158110000Y-111400000D03*
X158110000Y-111000000D03*
X158110000Y-110600000D03*
X158110000Y-110200000D03*
X158110000Y-109800000D03*
X158110000Y-109400000D03*
X158110000Y-109000000D03*
X158110000Y-108600000D03*
X158110000Y-108200000D03*
X158110000Y-104200000D03*
X158110000Y-104600000D03*
X158110000Y-105000000D03*
X158110000Y-105400000D03*
X158110000Y-105800000D03*
X158110000Y-106200000D03*
X158110000Y-106600000D03*
X158110000Y-107000000D03*
X158110000Y-107400000D03*
X158110000Y-107800000D03*
X158110000Y-103800000D03*
X158110000Y-103400000D03*
X158110000Y-103000000D03*
X158110000Y-102600000D03*
X158110000Y-102200000D03*
X158110000Y-101800000D03*
X158110000Y-101400000D03*
X158110000Y-101000000D03*
X158110000Y-100600000D03*
X158110000Y-100200000D03*
D13*
X158461920Y-94250000D03*
X158461920Y-93599760D03*
X158461920Y-92949520D03*
X155800000Y-92949520D03*
X155800000Y-93599760D03*
X155800000Y-94250000D03*
X164300000Y-98250000D03*
X164300000Y-97599760D03*
X164300000Y-96949520D03*
X161638080Y-96949520D03*
X161638080Y-97599760D03*
X161638080Y-98250000D03*
X158611920Y-96700000D03*
X158611920Y-96049760D03*
X158611920Y-95399520D03*
X155950000Y-95399520D03*
X155950000Y-96049760D03*
X155950000Y-96700000D03*
D14*
X148360000Y-98440000D03*
D15*
X150900000Y-98440000D03*
X148360000Y-100980000D03*
X150900000Y-100980000D03*
X148360000Y-103520000D03*
X150900000Y-103520000D03*
X148360000Y-106060000D03*
X150900000Y-106060000D03*
X148360000Y-108600000D03*
X150900000Y-108600000D03*
X148360000Y-111140000D03*
X150900000Y-111140000D03*
D16*
X150380000Y-121760000D03*
D17*
X162950000Y-97849974D03*
X162500000Y-95300000D03*
D18*
X163335170Y-106128721D03*
X162579214Y-106491109D03*
X162993938Y-107218712D03*
X162237982Y-107581100D03*
X162237982Y-108419301D03*
X162993938Y-108781689D03*
X162579214Y-109509292D03*
X163335170Y-109871680D03*
D17*
X164264956Y-95352566D03*
X160500000Y-95450000D03*
X157300000Y-95000000D03*
X159100000Y-98150000D03*
X159950000Y-93400000D03*
X154500000Y-92950000D03*
X153600000Y-93750000D03*
X154325068Y-92130246D03*
X160303087Y-96914049D03*
X157300000Y-97100000D03*
X156750000Y-92200000D03*
X154650000Y-94900000D03*
D18*
X156380187Y-105401118D03*
D17*
X160729126Y-94320874D03*
D18*
X154941767Y-102858749D03*
X155697723Y-103221137D03*
D17*
X152900000Y-95460000D03*
X154220000Y-96350000D03*
D18*
X156306694Y-107218712D03*
X157062650Y-107581100D03*
X157062650Y-108419301D03*
X156306694Y-108781689D03*
X156721418Y-109509292D03*
X155965462Y-109871680D03*
D17*
X157909689Y-117082292D03*
D18*
X161045015Y-116945501D03*
X161045015Y-99054899D03*
X162035617Y-116147324D03*
X162511810Y-116834445D03*
X163166374Y-116308281D03*
X163642567Y-116995401D03*
X164626605Y-116049236D03*
X165041329Y-115321633D03*
X164285373Y-114959245D03*
X164700097Y-114231642D03*
X163944142Y-113869254D03*
X164358866Y-113141651D03*
X163602910Y-112779264D03*
X164017634Y-112051661D03*
X163261678Y-111689273D03*
X163676402Y-110961670D03*
X162920446Y-110599282D03*
X162920446Y-105401118D03*
X163676402Y-105038731D03*
X163261678Y-104311128D03*
X164017634Y-103948740D03*
X163602910Y-103221137D03*
X164358866Y-102858749D03*
X163944142Y-102131146D03*
X164700097Y-101768759D03*
X164285373Y-101041156D03*
X165041329Y-100678768D03*
X164626605Y-99951165D03*
X163642567Y-99005000D03*
X163166374Y-99692120D03*
X162511810Y-99165956D03*
X162035617Y-99853076D03*
X157630000Y-98890000D03*
X156788823Y-99165956D03*
X156134258Y-99692120D03*
X155658066Y-99005000D03*
X154674027Y-99951165D03*
X154259303Y-100678768D03*
X155015259Y-101041156D03*
X154600535Y-101768759D03*
X155356491Y-102131146D03*
X155965462Y-106128721D03*
X156721418Y-106491109D03*
X156380187Y-110599282D03*
X155624231Y-110961670D03*
X156038955Y-111689273D03*
X155282999Y-112051661D03*
X155697723Y-112779264D03*
X154941767Y-113141651D03*
X155356491Y-113869254D03*
X154600535Y-114231642D03*
X155015259Y-114959245D03*
X154259303Y-115321633D03*
X154674027Y-116049236D03*
X155560000Y-117010000D03*
D17*
X156275613Y-117454780D03*
D18*
X157130000Y-117390000D03*
D19*
X162950000Y-97849974D02*
X162950000Y-96450000D01*
X162950000Y-96450000D02*
X162850000Y-96350000D01*
X162950000Y-97849974D02*
X163350266Y-98250240D01*
X163350266Y-98250240D02*
X163350506Y-98250000D01*
X163350506Y-98250000D02*
X164300000Y-98250000D01*
X162850000Y-96350000D02*
X162550000Y-96050000D01*
X158461920Y-94250000D02*
X158461920Y-95249520D01*
X158461920Y-95249520D02*
X158611920Y-95399520D01*
X159353696Y-95399520D02*
X159975678Y-96021502D01*
X158611920Y-95399520D02*
X159353696Y-95399520D01*
X160771502Y-96021502D02*
X160528498Y-96021502D01*
X162550000Y-96050000D02*
X160800000Y-96050000D01*
X160800000Y-96050000D02*
X160771502Y-96021502D01*
X160528498Y-96021502D02*
X159914476Y-96021502D01*
X159235978Y-96700000D02*
X158611920Y-96700000D01*
X159975678Y-96021502D02*
X160528498Y-96021502D01*
X159914476Y-96021502D02*
X159235978Y-96700000D01*
X162500000Y-96000000D02*
X162500000Y-95784933D01*
X162550000Y-96050000D02*
X162500000Y-96000000D01*
X162500000Y-95784933D02*
X162500000Y-95300000D01*
X158611920Y-94261920D02*
X158600000Y-94250000D01*
X161190316Y-106624000D02*
X161540316Y-106624000D01*
X161540316Y-106624000D02*
X162460992Y-105841578D01*
X162460992Y-105841578D02*
X162749830Y-105946114D01*
X162749830Y-105946114D02*
X163335170Y-106128721D01*
X161190316Y-107024000D02*
X161540316Y-107024000D01*
X161540316Y-107024000D02*
X162406505Y-106287883D01*
X162406505Y-106287883D02*
X162579214Y-106491109D01*
X161190316Y-107424000D02*
X161540316Y-107424000D01*
X161540316Y-107424000D02*
X162119760Y-106931569D01*
X162119760Y-106931569D02*
X162408598Y-107036104D01*
X162408598Y-107036104D02*
X162993938Y-107218712D01*
X161190316Y-107824000D02*
X161540316Y-107824000D01*
X161540316Y-107824000D02*
X162065274Y-107377873D01*
X162065274Y-107377873D02*
X162237982Y-107581100D01*
X161190316Y-108176401D02*
X161540316Y-108176401D01*
X161540316Y-108176401D02*
X162065274Y-108622527D01*
X162065274Y-108622527D02*
X162237982Y-108419301D01*
X161190316Y-108576401D02*
X161540316Y-108576401D01*
X161540316Y-108576401D02*
X162119760Y-109068832D01*
X162119760Y-109068832D02*
X162408598Y-108964297D01*
X162408598Y-108964297D02*
X162993938Y-108781689D01*
X161190316Y-108976401D02*
X161540316Y-108976401D01*
X161540316Y-108976401D02*
X162406505Y-109712518D01*
X162406505Y-109712518D02*
X162579214Y-109509292D01*
X161190316Y-109376401D02*
X161540316Y-109376401D01*
X161540316Y-109376401D02*
X162460992Y-110158823D01*
X162460992Y-110158823D02*
X162749830Y-110054287D01*
X162749830Y-110054287D02*
X163335170Y-109871680D01*
X165202970Y-96290580D02*
X164607855Y-95695465D01*
X163412390Y-94500000D02*
X163922057Y-95009667D01*
X164851180Y-96949520D02*
X165202970Y-96597730D01*
X164300000Y-96949520D02*
X164851180Y-96949520D01*
X160500000Y-95450000D02*
X161450000Y-94500000D01*
X163922057Y-95009667D02*
X164264956Y-95352566D01*
X165202970Y-96597730D02*
X165202970Y-96290580D01*
X161450000Y-94500000D02*
X163412390Y-94500000D01*
X164607855Y-95695465D02*
X164264956Y-95352566D01*
X164300000Y-97599760D02*
X164300000Y-96949520D01*
X160500000Y-95450000D02*
X160500000Y-94965067D01*
X160500000Y-94965067D02*
X159134693Y-93599760D01*
X159134693Y-93599760D02*
X158461920Y-93599760D01*
X157300000Y-93996790D02*
X157300000Y-94515067D01*
X157300000Y-94515067D02*
X157300000Y-95000000D01*
X158611920Y-96049760D02*
X157708950Y-96049760D01*
X157708950Y-96049760D02*
X157300000Y-95640810D01*
X157300000Y-95640810D02*
X157300000Y-95000000D01*
X159100000Y-98150000D02*
X158643687Y-97693687D01*
X158643687Y-97693687D02*
X156591897Y-97693687D01*
X155950000Y-97051790D02*
X155950000Y-96700000D01*
X156591897Y-97693687D02*
X155950000Y-97051790D01*
X159502970Y-92949520D02*
X158461920Y-92949520D01*
X159950000Y-93396550D02*
X159950000Y-93400000D01*
X159502970Y-92949520D02*
X159950000Y-93396550D01*
X156470220Y-96800240D02*
X155919040Y-96800240D01*
X152780000Y-102130000D02*
X154598740Y-103948740D01*
X156495045Y-103948740D02*
X156903232Y-104295632D01*
X152328498Y-95784322D02*
X152780000Y-96235824D01*
X152328498Y-95021502D02*
X152328498Y-95784322D01*
X157607600Y-105000000D02*
X158110000Y-105000000D01*
X156903232Y-104295632D02*
X157607600Y-105000000D01*
X152780000Y-96235824D02*
X152780000Y-102130000D01*
X153600000Y-93750000D02*
X152328498Y-95021502D01*
X154598740Y-103948740D02*
X156495045Y-103948740D01*
X155800000Y-92949520D02*
X154500480Y-92949520D01*
X154500480Y-92949520D02*
X154500000Y-92950000D01*
X155938080Y-92949520D02*
X155937600Y-92950000D01*
X161638080Y-98250000D02*
X160346552Y-98250000D01*
X160346552Y-98250000D02*
X160303087Y-98206535D01*
X160303087Y-98206535D02*
X160303087Y-97700000D01*
X160303087Y-97700000D02*
X160303087Y-97398982D01*
X161638080Y-97599760D02*
X160735110Y-97599760D01*
X160735110Y-97599760D02*
X160634870Y-97700000D01*
X160634870Y-97700000D02*
X160303087Y-97700000D01*
X158110000Y-106200000D02*
X159531067Y-106200000D01*
X154650000Y-93945822D02*
X154650000Y-93846790D01*
X154650000Y-93846790D02*
X154897030Y-93599760D01*
X154897030Y-93599760D02*
X155800000Y-93599760D01*
X154650000Y-94900000D02*
X154650000Y-93945822D01*
X154650000Y-93945822D02*
X153928499Y-93224321D01*
X153928499Y-93224321D02*
X153928499Y-92526815D01*
X153928499Y-92526815D02*
X153982169Y-92473145D01*
X153982169Y-92473145D02*
X154325068Y-92130246D01*
X154394822Y-92200000D02*
X154325068Y-92130246D01*
X156750000Y-92200000D02*
X154394822Y-92200000D01*
X160303087Y-97398982D02*
X160303087Y-96914049D01*
X160239234Y-98270388D02*
X160303087Y-98206535D01*
X156957101Y-96757101D02*
X156957101Y-96153891D01*
X157300000Y-97100000D02*
X156957101Y-96757101D01*
X156957101Y-96153891D02*
X156852970Y-96049760D01*
X156852970Y-96049760D02*
X155950000Y-96049760D01*
X160054811Y-98454811D02*
X160239234Y-98270388D01*
X160054811Y-98454811D02*
X160050000Y-98450000D01*
X160059620Y-104997487D02*
X160054811Y-104992678D01*
X159531067Y-106200000D02*
X160059620Y-105671447D01*
X160054811Y-104992678D02*
X160054811Y-98454811D01*
X160059620Y-105671447D02*
X160059620Y-104997487D01*
X158110316Y-106224000D02*
X157760316Y-106224000D01*
X157760316Y-106224000D02*
X156552895Y-105197892D01*
X156552895Y-105197892D02*
X156380187Y-105401118D01*
X160729126Y-94320874D02*
X160729126Y-92679126D01*
X160729126Y-92679126D02*
X160500000Y-92450000D01*
X156917251Y-93032749D02*
X156917251Y-94173799D01*
X156917251Y-94173799D02*
X156841050Y-94250000D01*
X156841050Y-94250000D02*
X155800000Y-94250000D01*
X160500000Y-92450000D02*
X157500000Y-92450000D01*
X157500000Y-92450000D02*
X156917251Y-93032749D01*
X158110316Y-104224000D02*
X157760316Y-104224000D01*
X157760316Y-104224000D02*
X155815945Y-102571606D01*
X155815945Y-102571606D02*
X155527107Y-102676142D01*
X155527107Y-102676142D02*
X154941767Y-102858749D01*
X158110316Y-104624000D02*
X157760316Y-104624000D01*
X157760316Y-104624000D02*
X155870431Y-103017911D01*
X155870431Y-103017911D02*
X155697723Y-103221137D01*
X159450000Y-105800000D02*
X158110000Y-105800000D01*
X159750000Y-105500000D02*
X159450000Y-105800000D01*
X159700000Y-96671314D02*
X159700000Y-99250000D01*
X159750000Y-99300000D02*
X159750000Y-105500000D01*
X159700000Y-99250000D02*
X159750000Y-99300000D01*
X159885657Y-96485657D02*
X159700000Y-96671314D01*
X161638080Y-96949520D02*
X160874588Y-96949520D01*
X160874588Y-96949520D02*
X160874588Y-96639728D01*
X160874588Y-96639728D02*
X160577408Y-96342548D01*
X160577408Y-96342548D02*
X160028766Y-96342548D01*
X160028766Y-96342548D02*
X159885657Y-96485657D01*
X157744323Y-97998498D02*
X157205678Y-97998498D01*
X159445190Y-99699365D02*
X157744323Y-97998498D01*
X155146302Y-95399520D02*
X155950000Y-95399520D01*
X158110000Y-105400000D02*
X159350000Y-105400000D01*
X157205678Y-97998498D02*
X156770677Y-98433499D01*
X159445190Y-105304810D02*
X159445190Y-99699365D01*
X156770677Y-98433499D02*
X154733499Y-98433499D01*
X154733499Y-98433499D02*
X154733499Y-96742323D01*
X154801501Y-95744321D02*
X155146302Y-95399520D01*
X154733499Y-96742323D02*
X154801501Y-96674321D01*
X159350000Y-105400000D02*
X159445190Y-105304810D01*
X154801501Y-96674321D02*
X154801501Y-95744321D01*
X154220000Y-96350000D02*
X153330000Y-95460000D01*
X153330000Y-95460000D02*
X152900000Y-95460000D01*
D20*
X150900000Y-100980000D02*
X148360000Y-100980000D01*
X155958790Y-108438790D02*
X152043001Y-104523001D01*
X152043001Y-104523001D02*
X152043001Y-102123001D01*
X152043001Y-102123001D02*
X151763599Y-101843599D01*
X151763599Y-101843599D02*
X150900000Y-100980000D01*
X156306694Y-108781689D02*
X155963795Y-108438790D01*
X155963795Y-108438790D02*
X155958790Y-108438790D01*
X150900000Y-108600000D02*
X148360000Y-108600000D01*
X156306694Y-108781689D02*
X151081689Y-108781689D01*
X151081689Y-108781689D02*
X150900000Y-108600000D01*
D19*
X155965462Y-109871680D02*
X155622563Y-109528781D01*
X155622563Y-109528781D02*
X155622563Y-109517437D01*
X156306694Y-107218712D02*
X155963795Y-107561611D01*
X155963795Y-107561611D02*
X155963795Y-107566205D01*
X158110316Y-107424000D02*
X157760316Y-107424000D01*
X157760316Y-107424000D02*
X157180872Y-106931569D01*
X157180872Y-106931569D02*
X156892034Y-107036104D01*
X156892034Y-107036104D02*
X156306694Y-107218712D01*
X158110316Y-107824000D02*
X157760316Y-107824000D01*
X157760316Y-107824000D02*
X157235359Y-107377873D01*
X157235359Y-107377873D02*
X157062650Y-107581100D01*
X158110316Y-108176401D02*
X157760316Y-108176401D01*
X157760316Y-108176401D02*
X157235359Y-108622527D01*
X157235359Y-108622527D02*
X157062650Y-108419301D01*
X158110316Y-108576401D02*
X157760316Y-108576401D01*
X157760316Y-108576401D02*
X157180872Y-109068832D01*
X157180872Y-109068832D02*
X156892034Y-108964297D01*
X156892034Y-108964297D02*
X156306694Y-108781689D01*
X158110316Y-108976401D02*
X157760316Y-108976401D01*
X157760316Y-108976401D02*
X156894127Y-109712518D01*
X156894127Y-109712518D02*
X156721418Y-109509292D01*
X158110316Y-109376401D02*
X157760316Y-109376401D01*
X157760316Y-109376401D02*
X156839640Y-110158823D01*
X156839640Y-110158823D02*
X156550802Y-110054287D01*
X156550802Y-110054287D02*
X155965462Y-109871680D01*
X150900000Y-111140000D02*
X148360000Y-111140000D01*
X157909689Y-117082292D02*
X157909689Y-117660311D01*
X157909689Y-117660311D02*
X153810000Y-121760000D01*
X153810000Y-121760000D02*
X150380000Y-121760000D01*
X161045015Y-115800200D02*
X161045015Y-116945501D01*
X161045015Y-100200200D02*
X161045015Y-99054899D01*
X161190316Y-115376401D02*
X161540316Y-115376401D01*
X161540316Y-115376401D02*
X162208326Y-115944098D01*
X162208326Y-115944098D02*
X162035617Y-116147324D01*
X161190316Y-114976401D02*
X161540316Y-114976401D01*
X161540316Y-114976401D02*
X162657575Y-115925886D01*
X162657575Y-115925886D02*
X162600996Y-116227803D01*
X162600996Y-116227803D02*
X162511810Y-116834445D01*
X161190316Y-114576401D02*
X161540316Y-114576401D01*
X161540316Y-114576401D02*
X163339083Y-116105055D01*
X163339083Y-116105055D02*
X163166374Y-116308281D01*
X161190316Y-114176401D02*
X161540316Y-114176401D01*
X161540316Y-114176401D02*
X163788332Y-116086842D01*
X163788332Y-116086842D02*
X163731753Y-116388759D01*
X163731753Y-116388759D02*
X163642567Y-116995401D01*
X161190316Y-113776401D02*
X161540316Y-113776401D01*
X161540316Y-113776401D02*
X164453897Y-116252462D01*
X164453897Y-116252462D02*
X164626605Y-116049236D01*
X161190316Y-113376401D02*
X161540316Y-113376401D01*
X161540316Y-113376401D02*
X164167151Y-115608776D01*
X164167151Y-115608776D02*
X164455989Y-115504240D01*
X164455989Y-115504240D02*
X165041329Y-115321633D01*
X161190316Y-112976401D02*
X161540316Y-112976401D01*
X161540316Y-112976401D02*
X164112665Y-115162471D01*
X164112665Y-115162471D02*
X164285373Y-114959245D01*
X161190316Y-112576401D02*
X161540316Y-112576401D01*
X161540316Y-112576401D02*
X163825920Y-114518785D01*
X163825920Y-114518785D02*
X164114757Y-114414250D01*
X164114757Y-114414250D02*
X164700097Y-114231642D01*
X161190316Y-112176401D02*
X161540316Y-112176401D01*
X161540316Y-112176401D02*
X163771433Y-114072481D01*
X163771433Y-114072481D02*
X163944142Y-113869254D01*
X161190316Y-111776401D02*
X161540316Y-111776401D01*
X161540316Y-111776401D02*
X163484688Y-113428795D01*
X163484688Y-113428795D02*
X163773526Y-113324259D01*
X163773526Y-113324259D02*
X164358866Y-113141651D01*
X161190316Y-111376401D02*
X161540316Y-111376401D01*
X161540316Y-111376401D02*
X163430201Y-112982490D01*
X163430201Y-112982490D02*
X163602910Y-112779264D01*
X161190316Y-110976401D02*
X161540316Y-110976401D01*
X161540316Y-110976401D02*
X163143456Y-112338804D01*
X163143456Y-112338804D02*
X163432294Y-112234268D01*
X163432294Y-112234268D02*
X164017634Y-112051661D01*
X161190316Y-110576401D02*
X161540316Y-110576401D01*
X161540316Y-110576401D02*
X163088969Y-111892499D01*
X163088969Y-111892499D02*
X163261678Y-111689273D01*
X161190316Y-110176401D02*
X161540316Y-110176401D01*
X161540316Y-110176401D02*
X162802224Y-111248813D01*
X162802224Y-111248813D02*
X163091062Y-111144278D01*
X163091062Y-111144278D02*
X163676402Y-110961670D01*
X161190316Y-109776401D02*
X161540316Y-109776401D01*
X161540316Y-109776401D02*
X162747737Y-110802509D01*
X162747737Y-110802509D02*
X162920446Y-110599282D01*
X161190316Y-106224000D02*
X161540316Y-106224000D01*
X161540316Y-106224000D02*
X162747737Y-105197892D01*
X162747737Y-105197892D02*
X162920446Y-105401118D01*
X161190316Y-105824000D02*
X161540316Y-105824000D01*
X161540316Y-105824000D02*
X162802224Y-104751587D01*
X162802224Y-104751587D02*
X163091062Y-104856123D01*
X163091062Y-104856123D02*
X163676402Y-105038731D01*
X161190316Y-105424000D02*
X161540316Y-105424000D01*
X161540316Y-105424000D02*
X163088969Y-104107901D01*
X163088969Y-104107901D02*
X163261678Y-104311128D01*
X161190316Y-105024000D02*
X161540316Y-105024000D01*
X161540316Y-105024000D02*
X163143456Y-103661597D01*
X163143456Y-103661597D02*
X163432294Y-103766132D01*
X163432294Y-103766132D02*
X164017634Y-103948740D01*
X161190316Y-104624000D02*
X161540316Y-104624000D01*
X161540316Y-104624000D02*
X163430201Y-103017911D01*
X163430201Y-103017911D02*
X163602910Y-103221137D01*
X161190316Y-104224000D02*
X161540316Y-104224000D01*
X161540316Y-104224000D02*
X163484688Y-102571606D01*
X163484688Y-102571606D02*
X163773526Y-102676142D01*
X163773526Y-102676142D02*
X164358866Y-102858749D01*
X161190316Y-103824000D02*
X161540316Y-103824000D01*
X161540316Y-103824000D02*
X163771433Y-101927920D01*
X163771433Y-101927920D02*
X163944142Y-102131146D01*
X161190316Y-103424000D02*
X161540316Y-103424000D01*
X161540316Y-103424000D02*
X163825920Y-101481616D01*
X163825920Y-101481616D02*
X164114757Y-101586151D01*
X164114757Y-101586151D02*
X164700097Y-101768759D01*
X161190316Y-103024000D02*
X161540316Y-103024000D01*
X161540316Y-103024000D02*
X164112665Y-100837930D01*
X164112665Y-100837930D02*
X164285373Y-101041156D01*
X161190316Y-102624000D02*
X161540316Y-102624000D01*
X161540316Y-102624000D02*
X164167151Y-100391625D01*
X164167151Y-100391625D02*
X164455989Y-100496161D01*
X164455989Y-100496161D02*
X165041329Y-100678768D01*
X161190316Y-102224000D02*
X161540316Y-102224000D01*
X161540316Y-102224000D02*
X164453897Y-99747939D01*
X164453897Y-99747939D02*
X164626605Y-99951165D01*
X161190316Y-101824000D02*
X161540316Y-101824000D01*
X161540316Y-101824000D02*
X163788332Y-99913558D01*
X163788332Y-99913558D02*
X163731753Y-99611642D01*
X163731753Y-99611642D02*
X163642567Y-99005000D01*
X161190316Y-101424000D02*
X161540316Y-101424000D01*
X161540316Y-101424000D02*
X163339083Y-99895346D01*
X163339083Y-99895346D02*
X163166374Y-99692120D01*
X161190316Y-101024000D02*
X161540316Y-101024000D01*
X161540316Y-101024000D02*
X162657575Y-100074515D01*
X162657575Y-100074515D02*
X162600996Y-99772598D01*
X162600996Y-99772598D02*
X162511810Y-99165956D01*
X161190316Y-100624000D02*
X161540316Y-100624000D01*
X161540316Y-100624000D02*
X162208326Y-100056303D01*
X162208326Y-100056303D02*
X162035617Y-99853076D01*
X157972899Y-99232899D02*
X157630000Y-98890000D01*
X158110316Y-99370316D02*
X157972899Y-99232899D01*
X158110316Y-100224000D02*
X158110316Y-99370316D01*
X156699637Y-99772598D02*
X156705760Y-99772598D01*
X156705760Y-99772598D02*
X156788823Y-99165956D01*
X157432178Y-100424578D02*
X157351617Y-100424578D01*
X157351617Y-100424578D02*
X156705760Y-99778721D01*
X156705760Y-99778721D02*
X156705760Y-99772598D01*
X158110000Y-100600000D02*
X157607600Y-100600000D01*
X157607600Y-100600000D02*
X157432178Y-100424578D01*
X158110316Y-100624000D02*
X157760316Y-100624000D01*
X156775191Y-100545191D02*
X156608075Y-100378075D01*
X156953743Y-100734809D02*
X156775191Y-100556257D01*
X157052247Y-100822247D02*
X156964809Y-100734809D01*
X156775191Y-100556257D02*
X156775191Y-100545191D01*
X157261408Y-101000000D02*
X157052247Y-100822247D01*
X158110000Y-101000000D02*
X157261408Y-101000000D01*
X156964809Y-100734809D02*
X156953743Y-100734809D01*
X156608075Y-100378075D02*
X156507388Y-100359207D01*
X156253128Y-100143128D02*
X156507388Y-100359207D01*
X156507388Y-100359207D02*
X156414530Y-100280293D01*
X156134258Y-99692120D02*
X156134258Y-100024258D01*
X156134258Y-100024258D02*
X156253128Y-100143128D01*
X158110316Y-101024000D02*
X157760316Y-101024000D01*
X158110316Y-101824000D02*
X157760316Y-101824000D01*
X157760316Y-101824000D02*
X155512300Y-99913558D01*
X155512300Y-99913558D02*
X155568880Y-99611642D01*
X155568880Y-99611642D02*
X155658066Y-99005000D01*
X158110316Y-102224000D02*
X157760316Y-102224000D01*
X157760316Y-102224000D02*
X154846736Y-99747939D01*
X154846736Y-99747939D02*
X154674027Y-99951165D01*
X158110316Y-102624000D02*
X157760316Y-102624000D01*
X157760316Y-102624000D02*
X155133481Y-100391625D01*
X155133481Y-100391625D02*
X154844643Y-100496161D01*
X154844643Y-100496161D02*
X154259303Y-100678768D01*
X158110316Y-103024000D02*
X157760316Y-103024000D01*
X157760316Y-103024000D02*
X155187968Y-100837930D01*
X155187968Y-100837930D02*
X155015259Y-101041156D01*
X158110316Y-103424000D02*
X157760316Y-103424000D01*
X157760316Y-103424000D02*
X155474713Y-101481616D01*
X155474713Y-101481616D02*
X155185875Y-101586151D01*
X155185875Y-101586151D02*
X154600535Y-101768759D01*
X158110316Y-103824000D02*
X157760316Y-103824000D01*
X157760316Y-103824000D02*
X155529200Y-101927920D01*
X155529200Y-101927920D02*
X155356491Y-102131146D01*
X158110316Y-106624000D02*
X157760316Y-106624000D01*
X157760316Y-106624000D02*
X156839640Y-105841578D01*
X156839640Y-105841578D02*
X156550802Y-105946114D01*
X156550802Y-105946114D02*
X155965462Y-106128721D01*
X158110316Y-107024000D02*
X157760316Y-107024000D01*
X157760316Y-107024000D02*
X156894127Y-106287883D01*
X156894127Y-106287883D02*
X156721418Y-106491109D01*
X158110316Y-110576401D02*
X158087435Y-110599282D01*
X158087435Y-110599282D02*
X156865120Y-110599282D01*
X156865120Y-110599282D02*
X156380187Y-110599282D01*
X157567991Y-110976401D02*
X157295579Y-111248813D01*
X158110316Y-110976401D02*
X157567991Y-110976401D01*
X157295579Y-111248813D02*
X156498409Y-111248813D01*
X156209571Y-111144278D02*
X155624231Y-110961670D01*
X156498409Y-111248813D02*
X156209571Y-111144278D01*
X158110316Y-111376401D02*
X157725778Y-111376401D01*
X156641302Y-111571859D02*
X156523888Y-111689273D01*
X156523888Y-111689273D02*
X156038955Y-111689273D01*
X157530320Y-111571859D02*
X156641302Y-111571859D01*
X157725778Y-111376401D02*
X157530320Y-111571859D01*
X156951396Y-112338804D02*
X156157177Y-112338804D01*
X156157177Y-112338804D02*
X155868339Y-112234268D01*
X158110316Y-111776401D02*
X157760316Y-111776401D01*
X157760316Y-111776401D02*
X157645318Y-111874130D01*
X155868339Y-112234268D02*
X155282999Y-112051661D01*
X157416070Y-111874130D02*
X156951396Y-112338804D01*
X157645318Y-111874130D02*
X157416070Y-111874130D01*
X158110316Y-112176401D02*
X157541275Y-112176401D01*
X156938412Y-112779264D02*
X156182656Y-112779264D01*
X157541275Y-112176401D02*
X156938412Y-112779264D01*
X156182656Y-112779264D02*
X155697723Y-112779264D01*
X156716355Y-113428795D02*
X155815945Y-113428795D01*
X157568749Y-112576401D02*
X156716355Y-113428795D01*
X158110316Y-112576401D02*
X157568749Y-112576401D01*
X155815945Y-113428795D02*
X155527107Y-113324259D01*
X155527107Y-113324259D02*
X154941767Y-113141651D01*
X156703372Y-113869254D02*
X155841424Y-113869254D01*
X157596225Y-112976401D02*
X156703372Y-113869254D01*
X155841424Y-113869254D02*
X155356491Y-113869254D01*
X158110316Y-112976401D02*
X157596225Y-112976401D01*
X156850542Y-114149558D02*
X155869476Y-114983302D01*
X157623699Y-113376401D02*
X156850542Y-114149558D01*
X158110316Y-113376401D02*
X157623699Y-113376401D01*
X155474713Y-114518785D02*
X155185875Y-114414250D01*
X155869476Y-114983302D02*
X155474713Y-114518785D01*
X155185875Y-114414250D02*
X154600535Y-114231642D01*
X158110316Y-113776401D02*
X157651175Y-113776401D01*
X157651175Y-113776401D02*
X157033509Y-114394067D01*
X157033509Y-114394067D02*
X155582730Y-115626988D01*
X155582730Y-115626988D02*
X155187968Y-115162471D01*
X155187968Y-115162471D02*
X155015259Y-114959245D01*
X158110316Y-114176401D02*
X157678650Y-114176401D01*
X155133481Y-115608776D02*
X154844643Y-115504240D01*
X155528244Y-116073293D02*
X155133481Y-115608776D01*
X154844643Y-115504240D02*
X154259303Y-115321633D01*
X157216469Y-114638582D02*
X155528244Y-116073293D01*
X157678650Y-114176401D02*
X157216469Y-114638582D01*
X155117537Y-115622325D02*
X155512300Y-116086842D01*
X157399358Y-114883168D02*
X157315957Y-114954044D01*
X157682526Y-114600000D02*
X157399358Y-114883168D01*
X158110000Y-114600000D02*
X157682526Y-114600000D01*
X157399358Y-114883168D02*
X157587336Y-114695190D01*
X156932996Y-115279498D02*
X156990503Y-115279498D01*
X156990503Y-115279498D02*
X157315957Y-114954044D01*
X154674027Y-116049236D02*
X155016926Y-116392135D01*
X155917493Y-116142507D02*
X156932996Y-115279498D01*
X155016926Y-116392135D02*
X155667865Y-116392135D01*
X155667865Y-116392135D02*
X155917493Y-116142507D01*
X158110000Y-115000000D02*
X157710000Y-115000000D01*
X157128233Y-115581767D02*
X157044088Y-115581767D01*
X157710000Y-115000000D02*
X157128233Y-115581767D01*
X157044088Y-115581767D02*
X156672142Y-115897859D01*
X156672142Y-115897859D02*
X155560000Y-117010000D01*
X155691067Y-117010000D02*
X155560000Y-117010000D01*
X156275613Y-116861861D02*
X156275613Y-116969847D01*
X157761073Y-115376401D02*
X156275613Y-116861861D01*
X158110316Y-115376401D02*
X157761073Y-115376401D01*
X156275613Y-116969847D02*
X156275613Y-117454780D01*
X158110000Y-116052400D02*
X157130000Y-117032400D01*
X158110000Y-115800000D02*
X158110000Y-116052400D01*
X157130000Y-117032400D02*
X157130000Y-117390000D01*
D20*
G36*
X155410803Y-106957261D02*
X155770092Y-107106451D01*
X155954093Y-107106611D01*
X156166759Y-107319649D01*
X156526048Y-107468839D01*
X156915081Y-107469178D01*
X157097307Y-107393884D01*
X157125000Y-107417418D01*
X157125000Y-107527002D01*
X157144339Y-107527002D01*
X157125000Y-107573690D01*
X157125000Y-107591250D01*
X157133750Y-107600000D01*
X157125000Y-107608750D01*
X157125000Y-107626310D01*
X157196945Y-107800000D01*
X157125000Y-107973690D01*
X157125000Y-107991250D01*
X157133750Y-108000000D01*
X157125000Y-108008750D01*
X157125000Y-108026310D01*
X157196945Y-108200000D01*
X157125000Y-108373690D01*
X157125000Y-108391250D01*
X157133750Y-108400000D01*
X157125000Y-108408750D01*
X157125000Y-108426310D01*
X157196945Y-108600000D01*
X157125000Y-108773690D01*
X157125000Y-108791250D01*
X157133750Y-108800000D01*
X157125000Y-108808750D01*
X157125000Y-108826310D01*
X157196945Y-109000000D01*
X157125000Y-109173690D01*
X157125000Y-109191250D01*
X157133750Y-109200000D01*
X157125000Y-109208750D01*
X157125000Y-109226310D01*
X157196755Y-109399541D01*
X157163569Y-109448110D01*
X157132572Y-109601178D01*
X157125000Y-109608750D01*
X157125000Y-109626310D01*
X157126667Y-109630335D01*
X157112560Y-109700000D01*
X157112560Y-109816921D01*
X157025499Y-109861553D01*
X156934846Y-109770742D01*
X156575557Y-109621552D01*
X156186524Y-109621213D01*
X155826975Y-109769775D01*
X155612617Y-109983760D01*
X155430568Y-109983601D01*
X155157000Y-110096637D01*
X155157000Y-106959759D01*
X155383029Y-106929438D01*
X155410803Y-106957261D01*
X155410803Y-106957261D01*
G37*
X155410803Y-106957261D02*
X155770092Y-107106451D01*
X155954093Y-107106611D01*
X156166759Y-107319649D01*
X156526048Y-107468839D01*
X156915081Y-107469178D01*
X157097307Y-107393884D01*
X157125000Y-107417418D01*
X157125000Y-107527002D01*
X157144339Y-107527002D01*
X157125000Y-107573690D01*
X157125000Y-107591250D01*
X157133750Y-107600000D01*
X157125000Y-107608750D01*
X157125000Y-107626310D01*
X157196945Y-107800000D01*
X157125000Y-107973690D01*
X157125000Y-107991250D01*
X157133750Y-108000000D01*
X157125000Y-108008750D01*
X157125000Y-108026310D01*
X157196945Y-108200000D01*
X157125000Y-108373690D01*
X157125000Y-108391250D01*
X157133750Y-108400000D01*
X157125000Y-108408750D01*
X157125000Y-108426310D01*
X157196945Y-108600000D01*
X157125000Y-108773690D01*
X157125000Y-108791250D01*
X157133750Y-108800000D01*
X157125000Y-108808750D01*
X157125000Y-108826310D01*
X157196945Y-109000000D01*
X157125000Y-109173690D01*
X157125000Y-109191250D01*
X157133750Y-109200000D01*
X157125000Y-109208750D01*
X157125000Y-109226310D01*
X157196755Y-109399541D01*
X157163569Y-109448110D01*
X157132572Y-109601178D01*
X157125000Y-109608750D01*
X157125000Y-109626310D01*
X157126667Y-109630335D01*
X157112560Y-109700000D01*
X157112560Y-109816921D01*
X157025499Y-109861553D01*
X156934846Y-109770742D01*
X156575557Y-109621552D01*
X156186524Y-109621213D01*
X155826975Y-109769775D01*
X155612617Y-109983760D01*
X155430568Y-109983601D01*
X155157000Y-110096637D01*
X155157000Y-106959759D01*
X155383029Y-106929438D01*
X155410803Y-106957261D01*
M02*
