G04 #@! TF.FileFunction,Soldermask,Top*
%FSLAX46Y46*%
G04 Gerber Fmt 4.6, Leading zero omitted, Abs format (unit mm)*
G04 Created by KiCad (PCBNEW (2015-11-03 BZR 6296)-product) date Tuesday, November 10, 2015 'PMt' 06:19:39 PM*
%MOMM*%
G01*
G04 APERTURE LIST*
%ADD10C,0.100000*%
%ADD11C,0.010000*%
%ADD12R,1.100000X0.600000*%
%ADD13R,1.901140X0.798780*%
%ADD14R,2.127200X2.127200*%
%ADD15O,2.127200X2.127200*%
%ADD16R,2.635200X2.635200*%
G04 APERTURE END LIST*
D10*
D11*
G36*
X138591031Y-93643103D02*
X138628866Y-93644878D01*
X138664763Y-93647950D01*
X138700412Y-93652451D01*
X138737499Y-93658512D01*
X138762537Y-93663226D01*
X138799505Y-93670873D01*
X138834770Y-93679056D01*
X138869378Y-93688108D01*
X138904376Y-93698364D01*
X138940809Y-93710156D01*
X138979722Y-93723818D01*
X139022161Y-93739684D01*
X139069173Y-93758088D01*
X139104737Y-93772406D01*
X139151958Y-93791805D01*
X139199898Y-93811943D01*
X139248959Y-93833011D01*
X139299547Y-93855199D01*
X139352066Y-93878695D01*
X139406921Y-93903689D01*
X139464514Y-93930372D01*
X139525251Y-93958932D01*
X139589536Y-93989559D01*
X139657773Y-94022442D01*
X139730365Y-94057772D01*
X139807719Y-94095737D01*
X139890236Y-94136528D01*
X139978323Y-94180333D01*
X140036085Y-94209177D01*
X140117799Y-94249964D01*
X140193732Y-94287698D01*
X140264358Y-94322596D01*
X140330149Y-94354875D01*
X140391577Y-94384752D01*
X140449115Y-94412444D01*
X140503235Y-94438167D01*
X140554409Y-94462138D01*
X140603111Y-94484575D01*
X140649811Y-94505695D01*
X140694982Y-94525714D01*
X140739097Y-94544848D01*
X140782629Y-94563316D01*
X140826049Y-94581334D01*
X140869829Y-94599119D01*
X140914443Y-94616888D01*
X140960363Y-94634857D01*
X140977542Y-94641509D01*
X141001524Y-94650793D01*
X141023788Y-94659455D01*
X141043348Y-94667109D01*
X141059219Y-94673366D01*
X141070414Y-94677840D01*
X141075784Y-94680070D01*
X141085832Y-94684573D01*
X141070698Y-94703849D01*
X141058889Y-94717902D01*
X141042920Y-94735482D01*
X141023921Y-94755449D01*
X141003023Y-94776663D01*
X140981357Y-94797986D01*
X140960055Y-94818277D01*
X140940246Y-94836397D01*
X140931681Y-94843920D01*
X140856102Y-94905039D01*
X140774352Y-94963238D01*
X140686747Y-95018375D01*
X140593601Y-95070306D01*
X140495231Y-95118886D01*
X140391952Y-95163973D01*
X140284079Y-95205422D01*
X140171928Y-95243091D01*
X140055814Y-95276835D01*
X139936054Y-95306510D01*
X139896278Y-95315281D01*
X139837253Y-95327567D01*
X139783414Y-95338013D01*
X139733205Y-95346877D01*
X139685074Y-95354413D01*
X139637469Y-95360877D01*
X139588835Y-95366526D01*
X139578778Y-95367588D01*
X139558732Y-95369185D01*
X139533512Y-95370438D01*
X139504439Y-95371348D01*
X139472833Y-95371913D01*
X139440014Y-95372134D01*
X139407303Y-95372011D01*
X139376020Y-95371543D01*
X139347485Y-95370730D01*
X139323019Y-95369572D01*
X139303941Y-95368069D01*
X139300083Y-95367629D01*
X139229587Y-95356359D01*
X139164668Y-95340777D01*
X139105314Y-95320875D01*
X139051511Y-95296642D01*
X139003246Y-95268071D01*
X138960506Y-95235152D01*
X138923275Y-95197875D01*
X138891542Y-95156233D01*
X138865292Y-95110216D01*
X138845814Y-95063556D01*
X138836564Y-95035336D01*
X138829950Y-95009790D01*
X138825611Y-94984670D01*
X138823189Y-94957726D01*
X138822323Y-94926710D01*
X138822311Y-94916690D01*
X138822506Y-94859783D01*
X138799541Y-94857430D01*
X138776577Y-94855078D01*
X138726819Y-94889010D01*
X138727261Y-94938359D01*
X138731246Y-94996590D01*
X138742027Y-95053341D01*
X138759427Y-95108195D01*
X138783267Y-95160732D01*
X138813369Y-95210536D01*
X138849554Y-95257188D01*
X138874774Y-95284155D01*
X138915410Y-95321000D01*
X138959140Y-95353371D01*
X139006472Y-95381491D01*
X139057911Y-95405584D01*
X139113966Y-95425873D01*
X139175143Y-95442584D01*
X139241948Y-95455938D01*
X139275389Y-95461113D01*
X139296455Y-95463389D01*
X139323303Y-95465185D01*
X139354675Y-95466500D01*
X139389315Y-95467334D01*
X139425966Y-95467688D01*
X139463369Y-95467562D01*
X139500269Y-95466956D01*
X139535407Y-95465870D01*
X139567526Y-95464303D01*
X139595370Y-95462257D01*
X139607000Y-95461088D01*
X139721247Y-95445915D01*
X139836379Y-95426055D01*
X139951524Y-95401770D01*
X140065809Y-95373321D01*
X140178359Y-95340969D01*
X140288303Y-95304975D01*
X140394766Y-95265600D01*
X140496876Y-95223106D01*
X140593760Y-95177754D01*
X140648608Y-95149498D01*
X140731718Y-95102751D01*
X140810658Y-95053631D01*
X140884981Y-95002487D01*
X140954241Y-94949668D01*
X141017993Y-94895522D01*
X141075791Y-94840397D01*
X141127188Y-94784643D01*
X141148880Y-94758480D01*
X141163589Y-94740572D01*
X141174647Y-94728259D01*
X141182321Y-94721267D01*
X141186878Y-94719322D01*
X141187106Y-94719373D01*
X141201682Y-94723012D01*
X141222129Y-94727139D01*
X141247296Y-94731588D01*
X141276029Y-94736193D01*
X141307174Y-94740787D01*
X141339579Y-94745204D01*
X141372091Y-94749276D01*
X141403556Y-94752837D01*
X141432821Y-94755720D01*
X141446736Y-94756893D01*
X141476996Y-94758630D01*
X141510509Y-94759311D01*
X141547721Y-94758909D01*
X141589075Y-94757398D01*
X141635017Y-94754750D01*
X141685991Y-94750938D01*
X141742441Y-94745937D01*
X141804812Y-94739719D01*
X141873548Y-94732256D01*
X141894764Y-94729853D01*
X141992696Y-94718039D01*
X142097110Y-94704253D01*
X142207726Y-94688544D01*
X142324267Y-94670962D01*
X142446454Y-94651559D01*
X142574011Y-94630386D01*
X142706657Y-94607492D01*
X142844117Y-94582928D01*
X142986110Y-94556746D01*
X143132360Y-94528995D01*
X143282588Y-94499727D01*
X143436517Y-94468991D01*
X143593867Y-94436840D01*
X143754361Y-94403322D01*
X143917721Y-94368489D01*
X144083669Y-94332392D01*
X144111972Y-94326166D01*
X144143505Y-94319268D01*
X144173573Y-94312787D01*
X144201326Y-94306899D01*
X144225913Y-94301780D01*
X144246484Y-94297607D01*
X144262186Y-94294556D01*
X144272170Y-94292804D01*
X144274250Y-94292520D01*
X144301629Y-94292603D01*
X144330597Y-94298198D01*
X144359337Y-94308640D01*
X144386032Y-94323263D01*
X144408863Y-94341400D01*
X144409577Y-94342097D01*
X144420334Y-94354458D01*
X144433559Y-94372584D01*
X144448873Y-94395782D01*
X144465898Y-94423362D01*
X144484253Y-94454633D01*
X144503562Y-94488902D01*
X144523444Y-94525479D01*
X144543521Y-94563671D01*
X144563415Y-94602789D01*
X144582747Y-94642139D01*
X144601137Y-94681031D01*
X144618208Y-94718774D01*
X144626938Y-94738888D01*
X144654418Y-94807828D01*
X144676295Y-94872753D01*
X144692564Y-94933631D01*
X144703220Y-94990428D01*
X144708258Y-95043112D01*
X144707674Y-95091650D01*
X144701462Y-95136008D01*
X144690303Y-95174355D01*
X144680721Y-95194617D01*
X144667158Y-95216530D01*
X144651359Y-95237628D01*
X144635072Y-95255441D01*
X144629089Y-95260860D01*
X144613700Y-95272771D01*
X144597081Y-95283287D01*
X144578689Y-95292518D01*
X144557978Y-95300574D01*
X144534406Y-95307565D01*
X144507427Y-95313602D01*
X144476498Y-95318794D01*
X144441074Y-95323252D01*
X144400612Y-95327086D01*
X144354567Y-95330405D01*
X144302396Y-95333321D01*
X144261903Y-95335182D01*
X144242132Y-95335961D01*
X144216304Y-95336876D01*
X144185416Y-95337897D01*
X144150464Y-95338994D01*
X144112446Y-95340137D01*
X144072357Y-95341294D01*
X144031195Y-95342437D01*
X143989956Y-95343534D01*
X143969097Y-95344070D01*
X143863132Y-95346865D01*
X143763623Y-95349728D01*
X143669971Y-95352688D01*
X143581576Y-95355774D01*
X143497840Y-95359016D01*
X143418162Y-95362444D01*
X143341944Y-95366086D01*
X143268587Y-95369972D01*
X143197491Y-95374132D01*
X143128056Y-95378595D01*
X143059683Y-95383390D01*
X142991774Y-95388548D01*
X142923729Y-95394096D01*
X142887833Y-95397168D01*
X142735425Y-95411484D01*
X142588916Y-95427501D01*
X142447314Y-95445426D01*
X142309629Y-95465462D01*
X142174869Y-95487813D01*
X142042042Y-95512686D01*
X141910156Y-95540283D01*
X141778221Y-95570811D01*
X141645244Y-95604473D01*
X141510234Y-95641474D01*
X141372199Y-95682018D01*
X141230149Y-95726311D01*
X141122181Y-95761516D01*
X141065529Y-95780415D01*
X141013101Y-95798181D01*
X140964324Y-95815079D01*
X140918627Y-95831377D01*
X140875437Y-95847340D01*
X140834184Y-95863235D01*
X140794295Y-95879327D01*
X140755199Y-95895884D01*
X140716325Y-95913170D01*
X140677099Y-95931452D01*
X140636952Y-95950997D01*
X140595310Y-95972071D01*
X140551602Y-95994939D01*
X140505257Y-96019869D01*
X140455703Y-96047125D01*
X140402368Y-96076975D01*
X140344680Y-96109684D01*
X140282068Y-96145519D01*
X140217306Y-96182815D01*
X140167113Y-96211743D01*
X140122343Y-96237450D01*
X140082339Y-96260298D01*
X140046445Y-96280648D01*
X140014006Y-96298863D01*
X139984365Y-96315303D01*
X139956866Y-96330330D01*
X139930853Y-96344307D01*
X139905670Y-96357594D01*
X139880662Y-96370554D01*
X139855172Y-96383549D01*
X139832778Y-96394820D01*
X139767461Y-96426741D01*
X139706674Y-96454702D01*
X139649369Y-96479064D01*
X139594501Y-96500188D01*
X139541022Y-96518436D01*
X139487885Y-96534169D01*
X139434043Y-96547748D01*
X139378449Y-96559537D01*
X139330975Y-96568094D01*
X139271699Y-96577475D01*
X139217114Y-96584849D01*
X139165196Y-96590377D01*
X139113926Y-96594223D01*
X139061279Y-96596550D01*
X139005234Y-96597522D01*
X138966708Y-96597509D01*
X138940120Y-96597309D01*
X138915076Y-96597051D01*
X138892670Y-96596751D01*
X138873997Y-96596426D01*
X138860149Y-96596092D01*
X138852223Y-96595767D01*
X138852056Y-96595755D01*
X138761009Y-96586740D01*
X138671200Y-96573096D01*
X138583485Y-96555042D01*
X138498718Y-96532798D01*
X138417756Y-96506583D01*
X138341455Y-96476619D01*
X138283791Y-96449817D01*
X138197957Y-96402919D01*
X138114330Y-96349377D01*
X138032988Y-96289273D01*
X137954006Y-96222690D01*
X137877461Y-96149708D01*
X137803429Y-96070411D01*
X137731985Y-95984879D01*
X137663207Y-95893196D01*
X137597171Y-95795442D01*
X137533952Y-95691701D01*
X137473627Y-95582053D01*
X137469300Y-95573746D01*
X137432293Y-95498734D01*
X137397779Y-95420989D01*
X137365400Y-95339580D01*
X137334798Y-95253574D01*
X137305612Y-95162039D01*
X137289110Y-95105758D01*
X137281543Y-95079169D01*
X137035806Y-94980044D01*
X136996329Y-94964069D01*
X136958813Y-94948791D01*
X136923766Y-94934422D01*
X136891694Y-94921173D01*
X136863102Y-94909257D01*
X136838498Y-94898887D01*
X136818388Y-94890274D01*
X136803278Y-94883630D01*
X136793674Y-94879168D01*
X136790083Y-94877101D01*
X136790069Y-94877055D01*
X136792644Y-94874178D01*
X136800115Y-94866965D01*
X136812098Y-94855762D01*
X136828213Y-94840917D01*
X136848078Y-94822776D01*
X136871310Y-94801686D01*
X136897529Y-94777994D01*
X136926351Y-94752048D01*
X136957395Y-94724193D01*
X136990280Y-94694778D01*
X137015847Y-94671966D01*
X137241625Y-94470741D01*
X137256003Y-94431022D01*
X137284338Y-94360948D01*
X137317586Y-94294045D01*
X137356152Y-94229707D01*
X137400445Y-94167324D01*
X137450870Y-94106287D01*
X137507835Y-94045990D01*
X137524224Y-94029917D01*
X137591538Y-93969739D01*
X137664130Y-93914059D01*
X137741734Y-93863010D01*
X137824086Y-93816722D01*
X137910921Y-93775330D01*
X138001974Y-93738964D01*
X138096979Y-93707758D01*
X138195671Y-93681842D01*
X138241750Y-93671834D01*
X138286147Y-93663197D01*
X138325869Y-93656427D01*
X138362979Y-93651295D01*
X138399540Y-93647572D01*
X138437614Y-93645029D01*
X138479265Y-93643439D01*
X138502806Y-93642916D01*
X138549574Y-93642493D01*
X138591031Y-93643103D01*
X138591031Y-93643103D01*
G37*
X138591031Y-93643103D02*
X138628866Y-93644878D01*
X138664763Y-93647950D01*
X138700412Y-93652451D01*
X138737499Y-93658512D01*
X138762537Y-93663226D01*
X138799505Y-93670873D01*
X138834770Y-93679056D01*
X138869378Y-93688108D01*
X138904376Y-93698364D01*
X138940809Y-93710156D01*
X138979722Y-93723818D01*
X139022161Y-93739684D01*
X139069173Y-93758088D01*
X139104737Y-93772406D01*
X139151958Y-93791805D01*
X139199898Y-93811943D01*
X139248959Y-93833011D01*
X139299547Y-93855199D01*
X139352066Y-93878695D01*
X139406921Y-93903689D01*
X139464514Y-93930372D01*
X139525251Y-93958932D01*
X139589536Y-93989559D01*
X139657773Y-94022442D01*
X139730365Y-94057772D01*
X139807719Y-94095737D01*
X139890236Y-94136528D01*
X139978323Y-94180333D01*
X140036085Y-94209177D01*
X140117799Y-94249964D01*
X140193732Y-94287698D01*
X140264358Y-94322596D01*
X140330149Y-94354875D01*
X140391577Y-94384752D01*
X140449115Y-94412444D01*
X140503235Y-94438167D01*
X140554409Y-94462138D01*
X140603111Y-94484575D01*
X140649811Y-94505695D01*
X140694982Y-94525714D01*
X140739097Y-94544848D01*
X140782629Y-94563316D01*
X140826049Y-94581334D01*
X140869829Y-94599119D01*
X140914443Y-94616888D01*
X140960363Y-94634857D01*
X140977542Y-94641509D01*
X141001524Y-94650793D01*
X141023788Y-94659455D01*
X141043348Y-94667109D01*
X141059219Y-94673366D01*
X141070414Y-94677840D01*
X141075784Y-94680070D01*
X141085832Y-94684573D01*
X141070698Y-94703849D01*
X141058889Y-94717902D01*
X141042920Y-94735482D01*
X141023921Y-94755449D01*
X141003023Y-94776663D01*
X140981357Y-94797986D01*
X140960055Y-94818277D01*
X140940246Y-94836397D01*
X140931681Y-94843920D01*
X140856102Y-94905039D01*
X140774352Y-94963238D01*
X140686747Y-95018375D01*
X140593601Y-95070306D01*
X140495231Y-95118886D01*
X140391952Y-95163973D01*
X140284079Y-95205422D01*
X140171928Y-95243091D01*
X140055814Y-95276835D01*
X139936054Y-95306510D01*
X139896278Y-95315281D01*
X139837253Y-95327567D01*
X139783414Y-95338013D01*
X139733205Y-95346877D01*
X139685074Y-95354413D01*
X139637469Y-95360877D01*
X139588835Y-95366526D01*
X139578778Y-95367588D01*
X139558732Y-95369185D01*
X139533512Y-95370438D01*
X139504439Y-95371348D01*
X139472833Y-95371913D01*
X139440014Y-95372134D01*
X139407303Y-95372011D01*
X139376020Y-95371543D01*
X139347485Y-95370730D01*
X139323019Y-95369572D01*
X139303941Y-95368069D01*
X139300083Y-95367629D01*
X139229587Y-95356359D01*
X139164668Y-95340777D01*
X139105314Y-95320875D01*
X139051511Y-95296642D01*
X139003246Y-95268071D01*
X138960506Y-95235152D01*
X138923275Y-95197875D01*
X138891542Y-95156233D01*
X138865292Y-95110216D01*
X138845814Y-95063556D01*
X138836564Y-95035336D01*
X138829950Y-95009790D01*
X138825611Y-94984670D01*
X138823189Y-94957726D01*
X138822323Y-94926710D01*
X138822311Y-94916690D01*
X138822506Y-94859783D01*
X138799541Y-94857430D01*
X138776577Y-94855078D01*
X138726819Y-94889010D01*
X138727261Y-94938359D01*
X138731246Y-94996590D01*
X138742027Y-95053341D01*
X138759427Y-95108195D01*
X138783267Y-95160732D01*
X138813369Y-95210536D01*
X138849554Y-95257188D01*
X138874774Y-95284155D01*
X138915410Y-95321000D01*
X138959140Y-95353371D01*
X139006472Y-95381491D01*
X139057911Y-95405584D01*
X139113966Y-95425873D01*
X139175143Y-95442584D01*
X139241948Y-95455938D01*
X139275389Y-95461113D01*
X139296455Y-95463389D01*
X139323303Y-95465185D01*
X139354675Y-95466500D01*
X139389315Y-95467334D01*
X139425966Y-95467688D01*
X139463369Y-95467562D01*
X139500269Y-95466956D01*
X139535407Y-95465870D01*
X139567526Y-95464303D01*
X139595370Y-95462257D01*
X139607000Y-95461088D01*
X139721247Y-95445915D01*
X139836379Y-95426055D01*
X139951524Y-95401770D01*
X140065809Y-95373321D01*
X140178359Y-95340969D01*
X140288303Y-95304975D01*
X140394766Y-95265600D01*
X140496876Y-95223106D01*
X140593760Y-95177754D01*
X140648608Y-95149498D01*
X140731718Y-95102751D01*
X140810658Y-95053631D01*
X140884981Y-95002487D01*
X140954241Y-94949668D01*
X141017993Y-94895522D01*
X141075791Y-94840397D01*
X141127188Y-94784643D01*
X141148880Y-94758480D01*
X141163589Y-94740572D01*
X141174647Y-94728259D01*
X141182321Y-94721267D01*
X141186878Y-94719322D01*
X141187106Y-94719373D01*
X141201682Y-94723012D01*
X141222129Y-94727139D01*
X141247296Y-94731588D01*
X141276029Y-94736193D01*
X141307174Y-94740787D01*
X141339579Y-94745204D01*
X141372091Y-94749276D01*
X141403556Y-94752837D01*
X141432821Y-94755720D01*
X141446736Y-94756893D01*
X141476996Y-94758630D01*
X141510509Y-94759311D01*
X141547721Y-94758909D01*
X141589075Y-94757398D01*
X141635017Y-94754750D01*
X141685991Y-94750938D01*
X141742441Y-94745937D01*
X141804812Y-94739719D01*
X141873548Y-94732256D01*
X141894764Y-94729853D01*
X141992696Y-94718039D01*
X142097110Y-94704253D01*
X142207726Y-94688544D01*
X142324267Y-94670962D01*
X142446454Y-94651559D01*
X142574011Y-94630386D01*
X142706657Y-94607492D01*
X142844117Y-94582928D01*
X142986110Y-94556746D01*
X143132360Y-94528995D01*
X143282588Y-94499727D01*
X143436517Y-94468991D01*
X143593867Y-94436840D01*
X143754361Y-94403322D01*
X143917721Y-94368489D01*
X144083669Y-94332392D01*
X144111972Y-94326166D01*
X144143505Y-94319268D01*
X144173573Y-94312787D01*
X144201326Y-94306899D01*
X144225913Y-94301780D01*
X144246484Y-94297607D01*
X144262186Y-94294556D01*
X144272170Y-94292804D01*
X144274250Y-94292520D01*
X144301629Y-94292603D01*
X144330597Y-94298198D01*
X144359337Y-94308640D01*
X144386032Y-94323263D01*
X144408863Y-94341400D01*
X144409577Y-94342097D01*
X144420334Y-94354458D01*
X144433559Y-94372584D01*
X144448873Y-94395782D01*
X144465898Y-94423362D01*
X144484253Y-94454633D01*
X144503562Y-94488902D01*
X144523444Y-94525479D01*
X144543521Y-94563671D01*
X144563415Y-94602789D01*
X144582747Y-94642139D01*
X144601137Y-94681031D01*
X144618208Y-94718774D01*
X144626938Y-94738888D01*
X144654418Y-94807828D01*
X144676295Y-94872753D01*
X144692564Y-94933631D01*
X144703220Y-94990428D01*
X144708258Y-95043112D01*
X144707674Y-95091650D01*
X144701462Y-95136008D01*
X144690303Y-95174355D01*
X144680721Y-95194617D01*
X144667158Y-95216530D01*
X144651359Y-95237628D01*
X144635072Y-95255441D01*
X144629089Y-95260860D01*
X144613700Y-95272771D01*
X144597081Y-95283287D01*
X144578689Y-95292518D01*
X144557978Y-95300574D01*
X144534406Y-95307565D01*
X144507427Y-95313602D01*
X144476498Y-95318794D01*
X144441074Y-95323252D01*
X144400612Y-95327086D01*
X144354567Y-95330405D01*
X144302396Y-95333321D01*
X144261903Y-95335182D01*
X144242132Y-95335961D01*
X144216304Y-95336876D01*
X144185416Y-95337897D01*
X144150464Y-95338994D01*
X144112446Y-95340137D01*
X144072357Y-95341294D01*
X144031195Y-95342437D01*
X143989956Y-95343534D01*
X143969097Y-95344070D01*
X143863132Y-95346865D01*
X143763623Y-95349728D01*
X143669971Y-95352688D01*
X143581576Y-95355774D01*
X143497840Y-95359016D01*
X143418162Y-95362444D01*
X143341944Y-95366086D01*
X143268587Y-95369972D01*
X143197491Y-95374132D01*
X143128056Y-95378595D01*
X143059683Y-95383390D01*
X142991774Y-95388548D01*
X142923729Y-95394096D01*
X142887833Y-95397168D01*
X142735425Y-95411484D01*
X142588916Y-95427501D01*
X142447314Y-95445426D01*
X142309629Y-95465462D01*
X142174869Y-95487813D01*
X142042042Y-95512686D01*
X141910156Y-95540283D01*
X141778221Y-95570811D01*
X141645244Y-95604473D01*
X141510234Y-95641474D01*
X141372199Y-95682018D01*
X141230149Y-95726311D01*
X141122181Y-95761516D01*
X141065529Y-95780415D01*
X141013101Y-95798181D01*
X140964324Y-95815079D01*
X140918627Y-95831377D01*
X140875437Y-95847340D01*
X140834184Y-95863235D01*
X140794295Y-95879327D01*
X140755199Y-95895884D01*
X140716325Y-95913170D01*
X140677099Y-95931452D01*
X140636952Y-95950997D01*
X140595310Y-95972071D01*
X140551602Y-95994939D01*
X140505257Y-96019869D01*
X140455703Y-96047125D01*
X140402368Y-96076975D01*
X140344680Y-96109684D01*
X140282068Y-96145519D01*
X140217306Y-96182815D01*
X140167113Y-96211743D01*
X140122343Y-96237450D01*
X140082339Y-96260298D01*
X140046445Y-96280648D01*
X140014006Y-96298863D01*
X139984365Y-96315303D01*
X139956866Y-96330330D01*
X139930853Y-96344307D01*
X139905670Y-96357594D01*
X139880662Y-96370554D01*
X139855172Y-96383549D01*
X139832778Y-96394820D01*
X139767461Y-96426741D01*
X139706674Y-96454702D01*
X139649369Y-96479064D01*
X139594501Y-96500188D01*
X139541022Y-96518436D01*
X139487885Y-96534169D01*
X139434043Y-96547748D01*
X139378449Y-96559537D01*
X139330975Y-96568094D01*
X139271699Y-96577475D01*
X139217114Y-96584849D01*
X139165196Y-96590377D01*
X139113926Y-96594223D01*
X139061279Y-96596550D01*
X139005234Y-96597522D01*
X138966708Y-96597509D01*
X138940120Y-96597309D01*
X138915076Y-96597051D01*
X138892670Y-96596751D01*
X138873997Y-96596426D01*
X138860149Y-96596092D01*
X138852223Y-96595767D01*
X138852056Y-96595755D01*
X138761009Y-96586740D01*
X138671200Y-96573096D01*
X138583485Y-96555042D01*
X138498718Y-96532798D01*
X138417756Y-96506583D01*
X138341455Y-96476619D01*
X138283791Y-96449817D01*
X138197957Y-96402919D01*
X138114330Y-96349377D01*
X138032988Y-96289273D01*
X137954006Y-96222690D01*
X137877461Y-96149708D01*
X137803429Y-96070411D01*
X137731985Y-95984879D01*
X137663207Y-95893196D01*
X137597171Y-95795442D01*
X137533952Y-95691701D01*
X137473627Y-95582053D01*
X137469300Y-95573746D01*
X137432293Y-95498734D01*
X137397779Y-95420989D01*
X137365400Y-95339580D01*
X137334798Y-95253574D01*
X137305612Y-95162039D01*
X137289110Y-95105758D01*
X137281543Y-95079169D01*
X137035806Y-94980044D01*
X136996329Y-94964069D01*
X136958813Y-94948791D01*
X136923766Y-94934422D01*
X136891694Y-94921173D01*
X136863102Y-94909257D01*
X136838498Y-94898887D01*
X136818388Y-94890274D01*
X136803278Y-94883630D01*
X136793674Y-94879168D01*
X136790083Y-94877101D01*
X136790069Y-94877055D01*
X136792644Y-94874178D01*
X136800115Y-94866965D01*
X136812098Y-94855762D01*
X136828213Y-94840917D01*
X136848078Y-94822776D01*
X136871310Y-94801686D01*
X136897529Y-94777994D01*
X136926351Y-94752048D01*
X136957395Y-94724193D01*
X136990280Y-94694778D01*
X137015847Y-94671966D01*
X137241625Y-94470741D01*
X137256003Y-94431022D01*
X137284338Y-94360948D01*
X137317586Y-94294045D01*
X137356152Y-94229707D01*
X137400445Y-94167324D01*
X137450870Y-94106287D01*
X137507835Y-94045990D01*
X137524224Y-94029917D01*
X137591538Y-93969739D01*
X137664130Y-93914059D01*
X137741734Y-93863010D01*
X137824086Y-93816722D01*
X137910921Y-93775330D01*
X138001974Y-93738964D01*
X138096979Y-93707758D01*
X138195671Y-93681842D01*
X138241750Y-93671834D01*
X138286147Y-93663197D01*
X138325869Y-93656427D01*
X138362979Y-93651295D01*
X138399540Y-93647572D01*
X138437614Y-93645029D01*
X138479265Y-93643439D01*
X138502806Y-93642916D01*
X138549574Y-93642493D01*
X138591031Y-93643103D01*
D12*
X161190000Y-100200000D03*
X161190000Y-100600000D03*
X161190000Y-101000000D03*
X161190000Y-101400000D03*
X161190000Y-101800000D03*
X161190000Y-102200000D03*
X161190000Y-102600000D03*
X161190000Y-103000000D03*
X161190000Y-103400000D03*
X161190000Y-103800000D03*
X161190000Y-107800000D03*
X161190000Y-107400000D03*
X161190000Y-107000000D03*
X161190000Y-106600000D03*
X161190000Y-106200000D03*
X161190000Y-105800000D03*
X161190000Y-105400000D03*
X161190000Y-105000000D03*
X161190000Y-104600000D03*
X161190000Y-104200000D03*
X161190000Y-108200000D03*
X161190000Y-108600000D03*
X161190000Y-109000000D03*
X161190000Y-109400000D03*
X161190000Y-109800000D03*
X161190000Y-110200000D03*
X161190000Y-110600000D03*
X161190000Y-111000000D03*
X161190000Y-111400000D03*
X161190000Y-111800000D03*
X161190000Y-115800000D03*
X161190000Y-115400000D03*
X161190000Y-115000000D03*
X161190000Y-114600000D03*
X161190000Y-114200000D03*
X161190000Y-113800000D03*
X161190000Y-113400000D03*
X161190000Y-113000000D03*
X161190000Y-112600000D03*
X161190000Y-112200000D03*
X158110000Y-112200000D03*
X158110000Y-112600000D03*
X158110000Y-113000000D03*
X158110000Y-113400000D03*
X158110000Y-113800000D03*
X158110000Y-114200000D03*
X158110000Y-114600000D03*
X158110000Y-115000000D03*
X158110000Y-115400000D03*
X158110000Y-115800000D03*
X158110000Y-111800000D03*
X158110000Y-111400000D03*
X158110000Y-111000000D03*
X158110000Y-110600000D03*
X158110000Y-110200000D03*
X158110000Y-109800000D03*
X158110000Y-109400000D03*
X158110000Y-109000000D03*
X158110000Y-108600000D03*
X158110000Y-108200000D03*
X158110000Y-104200000D03*
X158110000Y-104600000D03*
X158110000Y-105000000D03*
X158110000Y-105400000D03*
X158110000Y-105800000D03*
X158110000Y-106200000D03*
X158110000Y-106600000D03*
X158110000Y-107000000D03*
X158110000Y-107400000D03*
X158110000Y-107800000D03*
X158110000Y-103800000D03*
X158110000Y-103400000D03*
X158110000Y-103000000D03*
X158110000Y-102600000D03*
X158110000Y-102200000D03*
X158110000Y-101800000D03*
X158110000Y-101400000D03*
X158110000Y-101000000D03*
X158110000Y-100600000D03*
X158110000Y-100200000D03*
D13*
X158461920Y-94250000D03*
X158461920Y-93599760D03*
X158461920Y-92949520D03*
X155800000Y-92949520D03*
X155800000Y-93599760D03*
X155800000Y-94250000D03*
X164300000Y-98250000D03*
X164300000Y-97599760D03*
X164300000Y-96949520D03*
X161638080Y-96949520D03*
X161638080Y-97599760D03*
X161638080Y-98250000D03*
X158611920Y-96700000D03*
X158611920Y-96049760D03*
X158611920Y-95399520D03*
X155950000Y-95399520D03*
X155950000Y-96049760D03*
X155950000Y-96700000D03*
D14*
X148360000Y-98440000D03*
D15*
X150900000Y-98440000D03*
X148360000Y-100980000D03*
X150900000Y-100980000D03*
X148360000Y-103520000D03*
X150900000Y-103520000D03*
X148360000Y-106060000D03*
X150900000Y-106060000D03*
X148360000Y-108600000D03*
X150900000Y-108600000D03*
X148360000Y-111140000D03*
X150900000Y-111140000D03*
D16*
X150380000Y-121760000D03*
M02*
