G04 #@! TF.FileFunction,Soldermask,Top*
%FSLAX46Y46*%
G04 Gerber Fmt 4.6, Leading zero omitted, Abs format (unit mm)*
G04 Created by KiCad (PCBNEW 4.0.1-stable) date Tuesday, April 12, 2016 'PMt' 11:24:06 PM*
%MOMM*%
G01*
G04 APERTURE LIST*
%ADD10C,0.100000*%
%ADD11C,0.010000*%
%ADD12C,2.000000*%
%ADD13R,1.653540X0.551180*%
%ADD14R,1.879600X1.879600*%
%ADD15O,1.879600X1.879600*%
%ADD16R,1.752400X2.152400*%
%ADD17R,2.184400X2.184400*%
%ADD18O,2.184400X2.184400*%
%ADD19R,1.953260X0.952500*%
%ADD20R,0.952500X1.953260*%
%ADD21R,1.052400X1.352400*%
%ADD22R,1.879600X2.184400*%
%ADD23O,1.879600X2.184400*%
%ADD24R,0.852400X0.352400*%
G04 APERTURE END LIST*
D10*
D11*
G36*
X136594564Y-120162271D02*
X136620508Y-120163488D01*
X136645124Y-120165595D01*
X136669568Y-120168681D01*
X136694999Y-120172837D01*
X136712168Y-120176069D01*
X136737517Y-120181313D01*
X136761699Y-120186924D01*
X136785431Y-120193132D01*
X136809429Y-120200164D01*
X136834412Y-120208250D01*
X136861095Y-120217618D01*
X136890196Y-120228498D01*
X136922433Y-120241118D01*
X136946820Y-120250936D01*
X136979200Y-120264238D01*
X137012073Y-120278047D01*
X137045715Y-120292494D01*
X137080404Y-120307708D01*
X137116417Y-120323820D01*
X137154031Y-120340959D01*
X137193524Y-120359255D01*
X137235172Y-120378839D01*
X137279253Y-120399840D01*
X137326044Y-120422389D01*
X137375822Y-120446615D01*
X137428864Y-120472648D01*
X137485448Y-120500619D01*
X137545850Y-120530657D01*
X137585459Y-120550436D01*
X137641490Y-120578404D01*
X137693559Y-120604279D01*
X137741988Y-120628209D01*
X137787102Y-120650343D01*
X137829224Y-120670830D01*
X137868679Y-120689819D01*
X137905790Y-120707457D01*
X137940881Y-120723895D01*
X137974276Y-120739280D01*
X138006299Y-120753762D01*
X138037273Y-120767489D01*
X138067524Y-120780610D01*
X138097374Y-120793274D01*
X138127148Y-120805629D01*
X138157169Y-120817825D01*
X138187761Y-120830009D01*
X138219249Y-120842331D01*
X138231029Y-120846892D01*
X138247479Y-120853261D01*
X138262757Y-120859205D01*
X138276184Y-120864460D01*
X138287085Y-120868759D01*
X138294780Y-120871837D01*
X138298479Y-120873374D01*
X138305453Y-120876501D01*
X138287374Y-120898146D01*
X138258873Y-120929827D01*
X138226092Y-120961893D01*
X138189528Y-120993967D01*
X138149680Y-121025672D01*
X138107044Y-121056630D01*
X138062117Y-121086464D01*
X138015398Y-121114796D01*
X137967384Y-121141249D01*
X137966143Y-121141898D01*
X137903462Y-121172677D01*
X137836875Y-121201709D01*
X137767059Y-121228797D01*
X137694691Y-121253741D01*
X137620448Y-121276345D01*
X137545008Y-121296410D01*
X137469046Y-121313739D01*
X137393242Y-121328134D01*
X137318271Y-121339396D01*
X137271876Y-121344783D01*
X137258122Y-121345864D01*
X137240842Y-121346713D01*
X137220936Y-121347329D01*
X137199304Y-121347713D01*
X137176847Y-121347865D01*
X137154465Y-121347784D01*
X137133058Y-121347470D01*
X137113527Y-121346924D01*
X137096772Y-121346145D01*
X137083693Y-121345133D01*
X137080771Y-121344803D01*
X137032644Y-121337101D01*
X136988278Y-121326442D01*
X136947693Y-121312833D01*
X136910913Y-121296281D01*
X136877956Y-121276793D01*
X136865357Y-121267808D01*
X136837485Y-121244111D01*
X136813707Y-121217997D01*
X136793783Y-121189136D01*
X136777472Y-121157199D01*
X136769275Y-121136296D01*
X136762956Y-121116987D01*
X136758438Y-121099431D01*
X136755478Y-121082095D01*
X136753830Y-121063448D01*
X136753252Y-121041961D01*
X136753248Y-121035593D01*
X136753385Y-120996576D01*
X136737590Y-120994957D01*
X136721795Y-120993339D01*
X136704736Y-121004946D01*
X136687676Y-121016553D01*
X136686971Y-121039534D01*
X136688042Y-121071744D01*
X136692967Y-121105431D01*
X136701445Y-121139588D01*
X136713179Y-121173208D01*
X136727870Y-121205285D01*
X136744657Y-121233962D01*
X136769193Y-121266774D01*
X136797306Y-121296339D01*
X136828984Y-121322649D01*
X136864212Y-121345697D01*
X136902975Y-121365476D01*
X136945260Y-121381978D01*
X136991051Y-121395197D01*
X137040335Y-121405126D01*
X137093098Y-121411756D01*
X137099165Y-121412288D01*
X137118351Y-121413440D01*
X137141266Y-121414063D01*
X137166833Y-121414181D01*
X137193974Y-121413821D01*
X137221613Y-121413010D01*
X137248672Y-121411773D01*
X137274074Y-121410135D01*
X137296742Y-121408124D01*
X137303696Y-121407353D01*
X137380758Y-121396672D01*
X137458900Y-121382752D01*
X137537359Y-121365807D01*
X137615372Y-121346049D01*
X137692179Y-121323691D01*
X137767018Y-121298945D01*
X137839126Y-121272024D01*
X137907742Y-121243141D01*
X137932519Y-121231800D01*
X137992409Y-121202174D01*
X138049890Y-121170605D01*
X138104644Y-121137323D01*
X138156355Y-121102560D01*
X138204708Y-121066548D01*
X138249385Y-121029519D01*
X138290071Y-120991703D01*
X138326449Y-120953332D01*
X138348167Y-120927539D01*
X138358329Y-120915158D01*
X138365981Y-120906607D01*
X138371308Y-120901697D01*
X138374493Y-120900240D01*
X138374730Y-120900285D01*
X138384725Y-120902780D01*
X138398746Y-120905610D01*
X138416003Y-120908661D01*
X138435705Y-120911818D01*
X138457062Y-120914969D01*
X138479283Y-120917997D01*
X138501576Y-120920789D01*
X138523152Y-120923231D01*
X138543220Y-120925208D01*
X138552762Y-120926012D01*
X138573511Y-120927203D01*
X138596492Y-120927670D01*
X138622009Y-120927395D01*
X138650366Y-120926358D01*
X138681869Y-120924543D01*
X138716823Y-120921929D01*
X138755531Y-120918500D01*
X138798300Y-120914236D01*
X138845433Y-120909119D01*
X138859981Y-120907471D01*
X138927135Y-120899370D01*
X138998732Y-120889916D01*
X139074583Y-120879144D01*
X139154497Y-120867088D01*
X139238283Y-120853784D01*
X139325750Y-120839265D01*
X139416708Y-120823566D01*
X139510966Y-120806722D01*
X139608333Y-120788769D01*
X139708619Y-120769740D01*
X139811632Y-120749670D01*
X139917183Y-120728594D01*
X140025080Y-120706547D01*
X140135133Y-120683564D01*
X140247152Y-120659679D01*
X140360945Y-120634926D01*
X140380352Y-120630657D01*
X140401975Y-120625927D01*
X140422593Y-120621482D01*
X140441624Y-120617445D01*
X140458484Y-120613935D01*
X140472589Y-120611074D01*
X140483356Y-120608982D01*
X140490202Y-120607780D01*
X140491629Y-120607585D01*
X140510403Y-120607642D01*
X140530267Y-120611479D01*
X140549974Y-120618639D01*
X140568279Y-120628666D01*
X140583935Y-120641103D01*
X140584424Y-120641581D01*
X140591801Y-120650057D01*
X140600869Y-120662486D01*
X140611370Y-120678394D01*
X140623044Y-120697306D01*
X140635631Y-120718748D01*
X140648871Y-120742247D01*
X140662504Y-120767328D01*
X140676272Y-120793518D01*
X140689913Y-120820341D01*
X140703169Y-120847324D01*
X140715780Y-120873993D01*
X140727485Y-120899874D01*
X140733472Y-120913666D01*
X140752315Y-120960939D01*
X140767317Y-121005460D01*
X140778473Y-121047204D01*
X140785779Y-121086151D01*
X140789234Y-121122277D01*
X140788833Y-121155560D01*
X140784574Y-121185977D01*
X140776922Y-121212272D01*
X140770352Y-121226166D01*
X140761051Y-121241192D01*
X140750218Y-121255659D01*
X140739050Y-121267874D01*
X140734947Y-121271590D01*
X140724394Y-121279757D01*
X140712999Y-121286968D01*
X140700387Y-121293298D01*
X140686185Y-121298822D01*
X140670021Y-121303616D01*
X140651521Y-121307756D01*
X140630313Y-121311316D01*
X140606022Y-121314373D01*
X140578277Y-121317002D01*
X140546703Y-121319278D01*
X140510928Y-121321277D01*
X140483162Y-121322554D01*
X140469605Y-121323088D01*
X140451894Y-121323715D01*
X140430714Y-121324415D01*
X140406747Y-121325168D01*
X140380677Y-121325951D01*
X140353188Y-121326745D01*
X140324962Y-121327528D01*
X140296684Y-121328281D01*
X140282381Y-121328648D01*
X140209719Y-121330565D01*
X140141484Y-121332528D01*
X140077266Y-121334558D01*
X140016652Y-121336674D01*
X139959233Y-121338897D01*
X139904597Y-121341247D01*
X139852333Y-121343745D01*
X139802031Y-121346410D01*
X139753279Y-121349262D01*
X139705667Y-121352322D01*
X139658783Y-121355611D01*
X139612217Y-121359147D01*
X139565557Y-121362952D01*
X139540943Y-121365059D01*
X139436434Y-121374875D01*
X139335971Y-121385858D01*
X139238873Y-121398149D01*
X139144460Y-121411888D01*
X139052053Y-121427215D01*
X138960972Y-121444270D01*
X138870536Y-121463195D01*
X138780066Y-121484128D01*
X138688882Y-121507210D01*
X138596303Y-121532582D01*
X138501651Y-121560384D01*
X138404245Y-121590757D01*
X138330210Y-121614897D01*
X138291363Y-121627856D01*
X138255412Y-121640038D01*
X138221965Y-121651626D01*
X138190630Y-121662802D01*
X138161014Y-121673748D01*
X138132726Y-121684647D01*
X138105374Y-121695682D01*
X138078565Y-121707035D01*
X138051908Y-121718888D01*
X138025011Y-121731425D01*
X137997481Y-121744827D01*
X137968927Y-121759277D01*
X137938956Y-121774959D01*
X137907176Y-121792053D01*
X137873196Y-121810743D01*
X137836624Y-121831212D01*
X137797066Y-121853641D01*
X137754132Y-121878213D01*
X137709724Y-121903788D01*
X137675306Y-121923624D01*
X137644607Y-121941252D01*
X137617175Y-121956919D01*
X137592562Y-121970873D01*
X137570318Y-121983363D01*
X137549993Y-121994636D01*
X137531136Y-122004941D01*
X137513299Y-122014525D01*
X137496031Y-122023636D01*
X137478882Y-122032523D01*
X137461404Y-122041433D01*
X137446048Y-122049162D01*
X137401259Y-122071051D01*
X137359576Y-122090225D01*
X137320282Y-122106930D01*
X137282658Y-122121415D01*
X137245986Y-122133927D01*
X137209550Y-122144716D01*
X137172629Y-122154028D01*
X137134508Y-122162111D01*
X137101955Y-122167979D01*
X137061308Y-122174412D01*
X137023878Y-122179468D01*
X136988278Y-122183258D01*
X136953120Y-122185896D01*
X136917020Y-122187492D01*
X136878589Y-122188158D01*
X136852171Y-122188149D01*
X136833939Y-122188012D01*
X136816766Y-122187835D01*
X136801402Y-122187630D01*
X136788598Y-122187407D01*
X136779102Y-122187178D01*
X136773667Y-122186955D01*
X136773552Y-122186947D01*
X136711121Y-122180765D01*
X136649537Y-122171409D01*
X136589390Y-122159029D01*
X136531264Y-122143776D01*
X136475747Y-122125800D01*
X136423426Y-122105253D01*
X136383886Y-122086875D01*
X136325028Y-122054716D01*
X136267684Y-122018002D01*
X136211906Y-121976788D01*
X136157747Y-121931130D01*
X136105259Y-121881086D01*
X136054494Y-121826710D01*
X136005504Y-121768060D01*
X135958342Y-121705192D01*
X135913060Y-121638161D01*
X135869710Y-121567024D01*
X135828344Y-121491837D01*
X135825377Y-121486140D01*
X135800001Y-121434703D01*
X135776334Y-121381393D01*
X135754132Y-121325569D01*
X135733147Y-121266594D01*
X135713134Y-121203827D01*
X135701818Y-121165234D01*
X135696630Y-121147002D01*
X135528124Y-121079030D01*
X135501054Y-121068076D01*
X135475329Y-121057600D01*
X135451297Y-121047746D01*
X135429304Y-121038662D01*
X135409699Y-121030491D01*
X135392827Y-121023380D01*
X135379038Y-121017474D01*
X135368676Y-121012918D01*
X135362091Y-121009859D01*
X135359628Y-121008441D01*
X135359619Y-121008409D01*
X135361385Y-121006437D01*
X135366507Y-121001490D01*
X135374724Y-120993808D01*
X135385775Y-120983629D01*
X135399396Y-120971189D01*
X135415327Y-120956728D01*
X135433305Y-120940482D01*
X135453069Y-120922690D01*
X135474357Y-120903590D01*
X135496906Y-120883419D01*
X135514438Y-120867777D01*
X135669257Y-120729794D01*
X135679116Y-120702558D01*
X135698546Y-120654507D01*
X135721344Y-120608631D01*
X135747790Y-120564513D01*
X135778162Y-120521736D01*
X135812739Y-120479883D01*
X135851801Y-120438536D01*
X135863039Y-120427515D01*
X135909198Y-120386250D01*
X135958975Y-120348069D01*
X136012189Y-120313064D01*
X136068659Y-120281324D01*
X136128203Y-120252941D01*
X136190639Y-120228004D01*
X136255785Y-120206605D01*
X136323460Y-120188835D01*
X136355057Y-120181972D01*
X136385501Y-120176050D01*
X136412739Y-120171407D01*
X136438186Y-120167888D01*
X136463256Y-120165335D01*
X136489364Y-120163592D01*
X136517925Y-120162501D01*
X136534067Y-120162143D01*
X136566136Y-120161853D01*
X136594564Y-120162271D01*
X136594564Y-120162271D01*
G37*
X136594564Y-120162271D02*
X136620508Y-120163488D01*
X136645124Y-120165595D01*
X136669568Y-120168681D01*
X136694999Y-120172837D01*
X136712168Y-120176069D01*
X136737517Y-120181313D01*
X136761699Y-120186924D01*
X136785431Y-120193132D01*
X136809429Y-120200164D01*
X136834412Y-120208250D01*
X136861095Y-120217618D01*
X136890196Y-120228498D01*
X136922433Y-120241118D01*
X136946820Y-120250936D01*
X136979200Y-120264238D01*
X137012073Y-120278047D01*
X137045715Y-120292494D01*
X137080404Y-120307708D01*
X137116417Y-120323820D01*
X137154031Y-120340959D01*
X137193524Y-120359255D01*
X137235172Y-120378839D01*
X137279253Y-120399840D01*
X137326044Y-120422389D01*
X137375822Y-120446615D01*
X137428864Y-120472648D01*
X137485448Y-120500619D01*
X137545850Y-120530657D01*
X137585459Y-120550436D01*
X137641490Y-120578404D01*
X137693559Y-120604279D01*
X137741988Y-120628209D01*
X137787102Y-120650343D01*
X137829224Y-120670830D01*
X137868679Y-120689819D01*
X137905790Y-120707457D01*
X137940881Y-120723895D01*
X137974276Y-120739280D01*
X138006299Y-120753762D01*
X138037273Y-120767489D01*
X138067524Y-120780610D01*
X138097374Y-120793274D01*
X138127148Y-120805629D01*
X138157169Y-120817825D01*
X138187761Y-120830009D01*
X138219249Y-120842331D01*
X138231029Y-120846892D01*
X138247479Y-120853261D01*
X138262757Y-120859205D01*
X138276184Y-120864460D01*
X138287085Y-120868759D01*
X138294780Y-120871837D01*
X138298479Y-120873374D01*
X138305453Y-120876501D01*
X138287374Y-120898146D01*
X138258873Y-120929827D01*
X138226092Y-120961893D01*
X138189528Y-120993967D01*
X138149680Y-121025672D01*
X138107044Y-121056630D01*
X138062117Y-121086464D01*
X138015398Y-121114796D01*
X137967384Y-121141249D01*
X137966143Y-121141898D01*
X137903462Y-121172677D01*
X137836875Y-121201709D01*
X137767059Y-121228797D01*
X137694691Y-121253741D01*
X137620448Y-121276345D01*
X137545008Y-121296410D01*
X137469046Y-121313739D01*
X137393242Y-121328134D01*
X137318271Y-121339396D01*
X137271876Y-121344783D01*
X137258122Y-121345864D01*
X137240842Y-121346713D01*
X137220936Y-121347329D01*
X137199304Y-121347713D01*
X137176847Y-121347865D01*
X137154465Y-121347784D01*
X137133058Y-121347470D01*
X137113527Y-121346924D01*
X137096772Y-121346145D01*
X137083693Y-121345133D01*
X137080771Y-121344803D01*
X137032644Y-121337101D01*
X136988278Y-121326442D01*
X136947693Y-121312833D01*
X136910913Y-121296281D01*
X136877956Y-121276793D01*
X136865357Y-121267808D01*
X136837485Y-121244111D01*
X136813707Y-121217997D01*
X136793783Y-121189136D01*
X136777472Y-121157199D01*
X136769275Y-121136296D01*
X136762956Y-121116987D01*
X136758438Y-121099431D01*
X136755478Y-121082095D01*
X136753830Y-121063448D01*
X136753252Y-121041961D01*
X136753248Y-121035593D01*
X136753385Y-120996576D01*
X136737590Y-120994957D01*
X136721795Y-120993339D01*
X136704736Y-121004946D01*
X136687676Y-121016553D01*
X136686971Y-121039534D01*
X136688042Y-121071744D01*
X136692967Y-121105431D01*
X136701445Y-121139588D01*
X136713179Y-121173208D01*
X136727870Y-121205285D01*
X136744657Y-121233962D01*
X136769193Y-121266774D01*
X136797306Y-121296339D01*
X136828984Y-121322649D01*
X136864212Y-121345697D01*
X136902975Y-121365476D01*
X136945260Y-121381978D01*
X136991051Y-121395197D01*
X137040335Y-121405126D01*
X137093098Y-121411756D01*
X137099165Y-121412288D01*
X137118351Y-121413440D01*
X137141266Y-121414063D01*
X137166833Y-121414181D01*
X137193974Y-121413821D01*
X137221613Y-121413010D01*
X137248672Y-121411773D01*
X137274074Y-121410135D01*
X137296742Y-121408124D01*
X137303696Y-121407353D01*
X137380758Y-121396672D01*
X137458900Y-121382752D01*
X137537359Y-121365807D01*
X137615372Y-121346049D01*
X137692179Y-121323691D01*
X137767018Y-121298945D01*
X137839126Y-121272024D01*
X137907742Y-121243141D01*
X137932519Y-121231800D01*
X137992409Y-121202174D01*
X138049890Y-121170605D01*
X138104644Y-121137323D01*
X138156355Y-121102560D01*
X138204708Y-121066548D01*
X138249385Y-121029519D01*
X138290071Y-120991703D01*
X138326449Y-120953332D01*
X138348167Y-120927539D01*
X138358329Y-120915158D01*
X138365981Y-120906607D01*
X138371308Y-120901697D01*
X138374493Y-120900240D01*
X138374730Y-120900285D01*
X138384725Y-120902780D01*
X138398746Y-120905610D01*
X138416003Y-120908661D01*
X138435705Y-120911818D01*
X138457062Y-120914969D01*
X138479283Y-120917997D01*
X138501576Y-120920789D01*
X138523152Y-120923231D01*
X138543220Y-120925208D01*
X138552762Y-120926012D01*
X138573511Y-120927203D01*
X138596492Y-120927670D01*
X138622009Y-120927395D01*
X138650366Y-120926358D01*
X138681869Y-120924543D01*
X138716823Y-120921929D01*
X138755531Y-120918500D01*
X138798300Y-120914236D01*
X138845433Y-120909119D01*
X138859981Y-120907471D01*
X138927135Y-120899370D01*
X138998732Y-120889916D01*
X139074583Y-120879144D01*
X139154497Y-120867088D01*
X139238283Y-120853784D01*
X139325750Y-120839265D01*
X139416708Y-120823566D01*
X139510966Y-120806722D01*
X139608333Y-120788769D01*
X139708619Y-120769740D01*
X139811632Y-120749670D01*
X139917183Y-120728594D01*
X140025080Y-120706547D01*
X140135133Y-120683564D01*
X140247152Y-120659679D01*
X140360945Y-120634926D01*
X140380352Y-120630657D01*
X140401975Y-120625927D01*
X140422593Y-120621482D01*
X140441624Y-120617445D01*
X140458484Y-120613935D01*
X140472589Y-120611074D01*
X140483356Y-120608982D01*
X140490202Y-120607780D01*
X140491629Y-120607585D01*
X140510403Y-120607642D01*
X140530267Y-120611479D01*
X140549974Y-120618639D01*
X140568279Y-120628666D01*
X140583935Y-120641103D01*
X140584424Y-120641581D01*
X140591801Y-120650057D01*
X140600869Y-120662486D01*
X140611370Y-120678394D01*
X140623044Y-120697306D01*
X140635631Y-120718748D01*
X140648871Y-120742247D01*
X140662504Y-120767328D01*
X140676272Y-120793518D01*
X140689913Y-120820341D01*
X140703169Y-120847324D01*
X140715780Y-120873993D01*
X140727485Y-120899874D01*
X140733472Y-120913666D01*
X140752315Y-120960939D01*
X140767317Y-121005460D01*
X140778473Y-121047204D01*
X140785779Y-121086151D01*
X140789234Y-121122277D01*
X140788833Y-121155560D01*
X140784574Y-121185977D01*
X140776922Y-121212272D01*
X140770352Y-121226166D01*
X140761051Y-121241192D01*
X140750218Y-121255659D01*
X140739050Y-121267874D01*
X140734947Y-121271590D01*
X140724394Y-121279757D01*
X140712999Y-121286968D01*
X140700387Y-121293298D01*
X140686185Y-121298822D01*
X140670021Y-121303616D01*
X140651521Y-121307756D01*
X140630313Y-121311316D01*
X140606022Y-121314373D01*
X140578277Y-121317002D01*
X140546703Y-121319278D01*
X140510928Y-121321277D01*
X140483162Y-121322554D01*
X140469605Y-121323088D01*
X140451894Y-121323715D01*
X140430714Y-121324415D01*
X140406747Y-121325168D01*
X140380677Y-121325951D01*
X140353188Y-121326745D01*
X140324962Y-121327528D01*
X140296684Y-121328281D01*
X140282381Y-121328648D01*
X140209719Y-121330565D01*
X140141484Y-121332528D01*
X140077266Y-121334558D01*
X140016652Y-121336674D01*
X139959233Y-121338897D01*
X139904597Y-121341247D01*
X139852333Y-121343745D01*
X139802031Y-121346410D01*
X139753279Y-121349262D01*
X139705667Y-121352322D01*
X139658783Y-121355611D01*
X139612217Y-121359147D01*
X139565557Y-121362952D01*
X139540943Y-121365059D01*
X139436434Y-121374875D01*
X139335971Y-121385858D01*
X139238873Y-121398149D01*
X139144460Y-121411888D01*
X139052053Y-121427215D01*
X138960972Y-121444270D01*
X138870536Y-121463195D01*
X138780066Y-121484128D01*
X138688882Y-121507210D01*
X138596303Y-121532582D01*
X138501651Y-121560384D01*
X138404245Y-121590757D01*
X138330210Y-121614897D01*
X138291363Y-121627856D01*
X138255412Y-121640038D01*
X138221965Y-121651626D01*
X138190630Y-121662802D01*
X138161014Y-121673748D01*
X138132726Y-121684647D01*
X138105374Y-121695682D01*
X138078565Y-121707035D01*
X138051908Y-121718888D01*
X138025011Y-121731425D01*
X137997481Y-121744827D01*
X137968927Y-121759277D01*
X137938956Y-121774959D01*
X137907176Y-121792053D01*
X137873196Y-121810743D01*
X137836624Y-121831212D01*
X137797066Y-121853641D01*
X137754132Y-121878213D01*
X137709724Y-121903788D01*
X137675306Y-121923624D01*
X137644607Y-121941252D01*
X137617175Y-121956919D01*
X137592562Y-121970873D01*
X137570318Y-121983363D01*
X137549993Y-121994636D01*
X137531136Y-122004941D01*
X137513299Y-122014525D01*
X137496031Y-122023636D01*
X137478882Y-122032523D01*
X137461404Y-122041433D01*
X137446048Y-122049162D01*
X137401259Y-122071051D01*
X137359576Y-122090225D01*
X137320282Y-122106930D01*
X137282658Y-122121415D01*
X137245986Y-122133927D01*
X137209550Y-122144716D01*
X137172629Y-122154028D01*
X137134508Y-122162111D01*
X137101955Y-122167979D01*
X137061308Y-122174412D01*
X137023878Y-122179468D01*
X136988278Y-122183258D01*
X136953120Y-122185896D01*
X136917020Y-122187492D01*
X136878589Y-122188158D01*
X136852171Y-122188149D01*
X136833939Y-122188012D01*
X136816766Y-122187835D01*
X136801402Y-122187630D01*
X136788598Y-122187407D01*
X136779102Y-122187178D01*
X136773667Y-122186955D01*
X136773552Y-122186947D01*
X136711121Y-122180765D01*
X136649537Y-122171409D01*
X136589390Y-122159029D01*
X136531264Y-122143776D01*
X136475747Y-122125800D01*
X136423426Y-122105253D01*
X136383886Y-122086875D01*
X136325028Y-122054716D01*
X136267684Y-122018002D01*
X136211906Y-121976788D01*
X136157747Y-121931130D01*
X136105259Y-121881086D01*
X136054494Y-121826710D01*
X136005504Y-121768060D01*
X135958342Y-121705192D01*
X135913060Y-121638161D01*
X135869710Y-121567024D01*
X135828344Y-121491837D01*
X135825377Y-121486140D01*
X135800001Y-121434703D01*
X135776334Y-121381393D01*
X135754132Y-121325569D01*
X135733147Y-121266594D01*
X135713134Y-121203827D01*
X135701818Y-121165234D01*
X135696630Y-121147002D01*
X135528124Y-121079030D01*
X135501054Y-121068076D01*
X135475329Y-121057600D01*
X135451297Y-121047746D01*
X135429304Y-121038662D01*
X135409699Y-121030491D01*
X135392827Y-121023380D01*
X135379038Y-121017474D01*
X135368676Y-121012918D01*
X135362091Y-121009859D01*
X135359628Y-121008441D01*
X135359619Y-121008409D01*
X135361385Y-121006437D01*
X135366507Y-121001490D01*
X135374724Y-120993808D01*
X135385775Y-120983629D01*
X135399396Y-120971189D01*
X135415327Y-120956728D01*
X135433305Y-120940482D01*
X135453069Y-120922690D01*
X135474357Y-120903590D01*
X135496906Y-120883419D01*
X135514438Y-120867777D01*
X135669257Y-120729794D01*
X135679116Y-120702558D01*
X135698546Y-120654507D01*
X135721344Y-120608631D01*
X135747790Y-120564513D01*
X135778162Y-120521736D01*
X135812739Y-120479883D01*
X135851801Y-120438536D01*
X135863039Y-120427515D01*
X135909198Y-120386250D01*
X135958975Y-120348069D01*
X136012189Y-120313064D01*
X136068659Y-120281324D01*
X136128203Y-120252941D01*
X136190639Y-120228004D01*
X136255785Y-120206605D01*
X136323460Y-120188835D01*
X136355057Y-120181972D01*
X136385501Y-120176050D01*
X136412739Y-120171407D01*
X136438186Y-120167888D01*
X136463256Y-120165335D01*
X136489364Y-120163592D01*
X136517925Y-120162501D01*
X136534067Y-120162143D01*
X136566136Y-120161853D01*
X136594564Y-120162271D01*
D12*
X160600000Y-124650000D03*
X131350000Y-95400000D03*
D13*
X158461920Y-94250000D03*
X158461920Y-93599760D03*
X158461920Y-92949520D03*
X155800000Y-92949520D03*
X155800000Y-93599760D03*
X155800000Y-94250000D03*
X164300000Y-98250000D03*
X164300000Y-97599760D03*
X164300000Y-96949520D03*
X161638080Y-96949520D03*
X161638080Y-97599760D03*
X161638080Y-98250000D03*
X158611920Y-96700000D03*
X158611920Y-96049760D03*
X158611920Y-95399520D03*
X155950000Y-95399520D03*
X155950000Y-96049760D03*
X155950000Y-96700000D03*
D14*
X148360000Y-98440000D03*
D15*
X150900000Y-98440000D03*
X148360000Y-100980000D03*
X150900000Y-100980000D03*
X148360000Y-103520000D03*
X150900000Y-103520000D03*
X148360000Y-106060000D03*
X150900000Y-106060000D03*
X148360000Y-108600000D03*
X150900000Y-108600000D03*
X148360000Y-111140000D03*
X150900000Y-111140000D03*
D16*
X153525000Y-109750000D03*
X153525000Y-105750000D03*
D17*
X140375000Y-92085000D03*
D18*
X140375000Y-94625000D03*
D19*
X157525000Y-123025000D03*
X157525000Y-121125000D03*
X154522720Y-122075000D03*
D20*
X136400000Y-94826140D03*
X138300000Y-94826140D03*
X137350000Y-91823860D03*
D21*
X153950000Y-117850000D03*
X153950000Y-120050000D03*
D22*
X142800000Y-121000000D03*
D23*
X145340000Y-121000000D03*
X147880000Y-121000000D03*
X150420000Y-121000000D03*
D24*
X161190000Y-100200000D03*
X161190000Y-100600000D03*
X161190000Y-101000000D03*
X161190000Y-101400000D03*
X161190000Y-101800000D03*
X161190000Y-102200000D03*
X161190000Y-102600000D03*
X161190000Y-103000000D03*
X161190000Y-103400000D03*
X161190000Y-103800000D03*
X161190000Y-107800000D03*
X161190000Y-107400000D03*
X161190000Y-107000000D03*
X161190000Y-106600000D03*
X161190000Y-106200000D03*
X161190000Y-105800000D03*
X161190000Y-105400000D03*
X161190000Y-105000000D03*
X161190000Y-104600000D03*
X161190000Y-104200000D03*
X161190000Y-108200000D03*
X161190000Y-108600000D03*
X161190000Y-109000000D03*
X161190000Y-109400000D03*
X161190000Y-109800000D03*
X161190000Y-110200000D03*
X161190000Y-110600000D03*
X161190000Y-111000000D03*
X161190000Y-111400000D03*
X161190000Y-111800000D03*
X161190000Y-115800000D03*
X161190000Y-115400000D03*
X161190000Y-115000000D03*
X161190000Y-114600000D03*
X161190000Y-114200000D03*
X161190000Y-113800000D03*
X161190000Y-113400000D03*
X161190000Y-113000000D03*
X161190000Y-112600000D03*
X161190000Y-112200000D03*
X158110000Y-112200000D03*
X158110000Y-112600000D03*
X158110000Y-113000000D03*
X158110000Y-113400000D03*
X158110000Y-113800000D03*
X158110000Y-114200000D03*
X158110000Y-114600000D03*
X158110000Y-115000000D03*
X158110000Y-115400000D03*
X158110000Y-115800000D03*
X158110000Y-111800000D03*
X158110000Y-111400000D03*
X158110000Y-111000000D03*
X158110000Y-110600000D03*
X158110000Y-110200000D03*
X158110000Y-109800000D03*
X158110000Y-109400000D03*
X158110000Y-109000000D03*
X158110000Y-108600000D03*
X158110000Y-108200000D03*
X158110000Y-104200000D03*
X158110000Y-104600000D03*
X158110000Y-105000000D03*
X158110000Y-105400000D03*
X158110000Y-105800000D03*
X158110000Y-106200000D03*
X158110000Y-106600000D03*
X158110000Y-107000000D03*
X158110000Y-107400000D03*
X158110000Y-107800000D03*
X158110000Y-103800000D03*
X158110000Y-103400000D03*
X158110000Y-103000000D03*
X158110000Y-102600000D03*
X158110000Y-102200000D03*
X158110000Y-101800000D03*
X158110000Y-101400000D03*
X158110000Y-101000000D03*
X158110000Y-100600000D03*
X158110000Y-100200000D03*
D12*
X131400000Y-120700000D03*
M02*
